<svg width="460" height="300" fill="none" xmlns="http://www.w3.org/2000/svg"><path fill-rule="evenodd" clip-rule="evenodd" d="M218.22 124.256c-2.735 8.123-4.103 16.871-4.103 26.244 0 42.271 3.373 71.97 5.865 73.033 1.734.74 8.695 3.038 25.128 3.729 8.605.362 26.755.362 54.45 0l24.688 21.975c-3.928-6.653-6.774-11.874-8.536-15.661-2.644-5.681-1.031-7.214 1.023-7.214 9.375 0 29.302-1.68 30.956-4.41 1.103-1.82 1.654-4.02 1.654-6.6-2.832 3.939-7.46 6.139-13.883 6.6-43.486 3.124-93.552.652-104.088-8.137-11.504-9.598-15.889-39.451-13.154-89.559Z" fill="#FFC973"/><path fill-rule="evenodd" clip-rule="evenodd" d="M259.254 155.184c-2.284 2.108-3.731 3.825-4.339 5.15-3.15 6.858 1.641 21.503 9.991 28.729 7.848 6.791 13.457 11.051 16.825 12.779 5.484-2.534 9.429-4.677 11.835-6.43 2.405-1.753 5.359-4.638 8.863-8.655-6.833 5.77-12.548 8.655-17.146 8.655-7.098 0-16.039-10.499-17.283-22.518-1.221-11.807-4.137-17.71-8.746-17.71ZM99.554 91c-.916 18.601-1.18 31.908-.79 39.922 1.438 29.523 3.842 47.417 5.142 48.482 2.344 1.919 12.099 3.048 29.265 3.386l-1.654 25.388c3.485-8.024 5.922-13.37 7.312-16.037 2.775-5.326 4.138-8.37 7.93-8.64 6.641-.474 29.094-1.334 67.358-2.578l4.103-56.667c1.271-.839 3.093-1.532 5.466-2.081 2.372-.548 5.959-1.104 10.759-1.668v-5.819c-11.074 1.609-17.85 4.104-20.328 7.487-3.718 5.075-3.904 33.164-3.904 45.443 0 1.19.341 5.711-1.04 6.677-12.862 9.003-80.936 4.968-94.547-3.094-10.048-5.952-15.072-32.685-15.072-80.201Z" fill="#FFC973"/><path fill-rule="evenodd" clip-rule="evenodd" d="M146.397 106.241c-1.679 4.308-.64 7.958.395 9.144.723.828 2.427 2.02 4.627 1.773 4.838-.545 10.271-3.155 12.84 0 1.459 1.791 2.463 5.194 1.433 8.028-2.337 6.427-9.635 10.209-8.466 17.16.633 3.758 4.491 5.995 9.291 5.654 4.219-.3 7.069-1.966 8.55-5-8.143 3.561-12.759 2.719-13.846-2.524-1.63-7.865 8.974-11.783 7.913-25.847-.947-12.544-20.235-14.809-22.737-8.388ZM163.39 155.589c-1.831 2.51-2.25 4.833-1.257 6.968.602 1.297 2.531 3.429 4.896 3.443 1.059.007 2.964-.799 5.715-2.417-3.466 1.04-5.199-.155-5.199-3.583 0-3.428-1.385-4.898-4.155-4.411Z" fill="#FFC973"/><path clip-rule="evenodd" d="M312.733 50.76c1.998-2.056 70.573-2.62 73.896 0 2.215 1.746 2.215 13.828 0 36.246l-6.653-9.743c-41.91.908-63.838.732-65.782-.53-2.916-1.893-3.458-23.917-1.461-25.973Z" stroke="#E1E4EA" stroke-linecap="round" stroke-linejoin="round"/><path d="M348.228 44.835c.62-6.684.334-14.834-.896-16.075-2.038-2.056-61.701-2.62-65.092 0-2.26 1.746-2.26 13.495 0 35.246l6.787-9.743c8.172.193 14.032.32 17.579.382M355.092 219.223c8.669.26 15.115.758 15.988 1.538 1.954 1.746 1.954 19.495 0 45.246l-5.869-9.743c-40.503.908-61.613.732-63.328-.53-1.425-1.049-2.208-13.816-2.322-21.774M95.28 195.399c-.057 3.845-.607 11.714-1.65 23.607l-6.653-9.743c-45.91.909-65.838.732-67.782-.53-2.916-1.893-2.694-23.176-.696-25.232 1.998-2.056 21.167-1.602 42.853-1.488" stroke="#E1E4EA" stroke-linecap="round" stroke-linejoin="round"/><path clip-rule="evenodd" d="M427.378 151.664c-1.962-1.944-43.939-2.477-47.202 0-2.175 1.652-2.175 12.764 0 33.336l6.532-9.215c24.248.859 37.326.692 39.235-.501 2.864-1.791 3.396-21.675 1.435-23.62ZM415.222 119.999c1.138-1.167 25.484-1.487 27.377 0 1.261.991 1.261 7.658 0 20.001l-3.789-5.529c-14.064.516-21.649.415-22.756-.301-1.661-1.074-1.97-13.005-.832-14.171ZM178.985 21.856c-.942-1-21.091-1.274-22.657 0-1.044.85-1.044 6.564 0 17.144l3.135-4.74c11.639.443 17.917.357 18.833-.257 1.375-.92 1.63-11.147.689-12.147ZM50.339 102.189c1.333-1.389 29.878-1.77 32.097 0 1.479 1.18 1.479 9.117 0 23.811l-4.442-6.582c-16.489.614-25.382.494-26.68-.358-1.947-1.279-2.31-15.482-.975-16.871ZM200.775 225.189c-1.295-1.389-29-1.77-31.153 0-1.436 1.18-1.436 9.117 0 23.811l4.311-6.582c16.003.614 24.635.494 25.895-.358 1.89-1.279 2.241-15.482.947-16.871Z" stroke="#E1E4EA" stroke-linecap="round" stroke-linejoin="round"/><path d="M219.684 73.397c.051-2.578.18-5.714.669-6.208 1.373-1.39 30.756-1.77 33.041 0 1.522 1.18 1.522 9.117 0 23.811l-4.573-6.582c-3.522.12-9.86.12-11.711 0M295.169 249.236c-5.512.235-9.573.65-10.306 1.279-1.757 1.503-1.757 11.331 0 29.484l5.273-8.388c27.331.782 41.768.63 43.309-.456 1.115-.787 1.792-5.205 2.017-9.767" stroke="#E1E4EA" stroke-linecap="round" stroke-linejoin="round"/><path clip-rule="evenodd" d="M95.367 33.662c-1.98-1.942-58.883-2.474-62.176 0-2.195 1.649-2.195 12.428 0 32.338l6.593-9.2c34.164.858 52.209.69 54.135-.5 2.89-1.788 3.428-20.697 1.448-22.638Z" stroke="#E1E4EA" stroke-linecap="round" stroke-linejoin="round"/><path d="M95.677 168.002c-13.44.03-25.99.489-27.485 1.513-2.196 1.504-2.196 11.332 0 29.485l6.592-8.388c19.465.342 36.834.121 39.802-.384 1.978-.337 3.158-1.322 3.538-2.957" stroke="#E1E4EA" stroke-linecap="round" stroke-linejoin="round"/><path clip-rule="evenodd" d="M126.48 253.271c-1.791-1.485-46.468-1.892-49.446 0-1.985 1.261-1.985 9.504 0 24.729l5.962-7.036c26.374.657 40.432.529 42.174-.382 2.614-1.367 3.1-15.827 1.31-17.311Z" stroke="#E1E4EA" stroke-linecap="round" stroke-linejoin="round"/><path d="m326.7 56.937 43.992-.873M326.809 64.156l43.993-.873M339.721 70.93l30.525-.637M57.004 107.787h18.495M194.545 230.787h-18M62.906 113H75.5M188.644 236H176.05M81.885 175.525H96.61M81.885 182.283H97.29M46.545 41h37M46.545 48h25M416.545 159h-25M409.545 167h-16M328.772 232.5h30M329.772 239h29M339.918 245.368l18.854-.118" stroke="#E1E4EA" stroke-linecap="round" stroke-linejoin="round"/><path clip-rule="evenodd" d="m324.505 249.187-2.691-23.172c14.468-.408 23.094-1.762 25.877-4.063 4.174-3.451 7.839-91.142.378-98.766-7.461-7.624-122.39-6.472-129.85 1.07-7.459 7.542-3.458 94.557 1.763 99.277 3.48 3.147 30.159 4.503 80.037 4.066l24.486 21.588Z" stroke="#323A48" stroke-linecap="round" stroke-linejoin="round"/><path clip-rule="evenodd" d="M303.857 185.057c-6.271 7.838-13.477 13.433-21.618 16.785-9.426-4.926-16.95-11.241-22.574-18.945-8.52-11.67-7.927-26.073 2.88-28.997 10.808-2.923 18.138 8.81 18.138 8.81s8.408-14.812 21.419-8.81c13.01 6.002 9.227 21.817 1.755 31.157Z" stroke="#323A48" stroke-linecap="round" stroke-linejoin="round"/><path d="M297.386 158.535c5.43.98 7.756 4.469 6.975 10.465M234.196 115.478c-.167-17.586-1.353-32.663-4.017-35.164-6.741-6.324-120.478-6.324-127.816 1.06-7.34 7.385-2.316 94.694 1.543 98.03 2.572 2.224 12.327 3.352 29.265 3.385l-1.654 25.389 22.249-25.263c29.038-.591 47.78-1.197 56.223-1.817" stroke="#323A48" stroke-linecap="round" stroke-linejoin="round"/><path clip-rule="evenodd" d="M164.992 95c16.611 0 21.674 13.088 18.787 23.103-2.742 9.512-18.12 12.23-16.75 20.384.618 3.676 8.219 4.077 8.219 4.077S173.936 148 165.659 148c-6.849 0-9.589-4.077-8.219-9.513 1.384-5.495 8.53-9.513 8.53-16.308 0-5.435-2.964-7.288-6.849-6.794-4.851.616-9.909 3.201-12.329 0-4.11-5.436 1.936-20.385 18.2-20.385Z" stroke="#323A48" stroke-linecap="round" stroke-linejoin="round"/><path d="M170.545 101c4.058.565 6.509 2.909 7.353 7.031" stroke="#323A48" stroke-linecap="round" stroke-linejoin="round"/><path clip-rule="evenodd" d="M167.545 166a6 6 0 1 0 0-12 6 6 0 0 0 0 12Z" stroke="#323A48" stroke-linecap="round" stroke-linejoin="round"/></svg>