<svg width="460" height="300" fill="none" xmlns="http://www.w3.org/2000/svg"><path d="M0 0h460v300H0z"/><path fill-rule="evenodd" clip-rule="evenodd" d="m273.19 133.624 12.862-.159 2.474 6.256c-.431 14.848-.894 24.697-1.391 29.545-1.582 15.457-3.605 20.78-4.866 21.898-1.854 1.645-10.659 2.803-26.416 3.476v-5.561c7.083.725 12.159.145 15.228-1.738 9.245-5.673 14.202-23.872 7.6-42.409-1.65-4.632-3.48-8.402-5.491-11.308ZM237.778 188.391v6.422l18.075-.259v-8.286c-2.202 1.048-5.378 1.756-9.53 2.123-4.151.368-7 .368-8.545 0Z" fill="#FFC973"/><path fill-rule="evenodd" clip-rule="evenodd" d="M230.131 200.548c3.824-5.933 6.257-21.203 8.342-23.289 1.391-1.39 4.635-2.433 9.733-3.128-6.257-.695-10.312.464-12.166 3.476-2.78 4.519-5.937 17.008-10.08 22.941-2.761 3.955-8.786 9.632-18.074 17.032 12.281-7.4 19.696-13.077 22.245-17.032ZM200.008 145.044l2.316 29.784-3.476-13.556c-.463-7.416-1.158-12.166-2.085-14.251-.927-2.086-2.201-3.549-3.824-4.39 1.603.286 2.878.591 3.824.914.946.323 2.028.823 3.245 1.499ZM193.982 178.65c-2.085-4.866-3.476-10.196-4.171-15.989-.695-5.793.348-9.849 3.128-12.166-2.78-.816-5.445-1.047-7.994-.695-3.824.528-1.58 10.409 1.256 16.553 1.891 4.096 4.485 8.195 7.781 12.297ZM277.585 110.691c-1.53 0-1.265.569-1.265 1.424 0 .633 7.15 19.669 15.38 39.607 3.249 7.87 6.968 18.847 10.283 25.406 3.421 7.976 9.93 19.365 9.468 11.704 1.565 1.785-3.102-9.6-3.102-9.6-2.143-6.701-17.518-42.004-17.518-42.004-.837-2.123-7.215-17.998-10.326-23.79-1.129-2.585-2.92-2.747-2.92-2.747Z" fill="#FFC973"/><path fill-rule="evenodd" clip-rule="evenodd" d="M237.778 190.504v4.31H232.9l1.234-4.085 3.644-.225ZM214.94 190.836l-2.286 2.376c-1.777-.343-3.092-.639-3.947-.887-.854-.248-1.898-.744-3.132-1.489 2.008.291 3.819.436 5.434.436 1.616 0 2.926-.145 3.931-.436ZM280.801 126.828l2.859.378 2.62 6.416c-55.044-.606-82.797-1.137-83.261-1.593-.695-.685 2.154-2.345 3.882-3.231 1.152-.59 3.24-1.247 6.262-1.97-.208 3.126 1.841 4.76 6.149 4.902 31.45 1.039 54.178.619 58.068-.879 3.354-1.292 4.494-2.633 3.421-4.023ZM327.001 223.68l1.302-5.683c-.868 1.484-2.164 2.225-3.887 2.225-1.724 0-2.997-.741-3.821-2.225a833.734 833.734 0 0 1-5.681-6.73c-3.412-4.118-5.452-6.117-7.652-5.867-4.769.542-9.902 8.897-6.84 12.597 1.277 1.542 5.465-4.748 10.919-1.599 4.417 2.549 7.516 6.416 9.298 11.601.53-1.281 1.492-2.407 2.887-3.377 1.396-.971 2.554-1.284 3.475-.942Z" fill="#FFC973"/><path fill-rule="evenodd" clip-rule="evenodd" d="M330.241 224.624c-4.476-1.068-7.39-.535-8.742 1.598-2.028 3.199-.501 8.304 3.181 9.796 2.455.995 4.032.675 4.73-.961-2.513-1.768-3.316-3.712-2.409-5.833.908-2.121 1.988-3.654 3.24-4.6ZM345.102 220.762l-12.031 6.712c.402.98.402 1.898 0 2.755-.401.856-1.345 1.95-2.83 3.282 2.741.479 4.406 1.006 4.996 1.58.59.573.656 1.73.197 3.469l11.914 5.542 5.817 3.068h17.434l1.765-2.376c-8.732.776-14.597.906-17.595.391-7.245-1.245-10.904-5.141-11.505-7.112-1.02-3.345 5.401-5.414 19.264-6.207-1.634-.41-3.898-.674-6.792-.792-2.893-.118-7.109-.118-12.647 0-2.641-.241-3.659-1.441-3.054-3.6.604-2.159 2.294-4.397 5.067-6.712Z" fill="#FFC973"/><path fill-rule="evenodd" clip-rule="evenodd" d="M254.252 244.104c9.867.471 19.023-.366 27.468-2.511 12.667-3.217 14.919-6.249 21.655-8.806 4.491-1.704 9.622-2.557 15.391-2.557l1.698.685.176 1.577c-2.146-.944-5.948-.846-11.405.295-8.185 1.713-18.13 9.459-30.689 12.009-8.372 1.7-16.47 1.469-24.294-.692ZM330.24 233.512l-1.037 2.504c1.037.618 1.383 1.116 1.037 1.493-.518.565-9.353 3.47-8.087 6.594.788 1.945 6.187 4.606 12.711 5.874 4.715.917 14.592 1.627 29.633 2.13-13.569-1.381-22.208-2.381-25.918-3.001-5.872-.981-11.741-2.865-12.391-5.917-.806-3.785 8.122-5.058 8.122-7.173 0-1.409-1.357-2.244-4.07-2.504Z" fill="#FFC973"/><path d="M135.201 222.333c20.325.045 39.077-5.234 39.077-5.234 3.222-15.269-5.977-27.878-10.979-32.273 5.904 7.451 14.168 23.828 0 29.727-13.152 2.554-39.321 2.908-45.748 0-12.496-5.653-10.32-15.972-7.037-20.728-1 .615-2.98 1.88-4.539 3.847-4.885 6.638-.685 18.288 11.042 22.399 5.501 1.974 13.249 2.092 18.184 2.262ZM307.788 177.258l-5.568-14.039c10.288 22.029 25.539 22.028 24.692 23.48-.847 1.453-6.415 4.721-10.773 5.447-3.485.581-5.244-.807-5.688-1.574l1.089-2.42-3.752-10.894ZM166.373 241.187c-6.324 0-8.043-1.358-16.51-2.726l.447 1.833v1.804s4.849-.314 8.081.328c5.358 1.064 7.441 1.194 7.441 1.194l6.143.64 1.636-1.537 1.041-4.015s-1.955 2.479-8.279 2.479Z" fill="#FFC973"/><path fill-rule="evenodd" clip-rule="evenodd" d="M105.156 232.939c-8.335 2.275-12.992 3.846-13.972 4.714-1.468 1.301-.807 8.73 0 9.64.368.414 2.856 1.439 7.925 2.429.875.171 17.434 2.347 27.717 1.88 1.326-.06 2.624-.14 3.891-.239l.763-2.219c-14.965.588-25.346-1.554-28.234-3.19-1.627-.922-2.778-2.221-1.96-3.65.222-.388.875-.582 1.96-.582 1.91 0 4.775 1.318 5.833 0-8.525-1.097-10.572-2.903-11.09-4.069-.786-1.767 1.42-3.338 7.167-4.714Z" fill="#FFC973"/><path d="M118.551 235.705c-15.007 0-23.289 1.996-18.919 3.287 1.354.679 2.915 1.627 5.147 1.92 2.233.292 3.973.021 5.148-.437 5.554-.465 18.159-.615 19.148-.286.988.33 6.024.808 8.418 1.006 1.144-.731-5.719-5.49-18.942-5.49ZM243.603 232.145l-31.679 2.503c-1.231 0-18.585.788-20.442 4.604 7.577-2.211 34.812-4.09 43.593-4.604l5.076-.473 1.557-.542 1.895-1.488Z" fill="#FFC973"/><path fill-rule="evenodd" clip-rule="evenodd" d="M145.374 244.648c-8.335 2.275-12.993 3.846-13.972 4.713-1.469 1.302-.807 8.731 0 9.641.368.414 1.953 1.812 7.305 3.383 4.475 1.314 12.587 3.629 22.87 3.163 18.666-.847 21.491-3.244 27.844-5.969l.469-1.566c-3.781 1.509-9.537 2.443-17.269 2.801-15.46.715-26.21-1.481-29.157-3.151-1.628-.923-2.778-2.221-1.961-3.65.542-.948 1.679-1.74 1.679-1.74s-4.615-2.099-4.976-2.911c-.785-1.767 1.421-3.338 7.168-4.714Z" fill="#FFC973"/><path d="M158.662 247.409c-15.006 0-23.025 1.795-18.655 3.087 1.353.679 4.619 2.11 6.851 2.403 2.233.292 5.14-.549 6.314-1.007 4.926-.137 15.026-.329 16.014 0 .988.33 6.024.808 8.418 1.007 1.144-.732-5.718-5.49-18.942-5.49Z" fill="#FFC973"/><path d="m4.66 205.403 94.014-8.033m345.986-29.561-117.256 10.018m-38.771 3.493 11.602-1.123m-125.841 10.295 25.74-2.158M150.173 244.208c.251-2.455.158-5.348-.543-6.119-5.871-4.945-20.59-6.245-29.511-6.245-2.131 0-20.766.457-28.934 5.809-1.486 1.759-1.12 8.574.058 9.834.598.639 10.979 4.116 29.605 4.116 3.66 0 6.957-.127 9.896-.335" stroke="#323A48" stroke-linecap="round" stroke-linejoin="round"/><path d="M99.792 237.382c-4.37 1.292 4.933 4.824 19.94 4.824 15.006 0 22.218-1.837 23.244-2.95.684-.741-.116-1.507-2.399-2.295" stroke="#323A48" stroke-linecap="round" stroke-linejoin="round"/><path d="M146.855 235.811a.499.499 0 1 0-.003 1l.003-1Zm40.231 12.488a.5.5 0 1 0 1 0h-1Zm-7.128-12.163a.5.5 0 1 0-.372-.928l.372.928Zm4.704-1.594a.5.5 0 0 0 .127.992l-.127-.992Zm-34.431 7.038a.5.5 0 0 0 .06.998l-.06-.998Zm15.643 2.553a.5.5 0 0 0 .211-.978l-.211.978Zm-19.02-7.822-.001.5h.274l.781.002 2.813.005c2.342.004 5.503.009 8.774.012 6.538.006 13.525.006 15.293-.019l-.015-1c-1.757.025-8.733.025-15.277.019-3.271-.003-6.431-.008-8.774-.012l-2.812-.005-.781-.002h-.274l-.001.5Zm96.053-6.763c.813-.113 1.06.125 1.132.27.102.205.096.638-.257 1.25-.679 1.18-2.408 2.562-4.907 2.854l.116.993c2.792-.326 4.81-1.876 5.658-3.348.411-.715.613-1.538.285-2.196-.359-.718-1.182-.95-2.164-.814l.137.991Zm-4.032 4.374c-2.652.311-13.853 1.773-24.802 3.444-5.474.835-10.891 1.723-15.147 2.545-2.127.411-3.971.807-5.39 1.174-.709.183-1.319.36-1.808.53-.477.166-.879.338-1.144.522l.571.822c.146-.102.437-.238.902-.399a22.677 22.677 0 0 1 1.729-.507c1.39-.359 3.211-.75 5.33-1.16 4.237-.819 9.638-1.704 15.108-2.539 10.94-1.669 22.129-3.13 24.767-3.439l-.116-.993Zm-48.291 8.215a8.114 8.114 0 0 0-3.442 5.514 5.823 5.823 0 0 0-.049.462c-.004.056-.005.1-.006.131l-.001.037v.017l.5.001h.5v.001V248.275l.005-.097c.006-.088.017-.22.041-.386a7.106 7.106 0 0 1 3.023-4.833l-.571-.822Zm-15.796-5.326c1.789-.026 3.066-.188 3.903-.347.419-.08.728-.159.936-.219a4.79 4.79 0 0 0 .238-.075l.064-.023.019-.007.006-.002.002-.001h.001v-.001l-.185-.464-.186-.464h.001l.001-.001a9.515 9.515 0 0 1-1.083.274c-.777.148-1.996.305-3.732.33l.015 1Zm10.001-1.277c7.926-1.014 21.55-2.385 33.648-3.566 12.082-1.179 22.663-2.17 24.47-2.42l-.137-.991c-1.78.247-12.321 1.234-24.431 2.416-12.094 1.18-25.733 2.553-33.677 3.569l.127.992Zm-34.498 7.044c3.246-.195 7.136.19 10.232.63 1.544.219 2.883.451 3.837.627.476.089.856.163 1.116.216l.297.061.076.016.019.004.005.001h.001l.105-.489.105-.489h-.001l-.006-.001-.02-.005-.08-.016a87.866 87.866 0 0 0-5.314-.915c-3.114-.442-7.084-.84-10.432-.638l.06.998Z" fill="#323A48"/><path d="m178.73 236.912-.45-.218a.495.495 0 0 0-.049.2l.499.018Zm7.378-1.02.467-.178a.472.472 0 0 0-.063-.117l-.404.295Zm-6.927 1.237c.614-1.269 1.981-1.825 3.424-1.872a5.876 5.876 0 0 1 1.975.267c.585.191.964.444 1.125.664l.807-.591c-.343-.467-.956-.807-1.621-1.024a6.888 6.888 0 0 0-2.319-.315c-1.63.053-3.449.693-4.292 2.436l.901.435Zm6.927-1.237-.467.178v-.001l-.001-.002-.001-.004a.014.014 0 0 1-.002-.006l-.002-.006.001.006a.324.324 0 0 1 .004.066.494.494 0 0 1-.124.292c-.221.277-.899.748-2.868.939l.096.995c2.044-.197 3.072-.706 3.554-1.311a1.49 1.49 0 0 0 .341-.873 1.292 1.292 0 0 0-.022-.301c-.007-.038-.016-.07-.023-.095l-.011-.033-.004-.013-.002-.005-.001-.002v-.001c0-.001-.001-.001-.468.177Zm-3.46 1.462c-1.974.19-2.836-.056-3.189-.26-.166-.096-.213-.179-.225-.202-.007-.014-.007-.02-.006-.015l.002.017v.034l-.5-.016-.499-.017v.012a.951.951 0 0 0 .014.152c.014.076.041.171.092.275.105.213.297.438.621.626.627.362 1.747.586 3.786.389l-.096-.995ZM187.03 248.185a.5.5 0 0 0 1 0h-1Zm43.341-14.581a.5.5 0 0 0-.086-.997l.086.997Zm-42.341 14.581c0-1.752.832-3.957 1.965-5.923 1.136-1.971 2.502-3.578 3.467-4.184l-.532-.846c-1.173.737-2.639 2.514-3.802 4.531-1.165 2.023-2.098 4.411-2.098 6.422h1Zm5.432-10.107c.066-.041.244-.115.579-.209.319-.089.736-.185 1.243-.286a77.461 77.461 0 0 1 3.938-.646c3.158-.453 7.228-.936 11.402-1.392 8.346-.911 17.091-1.713 19.747-1.941l-.086-.997c-2.661.23-11.414 1.031-19.77 1.944-4.177.456-8.26.941-11.434 1.396a78.276 78.276 0 0 0-3.992.655c-.519.104-.964.205-1.317.304-.337.094-.642.199-.842.326l.532.846Z" fill="#323A48"/><path d="M131.461 259.196c-1.178-1.26-1.544-8.075-.058-9.834 8.168-5.352 26.803-5.809 28.934-5.809 8.92 0 23.64 1.3 29.511 6.245 1.201 1.322.616 8.887-.426 9.782-.513.441-9.904 6.132-28.53 6.132s-28.834-5.877-29.431-6.516Z" stroke="#323A48" stroke-linecap="round" stroke-linejoin="round"/><path d="M140.009 249.091c-4.37 1.292 4.934 4.824 19.94 4.824 15.007 0 22.219-1.837 23.245-2.95.684-.741-.116-1.507-2.399-2.295" stroke="#323A48" stroke-linecap="round" stroke-linejoin="round"/><path d="M177.159 252.783c-3.813-.625-9.476-1.113-17.209-1.113-5.428 0-10.11.462-13.669 1.113M136.86 241.049c-3.814-.625-9.477-1.113-17.21-1.113-5.428 0-10.11.462-13.669 1.113" stroke="#323A48" stroke-linecap="round" stroke-linejoin="round"/><path d="M170.118 243.522a.5.5 0 0 0-.076.997l.076-.997Zm3.765-2.67-.498-.045.498.045Zm4.619-4.322a.5.5 0 1 0-.185-.982l.185.982Zm-8.46 7.989c1.539.117 2.626-.11 3.335-.807.693-.681.903-1.699 1.004-2.815l-.996-.09c-.1 1.107-.297 1.787-.709 2.192-.395.387-1.109.633-2.558.523l-.076.997Zm4.339-3.622c.222-2.453 2.029-3.971 4.121-4.367l-.185-.982c-2.442.462-4.662 2.276-4.932 5.259l.996.09Z" fill="#323A48"/><path clip-rule="evenodd" d="M170.542 194.082c5.856 10.158 3.883 23.254 3.883 23.254s-22.152 5.186-39.529 4.815c-4.965-.106-13.01-.481-18.522-2.361-10.327-3.435-18.399-17.774-6.475-25.708 7.359-5.67 21.774-3.413 21.774-3.413s.114-9.237 13.198-10.152c13.084-.916 19.814 3.407 25.671 13.565Z" stroke="#323A48" stroke-linecap="round" stroke-linejoin="round"/><path d="M144.213 182.496c2.965-.558 5.702-.368 7.856.444M327.002 223.828c2.208-10.402 1.607-16.995-1.801-19.778-2.716-2.217-16.586-3.534-21.874-.75-5.995 3.155-8.946 12.672-8.946 14.74 0 3.242 6.257 2.515 15.309 6.908 2.808 1.362 6.458 3.405 10.95 6.127" stroke="#323A48" stroke-linecap="round" stroke-linejoin="round"/><path d="M302.493 208.512c2.543-3.112 4.942-3.89 7.197-2.334 2.308 1.593 7.426 6.97 10.774 12.021m1.892 3.219c.582 1.163.995 2.252 1.171 3.205" stroke="#323A48" stroke-linecap="round" stroke-linejoin="round"/><path clip-rule="evenodd" d="M323.526 224.622c2.637-1.597 8.519-.054 9.626 3.352 1.106 3.407-3.642 3.969-3.787 7.146-.145 3.178-7.079 1.784-8.284-1.926-1.206-3.711-.191-6.974 2.445-8.572Z" stroke="#323A48" stroke-linejoin="round"/><path d="M333.07 227.476c14.998-8.892 25.583-12.349 31.753-10.372 7.848 2.515 11.203 23.261 5.775 30.068m-17.152-.265c-5.937-1.123-13.714-7.556-18.013-8.345" stroke="#323A48" stroke-linecap="round" stroke-linejoin="round"/><path d="M335.237 231.926c9.675 0 23.926-2.613 28.147.558 4.22 3.171 4.22 11.619-3.328 11.619M320.64 231.075c-3.247-1.482-11.844-3.971-17.172-3.203-6.977 1.005-8.441 5.106-19.32 7.161-4.867.919-10.674.271-24.455 1.352l11.348 4.622c-3.559 1.031-6.341 1.719-8.347 2.066-2.007.346-5.206.69-9.598 1.031 6.398 1.856 14.882 2.087 25.45.692 15.853-2.092 25.82-15.454 42.094-12.304" stroke="#323A48" stroke-linecap="round" stroke-linejoin="round"/><path d="M329.968 233.537c4.875-.384 6.925 3.679 5.269 4.9-2.328 1.715-5.062 2.914-2.798 7.635m-4.136-4.912c-4.192 9.67 23.508 4.184 42.388 6.127 7.878.811 11.809 1.951 15.903 3.787l-13.152-.425 12.408 7.068c-12.4-2.985-16.581-6.116-30.78-6.116-13.767 0-32.332-2.787-32.917-7.498-.584-4.711 11.554-5.666 7.05-8.087M322.029 205.381c2.259.835 3.389 2.522 3.389 5.059M364.497 219.812c2.182 1.471 3.424 3.407 3.727 5.809M311.939 191.921c1.905 1.334 12.027-.914 14.811-5.174 2.58-3.948-27.999-80.057-32.953-83.788m-15.964 7.783s1.663.274 3.338 4.163c6.081 14.119 32.086 72.946 30.201 73.808-1.066 0-2.962-3.435-2.962-3.435" stroke="#323A48" stroke-linecap="round" stroke-linejoin="round"/><path d="M288.533 143.707c3.929 11.256 13.524 33.468 13.524 33.468 6.269 12.788 7.328 13.675 9.949 14.769M281.922 127.065l-6.21-16.197a.955.955 0 0 1 .215-1.033c2.874-2.787 9.781-7.474 17.823-6.946M255.852 194.616c0-12.033-1.158-19.672-3.476-22.917-3.476-4.866-26.764-5.561-29.545-.695-2.78 4.866-5.213 18.46-10.08 21.959-3.244 2.333-12.513 6.368-27.807 12.105h21.536l1.405 12.513c11.123-6.488 18.306-11.818 21.551-15.989 4.866-6.257 6.335-21.212 9.037-24.331 2.085-2.408 9.313-3.756 11.818-2.086 1.39.927 2.317 3.013 2.781 6.257" stroke="#323A48" stroke-linecap="round" stroke-linejoin="round"/><path d="M237.777 194.638c0-6.604-.398-12.454-.695-14.599" stroke="#323A48" stroke-linecap="round"/><path d="M288.788 132.481c-.729 31.565-3.217 55.792-6.52 58.681-3.321 2.907-28.714 4.077-49.368 3.512m-20.472-1.463c-3.63-.544-6.042-1.227-6.629-2.049-2.21-3.094-4.42-22.63-6.63-58.608-.107-1.744 2.888-3.88 8.716-6.48 3.885-1.734 32-1.156 78.631 1.332" stroke="#323A48" stroke-linecap="round" stroke-linejoin="round"/><path d="M200.008 145.042a13.317 13.317 0 0 0-4.636-2.101c-4.866-1.136-12.513.94-15.294 4.416-3.562 4.453-6.952 12.898-3.476 34.073l8.342-11.123 9.037 8.342c-5.561-13.208-5.561-26.486-1.39-27.807" stroke="#323A48" stroke-linecap="round" stroke-linejoin="round"/><path d="M203.019 178.65c-2.781-15.758-6.025-25.027-9.733-27.807-2.025-1.519-11.122-4.171-13.903 4.866M229.94 169.922c-1.632.221-2.74.465-3.322.73-1.707.779-2.501 1.805-2.669 2.78M213.163 126.828c-3.094 0-11.107 4.098-10.144 5.201.642.735 28.303 1.001 81.572 1.221M177.403 167.98c0 1.553.159 3.539.476 5.96" stroke="#323A48" stroke-linecap="round" stroke-linejoin="round"/><path d="m92.596 90.791 15.12 14.025M48.372 15.38l86.978 96.707m6.584 7.32 29.756 33.599M133.843 15.38l6.461 13.254m4.624 9.484 44.754 91.457M166.091 43.475l5.674 14.771M212.875 97.343l4.004 20.968m-19.653-102.93 11.753 61.556-11.753-61.556ZM252.586 15.38l-1.357 20.6m-.977 14.822-5.655 67.669M318.049 15.38l-32.182 80.423M310.869 93.108l-7.723 13.215M356.3 15.381l-40.159 68.707L356.3 15.38ZM358.768 39.834l-7.544 11.16M410.3 15.38l-14.551 17.226m-6.59 7.802-75.869 89.817M385.108 102.848l-25.491 18.753M451.3 80.768l-126.884 83.378M451.3 141.926l-17.731 6.637m-9.572 3.584-33.481 12.534M39.254 96.856l126.161 81.229M11.3 78.857l18.323 11.798L11.3 78.857ZM11.3 97.86l129.364 72.461M84.32 169.672l32.183 11.367M11.3 182.41l23.781 4.304m10.063 1.821 26.312 4.674m-60.156-.333 34.442 4.613" stroke="#E1E4EA" stroke-linecap="round" stroke-linejoin="round"/></svg>