<svg width="460" height="300" fill="none" xmlns="http://www.w3.org/2000/svg"><path fill-rule="evenodd" clip-rule="evenodd" d="M226.855 67.01c-2.975.828-4.663 1.919-5.063 3.272-.4 1.353-.501 9.822-.304 25.407 2.83.428 5.268.641 7.313.641s4.65-.213 7.815-.64c-7.116.66-11.005-.901-11.666-4.687-.534-3.06-.534-10.588-.307-16.776.063-1.7.476-3.016 1.24-3.945l7.544-.782c-4.76 0-7.275-.324-7.544-.972-.261-.63.063-1.136.972-1.518Z" fill="#FFC973"/><path fill-rule="evenodd" clip-rule="evenodd" d="M230 96.648c-3.057-.12-5.067-.226-6.027-.318-1.204-.114-2.535-.835-2.628-.64-.206.427-.206 1.098 0 2.012h-2.415c.619.272.838.656.659 1.153-.18.497-1.097.959-2.753 1.385 4.161-.212 6.241.654 6.241 2.598v43.003c0 3.006-.628 4.793-1.885 5.358h1.1c-.137.729.339 1.213 1.427 1.453s3.383.366 6.883.38c-2.207-.647-3.444-2.554-3.712-5.72-.254-3.018-.035-43.141.567-46.335.401-2.129 1.248-3.572 2.543-4.33Z" fill="#FFC973"/><path fill-rule="evenodd" clip-rule="evenodd" d="M219.589 97.703c-60.308 4.284-90.999 6.518-92.074 6.702-.662.113-8.014 5.72-16.344 13.479-11.967 11.146-26.19 25.808-27.498 27.168-1.217 1.266-1.48 3.578 0 5.326.213.251.726.371 1.54.359-.226-.986-.226-1.681 0-2.086 1.25-2.241 2.644-3.495 3.329-4.16 26.296-25.547 39.134-36.965 40.233-37.48 1.153-.541 31.906-3.043 92.26-7.508l-1.446-1.8ZM215.017 135.633l-.556 17.399-75.911 13.978c42.151-9.608 65.058-15.278 68.721-17.01 3.662-1.733 6.244-6.522 7.746-14.367ZM227.91 153.2l-5.618-.815v9.292c3.57.428 6.304.641 8.202.641 1.898 0 3.766-.076 5.604-.228-5.93-.476-9.208-1.408-9.834-2.798-.393-.873-.603-2.253-.272-4.048.182-.986.821-1.667 1.918-2.044Z" fill="#FFC973"/><path fill-rule="evenodd" clip-rule="evenodd" d="M228.792 162.317c-4-.641-6.167-.855-6.5-.641-.5.32-1.1 18.906-1.1 28.671s.7 26.545 1.1 27.327c.4.782 5.299 1.344 8.212 1.344 1.942 0 4.045-.448 6.309-1.344-.877-.536-1.418-.983-1.624-1.339-.206-.357-.309-.842-.309-1.456-.675 1.342-1.6 2.013-2.775 2.013-2.469 0-3.313-.557-3.842-1.386-2.163-3.389-2.167-16.497-2.167-47.804 0-2.676.899-4.471 2.696-5.385Z" fill="#FFC973"/><path fill-rule="evenodd" clip-rule="evenodd" d="M234.349 183.66c-.189 21.96.091 33.038.84 33.233.749.196 31.044 7.462 90.886 21.797 9.46-2.076 17.064-3.882 22.813-5.417 8.624-2.303-13.134 3.163-23.966 2.022-8.847-.932-82.088-20.079-86.663-22.691-3.051-1.741-4.354-11.389-3.91-28.944ZM230.504 219.019l-7.813-.562L223.782 289l10.067.01c-2.928-1.454-4.788-3.176-5.579-5.168-1.187-2.987-1.689-57.823-.956-60.645.489-1.881 1.552-3.273 3.19-4.178ZM238.259 165.467c59.932 7.114 90.667 11.221 92.206 12.32 1.457 1.041 17.587 17.337 42.774 44.903.96 1.05 1.501 2.004 1.625 2.862.866-.731 1.343-1.414 1.431-2.049.087-.634-.138-1.789-.674-3.464-9.186-10.035-16.13-17.55-20.833-22.547-4.702-4.997-11.776-12.378-21.222-22.142-32.363-3.647-55.54-6.196-69.53-7.647-13.991-1.451-22.583-2.196-25.777-2.236Z" fill="#FFC973"/><path d="m137.925 81.184 25.327 14.094M10 10l114.212 63.554L10 10ZM73.935 34.035 170.07 94.64M35.809 10l25.6 16.139L35.809 10ZM123.555 10l71.246 81.938M171.985 36.057l32.456 53.91M156.298 10l8.375 13.911L156.298 10ZM174.5 10l35.922 79.237M262.841 45.96l-18.033 47.476M276.5 10l-9.524 25.073L276.5 10ZM299.474 10l-54.666 96.343M264.709 104.196l-19.873 15.184M388 10 275.23 96.158 388 10ZM419.548 65.778 244.43 127.12M450 55.111l-17.808 6.238L450 55.111ZM287.36 118.726l-43.067 10.357M450 79.613l-98.026 23.574L450 79.613ZM339.945 106.08l-39.969 9.612 39.969-9.612ZM397.643 156.126 244.538 134.34M450 163.576l-37.021-5.268L450 163.576ZM318.425 151.688l-74.034-16.055M450 180.222l-118.062-25.603L450 180.222ZM271.667 162.078l-26.685-18.281M450 289.011l-76.744-54.624L450 289.011ZM259.666 160.65l-15.373-13.677M395.596 290l-15.398-14.652L395.596 290Zm-25.463-24.231-25.409-24.179 25.409 24.179ZM286.678 290l-20.537-57.1M258.392 252.914l-5.75-24.404M267.131 290l-5.68-24.106 5.68 24.106ZM43.325 94.957l66.205 13.287M10 88.269l17.622 3.537L10 88.269ZM10 175.682l79.8-15.692M63.727 177.001l42.183-11.31M10 191.406l40.887-10.962L10 191.406ZM116.859 195.304l51.125-28.415M10 254.696l95.38-53.012L10 254.696ZM82.749 230.195l95.449-63.379M10 278.5l20.667-13.723L10 278.5Zm33.16-22.018 27.444-18.223-27.445 18.223ZM185.178 196.362l24.591-35.081m-89.534 127.728 58.301-83.172-58.301 83.172ZM179.848 257.731l34.314-85.737m-46.833 117.017 7.199-17.987-7.199 17.987ZM73.066 68.61l22.151 9.424M250.661 26.5l-2.688 14.628M119.52 239.586l16.961-15.873M344.724 73.426l-14.973 8.162M440 97.703l-27.167 4.921M427 219.963l-16.63-7.141M299.474 266.505l-8.022-15.243" stroke="#E1E4EA" stroke-linecap="round" stroke-linejoin="round"/><path d="M222.692 220.702c.148 12.925.781 34.888 1.161 67.988m12.147 0c.3-33.075.508-55.071.625-67.988L236 288.69Zm1.091-129.066c.015-1.691.036-3.237.05-4.876l-.05 4.876Zm.078-66.742c.091-10.552.136-23.232.136-24.04 0-2.238-2.404-2.887-7.908-2.287-5.504.6-7.909 2.208-7.909 4.264 0 .69.051 12.711.153 22.063h15.528Zm-14.877 61.866c.018 1.61-.019 2.883 0 4.544v-4.544ZM238.259 163.691c0-1.093-.051-1.803-.375-1.855-1.109-.181-.649.483-7.39.483s-7.993-1.025-8.587-.483c-1.158 1.055-.723 54.112 0 55.539.365.721.831 1.645 7.779 1.645 6.949 0 7.099-.805 7.458-1.246" stroke="#323A48" stroke-linecap="round" stroke-linejoin="round"/><path d="M237.249 163.689c62.871 6.992 94.976 10.879 96.316 11.66 2.01 1.172 40.988 43.112 42.056 44.69 1.068 1.577.797 4.546-.335 5.525-1.133.978-44.767 13.125-49.211 13.125-2.958 0-88.331-21.056-89.763-21.502-.955-.298-1.432-1.209-1.432-2.732" stroke="#323A48" stroke-linecap="round" stroke-linejoin="round"/><path d="M234.835 166.605c.316-.905 1.197-1.271 2.641-1.096 58.756 7.107 90.276 11.202 93.044 12.489 2.456 1.142 13.654 12.678 33.593 34.607m4.026 4.437c1.098 1.213 2.798 3.096 5.1 5.648" stroke="#323A48" stroke-linecap="round" stroke-linejoin="round"/><path d="M245.391 166.605c-1.411 1.015-1.34 50.085-.547 52.415M238.349 205.579c.177-1.875 1.685-2.372 2.403-1.07.718 1.301.557 4.507-.583 5.132-1.141.625-1.939-.72-1.91-2.283M238.349 176.579c.177-1.875 1.685-2.372 2.403-1.07.718 1.301.557 4.507-.583 5.132-1.141.625-1.939-.72-1.91-2.283M234.225 176.955c.057-2.642.152-4.602.285-5.881m0 38.418c-.211-14.605-.317-23.823-.321-27.654l.321 27.654ZM221.036 97.702c0-1.092.051-1.802.375-1.855 1.109-.18.649.484 7.39.484s7.993-1.025 8.587-.484c1.158 1.056.723 54.113 0 55.539-.365.722-.831 1.646-7.779 1.646-6.949 0-7.099-.806-7.458-1.247" stroke="#323A48" stroke-linecap="round" stroke-linejoin="round"/><path d="M222.045 97.703c-60.348 3.355-92.166 5.692-95.454 7.013-4.932 1.98-41.85 38.759-42.918 40.336-1.068 1.578-.797 4.547.335 5.526 1.133.978 44.767 17.125 49.211 17.125 2.958 0 88.331-16.056 89.763-16.503.955-.298 1.432-1.208 1.432-2.731" stroke="#323A48" stroke-linecap="round" stroke-linejoin="round"/><path d="M224.459 100.619c-.316-.906-1.118-1.197-2.641-1.096-7.705.511-14.958.996-21.749 1.456m-32.741 2.287c-23.652 1.73-36.832 2.946-38.554 3.746-2.456 1.142-22.249 18.692-42.921 40.302m107.855-45.903c-7.443.509-14.276.984-20.484 1.429l20.484-1.429Z" stroke="#323A48" stroke-linecap="round" stroke-linejoin="round"/><path d="M213.905 100.617c1.41 1.014 1.347 49.705.554 52.035M218.211 141.984c.144 1.877 1.644 2.401 2.384 1.112.741-1.288.636-4.497-.493-5.142-1.13-.645-1.951.687-1.949 2.249M218.211 112.984c.144 1.877 1.644 2.401 2.384 1.112.741-1.288.636-4.497-.493-5.142-1.13-.645-1.951.687-1.949 2.249M224.927 129.083c.063-10.275.052-19.638.018-22.739m-.16 37.16c.043-2.963.077-6.067.103-9.17l-.103 9.17ZM234.88 100.24c.206 5.252.309 9.908.309 13.97M224.23 188.545c.021 2.259.055 4.167.104 5.723m.002-26.565c-.06 7.356-.095 13.396-.106 15.958l.106-15.958ZM130.504 163.689c1.407.514 2.444.771 3.112.771 1.137 0 3.567-.398 4.934-.771M183.466 104.68l6.489-.551M255.64 171.074c5.615.695 9.445 1.279 11.491 1.753M324.922 179.438c2.01.23 3.417.568 4.222 1.015.804.447 1.687 1.209 2.647 2.286M250.662 216.895l6.559 1.563M224.633 69.622c-1.296.428-.549.594 2.241.499 2.308-.08 4.672-.26 6.833-.681 1.812-.354 1.045-.721-.035-.665M234.832 75.383c.001 1.09 0 3.267-.001 6.532M233 261v6.767M233 274v4.5" stroke="#323A48" stroke-linecap="round" stroke-linejoin="round"/></svg>