<svg width="460" height="300" fill="none" xmlns="http://www.w3.org/2000/svg"><path fill-rule="evenodd" clip-rule="evenodd" d="M291 27.18C304.515 33.06 314.515 42 321 54c6.485 12 9.727 30.167 9.727 54.501-5.724-3.331-10.133-5.331-13.227-6-3.094-.67-7.928-.67-14.5 0 17-6.258 22.5-19.023 16.5-38.296S304 32.591 291 27.18Z" fill="#FFC973"/><path fill-rule="evenodd" clip-rule="evenodd" d="M279.988 27.18C289.996 32.727 296.167 41 298.5 52c2.333 11 1.167 28.425-3.5 52.274-6.283-3.579-11.287-5.669-15.012-6.271-3.725-.602-8.568-.103-14.529 1.498C281.82 93.609 290.667 82.35 292 65.727c1.333-16.624-2.671-29.473-12.012-38.547ZM264.361 25.014c2.873 12.051 3.495 22.66 2.991 31.72-.503 9.06-2.543 23.975-7.245 44.85-4.887-3.927-8.756-6.45-11.607-7.57-2.851-1.121-6.684-1.625-11.5-1.513 16.343-1.871 25.333-11.205 26.969-28 1.637-16.795 1.767-29.958.392-39.487ZM249.627 23.717C241.496 27.95 233.953 34.965 227 44.759c-10.43 14.693-12.091 22.982-17.5 34.786-1.667 3.637-4.167 7.01-7.5 10.118 4.221.38 7.721 1.137 10.5 2.274s5.497 2.658 8.153 4.564c-.435-12.76 1.68-26.033 6.347-39.82 4.667-13.787 12.209-24.775 22.627-32.964ZM289.5 193.5c-1.667 10.505-3.025 16.199-4.076 17.08-.831.697-16.8-.204-46.962-4.175-4.575-.602-14.662-.24-24.962-3.227-1.096-.318-1.929-1.544-2.5-3.678 31.237 3.521 51.237 4.946 60 4.276 8.763-.67 14.929-4.095 18.5-10.276ZM218.5 244c10.566 3.453 15.242 4.329 24.981 5.507 22.513 2.497 31.128 1.724 32.097.307 1.281-1.876 3.285-14.883 6.011-39.02l-15.412-1.536c4.555 2.112 7.072 4.693 7.551 7.742 1.288 8.21-3.269 22.3-7.551 25.5-5.56 4.154-21.453 4.654-47.677 1.5ZM94.793 219.709c5.683 2.29 9.831 4.72 12.442 7.291 2.612 2.571 6.205 7.933 10.781 16.087 8.717-3.929 16.183-3.457 22.398 1.415 3.599 2.822 7.434 6.989 7.434 12.499 0 4.707-.649 9.373-1.948 13.999 8.803 0 15.003 1.455 18.6 4.365 3.597 2.91 5.431 6.896 5.5 11.956L102.792 287c25.184-1.058 38.054-3.262 38.608-6.611.832-5.024-5.642-3.568-7.039-17.452-1.21-12.02-14.336-6.385-18.766-9.938-4.43-3.553-1.969-6.81-6.011-16.702-2.695-6.595-7.625-12.124-14.791-16.588ZM30.316 257.55c5.104-2.709 9.138-3.593 12.103-2.651 2.965.942 5.286 2.809 6.963 5.602-.343-2.287-.483-4.846-.422-7.679.06-2.833.508-6.041 1.343-9.625-.17 8.451.98 15.107 3.45 19.966 3.706 7.29 8.592 7.29 8.592 9.41 0 1.706-7.124.997-12.042-2.678-4.025-3.007-7.398-7.484-9.04-9.394-2.738-3.188-6.387-4.172-10.947-2.951Z" fill="#FFC973"/><path fill-rule="evenodd" clip-rule="evenodd" d="M162.32 273.534c1.8-4.664 3.708-7.182 5.723-7.553 2.015-.371 4.167.135 6.456 1.519-3.967-.52-6.119.99-6.456 4.53-.219 2.307 2.97 4.746 4.552 10.303.885 3.112 5.195 4.774 12.93 4.988H170c-.183-3.911-.946-6.684-2.291-8.321-1.345-1.636-3.141-3.458-5.389-5.466ZM205.925 261.178c1.248 2.539 2.073 4.941 2.475 7.204.403 2.264.568 4.303.497 6.118 3.214-3.702 6.081-4.869 8.603-3.5 2.521 1.37 4.021 4.037 4.5 8 4.163-1.02 8.035-.842 11.617.533 3.581 1.375 6.053 3.971 7.415 7.788h-29.064c2.628-2.088 3.537-3.996 2.727-5.726-1.215-2.595-9.015-2.256-9.969-4.096-.382-.737 1.525-3.739 1.925-7.517.274-2.582.031-5.517-.726-8.804ZM302.455 288.001H344.5c-12.119-1.499-17.141-3.499-15.068-6 3.11-3.752 12.878 1.318 21.574-7.304 6.211-6.157 10.752.814 18.702 5.01 3.762 1.985 13.404 5.065 13.404 2.294 0-2.771-6.938-2.771-10.401-21.223-2.308-12.301 2.288-23.28 13.789-32.936-8.16 3.748-14.019 9.034-17.576 15.856-3.558 6.822-5.199 13.256-4.924 19.303-3.451-3.387-7.118-4.553-11-3.5-3.882 1.053-6.559 3.719-8.032 8-4.813-4.482-9.992-6.723-15.536-6.723-3.93 0-8.995 3.701-11.853 9.46-.783 1.577-1.309 4.155-1.579 7.733-4.766.464-7.996 1.323-9.69 2.578-1.695 1.255-2.98 3.739-3.855 7.452ZM428.295 233.042c2.983 3.643 4.61 6.793 4.88 9.449.473 4.653-1.135 7.818.593 7.111 1.854-.757 1.854-5.532 6.099-10.619 2.83-3.391 6.208-4.618 10.133-3.681-3.564-1.856-6.287-2.609-8.168-2.26-1.882.35-4.188 2.037-6.918 5.063l-6.619-5.063ZM256.129 182.335c1.204-.484 1.806-.328 1.806.469 0 1.194.528 9.146.528 14.245 0 3.399-.451 7.294-1.354 11.685l-3.315-.353c1.298-4.789 2.076-9.749 2.335-14.88.259-5.131.259-8.854 0-11.166Z" fill="#FFC973"/><path fill-rule="evenodd" clip-rule="evenodd" d="M254.621 208.381c1.543-.514 2.314-.373 2.314.423 0 1.194 0 12.219-.806 20.547-.538 5.552-1.796 12.501-3.774 20.846l-3.315-.354c2.057-7.171 3.511-14.889 4.363-23.153.853-8.265 1.258-14.368 1.218-18.309ZM262.871 172.193c-1.489 1.954-2.959 3.343-4.408 4.167-1.449.824-2.319 1.388-2.609 1.693l.389 2.516c3.823.473 7.076.84 9.756 1.1 2.68.261 5.296.936 7.846 2.027.96.307 1.985.532 3.074.677 1.634.216.262.699 2.992.349 1.819-.233 3.297-1.25 4.432-3.053-2.34 1.25-5.073 1.471-8.2.665-1.219-.314-3.79-2.248-9.379-2.756-.82-.074-1.065-.805-.187-1.974.368-.49 1.345-1.405 2.933-2.744l-7.836 3.193c-.872-.277-1.218-.841-1.037-1.693.181-.852.925-2.241 2.234-4.167ZM254.1 176.816c1.029.466 1.544.813 1.544 1.042 0 .229.199 1.63.599 4.202l-12.273-.736.213-1.329c3.587.249 6.047.11 7.38-.417 1.332-.526 2.178-1.447 2.537-2.762Z" fill="#FFC973"/><path fill-rule="evenodd" clip-rule="evenodd" d="M256.243 180.604v1.457c5.61.847 8.681 1.892 9.212 3.135.532 1.243 1.092 5.801 1.68 13.674.534-.684 1.244-1.841 2.13-3.472 1.329-2.446 1.002-10.363-1.887-12.389-1.926-1.351-5.638-2.153-11.135-2.405ZM244.183 179.996l-.379 1.309c-2.721.293-4.441 1.302-5.157 3.027-.717 1.725-1.843 6.324-3.377 13.796-.497.09-1.08-.718-1.75-2.425-1.005-2.56-1.005-9.059 1.53-12.383 1.691-2.216 4.735-3.324 9.133-3.324ZM231.71 172.549c2.304 1.49 4.139 2.546 5.505 3.165 1.367.62.827.422-1.618-.594-.732 2.764-3.573 3.957-8.523 3.578-4.951-.378-8.628-1.968-11.031-4.768.545 1.821 1.139 3.046 1.783 3.674 1.644 1.606 6.393 2.965 8.286 2.965 4.505 0 4.603.553 6.782 0 2.178-.553 4.888-.99 6.546-.99h4.743v-1.123l.935-1.639-2.183-2.569c-.864.803-2.029 1.094-3.495.872-1.467-.222-4.044-1.079-7.73-2.571Z" fill="#FFC973"/><path d="M141.4 226.125h4.5m-135.9 0h39.382H10Zm106.251 0H135.9h-19.649ZM16.269 222.08c3.805-.138 7.11-.623 10.13-2.297 3.746-2.076 5.148-8.712 11.324-10.181 4.118-.98 7.677-.197 10.677 2.349m.982-7.022c2.08-8.398 7.254-12.997 15.518-13.797 10.333-1 17.333 3.667 21 14 5.333-2.979 10.666-2.979 16 0m3.642 2.813c4.393 4.588 4.96 10.647 9.858 12.687 4 1.667 8.833 2.5 14.5 2.5M109.584 172.549H96m86 0h-67.277H182ZM173 169c-3.968 0-7.119-.666-9.452-2-3.5-2-2.5-6.64-7.5-8.063-3.334-.948-5.867-.053-7.6 2.685m-1.804-5.099c-3.79-8.811-9.656-12.636-17.596-11.474-14 2.048-12.5 16.644-16 20.451-2.334 2.538-5.849 3.705-10.548 3.5M355.5 206.5H311m139 0h-6.5 6.5Zm-13.5 0H378h58.5Zm-65 0H362h9.5ZM323 203c7.181-.172 12.801-1.279 16.859-3.321 6.088-3.064 4.683-7.735 8.898-10.179 2.81-1.629 5.776-1.629 8.898 0-.936-8.197 1.405-13.221 7.025-15.072 2.882-.949 5.6-1.268 8.153-.958m6.833 2.588c2.834-15.479 11.888-22.812 27.162-21.997 7.114.38 12.54 2.615 16.278 6.705M429 182.39c4.69-3.551 16-3.551 21 3.757m-23.944-21.119c1.497 2.887 2.478 6.341 2.944 10.363l-2.944-10.363ZM376.415 96.915c-1.421-.337-2.087-.725-2.4-1.21-.656-1.013.52-6.408 4.162-5.866 1.597.237 2.699 1.785 3.433 3.45M381.682 94.342c-.015-2.274.191-4.7 2.161-5.45 3.073-1.168 5.817.746 5.918 3.595.032.905-.541 1.912-1.904 2.712M392.958 103.138s1.043 10.547-.568 11.861c-1.611 1.314-12.782 2.84-14.77 1.148-1.988-1.692-3.331-10.773-3.331-10.773M383.398 116.758l-2.948-11.916m4.601 1.141 1.1 9.88-1.1-9.88Z" stroke="#E1E4EA" stroke-linecap="round" stroke-linejoin="round"/><path clip-rule="evenodd" d="M394.236 102.584c-.569.452-21.135 3.429-21.853 2.659s-1.684-5.99-1.109-6.915c.574-.925 21.332-4.21 22.264-3.387.932.823 1.268 7.191.698 7.643Z" stroke="#E1E4EA" stroke-linecap="round" stroke-linejoin="round"/><path d="m379.519 104.611-1.967-7.423m6.968-.929 1.059 7.463-1.059-7.463ZM384.056 95.344c.065-1.856.696-3.035 1.896-3.539M379.701 96.26c-.665-1.494-1.487-2.362-2.467-2.604" stroke="#E1E4EA" stroke-linecap="round" stroke-linejoin="round"/><path clip-rule="evenodd" d="M352.819 69.626c1.582-1.53 3.549-2.419 5.899-2.666 2.351-.247 4.694.189 7.03 1.307 1.463-1.833 3.492-2.886 6.085-3.158 2.593-.273 5.11.302 7.549 1.726 1.646-1.538 3.612-2.427 5.899-2.667 2.287-.24 4.552.204 6.795 1.332 1.372-1.508 3.338-2.397 5.899-2.666 2.56-.27 4.747.183 6.559 1.357-3.106-19.006-12.887-27.644-29.342-25.914-16.455 1.73-23.912 12.18-22.373 31.35Z" stroke="#E1E4EA" stroke-linecap="round" stroke-linejoin="round"/><path d="m352.819 69.627 21.103 19.266M365.748 68.268l11.388 19.313M379.382 66.834l1.521 21.257M392.075 65.5l-6.724 21.218M404.534 64.192l-15.936 23.16M365.405 65.007c-2.87-8.346-2.059-15.82 2.433-22.421M379.032 63.575c.426-10.106-.926-17.588-4.054-22.446M391.733 62.24c-.546-11.49-4.014-18.75-10.403-21.78M82.328 118.8c1.858-.438 2.728-.943 3.138-1.573.856-1.318-.684-8.339-5.447-7.637-2.088.308-3.528 2.322-4.487 4.488M75.434 115.442c.022-2.959-.243-6.117-2.818-7.09-4.017-1.517-7.607.977-7.742 4.685-.043 1.178.705 2.487 2.486 3.527M60.7 126.888s-1.357 13.723.751 15.434c2.108 1.712 16.715 3.704 19.314 1.504s4.349-14.016 4.349-14.016" stroke="#E1E4EA" stroke-linecap="round" stroke-linejoin="round"/><path d="m73.198 144.618 3.872-15.514m-6.017 1.492L69.6 143.457l1.453-12.861Z" stroke="#E1E4EA" stroke-linecap="round" stroke-linejoin="round"/><path clip-rule="evenodd" d="M59.029 126.165c.744.589 27.64 4.477 28.577 3.475.938-1.002 2.198-7.793 1.446-8.997-.751-1.204-27.897-5.494-29.115-4.423-1.218 1.071-1.653 9.357-.908 9.945Z" stroke="#E1E4EA" stroke-linecap="round" stroke-linejoin="round"/><path d="m78.265 128.81 2.583-9.665m-9.109-1.198-1.395 9.715 1.395-9.715ZM72.336 116.751c-.085-2.415-.912-3.95-2.48-4.606M78.032 117.946c.868-1.942 1.943-3.071 3.223-3.385" stroke="#E1E4EA" stroke-linecap="round" stroke-linejoin="round"/><path clip-rule="evenodd" d="M113.164 83.306c-2.069-1.992-4.641-3.15-7.715-3.474-3.074-.323-6.138.243-9.191 1.697-1.915-2.386-4.568-3.758-7.96-4.114-3.39-.357-6.68.39-9.87 2.24-2.153-2.001-4.724-3.16-7.715-3.473-2.99-.315-5.952.262-8.884 1.729-1.795-1.964-4.367-3.122-7.715-3.474-3.35-.352-6.208.235-8.577 1.761 4.05-24.729 16.833-35.963 38.351-33.701 21.518 2.262 31.277 15.865 29.276 40.81Z" stroke="#E1E4EA" stroke-linecap="round" stroke-linejoin="round"/><path d="m113.164 83.307-27.581 25.056M96.258 81.53 81.38 106.653M78.428 79.655l-1.974 27.661M61.83 77.91l8.807 27.614M45.537 76.198l20.855 30.147M96.703 77.287c3.747-10.858 2.681-20.584-3.197-29.178M78.883 75.413c-.563-13.151 1.2-22.887 5.287-29.206M62.275 73.668c.706-14.95 5.235-24.396 13.587-28.334" stroke="#E1E4EA" stroke-linecap="round" stroke-linejoin="round"/><path d="M281.402 210.502c-.115 1.097-2.698 35.437-5.823 39.311-3.125 3.874-54.457-1.732-58.123-6.544-2.444-3.207-2.313-19.103-.099-39.039" stroke="#323A48" stroke-linecap="round" stroke-linejoin="round"/><path d="M241.033 207.048c-1.47 1.214-3.302 39.537-2.043 41.586m13.367 1.561c1.791-1.844 5.644-39.196 4.603-41.794" stroke="#323A48" stroke-linecap="round" stroke-linejoin="round"/><path d="M246.163 207.586c-17.692-1.832-33.464-3.971-34.425-5.523-1.944-3.137-2.018-19.225 1.026-21.299.864-.588 7.166-.618 15.798-.275m48.529 3.994c6.46.895 10.875 1.831 11.399 2.697 2.196 3.627-.704 22.567-3.065 23.4-1.032.363-17.66-.861-33.069-2.343M244.046 180.962c.115-2.113.602-3.62 1.335-4.265 1.293-1.136 9.39-.504 10.263 1.161.467.892.609 2.746.532 3.845M245.082 176.558c-7.604-5.728-11.563-23.66-18.958-23.316-6.828.317-15.856 22.955-6.312 25.347" stroke="#323A48" stroke-linecap="round" stroke-linejoin="round"/><path d="M255.644 177.859c10.073-3.129 12.132-19.563 19.984-19.172 8.202.41 12.398 22.839 6.792 24.651M242.28 177.341c-8.462-1.76-15.308-8.833-18.329-7.908-2.013.618-3.061 2.334-3.144 5.15" stroke="#323A48" stroke-linecap="round" stroke-linejoin="round"/><path d="M258.736 178.807c7.451-.952 13.798-7.068 17.33-5.916 3.532 1.151 3.265 5.376 2.4 6.649M256.244 180.568c11.209.68 17.371 1.957 18.486 3.829 1.114 1.872 1.203 6.377.268 13.514l-2.964-6.43-5.143 7.69c.29-8.531-.372-13.348-1.986-14.45-1.614-1.102-4.607-2.026-8.978-2.771M244.107 179.699c-8.019-.465-12.732.518-14.14 2.949-1.407 2.431-2.377 7.66-2.908 15.687l3.887-5.727 4.494 6.209c.568-11.964 3.357-17.801 8.365-17.514" stroke="#323A48" stroke-linecap="round" stroke-linejoin="round"/><path d="M256.959 208.401c1.857-2.167 2.304-23.959.783-25.958-.667-.876-13.817-1.489-14.882-.924-1.712.908-3.87 23-2.32 25.209" stroke="#323A48" stroke-linecap="round" stroke-linejoin="round"/><path clip-rule="evenodd" d="M185.527 94.012c5.241-3.303 11.161-4.607 17.761-3.913 6.6.693 12.78 3.27 18.539 7.728 5.092-4.208 11.279-5.93 18.56-5.165 7.281.766 13.855 3.828 19.72 9.189 5.42-3.284 11.34-4.589 17.761-3.914 6.421.675 12.381 3.228 17.879 7.66 4.651-3.365 10.572-4.669 17.761-3.914 7.19.756 12.93 3.286 17.219 7.59 2.597-54.331-19.205-83.925-65.405-88.781-46.2-4.856-72.798 19.65-79.795 73.52Z" stroke="#323A48" stroke-linecap="round" stroke-linejoin="round"/><path d="M222.121 77.27c2.378-15.215 9.033-40.59 27.506-53.554m-28.806 65.946s.077-2.65.565-6.95l-.565 6.95ZM262.163 93.74c5.352-25.193 5.745-44.705 5.037-54.163m-.643-5.63a69.888 69.888 0 0 0-2.196-8.935M296.147 97.906c6.883-35.277 3.623-51.891-7.382-64.09m-3.042-3a43.934 43.934 0 0 0-5.415-3.636M185.527 94.012l35.811 56.115M221.827 97.828l19.766 69.88M260.108 101.85l-9.857 69.619M295.748 105.596l-33.603 62.645M330.727 109.273l-47.217 48.329M226.589 156.561c1.909.238 3.24 1.317 3.992 3.237M192.159 79.502c.5-3.668 1.291-6.735 2.373-9.2M277.739 163.547c.915 1.087 1.637 2.803 2.166 5.15M219.69 238.762c-.458-1.851-.521-4.353-.19-7.504" stroke="#323A48" stroke-linecap="round" stroke-linejoin="round"/><path d="M244.563 32.73c-1.812 1.738-3.231 3.518-4.258 5.338M301.634 81.057a112.399 112.399 0 0 1-.543 6.268M450 235.301c-5.667-3.8-10.695-2.866-15.086 2.802C420.471 224.701 405.5 220.667 390 226c-13.46 4.631-21.767 14.542-24.921 29.73M364 263c-3.15-3.415-6.816-4.581-11-3.5-4.184 1.081-6.861 3.748-8.032 8-5.979-6-12.135-8-18.468-6-4.249 1.342-7.222 4.254-8.921 8.737M316 277.971c-7.84 0-12.355 3.009-13.545 9.029M10 274.999c4.18-4.333 9.966-5.666 17.36-4-1.483-8.022.73-13.242 6.64-15.66 5.91-2.418 11.038-.697 15.382 5.16m-.091-9.757c1.18-17.108 9.963-27.522 26.35-31.243 19.3-4.382 33.327 3.451 42.08 23.5 9.186-3.666 17.079-3 23.679 2 5.284 4.004 7.321 10.357 6.109 19.061M146 270.999c9 0 15.167 1.334 18.5 4 3.333 2.667 5.167 6.667 5.5 12M164.5 269c2.333-3.667 5.667-4.167 10-1.5 3.667-9.893 10.333-14.227 20-13 6.944.881 11.376 4.569 13.297 11.064m1.1 8.936c2.735-3.667 5.603-4.834 8.603-3.5 3 1.333 4.5 4 4.5 8 9.537-2 15.865.666 18.986 8" stroke="#323A48" stroke-linecap="round" stroke-linejoin="round"/><path d="M79.89 223.645c5.417-1.354 10.35-.261 12.834.833m3.634 1.74a13.457 13.457 0 0 1 3.347 3.186M199.602 259.039c2.435 1.173 3.817 2.887 4.143 5.144M413.883 229.865c3.48.613 6.752 2.237 9.816 4.872M30.317 263.029a15.655 15.655 0 0 0 0 6.957" stroke="#323A48" stroke-linecap="round" stroke-linejoin="round"/></svg>