<svg width="460" height="300" fill="none" xmlns="http://www.w3.org/2000/svg"><path fill-rule="evenodd" clip-rule="evenodd" d="m249.94 168.229 18.501-.229 3.559 9c-.619 21.358-1.286 35.525-2 42.5-2.276 22.233-5.187 29.892-7 31.5-2.667 2.365-15.333 4.032-38 5v-8c10.189 1.043 17.491.209 21.906-2.5 13.299-8.16 20.429-34.339 10.932-61.004-2.373-6.664-5.006-12.086-7.898-16.267ZM199 250.051v6.199l26-.25v-8c-3.167 1.012-7.736 1.695-13.708 2.051-5.972.355-10.07.355-12.292 0ZM188 264.5c5.5-8.534 9-30.5 12-33.5 2-2 6.667-3.5 14-4.5-9-1-14.833.667-17.5 5-4 6.5-8.541 24.466-14.5 33-3.973 5.689-12.639 13.856-26 24.5 17.667-10.644 28.333-18.811 32-24.5ZM144.668 184.657 148 227.5l-5-19.5c-.667-10.667-1.667-17.5-3-20.5s-3.167-5.105-5.5-6.314c2.305.411 4.139.849 5.5 1.314 1.361.465 2.917 1.184 4.668 2.157ZM136 233.001c-3-7-5-14.667-6-23-1-8.334.5-14.167 4.5-17.5-4-1.174-7.833-1.507-11.5-1-5.5.76-2.272 14.974 1.808 23.812 2.72 5.892 6.45 11.788 11.192 17.688ZM216.5 99c2.452 1.932 4.285 2.265 5.5 1 .96-1 2.191-2.377 2-4-.086-.734-.836-1.9-2.25-3.5.993 2 .91 3.668-.25 5-1.16 1.332-2.827 1.832-5 1.5ZM238 92.5l12-1.5c6.706 5.332 14.299 7.331 22.78 5.999 10.932-1.718 19.235-14.959 15.488-27.44C287.5 67 281 68 281 77.5c0 11.5-9.72 18.5-28.5 12-2.224-.77-7.057.23-14.5 3ZM231 10a41.791 41.791 0 0 0-6 10.25c-1.5 3.682-3.167 9.265-5 16.75.667-6.583 1.5-11.875 2.5-15.875S225 13.417 227 10h4ZM220 10v26.5c-.514-7.717-1.18-13.55-2-17.5-.82-3.95-1.986-6.95-3.5-9h5.5Z" fill="#FFC973"/><path fill-rule="evenodd" clip-rule="evenodd" d="M266.262 62.5c2.451.235 4.031.735 4.739 1.5 1.402 1.516 1.889 5.056 1.524 6.346-.914 3.23-6.04 4.154-5.583 6.923.205 1.249 2.739 1.385 2.739 1.385S270.26 80 267.501 80c-.647 0-1.67-.34-2-1-.5-1 .175-2.806.761-3.5 2.962-3.5 5.739-6 3.419-10-.888-1.532-2.027-2.532-3.419-3ZM266.78 86.5c1.105 0 2-2 1.221-3.5-.27-.52-.296 1.148-1.221 1.715-1.279.784-2-.72-2-.216a2 2 0 0 0 2 2ZM259.771 130.109c-1.983 1.895-2.974 3.457-2.974 4.687 0 .91 9.774 29.454 21.613 58.134 12.169 29.48 26.429 59.107 27.662 59.107 1.09 0 7.24.405 13.189-1.661 3.623-1.258 6.198-3.168 7.726-5.728-11.096 1.512-18.732-1.228-22.907-8.22-3.83-6.415-16.919-32.413-38.096-86.138-2.276-5.772-4.347-12.499-6.213-20.181ZM306.975 131.324c.56 5.353.56 11.022 0 17.006-.559 5.985-.055 13.896 1.514 23.733l-2.417.8c-2.649-6.788-4.403-10.517-5.262-11.189-.859-.672-1.857-1.964-2.993-3.878 2.847.847 4.935-1.054 6.263-5.703 1.328-4.648 2.293-11.571 2.895-20.769ZM296.408 119.094c-3.697 1.97-6.045 3.591-7.043 4.862-1.557 1.983-1.942 4.748-1.942 6.817 0 6.085 1.956 9.697 3.428 13.319a110.563 110.563 0 0 0 3.375 7.464c-2.25-7.793-3.375-14.185-3.375-19.174 0-4.989 1.853-9.419 5.557-13.288Z" fill="#FFC973"/><path fill-rule="evenodd" clip-rule="evenodd" d="M306.976 148.33c0 5.89.799 9.528 2.397 10.915 1.598 1.386 3.544 1.526 5.838.418l-5.205 12.361h-2.15c-1.083-5.667-1.678-9.927-1.784-12.779-.105-2.853.196-6.491.904-10.915ZM309.643 172.398c-1.738-.161-2.929-.161-3.571 0-.643.162-1.307.597-1.992 1.307 1.575 3.364 2.745 6.003 3.51 7.916.765 1.913 1.779 4.735 3.041 8.467l2.088-.923c-.313-2.699-1.338-5.673-3.076-8.922-1.738-3.249-1.738-5.864 0-7.845Z" fill="#FFC973"/><path fill-rule="evenodd" clip-rule="evenodd" d="M302.426 164.898c.731 2.497.989 4.124.773 4.881-.216.757-.688.964-1.416.62l2.297 3.707 2.347-1.244-4.001-7.964ZM295.179 157.371c-1.915 2.117-3.048 4.508-3.4 7.172-.469 3.548-.076 10.646.137 15.097a127.386 127.386 0 0 0 4.493 27.985c.218-4.74.327-9.099.327-13.075 0-5.965-1.231-8.071-2.704-21.053-.982-8.656-.599-14.031 1.147-16.126ZM312.718 189.639l-1.595.449v2.5c1.595 6.999 2.127 12.746 1.595 17.241-.797 6.742-4.169 14.458-2.713 22.814.971 5.571 2.238 9.946 3.799 13.125v-11.012c-1.448-4.281-1.81-8.113-1.086-11.494.554-2.585 3.171-9.922 2.384-18.942-.26-2.984-1.055-7.878-2.384-14.681Z" fill="#FFC973"/><path fill-rule="evenodd" clip-rule="evenodd" d="M343.501 232.458c-5.062 2.595-8.902 3.769-11.523 3.524-2.62-.246-5.299-2.812-8.037-7.699-1.94-4.731-3.134-8.257-3.581-10.579-.67-3.484-.67-4.607-1.804-10.759-.617-3.348-2.763-8.967-6.438-16.856l.601-.923c2.597 4.601 4.814 8.787 6.651 12.558 4.861 9.982 5.9 18.268 9.519 20.983 3.26 2.445 6.623 2.564 10.092.356-1.243 1.486-2.35 2.493-3.321 3.021-.971.529-2.392.897-4.263 1.105-2.35 1.912-2.35 3.669 0 5.269 2.35 1.601 6.385 1.601 12.104 0ZM199.001 250.051v6.199h-7.017l1.774-5.875 5.243-.324ZM166.148 250.529l-3.289 3.419c-2.556-.494-4.448-.919-5.677-1.276-1.228-.357-2.73-1.071-4.505-2.143 2.887.418 5.493.627 7.817.627s4.208-.209 5.654-.627ZM260.888 158.457l4.112.544 3.77 9.229c-79.18-.871-119.103-1.635-119.77-2.292-1-.984 3.099-3.373 5.584-4.647 1.657-.85 4.66-1.794 9.008-2.834-.3 4.496 2.648 6.847 8.845 7.052 45.24 1.494 77.934.89 83.53-1.265 4.824-1.858 6.464-3.787 4.921-5.787Z" fill="#FFC973"/><path d="M26.987 250.313 10 251m440-17.5-14.04.59 14.04-.59Zm-21.164.89-96.859 4.073 96.859-4.073ZM293 240l-21 1 21-1Zm-147 5.5-100.493 4.064L146 245.5Z" stroke="#323A48" stroke-linecap="round"/><path d="m10 10 74 94M23 289.249 84 104M84 104 10 45.5M84 104l-74 64M84 104l-74 39.299M84 104 69.5 10M84 104l94.5-94M84 104l36 71.5M84 104l72 48.202M84 104l101 48.202" stroke="#E1E4EA" stroke-linecap="round" stroke-linejoin="round"/><path clip-rule="evenodd" d="M66.5 113.5c1.667-3.333 2.333-7.333 2-12-.333-4.667-1.5-8.833-3.5-12.5 1-.333 1.833-.833 2.5-1.5S68.667 86 69 85c2 .333 4 .333 6 0s3.833-1.167 5.5-2.5c2.333 2.667 5 4.5 8 5.5S95 89.5 99 89.5c-.667 5-.5 9.333.5 13s3.667 7.833 8 12.5c-1.052.635-1.719 1.135-2 1.5-.281.365-.448.948-.5 1.749-2.667-.499-5-.249-7 .751s-3.5 2.333-4.5 4c-2.333-1-5.167-1.5-8.5-1.5s-5.833.716-7.5 2.149C76.833 121.55 75.667 120 74 119s-3.5-1.5-5.5-1.5c0-1-.167-1.833-.5-2.5a3.267 3.267 0 0 0-1.5-1.5Z" stroke="#E1E4EA" stroke-linecap="round"/><path clip-rule="evenodd" d="M76.75 57c4.833 5.667 10.417 10 16.75 13s12.833 4.667 19.5 5c-1 6.667-.833 14.167.5 22.5s4.333 16.667 9 25c-1 .766-1.667 1.6-2 2.5-.333.9-.5 1.934-.5 3.101-4.333.266-8.031 1.399-11.094 3.399-3.062 2-5.364 4.75-6.906 8.25-4.667-1.5-9.917-2.25-15.75-2.25s-10.583 1-14.25 3c-2.333-2.333-5.5-4.333-9.5-6-4-1.667-7.667-2.5-11-2.5-.333-2-.833-3.667-1.5-5-.667-1.333-1.667-2.45-3-3.351 2.667-6.766 4-14.316 4-22.649s-1.333-17-4-26c2-.667 3.667-1.833 5-3.5 1.333-1.667 2.167-3.333 2.5-5 4.667 0 8.833-.833 12.5-2.5s6.917-4 9.75-7Z" stroke="#E1E4EA" stroke-linecap="round"/><path clip-rule="evenodd" d="M71.5 25.5c8.771 7.486 19.438 12.986 32 16.5 12.562 3.514 25.729 4.68 39.5 3.5-4.142 16.613-5.808 32.113-5 46.5.808 14.387 4.142 28.553 10 42.5-1.663 1.405-2.773 2.905-3.332 4.5-.558 1.595-.614 3.428-.168 5.5-6.859.502-12.763 2.336-17.713 5.5-4.949 3.164-9.211 7.831-12.787 14-8.933-1.779-17.933-1.779-27 0s-17.9 5.279-26.5 10.5c-3.823-7.22-8.323-12.72-13.5-16.5-5.177-3.78-11.177-5.947-18-6.5.298-3.589-.035-6.589-1-9-.965-2.411-2.631-4.411-5-6 4.5-12.941 7-25.941 7.5-39 .5-13.059-1-26.226-4.5-39.5 3.05-1.574 5.383-3.574 7-6s2.617-5.426 3-9c6-1 12.333-3 19-6s12.167-6.833 16.5-11.5Z" stroke="#E1E4EA" stroke-linecap="round"/><path d="M10 196.625c12 3.584 23.833 11.709 35.5 24.376 16.667-6.087 35.5-9.13 56.5-9.13" stroke="#E1E4EA" stroke-linecap="round"/><path d="m337.144 136 61.75-15.25M398.894 120.75 346.146 10M398.894 120.75 450 71M398.894 120.75l51.106-25M398.893 120.75 343.5 168M398.894 120.75 370.146 10M398.894 120.75 450 196.624M398.893 120.75 375.5 229.358" stroke="#E1E4EA" stroke-linecap="round" stroke-linejoin="round"/><path clip-rule="evenodd" d="M385.5 92.5c1.044.435 2.044.435 3 0s1.785-1.269 2.489-2.5c3.37 4.026 7.374 7.026 12.011 9 4.637 1.974 9.637 2.808 15 2.5-.021 1.624.312 3.124 1 4.5s1.688 2.542 3 3.5a39.342 39.342 0 0 0-8 13.5c-1.768 5.05-2.601 10.55-2.5 16.5-3.383-.806-6.549-.806-9.5 0-2.951.806-5.736 2.431-8.357 4.875-2.422-2.674-4.571-4.633-6.446-5.875A16.7 16.7 0 0 0 381 136c-.054-2.033-.554-3.866-1.5-5.5s-2.279-2.967-4-4c3.6-4.108 6.267-9.108 8-15 1.733-5.892 2.4-12.225 2-19Z" stroke="#E1E4EA" stroke-linecap="round" stroke-linejoin="round"/><path clip-rule="evenodd" d="M378.5 78c1.998.384 3.665.384 5 0s2.567-1.217 3.697-2.5c6.532 5.217 13.633 8.884 21.303 11 7.67 2.116 15.67 2.616 24 1.5-.054 3.007.279 5.632 1 7.875.721 2.243 1.888 4.285 3.5 6.125-5.178 7.71-8.844 16.502-11 26.375-2.156 9.873-2.673 20.248-1.553 31.125-6.626-1.893-12.774-2.393-18.447-1.5-5.673.893-11.173 3.226-16.5 7-2.901-5.204-6.068-9.204-9.5-12-3.432-2.796-7.426-4.629-11.982-5.5-.454-3.563-1.293-6.73-2.518-9.5a26.38 26.38 0 0 0-5-7.5c7.006-6.934 12.006-14.768 15-23.5 2.994-8.732 3.994-18.4 3-29Z" stroke="#E1E4EA" stroke-linecap="round" stroke-linejoin="round"/><path d="M368.019 54c2.119 0 4.279-.5 6.481-1.5 2.203-1 4.036-2.333 5.5-4 10.667 7.333 21.834 11.833 33.5 13.5 11.667 1.667 23.834 2 36.5 1M450.143 171.3c-3.429 3.467-5.976 8.367-7.643 14.7-11.153-2.281-21.986-2.281-32.5 0s-19.847 6.655-28 13.123c-3.326-10.798-7.278-18.673-11.855-23.623-4.578-4.95-11.626-8.972-21.145-12.064.777-7.203.777-12.849 0-16.936s-2.61-8.087-5.5-12c16.345-23.667 24.345-50.333 24-80" stroke="#E1E4EA" stroke-linecap="round" stroke-linejoin="round"/><path d="M321.976 223.019c3.883 11.681 6.034 20.065 5.011 21.629-4.005 6.127-18.697 9.14-21.438 7.221-4.917-3.442-50.438-113.989-48.927-117.712 2.219-5.47 16.25-13.636 22.962-10.037 2.133 1.143 8.102 13.113 15.125 29.11M304.081 173.367c3.394-1.498 5.042-1.37 6.527-.885 2.616.856 6.828 12.273 4.771 14.753-1.101 1.326-2.413 2.095-4.189 2.849M310.051 172.219c3.316-16.643 29.52-39.035 23.218-50.566-5.819-10.649-49.307-7.245-45.74 9.868M315.716 187.169c12.882 13.532 42.799 4.096 48.234 16.899 5.677 13.373-27.593 37.915-34.879 30.441" stroke="#323A48" stroke-linecap="round" stroke-linejoin="round"/><path d="M307.676 168.229c-3.355-14.8 2.398-34.27-1.484-38.227-2.588-2.639-6.344-2.821-11.27-.549M318.348 193.369c7.302 11.087 21.099 18.215 21.964 24.739.864 6.525-6.184 9.448-8.915 9.081M312.916 191.33c5.737 13.571 8.08 23.731 7.031 30.481a91.15 91.15 0 0 0-.836 20.518c-1.247-2.795-2.228-5.441-2.942-7.939-.714-2.497-1.037-4.922-.97-7.273-.701 2.133-1.188 4.558-1.462 7.273-.274 2.716-.274 6.509 0 11.379-4.256-10.096-5.136-19.169-2.641-27.219 2.495-8.051 2.495-16.566 0-25.548M304.945 170.651c-3.315-9.303-6.57-13.73-9.766-13.279-2.088.295-5.341 6.477-3.4 23.033.627 5.353 2.234 14.966 4.82 28.838-.222-4.589-.222-8.6 0-12.031a91.225 91.225 0 0 1 1.219-10.136l4.222 20.55c-4.012-31.325-3.656-43.224 1.067-35.695" stroke="#323A48" stroke-linecap="round" stroke-linejoin="round"/><path d="M302.849 171.553c1.447 1.813 8.872 18.552 8.247 20.846-.223.821-3.448 2.857-7.618 5.077m-10.465 5.026c-4.48 1.921-8.285 3.205-9.248 2.765m-8.818-21.452c.517-1.545 7.471-4.986 14.3-7.85l-14.3 7.85ZM225 255.967c0-17.31-1.667-28.299-5-32.966-5-7-38.5-8-42.5-1s-7.5 26.554-14.5 31.588c-4.667 3.356-18 9.16-40 17.412h30.979l2.021 18c16-9.333 26.333-17 31-23 7-9 9.114-30.513 13-35 3-3.463 13.396-5.402 17-3 2 1.334 3.333 4.334 4 9" stroke="#323A48" stroke-linecap="round" stroke-linejoin="round"/><path d="M199 256c0-9.5-.573-17.914-1-21" stroke="#323A48" stroke-linecap="round"/><path d="M272 177.001c-1.049 45.406-4.25 69.843-9 74-4.778 4.18-41.305 5.864-71.017 5.051m-29.448-2.104c-5.222-.783-8.691-1.765-9.535-2.947-3.18-4.451-6.359-32.553-9.538-84.307-.154-2.509 4.155-5.582 12.538-9.322 5.588-2.494 41.922-1.951 109 1.629" stroke="#323A48" stroke-linecap="round" stroke-linejoin="round"/><path d="M144.669 184.657a19.123 19.123 0 0 0-6.669-3.022c-7-1.635-18 1.352-22 6.352-5.124 6.405-10 18.554-5 49.013l12-16 13 12c-8-19-8-38.1-2-40" stroke="#323A48" stroke-linecap="round" stroke-linejoin="round"/><path d="M149 233c-4-22.666-8.667-36-14-40-2.914-2.185-16-6-20 7M187.725 220.443c-2.347.319-3.94.669-4.777 1.051-2.456 1.12-3.598 2.596-3.84 3.999M220 10v82" stroke="#323A48" stroke-linecap="round" stroke-linejoin="round"/><path clip-rule="evenodd" d="M220 101c2.209 0 4-2.09 4-4.5s-1.791-4.5-4-4.5-4 1.607-4 4.34c0 2.731 1.791 4.66 4 4.66Z" stroke="#323A48" stroke-linecap="round" stroke-linejoin="round"/><path d="M222.96 93.5c1.693-2.333 2.54-4.667 2.54-7s-.5-4.667-1.5-7M224 96c2.997-1.432 4.981-3.117 5.95-5.056.969-1.938 1.319-4.92 1.05-8.944M224 97c2.518-.034 4.852.632 7 2 2.148 1.366 3.482 3.033 4 4.999M223.5 99c2.696 2 4.044 4.417 4.044 7.25s-.848 5.583-2.544 8.25M216.5 93.5c-2.425-2.82-3.592-5.653-3.5-8.5.092-2.847 1.092-5.014 3-6.5M216 95c-2.969-.86-5.056-2.193-6.261-4s-1.785-4.474-1.739-8M216 97c-2.185-.034-4.352.632-6.5 2-2.148 1.366-3.648 3.033-4.5 4.999M216.5 99c-3 2-4.5 4.167-4.5 6.5s.75 5 2.25 8M221.75 101c0 .8-.167 1.467-.5 2M218.25 101c0 .8.167 1.467.5 2M220 36.5s3.5-17.1 11-26.5M220 39.5c-1.167-9-5.167-18.833-12-29.5" stroke="#323A48" stroke-linecap="round" stroke-linejoin="round"/><path d="M211 14.6c1 .933 2.5 1.4 4.5 1.4s3.5-.467 4.5-1.4c.653.933 1.82 1.4 3.5 1.4s3.18-.667 4.5-2M214 20.25c.667 1.167 1.667 1.75 3 1.75s2.333-.333 3-1c.667.333 1.5.5 2.5.5s1.833-.417 2.5-1.25" stroke="#323A48" stroke-linecap="round" stroke-linejoin="round"/><path clip-rule="evenodd" d="m238 92.5 12-1.5c6.707 5.332 14.3 7.332 22.78 6 12.72-2 21.72-19.5 12.72-33.5-9-14-30.5-13.5-37.775-2-4.85 7.667-4.85 15.935 0 24.803L238 92.501Z" stroke="#323A48" stroke-linecap="round" stroke-linejoin="round"/><path clip-rule="evenodd" d="M266.262 62.5c5.537 0 7.224 4.445 6.262 7.846-.914 3.23-6.04 4.154-5.583 6.923.205 1.249 2.739 1.385 2.739 1.385s-.437 1.846-3.196 1.846c-2.283 0-3.196-1.385-2.74-3.23.462-1.867 2.844-3.231 2.844-5.54 0-1.845-.988-2.475-2.283-2.307-1.617.21-3.303 1.087-4.11 0-1.37-1.846.645-6.923 6.067-6.923ZM266.779 86.5a2 2 0 1 0 0-4 2 2 0 0 0 0 4Z" stroke="#323A48" stroke-linecap="round" stroke-linejoin="round"/><path d="M112.152 217.65c0 2.233.228 5.091.685 8.573M163.592 158.457c-4.451 0-15.978 5.895-14.592 7.481.923 1.058 39.698 1.746 116.325 2.063M329.125 122.486c1.66 2.413 1.66 5.174 0 8.285M347.484 199.801c3.82.362 6.793 1.191 8.918 2.487" stroke="#323A48" stroke-linecap="round" stroke-linejoin="round"/></svg>