<svg width="460" height="300" fill="none" xmlns="http://www.w3.org/2000/svg"><path fill-rule="evenodd" clip-rule="evenodd" d="M185.945 209.227c-.37.884-1.294 1.451-2.772 1.7-1.478.249-4.328-1.083-8.55-3.995 7.278 6.52 11.559 10.166 12.846 10.937 4.604 2.76 7.566 3.088 8.298 3.088.807 0 16.311-6.626 29.177-15.097 11.964-7.877 21.383-17.585 21.383-18.965 0-1.167.502-8.478-1.01-16.39-.642-3.356-2.33-8.831-5.064-16.425 4.21 16.937 3.407 28.373-2.411 34.307-3.65 3.721-28.02 19.577-32.012 10.36-4.728-10.915-9.139-19.126-13.232-24.633 3.871 11.923 5.979 19.59 6.325 23.002 1.133 11.192-1.667 16.02-3.156 16.342-2.17.469-5.444-.941-9.822-4.231ZM313.027 82.758c5.992 6.079 10.025 11.067 12.1 14.965 2.075 3.897 4.034 10.165 5.877 18.802 8.697-6.023 14.608-10.242 17.734-12.657 9.995-7.721 14.625-12.592 14.625-14.075 0-2.179-1.517-6.16-4.55-11.945 1.91 5.408 1.91 9.39 0 11.945-2.866 3.833-21.715 18.65-26.727 11.231-4.939-7.312-11.292-13.4-19.059-18.266ZM359.013 72.299l-2.519 1.743 2.519 3.455c1.406-.67 2.573-1.043 3.502-1.121.928-.078 2.327.079 4.196.472 2.463 1.192 4.034 1.536 4.714 1.034.679-.502-1.634-4.472-6.94-11.911.892 2.674 1.154 4.462.786 5.363-.79 1.94-2.59 3.187-4.03 3.38-1.87.252-2.612-.553-2.228-2.415Z" fill="#FFC973"/><path fill-rule="evenodd" clip-rule="evenodd" d="M217.576 119.717c10.081 12.5 16.799 22.325 20.155 29.473 3.357 7.148 6.521 17.896 9.492 32.244 24.951-15.595 42.108-26.595 51.471-33 21.851-14.946 32.143-26.017 32.273-27.506.233-2.663-.61-8.003-2.527-16.022.501 7.718-.603 13.275-3.312 16.67-8.042 10.079-69.513 48.493-77.905 34.6-9.102-15.065-18.984-27.219-29.647-36.459ZM323.959 129.652l-19.063 15.073c.513 1.062.943 1.782 1.289 2.161s.914.75 1.703 1.114l2.165-4.63c1.649-.652 2.474-.471 2.474.543 0 1.015-.384 2.758-1.153 5.229 2.387.115 4.363-.122 5.931-.709 1.567-.586 3.198-1.425 4.893-2.516l-.647-1.192c-4.056 1.191-6.431.74-7.124-1.355-.693-2.095 2.485-6.667 9.532-13.718Z" fill="#FFC973"/><path fill-rule="evenodd" clip-rule="evenodd" d="M310.715 150.999c2.016-4.801 2.515-7.323 1.497-7.568-1.018-.244-1.733-.244-2.144 0-19.402 52.889-29.518 79.604-30.348 80.145-1.245.812-9.761 6.771-9.761 7.597 0 .826 18.775 1.03 18.775 0s-9.726.342-7.05-5.504c2.677-5.847 23.884-66.08 25.093-69.327a11.788 11.788 0 0 1 3.938-5.343ZM320.544 140.521c.692 1.11 26.677 79.965 25.879 81.899-.797 1.933-6.558 7.192-5.415 8.386.789.824 9.525 1.359 14.857 1.025.021-1.025.021-1.025.021-2.038-2.343-.429-5.059-1.603-6.28-5.661-2.479-8.236-9.354-29.389-20.907-64.215-1.801-5.43-5.411-16.816-7.036-20.105-1.167-2.361-1.812-.4-1.119.709ZM185.945 209.227c4.373 2.932 7.231 4.421 8.573 4.469 1.805.064 3.168-2.511 3.442-3.629 1.683-6.875-.042-21.197-2.654-28.947-3.256-9.662-10.926-24.921-15.008-30.12-13.482-17.172-19.63-20.968-23.712-18.844-4.124 2.146-2.288 20.337-3.035 15.577-1.012-6.449 2.552-12.589 8.519-9.84 6.366 2.932 16.488 16.187 23.875 31.273 6.224 12.711 10.588 25.244 10.155 36.338-.079 2.026-.302 3.88-2.238 4.909-1.291.686-3.93.291-7.917-1.186ZM317.304 148.434l-2.877.737c-1.664 45.384-2.647 68.587-2.948 69.608-.242.82-2.636 3.159-4.569 5.229-1.681 1.801-2.951 3.392-2.951 3.687 0 .234 3.018 1.196 6.457 1.305 5.877.185 13.543-.661 13.543-1.305 0-1.021-12.311.18-10.751-5.357 1.561-5.537 2.31-58.267 2.674-62.865.375-4.728 1.422-7.375 1.422-8.825v-2.214ZM112.98 252.638l1.273 5.28c5.55 1.281 9.783 1.997 12.698 2.147 12.744.659 22.03-.724 22.774-1.832 1-1.489 1.867-9.382 2.603-23.68l2.766-.502c.817-1.188 1.376-2.614 1.676-4.276.299-1.662.459-4.222.479-7.679-1.426 4.461-4.54 7.411-9.341 8.85-4.801 1.438-17.764 1.662-38.889.673v2.202c7.638.915 13.82 1.415 18.544 1.501 4.724.086 11.95-.171 21.679-.769.414 10.933-1.465 17.457-5.638 19.57-3.087 1.564-12.135 3.052-22.482 2.072-3.444-.326-6.158-1.512-8.142-3.557Z" fill="#FFC973"/><path fill-rule="evenodd" clip-rule="evenodd" d="m355.352 228.413 1.496 5.936c11.432.723 20.006 1.138 25.723 1.246 5.716.108 13.934.009 24.653-.296l1.381-10.194c-2.799 4.172-7.58 6.467-14.342 6.887-5.802.361-17.354 1.954-32.292-.06-1.65-.222-3.857-1.396-6.619-3.519ZM398.08 235.992l7.525-.355c.041 3.759-.068 6.534-.326 8.323a16.235 16.235 0 0 1-1.604 5.082c-3.611.949-10.646 1.423-21.105 1.423s-17.771-.474-21.937-1.423l-1.083-2.978c1.671 1.078 3.556 1.617 5.654 1.617 15.173 0 25.564-.422 29.038-1.617 4.073-1.403 5.353-4.76 3.838-10.072ZM90.289 249.613l-.675 7.836-2.435.559c-.151 8.465-.72 13.304-1.705 14.517-1.478 1.819-17.746 1.453-19.59.587-1.229-.577-1.978-1.584-2.249-3.02 10.645 1.063 16.753.823 18.325-.72 1.572-1.542 1.72-5.184.447-10.924l-21.558.121-.472-2.63c9.723.369 16.802.079 21.236-.869 4.434-.948 7.326-2.767 8.676-5.457ZM134.867 218.058c1.152-.09 1.876.048 2.171.414.442.548 1.115 6.664 1.115 8.486 0 1.821-.272 7.427-.694 7.671-.281.163-1.225.308-2.831.436.598-1.459.898-4.375.898-8.749 0-4.374-.22-7.126-.659-8.258ZM134.832 235.064l2.557.05c.234 5.729.293 10.273.176 13.632-.117 3.359-.506 7.19-1.167 11.494l-3.565-.003c.906-.167 1.572-3.998 1.999-11.491.427-7.494.427-12.054 0-13.682ZM153.732 211.492c.549 2.35.549 4.022 0 5.016-.824 1.492-.747 1.68-3.33 2.034-2.583.354-1.834-.759-1.641-1.137.594-1.158-.399-2.27-1.435-2.046-2.665.576-6.454 1.123-11.367 1.64l-.434-1.64c.753-.239 1.343-.466 1.771-.679.429-.213.982-.556 1.661-1.028-.2.673.935.954 3.403.843 3.704-.165 6.72-2.336 7.599-1.335.587.668.88 1.614.88 2.839.705 0 1.39-.383 2.053-1.15.664-.767.944-1.886.84-3.357ZM133.782 214.496c.803.149 1.294.437 1.474.864.179.427.414 1.307.703 2.64l-7.796-.074v-2.236c1.824.61 3.089.788 3.796.534.708-.254 1.315-.83 1.823-1.728Z" fill="#FFC973"/><path fill-rule="evenodd" clip-rule="evenodd" d="M135.959 216.996c2.221-.043 3.766-.042 4.637.004 1.518.078 2.741-.031 3.561.686 2.287 1.999 2.529 6.959 1.756 8.01-.514.701-1.1 1.802-1.756 3.304-.202-6.041-.705-9.194-1.509-9.458-.804-.264-3.034-.759-6.689-1.485v-1.061ZM128.163 216.668l-.204 1.389c-2.822.087-4.585.921-5.291 2.503-.706 1.581-1.14 4.394-1.302 8.439l-3.015-3.687c-.589-4.78.292-7.415 2.643-7.907a34.969 34.969 0 0 1 7.169-.737Z" fill="#FFC973"/><path fill-rule="evenodd" clip-rule="evenodd" d="M128.163 215.36v1.309c-4.373-.133-7.973-.683-10.799-1.651-.856-.294-2.027-.519-1.796.631.352 1.757-2.568 2.808-4.263 1.348-1.129-.974-1.892-2.384-2.286-4.229.311.707.769 1.171 1.376 1.394.607.223 1.228-.013 1.863-.707-.064-1.637.349-2.455 1.241-2.455 1.338 0 6.239 2.229 7.954 3 1.144.514 3.38.967 6.71 1.36ZM403.827 214.494c.549 2.35.549 4.022 0 5.016-.823 1.492-.827 1.311-3.409 1.665-2.583.354-1.556-1.548-1.363-1.926.594-1.158-.598-1.112-1.634-.888-2.665.576-6.453 1.123-11.366 1.64l-.434-1.64c.752-.239 1.343-.466 1.771-.679.429-.213.982-.556 1.66-1.028-.199.673.935.954 3.404.843 3.703-.165 6.72-2.336 7.599-1.335.586.668.879 1.614.879 2.839.706 0 1.391-.383 2.054-1.15.663-.767.943-1.886.839-3.357ZM383.878 217.496c.802.149 1.293.437 1.473.864.18.427.415 1.307.704 2.64l-7.796-.074v-2.236c1.823.61 3.089.788 3.796.534.708-.254 1.315-.83 1.823-1.728Z" fill="#FFC973"/><path fill-rule="evenodd" clip-rule="evenodd" d="M386.056 219.998c2.221-.043 3.766-.042 4.636.004 1.519.078 2.742-.031 3.562.686 2.287 1.999 2.528 6.958 1.756 8.01-.515.7-1.1 1.802-1.756 3.304-.202-6.041-.705-9.194-1.509-9.458-.804-.264-3.034-.759-6.689-1.485v-1.061ZM378.259 219.67l-.204 1.389c-2.822.087-4.586.921-5.291 2.503-.706 1.581-1.14 4.394-1.302 8.439l-3.016-3.687c-.588-4.78.293-7.415 2.644-7.907 2.35-.491 4.74-.737 7.169-.737Z" fill="#FFC973"/><path fill-rule="evenodd" clip-rule="evenodd" d="M378.259 218.36v1.309c-4.373-.133-7.972-.683-10.799-1.651-.856-.294-2.026-.519-1.796.631.352 1.757-3.478 2.06-5.173.599-1.129-.974-1.588-2.134-1.376-3.48.311.707.77 1.171 1.376 1.394.607.223 1.228-.013 1.863-.707-.064-1.637.349-2.455 1.241-2.455 1.338 0 6.239 2.229 7.955 3 1.143.514 3.38.967 6.709 1.36ZM78.658 244.609c1.063.616 2.022.708 2.876.275 1.281-.649 1.689-1.907 3.16-1.682 1.473.225 2.622 1.682 1.8 2.855-.824 1.172-1.152 1.041-2.443 1.503-.86.308-2.558.398-5.091.27l-.302-3.221ZM80.047 248.162c1.894.326 3.017.98 3.371 1.964.354.984.529 2.2.524 3.647l1.734-1.867c-.17-1.618-.675-2.641-1.518-3.068-.843-.428-2.213-.653-4.111-.676Z" fill="#FFC973"/><path fill-rule="evenodd" clip-rule="evenodd" d="M78.06 244.303c.477.257.745.69.807 1.298.061.608.061 1.37 0 2.286l-5.828.111-.032-2.217c.38.119 1.246.119 2.597 0 1.351-.12 2.17-.613 2.457-1.478ZM73.007 245.104l-.047 2.782c-3.568.034-6.014-.189-7.338-.67-1.986-.721-2.496-1.555-2.27-2.607.227-1.052 2.995-2.364 5.374-.308 1.587 1.371 3.014 1.639 4.281.803ZM71.909 248.162c-1.742.458-2.803 1.403-3.183 2.835-.381 1.433-.571 2.767-.571 4.002l-1.76-1.492c-.336-2.695-.033-4.252.908-4.669.942-.418 2.477-.643 4.606-.676ZM78.061 248l2.19.463c.352 1.671.515 3.125.49 4.362-.026 1.237-.257 3.06-.694 5.47l-.89.28c.348 3.205.454 6.131.319 8.778-.136 2.647-.506 4.853-1.11 6.618-1.19.096-1.785.096-1.785 0 0-.068 1.272-2.152 1.272-7.45 0-3.904-.207-6.5-.62-7.787l.62-.159c.676-1.261 1.03-3.298 1.06-6.112.03-2.814-.253-4.302-.852-4.463Z" fill="#FFC973"/><path clip-rule="evenodd" d="M67.692 128.502c-1.83-1.939-21.327-2.065-23.307 0-1.98 2.066-1.726 15.35-.282 16.77 1.444 1.421 7.948 1.755 8.95 2.147.6.236 1.444 1.429 2.528 3.581 1.111-2.136 1.894-3.325 2.348-3.566.903-.48 8.073-.091 9.7-1.496 1.627-1.405 1.893-15.496.063-17.436Z" stroke="#E1E4EA" stroke-linejoin="round"/><path d="M38.223 224.502c-.68-2.495-2.113-30.558-2.263-35.206m41.96-.864c.006.339.246 26.439 0 29.753v-29.753ZM62.75 221.401c.167-3.578-.823-30.405-1.269-31.969m-9.713.105c-.17 1.092.935 28.968 1.557 32.966l-1.557-32.966Z" stroke="#E1E4EA" stroke-linecap="round" stroke-linejoin="round"/><path d="M57.55 189.28c-8.79.184-22.581.348-23.147-.445-1.143-1.602-2.152-10.488-.784-11.84.34-.335 3.227-.734 7.398-1.116m32.156-1.447c3.109 0 5.6.213 5.925.678 1.296 1.856 1.018 12.52-.09 13.14-.484.271-11.804.778-19.452 1.001M52.97 174.432c-.058-2.236.13-2.449.519-3.166.686-1.262 5.127-1.1 6.08.539.359.618.378 1.727.391 2.508M52.96 171.883c-4.654-3.211-7.246-12.968-11.535-12.43-3.96.497-8.448 13.919-2.8 14.979M59.3 171.218c5.712-2.175 5.713-10.691 10.278-10.786 4.768-.099 8.199 11.317 5.023 12.568" stroke="#E1E4EA" stroke-linecap="round" stroke-linejoin="round"/><path d="M49.862 171.554c-4.723-.838-8.197-3.592-9.675-3.071-.986.347-1.378 1.371-1.175 3.071M62.96 170.867c4.33-1.042 6.242-3.525 8.284-3.433 2.043.092 1.884 3.061 1.428 3.998M61.602 189.021c.695-.842.374-12.447-.928-14.366-.293-.432-8.468-.148-8.924.103-1.43.786-.624 13.707.113 14.674" stroke="#E1E4EA" stroke-linecap="round" stroke-linejoin="round"/><path d="M59.96 173.451c6.665-.293 10.527.303 11.587 1.788 1.06 1.485 1.578 4.413 1.552 8.782l-2.094-3.907-2.829 5.057c-.132-5.727-.717-8.901-1.755-9.521-1.038-.621-3.179-1.002-6.424-1.142M52.96 173.432c-5.64.152-8.945 1.059-9.916 2.723-.972 1.663-1.29 4.756-.955 9.277l2.168-3.492 3.008 3.399c-.49-6.736.974-10.251 4.393-10.545M116.722 198.172c-.755-9.245-1.641-25.443-1.762-28.875m46.18 24.527c.065 4.165.109 8.235.109 11.176l-.109-11.176ZM143.725 205.899c.182-3.578-.682-34.903-1.168-36.467m-10.553.105c-.187 1.093 1.204 36.408 1.875 40.404l-1.875-40.404ZM138.643 169.28c-9.538.184-24.503.348-25.117-.444-1.241-1.603-2.335-10.489-.851-11.841.368-.335 3.502-.734 8.028-1.116m27.224 13.146c-2.454.089-4.919.168-7.108.226M133.971 154.432c-.059-2.236.129-2.449.518-3.166.685-1.262 5.127-1.1 6.079.539.36.618.379 1.727.392 2.508M133.96 151.883c-5.202-3.211-8.098-12.968-12.892-12.43-4.426.497-9.442 13.919-3.129 14.979M140.96 151.218c1.43-.5 2.531-1.336 3.44-2.327" stroke="#E1E4EA" stroke-linecap="round" stroke-linejoin="round"/><path d="M129.96 151.554c-4.766-.838-8.27-3.592-9.762-3.071-.995.347-1.39 1.371-1.186 3.071M142.602 169.021c.695-.842.374-12.447-.928-14.366-.293-.432-8.468-.148-8.924.103-1.429.786-.624 13.707.113 14.674" stroke="#E1E4EA" stroke-linecap="round" stroke-linejoin="round"/><path d="M144.739 154.778a46.989 46.989 0 0 0-3.737-.271m-.042-1.057c1.315-.011 2.507-.011 3.574-.001l-3.574.001ZM133.96 153.432c-6.152.152-9.758 1.059-10.818 2.723-1.06 1.663-1.407 4.756-1.042 9.277l2.365-3.492 3.282 3.399c-.535-6.736 1.062-10.251 4.792-10.545M50.96 137.456 54.904 141l7.056-7" stroke="#E1E4EA" stroke-linecap="round" stroke-linejoin="round"/><path clip-rule="evenodd" d="M317.692 21.502c-1.829-1.94-21.327-2.065-23.307 0-1.98 2.066-1.726 15.35-.282 16.77s7.948 1.755 8.949 2.147c.602.236 1.445 1.43 2.529 3.581 1.111-2.136 1.894-3.325 2.348-3.566.903-.48 8.073-.091 9.7-1.496 1.627-1.406 1.893-15.496.063-17.436Z" stroke="#E1E4EA" stroke-linejoin="round"/><path d="M300.96 30.456 304.904 34l7.056-7" stroke="#E1E4EA" stroke-linecap="round" stroke-linejoin="round"/><path clip-rule="evenodd" d="M399.692 103.502c-1.829-1.939-21.327-2.065-23.307 0-1.98 2.066-1.726 15.35-.282 16.77 1.444 1.421 7.948 1.755 8.949 2.147.602.236 1.445 1.429 2.529 3.581 1.111-2.136 1.894-3.325 2.348-3.566.903-.48 8.073-.091 9.7-1.496 1.627-1.405 1.893-15.496.063-17.436Z" stroke="#E1E4EA" stroke-linejoin="round"/><path d="m382.96 112.456 3.944 3.544 7.056-7" stroke="#E1E4EA" stroke-linecap="round" stroke-linejoin="round"/><path clip-rule="evenodd" d="M424.082 60.064c-1.266-1.374-14.765-1.463-16.135 0-1.371 1.463-1.196 10.873-.196 11.879 1 1.006 5.503 1.243 6.196 1.52.416.167 1 1.013 1.751 2.537.769-1.513 1.311-2.355 1.625-2.526.625-.34 5.589-.064 6.716-1.06 1.126-.995 1.31-10.976.043-12.35Z" stroke="#E1E4EA" stroke-linejoin="round"/><path d="M411.96 66.468 414.828 69l5.132-5" stroke="#E1E4EA" stroke-linecap="round" stroke-linejoin="round"/><path clip-rule="evenodd" d="M102.082 63.064c-1.266-1.374-14.765-1.463-16.135 0-1.371 1.463-1.196 10.873-.196 11.879 1 1.006 5.503 1.243 6.196 1.52.416.167 1 1.013 1.75 2.537.77-1.513 1.312-2.355 1.626-2.526.625-.34 5.589-.064 6.716-1.06 1.126-.995 1.31-10.976.043-12.35Z" stroke="#E1E4EA" stroke-linejoin="round"/><path d="M89.96 69.468 92.828 72l5.132-5M196.857 46.662c-.168-2.468-.547-4.505-1.164-5.16-1.83-1.94-21.327-2.065-23.307 0-1.98 2.066-1.727 15.35-.283 16.77 1.445 1.42 7.948 1.755 8.95 2.147.601.236 1.444 1.43 2.529 3.581 1.111-2.136 1.893-3.325 2.347-3.566.317-.168 1.403-.23 2.751-.3" stroke="#E1E4EA" stroke-linecap="round" stroke-linejoin="round"/><path d="M178.96 50.456 182.904 54l7.056-7" stroke="#E1E4EA" stroke-linecap="round" stroke-linejoin="round"/><path clip-rule="evenodd" d="M228.205 54.066c-2.533-2.667-29.53-2.84-32.272 0-2.741 2.84-2.39 21.105-.39 23.058 1.999 1.953 11.005 2.414 12.391 2.952.833.324 2 1.965 3.501 4.924 1.539-2.937 2.623-4.571 3.251-4.903 1.251-.66 11.179-.125 13.431-2.057 2.253-1.933 2.621-21.308.088-23.975Z" stroke="#E1E4EA" stroke-linejoin="round"/><path d="M204.96 65.937 210.338 71l9.622-10" stroke="#E1E4EA" stroke-linecap="round" stroke-linejoin="round"/><path clip-rule="evenodd" d="M68.205 30.066c-2.533-2.667-29.53-2.84-32.272 0-2.741 2.84-2.39 21.106-.39 23.058 2 1.953 11.005 2.414 12.39 2.952.834.324 2 1.965 3.502 4.924 1.54-2.937 2.623-4.571 3.251-4.903 1.25-.66 11.179-.125 13.431-2.058 2.253-1.932 2.621-21.307.088-23.974Z" stroke="#E1E4EA" stroke-linejoin="round"/><path d="M44.96 41.937 50.338 47l9.622-10M154.54 121.282c0-5.626-.018-13.064-1.237-14.342-2.393-2.505-27.89-2.667-30.479 0-2.589 2.668-2.258 19.827-.369 21.662 1.888 1.834 10.393 2.267 11.703 2.773.786.304 1.889 1.846 3.307 4.625 1.453-2.759 2.476-4.294 3.07-4.606.358-.188 2.649-.064 4.698-.064" stroke="#E1E4EA" stroke-linecap="round" stroke-linejoin="round"/><path d="m129.96 118.43 5.736 5.57 10.264-11" stroke="#E1E4EA" stroke-linecap="round" stroke-linejoin="round"/><path d="M242.428 160.278c-2.052-5.92-5.019-12.599-9.273-19.818-13.774-23.373-27.192-30.085-30.419-30.481-6.559-.805-48.396 14.599-51.134 18.827-2.738 4.229-8.502 24.062 7.723 54.583 16.225 30.521 30.976 36.897 36.442 37.568 5.465.671 49.775-25.841 50.88-34.834.296-2.411.358-8.484-1.673-17.117" stroke="#323A48" stroke-linecap="round" stroke-linejoin="round"/><path d="M247.223 181.433c10.355-4.852 82.643-51.533 83.745-60.506.559-4.558-.474-15.026-7.386-25.521-1.711-2.6-3.359-4.865-4.971-6.816m-108.345 24.581c14.602-5.766 87.359-34.937 93.945-34.129 3.614.444 7.015 2.169 10.49 5.37m8.853 45.241-18.975 15.072" stroke="#323A48" stroke-linecap="round" stroke-linejoin="round"/><path d="M331.54 116.26c4.616-2.44 31.283-22.06 31.824-26.466.275-2.239-1.41-7.13-4.646-12.426-3.235-5.297-8.53-10.133-11.443-10.49-2.913-.358-17.67 5.43-36.728 13.99M179.038 149.454c3.508 4.862 7.071 10.7 10.439 17.485 12.639 25.463 10.435 43.411 6.694 46.368-3.742 2.957-19.143-9.182-32.195-31.281-13.052-22.098-12.241-47.049-7.39-49.87 1.524-.886 4.09-.295 7.285 1.722m5.131 4.015c1.9 1.744 3.911 3.856 5.978 6.327l-5.978-6.327Z" stroke="#323A48" stroke-linecap="round" stroke-linejoin="round"/><path d="M356.495 74.043c2.966-1.395 4.211-4.086 3.736-8.072M359.014 77.883c1.411-1.566 3.977-1.91 7.698-1.034" stroke="#323A48" stroke-linecap="round" stroke-linejoin="round"/><path d="M362.863 71.748c-2.067-2.694-3.596-7.542-2.535-9.534.465-.873 1.852-.807 2.535 0 .843.998 1.072 3.194 3.225 6.47 2.29 3.487 4.58 5.636 5.437 7.127.578 1.003.262 1.764-.443 2.072-2.002.874-4.269-.37-6.185-3.278M173.095 188.225c1.754 2.666 3.323 4.854 4.709 6.563 8.838 10.898 14.265 14.75 15.589 11.751m-24.732-25.42a327.956 327.956 0 0 0 2.27 3.721l-2.27-3.721ZM324.885 142.525c2.231-4.87 1.265-9.705-.791-12.873m-19.198 15.073a6.878 6.878 0 0 0 2.579 3.275l-2.579-3.275Zm6.479 4.417c3.822.337 8.368-1.185 10.824-3.225l-10.824 3.225Z" stroke="#323A48" stroke-linecap="round" stroke-linejoin="round"/><path d="M312.213 146.128c-3.934 12.702-26.079 75.159-26.079 77.967 0 3.108 3.461 5.822 2.601 7.08-.405.593-4.69.683-9.014.776-4.845.103-9.761.127-9.761-.776 0-1.71 7.794-5.454 9.761-7.597 1.966-2.143 29.12-79.54 30.332-80.207.794-.437 1.619-.392 2.16.062M320.584 137.344c.682-.454 1.727-.451 2.088-.036.554.637 29.124 82.397 30.674 85.112m-2.494 9.572c-4.428-.039-9.636.077-9.843-1.186-.409-2.492 4.862-4.522 5.415-8.386.505-3.525-21.944-69.297-25.879-81.899M317.305 148.434c.083 45.102.188 68.378.727 70.695.84 3.605 6.771 6.717 5.826 8.776-.471 1.027-5.127 1.058-9.898 1.086-4.79.029-9.694.051-9.969-1.086-.549-2.27 6.402-6.131 7.531-8.776.729-1.709 1.737-24.619 2.83-70.04M248.668 195.183l41.522-6.796M10 234.251l92.035-15.065L10 234.251Zm148.51-24.31 11.819-1.934-11.819 1.934ZM301.368 186.767l8.7-1.261M320.388 184.01l10.928-1.584M342.151 180.855 449.96 165.23M85.117 247.017c4.502-.689 3.685-10.405-1.151-9.582-2.077.353-2.02 5.283-5.541 6.888M72.7 244.747c-3.773-3.33-2.235-6.395-4.934-6.897-4.215-.786-10.456 8.125-2.145 9.366" stroke="#323A48" stroke-linecap="round" stroke-linejoin="round"/><path clip-rule="evenodd" d="M86.158 249.098c.63.76.888 2.231.777 4.414l-1.222-1.988L83.836 254c-.056-2.652-.414-4.286-1.074-4.902-.66-.617-1.927-.983-3.802-1.098 4.169-.029 6.568.337 7.198 1.098Z" stroke="#323A48" stroke-linecap="round" stroke-linejoin="round"/><path d="M79.92 258.295c.674-.376 1.356-9.192.188-10.107-.263-.206-7.932-.234-8.367-.127-1.361.337-.665 9.772 0 10.234" stroke="#323A48" stroke-linecap="round" stroke-linejoin="round"/><path clip-rule="evenodd" d="M65.775 249.219c-.636.835-.9 2.747-.791 5.736l1.415-1.75 1.784 1.794c.04-2.313.222-3.832.543-4.559.79-1.785 2.452-2.385 3.767-2.441-3.842-.022-6.082.385-6.718 1.22Z" stroke="#323A48" stroke-linecap="round" stroke-linejoin="round"/><path d="M62.61 258.94s.412 12.613 2.761 13.973c2.35 1.361 18.359 1.734 20.103-.389 1.745-2.122 1.706-14.516 1.706-14.516" stroke="#323A48" stroke-linecap="round" stroke-linejoin="round"/><path d="M72.493 258.734c-.527 1.325-.009 14.336 1.108 15.013m4.824.176c.952-.781 1.503-13.677.885-15.348" stroke="#323A48" stroke-linecap="round" stroke-linejoin="round"/><path d="M64.595 248.336c-2.477 0-3.97.48-4.218.779-1.035 1.248-.36 8.908.468 9.373.827.465 28 .097 28.77-1.039.769-1.136.95-8.041.02-9.113-.18-.206-1.346-.373-3.12-.498M70.634 245.412c-2.666-1.002-3.683-3.411-6.627-1.527M80.426 245.245c3.29-.911 3.533-3.415 5.741-1.479M405.606 236.119c-.01.595-.303 10.727-1.93 12.924-1.628 2.196-40.849 2.172-42.995-.038-1.164-1.198-2.063-7.03-2.069-13.656" stroke="#323A48" stroke-linecap="round" stroke-linejoin="round"/><path d="M376.062 235.717c-.308 1.592-.308 12.636 1.265 14.748m9.08 0c.787-.652 1.559-11.801.797-14.465M382.927 235.715c-9.916-.157-25.47-.532-26.079-1.366-1.231-1.687-2.05-10.831-.46-12.162.394-.33 3.664-.626 8.38-.853m34.519-.279c4.782.182 8.088.501 8.438.991 1.395 1.953.7 12.868-.571 13.459-.556.258-13.335.333-21.966.26M378.056 220.84c.009-2.211.232-2.414.701-3.106.828-1.22 5.9-.883 6.933.774.389.626.373 1.722.361 2.494M378.259 218.001c-5.186-3.422-7.794-13.363-12.697-12.991-4.527.344-10.11 13.698-3.715 14.991M385.621 218.362c6.291-1.994 6.993-11.437 11.963-11.36 5.191.081 8.671 12.255 5.172 13.406" stroke="#323A48" stroke-linecap="round" stroke-linejoin="round"/><path d="M376.063 218.36c-5.497-1.024-10.719-4.815-12.468-4.359-1.165.304-1.659 1.304-1.48 3M389.541 218.361c4.95-.712 7.197-2.742 9.515-2.583 2.318.16 2.049 2.671 1.503 3.447M386.056 220.002c6.671-.061 10.51.67 11.518 2.191 1.007 1.521 1.422 4.465 1.243 8.831l-1.955-3.977-3.004 4.955c.067-5.728-.406-8.921-1.422-9.577-1.015-.657-3.142-1.112-6.38-1.366" stroke="#323A48" stroke-linecap="round" stroke-linejoin="round"/><path d="M387.762 235.638c.862-.807.879-12.346-.616-14.308-.336-.44-10.154-.501-10.71-.271-1.742.721-1.224 13.588-.373 14.579" stroke="#323A48" stroke-linecap="round" stroke-linejoin="round"/><path d="M377.845 219.672c-5.893-.046-9.377.79-10.452 2.506-1.075 1.716-1.52 4.96-1.337 9.732l2.391-3.596 3.015 3.687c-.264-7.11 1.393-10.757 4.973-10.942M367.056 208.002c.809.471 1.476 1.137 2 2M398.056 210.002c1.032.6 1.698 1.6 2 3M112.093 234.524c.011.714.479 20.722 2.161 23.395 1.681 2.674 32.998 3.215 35.471.315 1.099-1.289 1.967-9.192 2.603-23.71" stroke="#323A48" stroke-linecap="round" stroke-linejoin="round"/><path d="M137.38 235.07c1.023 1.975 0 23.723-1.022 24.996m-8.795.001c-.601-1.234-2.223-23.634-1.224-24.801M131.673 235.003c11.06-.196 23.031-.231 23.712-1.178 1.376-1.915 2.684-12.697.912-14.203-.368-.313-2.557-.596-5.808-.826m-35.336-.294c-3.454.221-5.779.56-6.116 1.04-1.56 2.216-.93 13.658.487 14.326.619.292 10 1.293 19.626 1.196M127.96 217.838c.01-2.211.232-2.414.702-3.106.827-1.22 5.9-.883 6.932.774.39.626.373 1.723.362 2.494M128.164 214.999c-5.187-3.422-7.795-13.363-12.697-12.991-4.528.344-10.111 13.698-3.716 14.991M135.525 215.36c6.291-1.994 6.993-11.437 11.963-11.36 5.192.081 8.672 12.255 5.173 13.406" stroke="#323A48" stroke-linecap="round" stroke-linejoin="round"/><path d="M125.967 215.36c-5.497-1.024-10.72-4.815-12.468-4.359-1.166.304-1.659 1.304-1.481 3M139.445 215.359c4.951-.712 7.197-2.742 9.515-2.583 2.318.16 2.049 2.671 1.504 3.447M135.96 217c6.671-.061 10.51.67 11.518 2.191 1.008 1.521 1.422 4.465 1.244 8.831l-1.956-3.977-3.004 4.955c.068-5.728-.406-8.921-1.422-9.577-1.015-.657-3.142-1.112-6.38-1.366" stroke="#323A48" stroke-linecap="round" stroke-linejoin="round"/><path d="M137.459 234.629c.862-.807 1.086-14.339-.41-16.3-.336-.441-10.153-.502-10.71-.272-1.741.721-.851 16.022 0 17.013" stroke="#323A48" stroke-linecap="round" stroke-linejoin="round"/><path d="M127.749 216.67c-5.893-.046-9.376.79-10.451 2.506-1.075 1.716-1.521 4.96-1.338 9.733l2.391-3.597 3.015 3.687c-.264-7.11 1.394-10.757 4.974-10.942M116.96 205c.81.471 1.476 1.137 2 2M147.96 207c1.032.6 1.699 1.6 2 3M199.826 114.038c3.068-.477 5.857.648 8.367 3.373M320.26 96.781a17.928 17.928 0 0 1 3.7 6.38M345.937 69.376c1.175-.244 2.35.193 3.526 1.31M73.074 247.561c-.222-1.719-.12-2.762.309-3.127.642-.547 4.7-.67 5.21.183.34.569.444 1.495.31 2.78" stroke="#323A48" stroke-linecap="round" stroke-linejoin="round"/></svg>