<?xml version="1.0" encoding="utf-8"?>
<svg xmlns="http://www.w3.org/2000/svg">
    <symbol id="automatic-send"><path d="m6.704 13.577 2.86 3.005a.5.5 0 0 1-.725.69L6.706 15.03v.735c0 5.102 4.002 9.22 8.944 9.22 2.668 0 5.066-1.106 6.724-3.133a.5.5 0 1 1 .774.633c-1.85 2.262-4.533 3.5-7.498 3.5-5.501 0-9.944-4.572-9.944-10.22v-.53l-1.942 1.889a.5.5 0 0 1-.696-.717l2.925-2.843a.5.5 0 0 1 .71.013Zm8.683-7.448c5.502 0 9.944 4.572 9.944 10.22v.527l1.942-1.886a.5.5 0 0 1 .697.717l-2.925 2.843a.5.5 0 0 1-.711-.014l-2.86-3.005a.5.5 0 0 1 .724-.69l2.133 2.243v-.735c0-5.102-4.001-9.22-8.944-9.22-2.668 0-5.066 1.106-6.724 3.133a.5.5 0 1 1-.774-.634c1.85-2.261 4.534-3.5 7.498-3.5Z"/>
    </symbol>
    <symbol id="budget-managment"><path d="M25 5a1 1 0 0 1 1 1v19a1 1 0 0 1-1 1H6a1 1 0 0 1-1-1V6a1 1 0 0 1 1-1h19ZM15 16H6v9h9v-9Zm10 0h-9v9h9v-9Zm-12.379 1.672.707.707-2.121 2.121 2.121 2.121-.707.707-2.121-2.121-2.121 2.121-.707-.707L9.793 20.5l-2.121-2.121.707-.707 2.121 2.121 2.121-2.121ZM18 21h5v1h-5v-1Zm0-2h5v1h-5v-1Zm7-13h-9v9h9V6ZM15 6H6v9h9V6Zm-4 2v2h2v1h-2v2h-1v-2H8v-1h2V8h1Zm12 2v1h-5v-1h5Z"/>
    </symbol>
    <symbol id="dashboard"><path d="M15.5 5C21.299 5 26 9.701 26 15.5S21.299 26 15.5 26 5 21.299 5 15.5 9.701 5 15.5 5Zm.28 1.004 1.87 6.734a3.5 3.5 0 1 1-4.299 0l1.87-6.734a9.5 9.5 0 0 0-9.208 8.997L8 15v1H6.013A9.5 9.5 0 0 0 15 24.987L15 23h1v1.987A9.501 9.501 0 0 0 24.987 16H23v-1h1.987a9.5 9.5 0 0 0-9.207-8.996Zm-.28 2.732-1.274 4.587-.26.203a2.5 2.5 0 1 0 3.07 0l-.262-.203L15.5 8.736Z"/>
    </symbol>
    <symbol id="exit"><path d="M18 6.3c4.592 1.121 8 5.263 8 10.2C26 22.299 21.299 27 15.5 27S5 22.299 5 16.5c0-4.938 3.408-9.08 8-10.2v1.032C8.966 8.43 6 12.118 6 16.5a9.5 9.5 0 0 0 19 0c0-4.381-2.966-8.07-7-9.167V6.3ZM16 4v9h-1V4h1Z"/>
    </symbol>
    <symbol id="guide-video"><path d="M11 24v1h15v1H11v1h-1v-1H5v-1h5v-1h1ZM25 6a1 1 0 0 1 1 1v13a1 1 0 0 1-1 1H6a1 1 0 0 1-1-1V7a1 1 0 0 1 1-1h19Zm0 1H6v13h19V7ZM12 9l8 4.5-8 4.5V9Zm1 1.71v5.58l4.96-2.79L13 10.71Z"/>
    </symbol>
    <symbol id="mail"><path d="M23 3v10l3 2v11a2 2 0 0 1-2 2H7a2 2 0 0 1-2-2V15l3-2v.001V3h15ZM5.999 15.779 6 26a1 1 0 0 0 1 1h17a1 1 0 0 0 1-1l-.001-10.22-9.499 5.806-9.501-5.807ZM22 4H9v12.442l6.5 3.972 6.5-3.973V4Zm1 10.202v1.628l1.274-.779L23 14.202Zm-15-.001-1.275.85L8 15.83v-1.629ZM16.5 11a.5.5 0 0 1 0 1h-5a.5.5 0 0 1 0-1h5Zm3-2a.5.5 0 0 1 0 1h-8a.5.5 0 0 1 0-1h8Zm0-2a.5.5 0 0 1 0 1h-8a.5.5 0 0 1 0-1h8Z"/>
    </symbol>
    <symbol id="manual-send"><path d="M13 .5a6.5 6.5 0 0 1 2.408 12.54v1.674c.227.01.475.025.737.047.922.076 1.846.214 2.712.428 2.059.51 3.502 1.374 4.018 2.734.35.924.426 1.802.282 2.774-.054.367-.138.746-.26 1.198-.049.176-.1.358-.171.598l-.18.61c-.387 1.33-.584 2.296-.63 3.397H22a1.5 1.5 0 0 1 1.5 1.5v2a.5.5 0 1 1-1 0v-2a.5.5 0 0 0-.5-.5H11a.5.5 0 0 0-.5.5v2a.5.5 0 1 1-1 0v-2a1.5 1.5 0 0 1 1.307-1.488v-1.56l-2.316-3.475c-1.923-2.884-2.497-4.15-1.66-5.106.717-.82 1.603-.624 2.843.193.13.086.26.175.442.302l.216.154.475.405v-4.304A6.5 6.5 0 0 1 13 .5Zm.107 7c-.724 0-1.3.576-1.3 1.3v9.7a.5.5 0 0 1-.82.384A102.83 102.83 0 0 1 9.72 17.81l-.052-.037-.072-.05-.053-.037a18.256 18.256 0 0 0-.419-.287c-.857-.565-1.287-.66-1.54-.37-.34.389.204 1.59 1.74 3.894l2.4 3.6a.5.5 0 0 1 .083.277v1.7h9.11c.044-1.21.256-2.257.67-3.676.176-.609.29-1 .368-1.277l.051-.187a6 6 0 0 0 .095-.395l.02-.107c.015-.09.029-.185.047-.308.12-.81.059-1.515-.228-2.273-.368-.97-1.553-1.678-3.323-2.117-.81-.2-1.681-.33-2.554-.402a18.058 18.058 0 0 0-1.156-.058.5.5 0 0 1-.5-.5V8.8c0-.724-.576-1.3-1.3-1.3ZM13 1.5a5.5 5.5 0 0 0-2.192 10.546V8.8c0-1.276 1.023-2.3 2.3-2.3 1.275 0 2.3 1.024 2.3 2.3v3.147A5.502 5.502 0 0 0 13 1.5Z"/>
    </symbol>
    <symbol id="payment"><path d="M26 7a1 1 0 0 1 1 1v16a1 1 0 0 1-1 1H5a1 1 0 0 1-1-1V8a1 1 0 0 1 1-1h21Zm0 7H4.999L5 24h21V14Zm-14 3a2 2 0 1 1 0 4h-2a2 2 0 1 1 0-4h2Zm0 1h-2a1 1 0 1 0 0 2h2a1 1 0 1 0 0-2Zm14-7H4.999v2H26v-2Zm0-3H5l-.001 2H26V8Z"/>
    </symbol>
    <symbol id="print"><path d="M23 3v4h1a3 3 0 0 1 3 3v9a3 3 0 0 1-3 3h-1v6H8v-6H7a3 3 0 0 1-3-3v-9a3 3 0 0 1 3-3h1V3h15Zm-1 17H9v7h13v-7Zm-2.5 4a.5.5 0 0 1 0 1h-8a.5.5 0 0 1 0-1h8Zm0-2a.5.5 0 0 1 0 1h-8a.5.5 0 0 1 0-1h8ZM24 8H7a2 2 0 0 0-2 2v9a2 2 0 0 0 2 2h1v-2h15v2h1a2 2 0 0 0 2-2v-9a2 2 0 0 0-2-2Zm-.5 2a.5.5 0 0 1 0 1h-4a.5.5 0 0 1 0-1h4ZM22 4H9v3h13V4Z"/>
    </symbol>
    <symbol id="redeem"><path d="M26 12a1 1 0 0 1 1 1v13a1 1 0 0 1-1 1H5a1 1 0 0 1-1-1V13a1 1 0 0 1 1-1l2-.001V12h17v-.001L26 12Zm0 11H5v3h21v-3ZM11.458 12.999 5 13v9h21v-9h-9.064l4.328 4.328-.707.707-5.026-5.025-5.024 5.025-.707-.707L14.127 13H11.5l-.042-.001ZM19.5 4a4.5 4.5 0 0 1 3.741 7.001h-1.293A3.5 3.5 0 1 0 16 8.5V11h-1V8.5a3.5 3.5 0 1 0-5.948 2.501H7.759A4.5 4.5 0 1 1 15.5 6.438 4.494 4.494 0 0 1 19.5 4Z"/>
    </symbol>
    <symbol id="reports"><path d="M25 6a1 1 0 0 1 1 1v14a1 1 0 0 1-1 1h-7.974l4.656 4.657-.707.707L16 22.389V27h-1v-4.612l-4.975 4.976-.707-.707L13.973 22H6a1 1 0 0 1-1-1V7a1 1 0 0 1 1-1h19Zm0 5H6v10h19V11Zm-15 4v4H9v-4h1Zm4-2v6h-1v-6h1Zm4 3v3h-1v-3h1Zm4-1v4h-1v-4h1Zm3-8H6v3h19V7Z"/>
    </symbol>
    <symbol id="setting"><path d="M16 2.5A2.5 2.5 0 0 1 18.5 5v.958a9.938 9.938 0 0 1 1.625.674l.678-.678a2.5 2.5 0 0 1 3.536 0l.707.707a2.5 2.5 0 0 1 0 3.536l-.678.678c.272.52.498 1.063.674 1.625H26a2.5 2.5 0 0 1 2.5 2.5v1a2.5 2.5 0 0 1-2.5 2.5h-.958a9.937 9.937 0 0 1-.674 1.625l.678.678a2.5 2.5 0 0 1 0 3.536l-.707.707a2.5 2.5 0 0 1-3.536 0l-.678-.678a9.937 9.937 0 0 1-1.625.674V26a2.5 2.5 0 0 1-2.5 2.5h-1a2.5 2.5 0 0 1-2.5-2.5v-.958a9.937 9.937 0 0 1-1.626-.674l-.677.678a2.5 2.5 0 0 1-3.536 0l-.707-.707a2.5 2.5 0 0 1 0-3.536l.678-.678a9.938 9.938 0 0 1-.674-1.625H5A2.5 2.5 0 0 1 2.5 16v-1A2.5 2.5 0 0 1 5 12.5h.958a9.938 9.938 0 0 1 .674-1.626l-.678-.677a2.5 2.5 0 0 1 0-3.536l.707-.707a2.5 2.5 0 0 1 3.536 0l.678.678a9.938 9.938 0 0 1 1.625-.674V5A2.5 2.5 0 0 1 15 2.5h1Zm0 1h-1A1.5 1.5 0 0 0 13.5 5v1.715l-.369.1c-.734.2-1.438.492-2.097.87l-.331.19L9.49 6.66a1.5 1.5 0 0 0-2.122 0l-.707.707a1.5 1.5 0 0 0 0 2.122l1.213 1.213-.19.331a8.942 8.942 0 0 0-.87 2.097l-.1.369H5A1.5 1.5 0 0 0 3.5 15v1A1.5 1.5 0 0 0 5 17.5h1.715l.1.369c.2.734.492 1.438.87 2.097l.19.331L6.66 21.51a1.5 1.5 0 0 0 0 2.122l.707.707a1.5 1.5 0 0 0 2.122 0l1.213-1.213.331.19c.659.377 1.363.67 2.097.87l.369.1V26a1.5 1.5 0 0 0 1.5 1.5h1a1.5 1.5 0 0 0 1.5-1.5v-1.715l.369-.1a8.943 8.943 0 0 0 2.097-.87l.331-.19 1.213 1.214a1.5 1.5 0 0 0 2.122 0l.707-.707a1.5 1.5 0 0 0 0-2.122l-1.213-1.213.19-.331c.377-.659.67-1.363.87-2.097l.1-.369H26a1.5 1.5 0 0 0 1.5-1.5v-1a1.5 1.5 0 0 0-1.5-1.5h-1.715l-.1-.369a8.943 8.943 0 0 0-.87-2.097l-.19-.331L24.34 9.49a1.5 1.5 0 0 0 0-2.122l-.707-.707a1.5 1.5 0 0 0-2.122 0l-1.213 1.213-.331-.19a8.942 8.942 0 0 0-2.097-.87l-.369-.1V5A1.5 1.5 0 0 0 16 3.5Zm-.5 7a5 5 0 1 1 0 10 5 5 0 0 1 0-10Zm0 1a4 4 0 1 0 0 8 4 4 0 0 0 0-8Z"/>
    </symbol>
    <symbol id="sms"><path d="M8 23v3a1 1 0 0 0 1 1h10a1 1 0 0 0 1-1v-3H8Zm6 1a1 1 0 1 1 0 2 1 1 0 0 1 0-2ZM24 9a3 3 0 0 1 3 3v3a3 3 0 0 1-3 3h-3l-4 2v-2a3 3 0 0 1-3-3v-3a3 3 0 0 1 3-3h7Zm0 1h-7a2 2 0 0 0-2 2v3a2 2 0 0 0 2 2h1v1.382L20.764 17H24a2 2 0 0 0 2-2v-3a2 2 0 0 0-2-2Zm-2.5 4a.5.5 0 0 1 0 1h-4a.5.5 0 0 1 0-1h4Zm2-2a.5.5 0 0 1 0 1h-6a.5.5 0 0 1 0-1h6Zm-8-7a.5.5 0 0 1 0 1h-3a.5.5 0 0 1 0-1h3ZM8 22h12v-2h1v6a2 2 0 0 1-2 2H9a2 2 0 0 1-2-2V5a2 2 0 0 1 2-2h10a2 2 0 0 1 2 2v3H8v14ZM8 7h12V5a1 1 0 0 0-1-1H9a1 1 0 0 0-1 1v2Z"/>
    </symbol>
    <symbol id="teams-fun-day"><path d="M15.5 8a5.5 5.5 0 0 1 2.39 10.455A6.5 6.5 0 0 1 22 24.5V27h-1v-2.5a5.5 5.5 0 1 0-11 0V27H9v-2.5a6.502 6.502 0 0 1 4.11-6.046A5.5 5.5 0 0 1 15.5 8ZM22 5a5 5 0 0 1 2.28 9.45A5.997 5.997 0 0 1 28 20v3h-1v-3a5.002 5.002 0 0 0-4-4.9v-1.226A4.002 4.002 0 0 0 22 6a3.99 3.99 0 0 0-2.956 1.305l-.96-.413A4.99 4.99 0 0 1 22 5ZM9 5c1.587 0 3 .74 3.917 1.892l-.961.413A4 4 0 1 0 8 13.875v1.225A5.002 5.002 0 0 0 4 20v3H3v-3a5.997 5.997 0 0 1 3.72-5.55A5 5 0 0 1 9 5Zm6.5 4a4.5 4.5 0 1 0 0 9 4.5 4.5 0 0 0 0-9Z"/>
    </symbol>
    <symbol id="user-managment"><path d="M21 13a2 2 0 0 1 2 2v.341A5.994 5.994 0 0 1 24.9 16.44l.297-.171a2 2 0 1 1 2 3.464l-.296.171a6.034 6.034 0 0 1 0 2.194l.296.171a2 2 0 0 1-2 3.464l-.297-.171A5.994 5.994 0 0 1 23 26.659V27a2 2 0 1 1-4 0v-.341A5.994 5.994 0 0 1 17.1 25.56l-.297.171a2 2 0 1 1-2-3.464l.296-.171a6.034 6.034 0 0 1 0-2.194l-.296-.171a2 2 0 0 1 2-3.464l.297.171A5.994 5.994 0 0 1 19 15.341V15a2 2 0 0 1 2-2Zm0 1a1 1 0 0 0-1 1.001l-.001 1.048-.666.235a4.992 4.992 0 0 0-1.582.915l-.537.46-.91-.525a1 1 0 1 0-1 1.732l.908.524-.129.695a5.034 5.034 0 0 0 0 1.83l.129.695-.908.524a1 1 0 1 0 1 1.732l.91-.525.537.46c.467.4 1.003.71 1.582.915l.666.235L20 27a1 1 0 1 0 2-.001l.001-1.048.666-.235a4.992 4.992 0 0 0 1.582-.915l.537-.46.91.525a1 1 0 1 0 1-1.732l-.908-.524.129-.695a5.034 5.034 0 0 0 0-1.83l-.129-.695.908-.524a1 1 0 1 0-1-1.732l-.91.525-.537-.46a4.992 4.992 0 0 0-1.582-.915l-.666-.235L22 15a1 1 0 0 0-1-1ZM11.5 3a6.5 6.5 0 0 1 5.33 10.22l-.832-.555A5.5 5.5 0 1 0 11 14.977v1.042A6.5 6.5 0 0 0 5 22.5V25H4v-2.5a7.503 7.503 0 0 1 4.905-7.039A6.5 6.5 0 0 1 11.5 3ZM21 18a3 3 0 1 1 0 6 3 3 0 0 1 0-6Zm0 1a2 2 0 1 0 0 4 2 2 0 0 0 0-4Z"/>
    </symbol>
    <symbol id="whatsapp"><path d="M16.556 1a13.39 13.39 0 0 1 9.51 3.924A13.265 13.265 0 0 1 30 14.389c-.003 7.377-6.034 13.379-13.443 13.379h-.006c-2.25 0-4.46-.563-6.424-1.628L3 28l1.907-6.933a13.308 13.308 0 0 1-1.794-6.689C3.116 7.002 9.146 1 16.556 1Zm0 1C9.698 2 4.116 7.555 4.113 14.379c-.001 2.18.57 4.309 1.66 6.186l.21.363-1.56 5.667 5.834-1.523.347.189a12.488 12.488 0 0 0 5.947 1.507c6.864 0 12.446-5.556 12.449-12.38a12.265 12.265 0 0 0-3.64-8.756A12.389 12.389 0 0 0 16.556 2Zm-4.553 5c.32 0 .459.001.627.01.722.031 1.242.356 1.598 1.209.103.246.244.61.439 1.123l.02.055c.079.206.322.851.345.914l.04.103.064.17.062.16c.214.46.261.938.027 1.445l-.098.213a2.667 2.667 0 0 1-.346.563c-.02.024-.037.048-.06.078l-.091.118c-.095.125-.163.212-.22.284.372.642.86 1.315 1.44 1.873.48.462.952.81 1.43 1.086.146.084.407.215.615.317.28-.356.582-.76.69-.934.248-.403.6-.67 1.057-.726.321-.04.54.015.878.148.289.113 1.475.73 2.295 1.172l.25.132c.117.061.199.108.282.163.2.132.36.285.481.503.279.503.2 1.5-.112 2.439-.37 1.12-1.941 2.215-3.01 2.32l-.021.002a8.198 8.198 0 0 0-.148.018c-1.05.133-2.026-.051-4.159-.958-1.3-.553-2.494-1.439-3.585-2.564a16.89 16.89 0 0 1-1.661-2.01 19.408 19.408 0 0 1-.648-.981l-.007-.011-.115-.17a8.773 8.773 0 0 1-.474-.798l-.122-.238C9.289 13.265 9 12.283 9 11.308c0-1.096.282-2 .768-2.76.11-.174.226-.331.353-.487.054-.066.18-.213.225-.264l.012-.013C10.805 7.258 11.4 7 11.972 7h.031Zm-.03 1c-.214 0-.56.086-.853.432l-.103.118C10.669 8.952 10 9.78 10 11.308c0 1.697 1.146 3.336 1.306 3.566.16.23 2.213 3.824 5.464 5.206 2.702 1.149 3.252.92 3.838.863.586-.058 1.892-.834 2.159-1.64.266-.805.266-1.495.186-1.64-.08-.143-.293-.23-.613-.401-.32-.173-1.892-1.008-2.185-1.122-.294-.116-.507-.173-.72.172-.213.345-.826 1.122-1.013 1.352-.186.23-.373.259-.693.087-.32-.173-1.35-.537-2.572-1.712-.95-.914-1.592-2.043-1.779-2.388-.187-.345-.02-.532.14-.704.144-.154.32-.402.48-.604.16-.201.213-.345.32-.575.106-.23.053-.432-.027-.604s-.701-1.878-.986-2.56c-.24-.574-.492-.586-.72-.596C12.4 8 12.185 8 11.972 8Z"/>
</symbol></svg>