<svg width="460" height="300" fill="none" xmlns="http://www.w3.org/2000/svg"><path fill-rule="evenodd" clip-rule="evenodd" d="M253.288 114.889c0 19.472-1.512 36.661-4.537 51.565-3.024 14.905-6.862 27.435-11.516 37.59 4.545-7.238 12.389-12.613 23.532-16.127 16.714-5.269 34.626-2.966 38.479-4.41 1.581-.593 4.426-2.511 6.561-6.992.89-1.868 2.004-5.636 3.342-11.305-3.661 8.137-7.183 12.762-10.566 13.875-5.911 1.945-46.595 8.162-45.295-15.252 1.356-24.438 1.356-40.753 0-48.944Z" fill="#FFA126"/><path fill-rule="evenodd" clip-rule="evenodd" d="M309.896 142.334c1.157 9.812.636 18.409-1.565 25.79-2.2 7.381-5.229 12.509-9.085 15.383l-4.997 1.004c2.359 2.843 4.481 4.265 6.365 4.265 2.826 0 7.262 1.082 9.282 0 .889-.476 4.306-2.14 7.185-6.151.985-1.374 2.214-4.093 3.687-8.158-2.42 3.826-4.458 6.014-6.114 6.563-2.839.94-5.505-1.064-4.306-8.54 1.887-13.115 1.736-23.168-.452-30.156Z" fill="#FFA126"/><path fill-rule="evenodd" clip-rule="evenodd" d="M319.586 137.771c3.684 7.255 4.564 17.259 2.64 30.011-2.411 15.982-10.575 20.775-11.877 20.995-1.893.32-4.128.481-6.704.481.441 1.048 1.469 1.787 3.083 2.216 1.615.429 4.755 1.114 9.42 2.055 1.187-1.066 2.333-1.6 3.438-1.6 1.657 0 24.675.733 24.675 1.917 0 .79.228 1.883.685 3.281 7.535 1.289 13.038 1.065 16.51-.673 3.473-1.738 6.861-6.439 10.166-14.102-1.572 4.142-4.961 6.444-10.166 6.906-5.122.454-38.208 3.012-37.063-12.136 1.52-20.103-.082-33.22-4.807-39.351Z" fill="#FFA126"/><path fill-rule="evenodd" clip-rule="evenodd" d="M344.362 194.171c-5.049-1.112-8.591-1.746-10.627-1.902-10.433-.8-15.797-.075-16.53 0-.948.097-1.24 1.683-.874 4.76 1.233.423 2.165 1.36 2.796 2.812.947 2.177 1.116 5.571 0 7.022-1.117 1.451-4.809 2.847-4.809 5.995s.353 15.212-3.245 20.252c-3.599 5.041-8.197 11.458-7.707 14.805.398 2.716 5.891 5.274 12.292 7.692 7.951 3.005 17.538 4.056 18.673 3.294 1.365-.918 2.879-2.954 4.542-6.107-1.559 1.651-4.058 2.342-7.497 2.073-13.14-1.029-21.065-4.665-17.058-13.887 5.203-11.975 2.888-24.096 5.618-28.437 2.731-4.342 3.38-9.609 1.959-14.593-.948-3.322 6.741-3.629 23.066-.921l-.599-2.858ZM191.213 140.447c-1.121 8.883-1.765 15.16-1.932 18.831-.968 21.287-.048 35.509 1.932 44.767 3.74 17.481 11.367 27.598 23.077 23.22 4.414-1.651 15.025-8.98 21.559-20.354 3.347-5.827 7.28-17.165 11.8-34.015-1.916 5.942-4.147 8.653-6.693 8.134-2.546-.518-3.524-3.23-2.932-8.134-4.162 12.788-7.372 21.359-9.631 25.713-6.377 12.289-13.058 17.484-16.38 17.006-2.606-.375-11.136 0-16.688-21.443-3.701-14.296-4.34-32.028-1.919-53.197l-2.193-.528ZM191.468 138.49c1.629-10.145 2.996-17.006 4.1-20.582 1.103-3.576 2.328-7.587 3.673-12.033-1.75 8.194-2.974 14.349-3.673 18.463-.7 4.115-1.322 8.832-1.868 14.152h-2.232Z" fill="#FFA126"/><path fill-rule="evenodd" clip-rule="evenodd" d="M200.197 197.004c3.528 12.406 7.467 18.609 11.816 18.609 4.35 0 9.81-5.668 16.38-17.006-4.884 6.938-9.164 10.625-12.841 11.061-7.446.885-12.564-3.337-15.355-12.664ZM71.62 85.584c.973 7.26 3.055 14.834 6.245 22.725 9.681 23.952 20.64 41.298 23.528 41.298 2.551 0 13.184-3.169 26.977-8.873 4.709-1.947 12.426-5.511 23.151-10.69l21 4.137-5.552 3.863 40.527 3.782-34.306-5.199 4.966-3.721c-11.483-2.033-17.946-3.728-19.388-5.084-2.162-2.034 8.109-5.904 12.997-10.226 4.887-4.323 4.389-5.162 4.267-7.173-3.637 5.577-53.04 32.067-70.844 27.045-11.868-3.347-23.058-20.642-33.569-51.884ZM234.819 162.945c-2.961 2.319-6.75 2.108-11.368-.633 5.587 6.261 8.826 10.738 9.718 13.429.893 2.691 1.113 5.761.66 9.211 2.702-7.699 4.512-13.658 5.432-17.877.919-4.22 1.829-10.75 2.731-19.591-1.821 7.989-4.212 13.142-7.173 15.461Z" fill="#FFA126"/><path fill-rule="evenodd" clip-rule="evenodd" d="M116.842 78.857c-1.842 1.19-2.456 2.391-1.842 3.607.478.947 3.642 8.35 7.194 14.075 3.288 5.296 6.965 9.002 7.806 8.461 1.166-.75 1.499-2.598 1-5.544-1.76 1.728-4.427-.485-8-6.64-3.573-6.154-5.626-10.807-6.158-13.959ZM132.709 110c-1.019.674-4.568 2.956-1.71 6.61 1.906 2.436 4.174 2.098 6.805-1.014-.472-1.177-1.595-1.596-3.366-1.258-2.658.508-3.214-2.648-1.729-4.338Z" fill="#FFA126"/><path d="m178.657 117.466 11.636 7.415M10 10l63.952 40.75L10 10Zm74.87 47.706 12.228 7.792-12.228-7.792ZM179.525 110.813l11.391 8.868M50.041 10l63.11 49.135L50.041 10ZM153.289 30.271l44.041 68.578M140.271 10l7.285 11.345L140.271 10ZM196.241 77.719l5.061 10.75M164.365 10l27.604 58.643L164.365 10ZM212.015 10l7.163 54.446M271.812 10l-18.984 64.564M291.285 10l-34.428 79.576M272.338 99.145l-6.861 8.422M344.962 10l-48.675 59.748L344.962 10Zm-54.461 66.85L278.404 91.7l12.097-14.848ZM377.577 24.522l-105.162 90.076M394.531 10l-9.687 8.297L394.531 10ZM336.34 113.336l-40.073 14.071M450 73.426l-104.399 36.658L450 73.426ZM450 91l-129.163 35.012M421.976 124.548l-68.644 9.304M450 120.75l-17.103 2.318L450 120.75ZM450 185.983l-71.267-11.52M426.473 199.634l-50.719-12.716M450 205.532l-14.436-3.619L450 205.532ZM359.026 214.928l-13.201-6.617M450 260.531l-80.927-40.567L450 260.531ZM308.963 213.315l-30.945-24.774m126.728 101.458-58.693-46.99 58.693 46.99ZM308.941 223.45l-36.152-33.622m107.71 100.171-36.877-34.296 36.877 34.296ZM288.329 267.591l-35.233-71.339m46.301 93.749-7.142-14.461 7.142 14.461ZM262.845 289.999l-19.831-85.53M240.333 235.313l-2.599-22.413m8.939 77.1-5.13-44.248 5.13 44.248ZM169.791 290l25.531-58.666M138.287 267.178l46.646-59.022M120.25 290l11.619-14.702L120.25 290ZM173.184 209.07l10.296-10.521M93.986 290l71.32-72.879L93.986 290ZM31.754 290l149.182-104.711M92.463 237.829l89.002-56.308M10 289.999l17.894-11.32L10 289.999Zm29.678-18.775 41.105-26.005-41.105 26.005ZM152.65 175.41l30.245-9.678M10 221.052l131.225-41.987L10 221.052ZM10 188.776l173.166-30.059M129.22 144.515l54.218 3.204M10 137.469l13.918.822L10 137.469Zm25.352 1.498 52.465 3.101-52.465-3.101ZM10 73.426l56.584 19.778M10 173.541l173.038-18.082" stroke="#E1E4EA" stroke-linecap="round" stroke-linejoin="round"/><path d="M246.728 177.029c1.922-7.744 3.43-16.29 4.405-25.582 5.303-50.526.726-84.803-17.405-85.56-17.645-.736-35.234 27.066-41.767 69.611m-1.093 8.037c-5.197 42.806-.625 81.69 16.342 84.253 12.176 1.839 26.037-11.286 35.159-36.355m1.847-5.449c.507-1.609.996-3.261 1.464-4.954l-1.464 4.954Z" stroke="#323A48" stroke-linecap="round" stroke-linejoin="round"/><path d="M217.877 85.043c6.005-6.487 18.243-10.724 22.378 2.846 4.135 13.569 3.811 38.935 1.466 61.07-4.776 45.07-24.071 78.377-41.109 63.759" stroke="#323A48" stroke-linecap="round" stroke-linejoin="round"/><path d="M229.438 78.961c-11.473 3.474-23.775 29.033-28.324 58.021m-.996 7.543c-.125 1.17-.237 2.342-.335 3.517-2.774 33.272-1.671 64.126 12.231 67.573M240.69 125.614c-6.311 4.241-14.494 4.67-18.177 8.101-3.923 3.656-5.452 17.808-3.851 23.18 1.494 5.012 10.029 7.435 15.028 20.061" stroke="#323A48" stroke-linecap="round" stroke-linejoin="round"/><path d="M222.309 139.254c1.179-3.401 2.71-4.923 4.594-4.566 2.825.536 2.347 5.402 1.691 11.557-.655 6.155-3.462 12.352-5.968 10.79-2.506-1.561-2.76-6.4-1.649-12.359M252.49 97.024c12.087 23.089 28.95 35.587 50.589 37.496 13.372.625 7.099 51.061-6.355 49.778-30.844-1.189-51.062 5.889-60.653 21.234" stroke="#323A48" stroke-linecap="round" stroke-linejoin="round"/><path d="M300.9 134.091c1.348-2.305 10.884-2.805 15.313.491 4.43 3.297 8.38 12.478 6.788 29.051-1.591 16.573-9.436 24.428-13.962 25.361-4.526.933-13.57-.476-14.789-4.483" stroke="#323A48" stroke-linecap="round" stroke-linejoin="round"/><path d="M310.399 132.051c2.341-4.698 45.528 6.324 51.914 8.039 6.387 1.715 15.567 13.403 11.27 33.946-4.296 20.542-11.233 23.268-18.036 23.624-1.679.088-5.611-.115-10.601-.534m-28.797-3.598c-7.027-1.269-12.071-2.708-12.504-4.11" stroke="#323A48" stroke-linecap="round" stroke-linejoin="round"/><path clip-rule="evenodd" d="M317.205 192.269c-1.531 1.185-1.402 3.654-.873 4.759.529 1.105 4.03 1.064 3.329 7.143-.702 6.079-6.198 2.74-5.665 12.908.979 18.677-12.614 26.64-10.234 31.718 2.38 5.077 27.786 12.682 31.33 9.52 11.107-9.466 3.872-52.965 5.45-55.978.711-1.358 2.466-1.627 3.229-2.452.763-.824 1.833-4.564.49-6.041-1.001-1.101-25.524-2.763-27.056-1.577Z" stroke="#323A48" stroke-linecap="round" stroke-linejoin="round"/><path d="M323.47 193.909c-.154 3.354 1.972 3.669 2.978 5.277 1.006 1.608 2.285 8.758-1.313 12.951-3.597 4.194 1.389 27.94-7.65 36.242M364.128 146.307c.969.993 1.84 2.28 2.6 4.013 1.87 4.261 2.606 11.71 1.423 20.035m-.543 3.199a60 60 0 0 1-.817 3.567M268.87 128.412c6.367 4.495 12.795 7.185 19.282 8.071m-25.306-12.878c1.496 1.294 2.619 2.236 3.369 2.826l-3.369-2.826Z" stroke="#323A48" stroke-linecap="round" stroke-linejoin="round"/><path clip-rule="evenodd" d="m207.497 141.826-28.956-6.094 5.348-4.149-22.806-7.206c9.385-5.225 14.409-9.206 15.072-11.943.993-4.104-16.957-55.468-24.633-57.597-7.675-2.128-77.56 22.746-79.902 30.748-2.342 8 22.824 61.745 28.936 63.876 4.074 1.42 21.063-5.052 50.966-19.417l21.564 3.974-6.116 4.026 40.527 3.782Z" stroke="#323A48" stroke-linejoin="round"/><path clip-rule="evenodd" d="M115.002 81.517c.145-2.724 6.775-5.63 8.756-4.088 1.981 1.54 6.237 18.14 7.065 23.014.827 4.873-1.311 6.563-4.955 1.429-3.644-5.134-11.01-17.631-10.866-20.355ZM131.9 110.471c1.953-1.045 4.705-.274 5.64 1.548.935 1.823.419 4.154-1.307 5.278-1.726 1.124-4.15.942-5.495-.848-1.344-1.79-.792-4.933 1.162-5.978Z" stroke="#323A48" stroke-linejoin="round"/></svg>