<svg width="460" height="300" fill="none" xmlns="http://www.w3.org/2000/svg"><path fill-rule="evenodd" clip-rule="evenodd" d="M184.358 133.939c-4.027 6.905-7.807 14.676-11.342 23.312-14.938 36.502-29.906 77.197-30.016 80.277-.224 6.274 11.362 19.519 18.216 17.721 4.569-1.198 12.283-4.879 23.142-11.042-16.295.39-23.442-6.78-21.44-21.509 3.992-29.369 11.138-58.956 21.44-88.759ZM226.429 182.076c-4.912 9.337-8.077 18.041-9.494 26.112-1.417 8.071-1.597 14.26-.54 18.567l5.251-2.856c-.826-6.379-.832-12.185-.019-17.418.814-5.233 2.879-13.102 6.197-23.606l-1.395-.799ZM194.25 152.38l9.088 10.931 2.783-11.62c-1.728 2.99-3.936 3.879-6.626 2.666-2.689-1.212-3.945-2.773-3.768-4.681l-1.477 2.704ZM220.892 175.796l-.551 1.895-9.035-6.937c1.124-.897 2.099-1.617 2.924-2.16.825-.544 2.184-1.362 4.077-2.453-1.727 2.227-2.035 4.227-.925 6.001s2.28 2.992 3.51 3.654ZM160.756 92.244l1.621 15.14c11.414-1.269 20.951.335 28.61 4.812 7.659 4.477 12.912 14.195 15.759 29.154l-.757-11.277c-1.217-7.704-4.775-13.874-10.675-18.51-8.85-6.953-16.883-6.953-26.163-10.65-3.948-1.573-6.746-4.463-8.395-8.669Z" fill="#FFA126"/><path fill-rule="evenodd" clip-rule="evenodd" d="m221.627 163.084-1.286 2.379c-2.072.783-3.613 1.462-4.624 2.038-1.011.575-2.34 1.53-3.987 2.864l-3.468-2.864c.15-1.881.41-3.353.78-4.417.37-1.065 1.125-2.509 2.264-4.332-.5 2.332.541 3.968 3.121 4.909 2.58.94 4.98.748 7.2-.577ZM239.331 180.15l-4.948 6.209 9.58 4.937 1.28-2.301c-1.342-.064-2.823-1.154-4.441-3.272-1.619-2.118-2.109-3.975-1.471-5.573ZM257.957 245.273l-9.642 9.975c-15.566-7.632-24.414-18.291-26.544-31.977-2.13-13.685-1.065-24.344 3.195-31.976-3.886 15.044-3.886 27.028 0 35.952 2.578 5.922 7.851 15.781 18.998 19.789 3.058 1.1 7.722.512 13.993-1.763ZM249.945 73.123l-13.538-5.879c-1.762 11.701-1.299 20.896 1.387 27.584 2.687 6.688 5.778 12.37 9.272 17.044l-3.957-9.418c-2.776-9.841-3.94-16.445-3.491-19.813.917-6.869 4.359-10.041 10.327-9.518Z" fill="#FFA126"/><path fill-rule="evenodd" clip-rule="evenodd" d="M243.964 96.574c0 6.106 1.312 11.607 3.936 16.503 3.936 7.345 9.744 14.96 9.744 19.179 0 2.813-1.836 5.38-5.507 7.702 6.144-.762 9.754-3.569 10.831-8.421 1.615-7.279-11.332-20.556-13.023-23.18-1.127-1.75-3.121-5.677-5.981-11.783ZM282.019 180.895c1.993 2.505 3.453 4.289 4.377 5.35 5.986 6.87 12.561 10.135 20.466 9.776 9.737-.441 17.129-5.483 22.175-15.126l-8.701-5.672c1.577 3.031 2.011 5.599 1.299 7.704-1.68 4.975-8.692 8.872-15.451 9.395-9.636.745-17.691-3.064-24.165-11.427ZM291.831 106.716c-3.004-3.519-4.832-7.352-5.486-11.5-.653-4.149-.718-7.402-.194-9.759l6.334-.867c-2.598 2.503-3.897 5.603-3.897 9.297 0 3.695 1.081 7.971 3.243 12.829ZM324.285 251.118l5.622 3.099a17.604 17.604 0 0 1-4.356 2.853 11.87 11.87 0 0 1-5.01 1.101l-.907-1.101c1.255-.616 2.27-1.399 3.045-2.347.775-.949 1.31-2.151 1.606-3.605ZM125.699 197.683l-9.573-3.344c1.853-3.421 3.826-6.152 5.916-8.195 2.091-2.043 4.452-3.255 7.083-3.634-3.366 1.46-5.4 3.907-6.102 7.341-.701 3.434.19 6.045 2.676 7.832ZM215.881 278.959c-.005-1.335.379-3.172 1.152-5.511.773-2.34 1.857-4.434 3.252-6.283-2.508-2.465-4.991-3.922-7.448-4.369-2.457-.447-5.163-.432-8.119.044v3.289c2.191-.366 4.284-.366 6.28 0 3.774.69 5.401 4.967 4.883 12.83ZM112.081 121.695l1.819-1.788c-1.798-.197-3.998-1.234-6.602-3.111-2.604-1.877-4.23-5.589-4.878-11.135l-2.265 9.963c1.549 1.604 3.6 3.032 6.151 4.283 2.551 1.251 4.476 1.847 5.775 1.788ZM348.764 210.413c.912-3.484 2.584-5.899 5.016-7.243 2.432-1.344 6.08-2.016 10.944-2.016l-13.275-2.134c-1.137 1.509-1.969 3.481-2.498 5.917-.528 2.435-.59 4.261-.187 5.476ZM195.727 137.001c-4.209-1.64-6.861-1.47-7.956.511-1.095 1.981 1.065 7.002 6.479 15.064l2.032-4.337c-2.418-2.958-3.864-5.562-4.335-7.813-.472-2.251.788-3.393 3.78-3.425ZM203.476 163.082l1.463-4.814a12.775 12.775 0 0 0 1.936 2.696c.799.866 1.521 1.572 2.168 2.118l-.781 4.418-4.786-4.418ZM220.341 177.692c.303-.818.58-1.416.83-1.792.25-.377.602-.821 1.055-1.332.583.691 1.495 1.46 2.739 2.308a45.61 45.61 0 0 0 4.073 2.461l-1.215 3.54-7.482-5.185ZM231.672 181.025l-.172 4.063 2.884 1.498 1.8-2.779c-.954-.452-1.735-.864-2.342-1.237-.607-.373-1.33-.887-2.17-1.545ZM245.664 188.102l-1.7 3.194c7.791 3.01 12.229 3.926 13.313 2.746 1.085-1.179.911-3.311-.522-6.396-.239 2.241-1.656 3.147-4.251 2.719-2.596-.429-4.876-1.183-6.84-2.263Z" fill="#FFA126"/><path d="M178.199 10C133.774 44.282 77.707 61.422 10 61.422" stroke="#E1E4EA" stroke-linecap="round" stroke-linejoin="round"/><path d="m169.597 16.217 6.222 34.38L144 32.014M144 32.015 142.906 67l-28.21-22.102M114.696 44.898 109.1 77.999 85.305 53.325M85.305 53.326l-10.57 34.58-20.922-28.93" stroke="#E1E4EA" stroke-linejoin="round"/><path d="M53.814 58.974 37.576 92.42 21.231 61.421" stroke="#E1E4EA" stroke-linejoin="round"/><path d="m152.979 32.56 9.099 5.354M133.353 53.113l2.998 2.163m-11.363-8.198 4.776 3.445-4.776-3.445ZM94.1 55.277l4.815 4.911M67.143 69.314l4.142 5.637M33.003 73.876l3.942 7.89M29.27 66.403l1.632 3.268-1.633-3.268ZM248.253 10S306.5 81.982 450 58.972" stroke="#E1E4EA" stroke-linecap="round" stroke-linejoin="round"/><path d="M304.895 47.592 270.864 62.51l5.58-29.28M276.443 33.228l-30.194 7.359 8.791-23.563M339.015 57.751 307.501 81l-2.606-33.408M375.168 63.509l-25.736 28.959-10.417-34.717M407.823 63.51l-15.684 31.757-16.97-31.757M439.361 61.235 427 90.469 407.823 63.51M256.206 24.81l-1.99 5.08M278.388 47.737l-1.288 7.222m2.4-13.459-.523 2.93.523-2.93ZM310.978 56.56l1.012 13.21M348.765 68.766l2.16 8.09" stroke="#E1E4EA" stroke-linecap="round" stroke-linejoin="round"/><path d="m390.338 77.737 1.528 2.907m-6.657-12.666 3.008 5.723-3.008-5.722ZM418.122 67.978l4.792 6.895M394.248 217.962c27.692-.946 44.878-19.41 44.878-44.599 0-25.863-21.122-44.636-47.356-44.636s-45.441 18.136-47.071 44.636c-.486 7.896.942 15.049 3.953 21.201m15.07 16.219c6.839 4.125 15.231 6.622 24.704 7.123M396.821 218c2.75 2.021 1.892 5.774-6.631 5.774s-8.383-4.458-6.593-5.774" stroke="#E1E4EA" stroke-linecap="round" stroke-linejoin="round"/><path d="M374.737 144.814c-8.686 4.174-14.009 12.717-16.03 21.287m-.982 7.581c-.081 2.525.061 5.15.425 7.875M390.417 223.773c0 21.107-3.228 27.472-3.228 40.716 0 7.891 2.825 16.322 4.531 25.55M120.541 266c11.714-.408 21.235-4.547 27.873-11.282m1.728-52.506c-3.92-4.665-8.957-8.366-14.732-10.82m-22.289-3.089c-19.732 2.291-33.756 17.411-35.041 38.714-1.339 22.199 14.288 37.684 37.472 38.935M121.835 266c2.291 1.4 1.575 4-5.525 4-7.1 0-6.983-3.088-5.492-4" stroke="#E1E4EA" stroke-linecap="round" stroke-linejoin="round"/><path d="M103 201c-7.045 3.725-11.362 11.35-13 19m-.701 6c-.082 2.245.06 4.578.424 7M116.5 270c2 7.572-1.758 13.246-.712 19.952M57.714 178C77.636 177.311 90 163.862 90 145.514 90 126.675 74.804 113 55.93 113c-18.873 0-32.69 13.211-33.863 32.514-1.124 18.499 11.995 31.403 31.458 32.446M59.014 178c1.939 1.4 1.333 4-4.675 4s-5.909-3.088-4.647-4" stroke="#E1E4EA" stroke-linecap="round" stroke-linejoin="round"/><path d="M44 124c-6.503 3.333-10.487 10.156-12 17m-.701 5c-.082 1.924.06 3.924.425 6M54.227 182c0 14.687-6.044 30.529-1.237 52 4.806 21.471 3.01 37 1.51 56" stroke="#E1E4EA" stroke-linecap="round" stroke-linejoin="round"/><path d="M200.141 134.089c-6.222-1.974-11.294-2.351-14.75-1.135C180.201 134.78 143 231.583 143 238.001c0 7.848 10.808 17.249 18.216 17.249 4.101 0 34.103-16.026 60.411-31.333m11.912-7.037c15.897-9.548 28.281-17.688 29.007-19.813 1.326-3.885-.538-10.179-4.813-17.332" stroke="#323A48" stroke-linecap="round" stroke-linejoin="round"/><path d="M199.714 138.34c-6.12-2.373-10.637-3.012-12.016-1.391-3.237 3.803 8.613 21.311 26.371 36.046 4.403 3.653 9.114 6.987 13.754 9.882m3.676 2.212c12.665 7.341 24.019 11.075 26.042 8.665 1.279-1.525-.464-6.135-4.315-12.033m-6.161-8.295c-4.792-5.802-10.876-11.984-17.652-17.366-.296-.235-.593-.469-.891-.701l18.543 18.067Zm-27.532-24.516c-4.418-2.909-8.774-5.416-12.787-7.423l12.787 7.423ZM251.758 171.164c-5.005-6.311-11.469-12.804-18.942-18.588M223.863 146.152c-6.184-4.117-11.998-7.318-17.24-9.605" stroke="#323A48" stroke-linecap="round" stroke-linejoin="round"/><path d="M203.476 163.083c9.777-28.831-.592-71.485-43.468-76.886l2.369 21.187c16.472-1.57 42.285 1.068 44.37 38.356" stroke="#323A48" stroke-linecap="round" stroke-linejoin="round"/><path d="M196.929 117.68c5.467 10.191 4.574 21.758-2.679 34.701" stroke="#323A48" stroke-linecap="round"/><path d="M208.262 167.5c1.279-8.752 6.045-15.633 14.299-20.646 12.379-7.518 40.916-4.06 43.131-14.597 2.215-10.537-15.878-19.401-20.106-31.389-2.818-7.992.178-16.43 8.99-25.311l-17.506-8.313c-4.781 14.741-.721 30.675 12.181 47.801" stroke="#323A48" stroke-linecap="round" stroke-linejoin="round"/><path d="M220.341 165.463c11.737-22.941 43.782-18.299 45.538-34.449" stroke="#323A48" stroke-linecap="round" stroke-linejoin="round"/><path d="M252.136 139.959c18.998-10.359-18.299-26.881-5.393-53.762M211.73 170.249c7.689-5.884 13.599-6.896 17.732-3.034 6.199 5.794-12.244 31.203-8.392 53.813 2.568 15.074 11.649 26.481 27.244 34.221l16.705-16.888c-16.625-2.925-27.387-10.554-32.288-22.888-7.35-18.501 4.248-40.142-3.269-48.258" stroke="#323A48" stroke-linecap="round" stroke-linejoin="round"/><path d="M229.694 176.968c-.395-6.718-8.043-4.385-9.458.725" stroke="#323A48"/><path d="M234.383 186.359c8.812-12.763 19.024-18.133 30.635-16.11 17.417 3.034 21.321 24.675 38.316 25.712 11.33.691 19.898-4.403 25.703-15.28l-16.268-10.432c-7.151 17.141-17.934 20.223-32.351 9.245" stroke="#323A48" stroke-linecap="round" stroke-linejoin="round"/><path d="M243.963 191.01c2.517-7.362 21.055-22.995 45.854-1.314M169.948 175.836c6.061 4.481 16.477 10.057 28.819 14.921m4.877 1.847c6.121 2.224 12.611 4.232 19.203 5.826m7.38 1.597c6.825 1.297 13.653 2.077 20.195 2.128M166.017 185.121c10.913 7.741 32.465 18.042 54.875 22.604m10.166 1.644c2.722.321 5.436.538 8.123.638M179.26 150.703c4.674 3.07 10.489 6.369 17.022 9.549M184.858 165.638c8.879 4.823 19.559 9.557 30.777 13.009m-39.817-18.331c1.498.96 3.088 1.934 4.762 2.912l-4.762-2.912ZM170.528 209.318c12.793 5.766 29.384 11.188 45.866 13.18m-56.315-18.416a123.7 123.7 0 0 0 5.676 2.984l-5.676-2.984ZM156.119 213.066c11.92 6.499 30.047 13.604 48.689 16.817M149.881 230.473a174.384 174.384 0 0 0 21.104 7.694m5.432 1.492c1.846.473 3.71.916 5.586 1.323M147.165 239.852a174.2 174.2 0 0 0 23.183 7.9M207.5 76.246v-6.245M207.5 87.246v-6.245M217 78.5h-6.245M205.037 80.963 203 83m9-9-1.967 1.967L212 74ZM205.037 75.967 203 74m9 9-2.119-2.12L212 83ZM204.5 78.5h-6.245M285.5 223.246v-6.245M285.5 234.246v-6.245M295 225.5h-6.245M283.037 227.963 281 230m9-9-1.967 1.967L290 221ZM283.037 222.967 281 221m9 9-2.119-2.119L290 230ZM282.5 225.5h-6.245M314.5 127v-9M314.5 143v-9M327 130.5h-9M310.942 134.058 308 137m13-13-2.842 2.842L321 124ZM310.942 126.842 308 124m13 13-3.061-3.061L321 137ZM311 130.5h-9M137.5 140v-9M137.5 156v-9M150 143.5h-9M133.942 147.058 131 150m13-13-2.842 2.842L144 137ZM133.942 139.842 131 137m13 13-3.061-3.061L144 150ZM134 143.5h-9" stroke="#323A48" stroke-linecap="round" stroke-linejoin="round"/><path clip-rule="evenodd" d="m300.086 98.886-8.255 7.83c-3.004-3.519-4.832-7.352-5.486-11.5-.653-4.149-.718-7.402-.194-9.759l6.334-.867c.418 2.626 1.32 5.16 2.705 7.602a35.524 35.524 0 0 0 4.896 6.694ZM324.284 251.117l7.858 4.341c-.926 1.838-2.184 3.123-3.774 3.855-1.589.733-3.747 1.146-6.472 1.241l-2.262-3.485c1.254-.616 2.269-1.398 3.044-2.347.775-.949 1.31-2.15 1.606-3.605ZM125.699 197.683l-9.573-3.344c1.853-3.421 3.826-6.152 5.916-8.195 2.091-2.043 4.452-3.255 7.083-3.634l3.567 4.404c-1.43.903-2.875 2.481-4.337 4.731-1.461 2.251-2.347 4.263-2.656 6.038ZM199.592 276.605c3.202-.704 6.189-.796 8.959-.276 2.771.52 5.213 1.397 7.329 2.63-.005-1.335.379-3.172 1.152-5.512.773-2.339 1.857-4.433 3.252-6.282-2.508-2.466-4.991-3.922-7.448-4.369-2.457-.447-5.163-.432-8.119.044-.06 2.566-.524 4.952-1.391 7.156-.867 2.204-2.112 4.407-3.734 6.609ZM112.08 121.696l6.585-8.219c-3.25-.531-6.177-1.735-8.781-3.612-2.604-1.877-4.928-4.283-6.972-7.219l-2.757 12.979c1.549 1.605 3.599 3.032 6.151 4.283 2.551 1.251 4.476 1.847 5.774 1.788ZM348.764 210.412l9.696 5.888c-.354-3.066.029-5.852 1.148-8.359 1.119-2.507 2.824-4.77 5.115-6.789l-13.274-2.133c-1.137 1.508-1.97 3.481-2.498 5.916-.528 2.436-.591 4.262-.187 5.477Z" stroke="#323A48" stroke-linejoin="round"/></svg>