<svg width="460" height="300" fill="none" xmlns="http://www.w3.org/2000/svg"><path fill-rule="evenodd" clip-rule="evenodd" d="M167.101 83.938c-16.754 4.57-26.115 7.728-28.083 9.473-2.952 2.616-1.623 17.548 0 19.376.739.833 5.74 2.893 15.929 4.883 1.759.343 35.041 4.717 55.71 3.779 17.546-.796 32.539-3.296 44.978-7.501l.942-3.148c-7.6 3.033-19.17 4.91-34.71 5.629-31.075 1.438-52.681-2.976-58.606-6.333-3.271-1.854-5.584-4.463-3.94-7.337.446-.78 1.76-1.169 3.94-1.169 5.193.97 11.278 1.633 18.256 1.989 6.978.355 17.211.355 30.699 0-18.947-.571-31.357-1.234-37.23-1.989-17.135-2.205-21.802-5.835-22.844-8.18-1.578-3.55 3.408-6.707 14.959-9.472ZM202.261 77.02c3.289-.331 5.372 1.635 6.248 5.898 1.314 6.396 3.81 9.361 10.38 10.848-2.674.69-4.899.69-6.673 0-2.071-1.83-3.307-3.26-3.707-4.29-1.377-3.544-2.738-7.745-2.738-10.223 0-.824-1.17-1.568-3.51-2.233Z" fill="#FFA126"/><path fill-rule="evenodd" clip-rule="evenodd" d="M174.986 92.221c3.608-.852 5.726-1.94 6.353-3.267.941-1.988 2.053-14.168 4.312-15.095 1.505-.618 7.44-1.145 17.805-1.582-9.497.284-14.928 1.865-16.293 4.743-2.048 4.317-.295 13.949-4.607 15.201-2.874.835-5.397.835-7.57 0ZM251.065 118.349v-2.992c-21.962 4.062-39.437 6.092-52.425 6.092-12.989 0-31.07-2.03-54.245-6.092 9.045 84.348 14.106 127.054 15.18 128.121.805.798 15.193 5.924 43.606 5.451 9.521-.158 30.646-4.026 32.041-5.911.93-1.257 1.821-3.813 2.673-7.669-11.498 2.972-24.129 4.458-37.895 4.458-12.176 0-29.758-1.586-34.706-9.864-4.21-7.045-5.882-29.536-8.177-43.335-5.08-30.545-5.634-54.013-4.944-60.927.696-6.982 23.491-2.022 47.827-2.022 16.225 0 33.246-1.77 51.065-5.31Z" fill="#FFA126"/><path fill-rule="evenodd" clip-rule="evenodd" d="M160.808 137.455c0-3.16.602-5.312 1.805-6.455-1.393-2.862-2.278-4.295-2.653-4.302-2.343-.041-.79 20.986 1.53 46.66 2.32 25.673 6.327 56.116 8.57 56.155 1.129.02.949-6.565.949-6.565-1.512.435-4.51-23.014-5.714-31.735-1.698-12.295-4.487-46.334-4.487-53.758ZM182.552 127.881c-2.34-.123-1.424 19.623 0 45.361 1.423 25.739 4.216 57.912 6.456 58.029.576.03 1.356-6.589 1.356-11.787-2.037-5.883-3.325-15.578-5.176-47.958-1.249-21.844-2.636-36.318-.832-39.168-.744-4.221-.929-4.431-1.804-4.477ZM209.641 127.828c-2.325-.286-3.266 19.439-3.641 45.214s.619 56.555 2.845 56.828c.574.07 1.36-4.968 1.723-10.154-2.607-4.922-3.019-14.243-2.607-46.674.278-21.877 1.001-40.436 3.259-40.436-.448-4.263-.709-4.671-1.579-4.778ZM235.069 125.771c-2.308-.407-3.805 19.303-5.529 45.024-1.723 25.72-2.873 57.993-.664 58.383.569.1 2.149-6.375 2.783-11.535-2.406-2.374-2.389-14.643-.281-47.008 1.423-21.833 2.327-41.28 4.936-40.2-.224-4.28-.383-4.511-1.245-4.664ZM293.906 248.96l1.302-5.683c-.868 1.483-2.163 2.224-3.887 2.224-1.724 0-2.997-.741-3.82-2.224a853.798 853.798 0 0 1-5.682-6.731c-3.411-4.117-5.452-6.117-7.652-5.867-4.769.542-9.902 8.897-6.839 12.598 1.276 1.542 5.464-4.748 10.919-1.6 4.416 2.55 7.516 6.417 9.298 11.601.529-1.281 1.492-2.406 2.887-3.377 1.395-.97 2.553-1.284 3.474-.941Z" fill="#FFA126"/><path fill-rule="evenodd" clip-rule="evenodd" d="M297.145 249.9c-4.476-1.068-7.39-.536-8.742 1.597-2.028 3.2-.501 8.304 3.182 9.797 2.455.994 4.031.674 4.73-.961-2.514-1.768-3.317-3.712-2.409-5.833.907-2.121 1.987-3.655 3.239-4.6ZM312.006 246.041l-12.03 6.712c.401.98.401 1.899 0 2.755-.402.856-1.345 1.95-2.83 3.282 2.74.48 4.406 1.006 4.996 1.58.59.574.655 1.73.197 3.47l11.913 5.541 5.817 3.068h17.434l1.765-2.375c-8.732.775-14.596.905-17.594.39-7.246-1.245-10.905-5.141-11.506-7.112-1.02-3.345 5.402-5.413 19.265-6.207-1.635-.41-3.899-.674-6.792-.792-2.894-.118-7.11-.118-12.647 0-2.642-.241-3.66-1.44-3.055-3.6.605-2.159 2.294-4.396 5.067-6.712Z" fill="#FFA126"/><path fill-rule="evenodd" clip-rule="evenodd" d="M221.156 269.381c9.867.471 19.023-.365 27.468-2.51 12.668-3.218 14.919-6.249 21.656-8.806 4.491-1.705 9.621-2.557 15.39-2.557l1.698.684.176 1.577c-2.146-.944-5.947-.846-11.404.296-8.186 1.712-18.131 9.459-30.689 12.009-8.373 1.7-16.471 1.469-24.295-.693ZM297.145 258.789l-1.038 2.505c1.038.618 1.384 1.115 1.038 1.492-.519.565-9.354 3.47-8.087 6.595.788 1.944 6.186 4.606 12.711 5.874 4.714.916 14.591 1.626 29.632 2.129-13.568-1.381-22.208-2.381-25.917-3.001-5.873-.981-11.741-2.864-12.391-5.916-.806-3.786 8.121-5.059 8.121-7.173 0-1.41-1.357-2.245-4.069-2.505Z" fill="#FFA126"/><path d="m128.49 142.027 12.64 13.124M10 19l69.751 72.422L10 19Zm78.542 81.55 29.196 30.313-29.196-30.313ZM331.491 44.364l-74.37 95.617M351.219 19l-14.553 18.71L351.219 19ZM86.222 43.944l51.199 77.814M69.81 19l9.74 14.802L69.81 19ZM161.92 63.829l3.034 12.444M150.992 19l7.913 32.462L150.992 19ZM167.268 19l8.671 53.95M231.151 42.914l-6.153 32.7M235.65 19l-2.329 12.38L235.65 19ZM287.488 84.484l-29.602 43.549M332 19l-38.303 56.35L332 19ZM273.092 143.284l-18.946 18.283M401.892 19 282.34 134.361 401.892 19ZM300.956 168.57l-47.927 21.777M450 100.848l-42.706 19.404L450 100.848Zm-75.216 34.176-20.376 9.259 20.376-9.259ZM296.421 177.686l-43.243 16.524M450 119l-51.308 19.606L450 119Zm-74.732 28.557-18.021 6.886 18.021-6.886ZM117.597 182.319l26.335 10.602M10 139l15.468 6.228L10 139Zm26.247 10.567 26.525 10.679-26.525-10.679ZM119.821 187.764l25.095 8.657M10 149.877l49.907 17.217L10 149.877ZM131.44 209.075c5.415.503 10.71.992 15.806 1.461M10 197.625c.252 0 15.76 1.479 37.84 3.577L10 197.625ZM289.204 194.203l-36.345 8.368M450 157.289c-.192 0-12.588 2.827-31.814 7.238L450 157.289ZM288.969 39.342l-6.021 12.23M30.705 61.012l11.233 10.314M116.532 56.73l6.332 12.293M416.367 83.898l-14.059 8.39M78.461 159.502c2.996 4.564 9.36 10.686 16.113 14.061 7.033 3.514 15.592 5.809 17.895 11.336 4.514 10.835.674 14.673 5.594 18.809" stroke="#E1E4EA" stroke-linecap="round" stroke-linejoin="round"/><path d="M102.782 203.289c3.929 3.662 12.946-1.345 16.917.943 4.475 2.578 8.627 8.816 6.865 13.258m-74.405 5.857c-5.903-.603-4.748-14.16 1.079-17.999 5.827-3.839 8.404-4.82 10.571-8.79" stroke="#E1E4EA" stroke-linecap="round" stroke-linejoin="round"/><path d="M69.488 158.077c.939 1.836 1.374 3.622 1.307 5.356-.306 7.818-4.893 5.655-4.951 15.343-.059 9.687-8.22 10.98-9.903 24.628M103.443 182.545c3.979 1.642 5.802 5.325 5.469 11.049M74.802 159.548c-2.64-.521-6.283-1.919-6.971-3.103-.93-1.6-.644-5.3 1.15-5.584.56-.089.99.131 1.511.507M72.4 152.714c1.125.67 2.731 1.356 5.264 1.748 1.232.232 1.786 5.32-.62 5.265" stroke="#E1E4EA" stroke-linecap="round" stroke-linejoin="round"/><path d="M77.663 154.461c1.909-1.706 1.217-4.027-1.812-4.309-2.992-.279-7.742-2.253-6.87.708M67.52 152.719c1.422 1.672 3.566 3.03 6.435 4.074" stroke="#E1E4EA" stroke-linecap="round" stroke-linejoin="round"/><path d="M76.996 150.25c4.795-.759 8.855-4.638 9.273-6.484.28-1.231-1.949-3.272-6.683-6.124-.946 4.938-2.492 8.057-4.636 9.357" stroke="#E1E4EA" stroke-linecap="round" stroke-linejoin="round"/><path d="M76.775 145.061c.201-4.613-.526-7.263-2.18-7.949-1.72-.713-5.4.492-6.912 1.927-.509.483-.903 1.565-1.183 3.244l-6.586-.118c4.665 1.951 7.8 4.349 9.403 7.194M84.454 141.012c-.897 3.07-2.419 5.034-4.564 5.893" stroke="#E1E4EA" stroke-linecap="round" stroke-linejoin="round"/><path d="M71.448 149.233c.333-1.936-.162-3.341-1.483-4.213M333.636 132.432c.113 2.005 1.184 4.208 3.211 6.608 3.042 3.601 10.042 5.447 13.084 13.114 3.042 7.666 1.882 9.449 5.319 14.469 3.436 5.02 17.181 16.078 11.463 29.493M328.187 129.264c1.57 4.815.579 8.783-2.973 11.906-5.329 4.684-15.421 8.177-16.585 15.042-1.164 6.865 2.669 13.361-2.643 18.912-5.312 5.551-13.866 15.87-7.051 25.5M329.669 130.61c-.662-.5-1.213-.999-1.482-1.347-.8-1.037-1.159-3.22.395-3.494 1.553-.274 4.035 1.188 4.818 2.191.783 1.004 1.494 4.249.191 4.479-.445.079-1.125-.147-1.858-.519M328.855 122.524c-1.74-.261-2.225 2.741-1.096 3.391m5.656 1.804c.299-.483.562-.945-.004-2.203-.442-.98-1.31-1.921-2.269-2.543l2.273 4.746Z" stroke="#E1E4EA" stroke-linecap="round" stroke-linejoin="round"/><path d="M330.741 138.016c-2.092 2.679-5.979 5.137-11.66 7.375M347.153 161.86c6.853 4.559 11.786 8.845 14.798 12.858M345.161 154.849c1.111 2.379 2.83 4.529 5.155 6.451M312.493 168.793c.167 2.917-.664 5.367-2.493 7.35M334.169 131.019c-.608-1.19-1.84-2.117-3.697-2.781M334.146 115.161c.094-.962-.735-1.88-2.485-2.756-2.108 2.619-2.735 4.341-1.882 5.164 1.278 1.235 1.43 2.093 1.077 3.102m2.207 4.074c-.105-1.4 1.469-2.938 3.599-4.233 3.196-1.942 3.318-6.167 1.632-6.36-1.687-.194-2.932-2.074-3.776-2.205-.563-.086-.794 1.413-.673 2.101l-.782 10.697Z" stroke="#E1E4EA" stroke-linecap="round" stroke-linejoin="round"/><path d="M327.285 123.619c.527-1.053.272-2.048-.765-2.985-1.556-1.404-4.043-1.595-4.928-2.981-.886-1.387-.696-2.85.129-3.197.825-.348 2.009 2.52 4.181 2.137s5.827 1.288 4.953 4.078M416.727 192.241c2.918-7.241 3.263-12.681 1.035-16.32-3.342-5.459-9.179-2.262-8.31-11.953.868-9.691-19.031-13.314-20.214-23.647M383.272 137.807c-1.352 9.558-3.36 15.325-6.023 17.302-3.994 2.964-13.785 4.627-15.582 12.364" stroke="#E1E4EA" stroke-linecap="round" stroke-linejoin="round"/><path d="M384.312 151.104c-3.007 2.729-6.281 4.585-9.821 5.566M406.234 164.877c-.447 4.039 1.162 8.195 4.828 12.468M381.46 158.758c-6.699.709-11.03 1.987-12.994 3.833M384.12 133.689c-.429-.33-.813-.321-1.434.374-1.625 1.82.91 4.452 2.134 4.899m3.003 1.04c1.846.913 3.387-2.215-.062-3.542a7.043 7.043 0 0 1-1.393-.719l1.455 4.261ZM390.759 144.232c-1.702-1.741-3.557-2.803-5.563-3.187" stroke="#E1E4EA" stroke-linecap="round" stroke-linejoin="round"/><path d="M389.591 137.396c.634-1.969.043-3.3-1.774-3.992-2.726-1.039-3.256-2.05-4.057-1.701-.534.232-.646.825-.335 1.777M389.128 134.02c-.381-1.744.388-3.067 2.306-3.972 2.876-1.356 9.911-3.328 10.807-3.908.897-.58-3.652.225-6.807-1.226-3.156-1.452-4.947 3.676-6.911 1.465" stroke="#E1E4EA" stroke-linecap="round" stroke-linejoin="round"/><path d="M382.583 123.615c-1.092-2.431 1.402-5.726 2.213-5.518 1.473.377 3.027 3.747 5.23 3.709 1.468-.026 1.496 1.552.082 4.735m-5.837 5.089c-.025-1.416-.769-2.424-2.232-3.024-2.195-.901-5.446-5.819-4.943-7.758.335-1.293 1.787-1.951 4.355-1.975.295 2.142.672 3.722 1.132 4.742.976 2.163 3.083 4.225 3.276 6.169l-1.588 1.846Z" stroke="#E1E4EA" stroke-linecap="round" stroke-linejoin="round"/><path d="M289.86 207.308 450 193.625M10 231.219l136.539-11.666L10 231.219Zm239.569-20.469 24.552-2.098-24.552 2.098ZM144.395 115.357c8.525 82.16 13.487 124.714 14.887 127.661 1.123 2.364 20.068 6.051 39.017 5.907 17.274-.131 34.63-3.892 36.923-5.907 3.107-2.732 8.388-45.125 15.843-127.181" stroke="#323A48" stroke-linecap="round" stroke-linejoin="round"/><path d="M182.921 82.275c-23.05 1.887-41.413 8.188-43.903 11.136-2.986 3.536-2.252 17.234.116 19.767 1.201 1.284 22.068 8.271 59.506 8.271 37.437 0 55.963-6.614 56.995-7.5 2.094-1.799 3.27-17.005.856-19.661-1.995-2.194-21.141-9.181-44.287-11.668m-5.711-.512c-3.067-.219-6.182-.35-9.319-.373-2.6-.02-5.172.028-7.704.135l17.023.238Z" stroke="#323A48" stroke-linecap="round" stroke-linejoin="round"/><path d="M144.636 93.133c-10.76 2.797 12.147 10.444 49.097 10.444 36.949 0 54.706-3.978 57.232-6.387 1.684-1.606-.285-3.262-5.906-4.97M174.985 92.221c3.001-.722 5.119-1.811 6.353-3.267 1.851-2.183 1.775-13.463 4.222-15.206 2.448-1.742 21.42-2.168 23.913 0 2.494 2.169 2.437 12.67 4.166 14.704 1.153 1.355 3.489 2.448 7.009 3.277" stroke="#323A48" stroke-linecap="round" stroke-linejoin="round"/><path d="M184.175 93.766c5.973-4.646 4.756-14.25 6.289-15.584 1.532-1.333 12.954-1.753 14.802 0 1.848 1.754.553 11.257 6.95 15.584M165.754 156.862c-.308-2.9-.615-5.632-.921-8.177m-1.294-9.635c-1.202-7.832-2.392-12.331-3.58-12.352-2.343-.041-.79 20.986 1.53 46.66 2.32 25.673 6.327 56.115 8.57 56.154 2.242.04-.242-29.885-2.978-59.246-.334-3.588-.667-7.014-.998-10.252l-2.544-20.964Z" stroke="#323A48" stroke-linecap="round" stroke-linejoin="round"/><path clip-rule="evenodd" d="M182.551 127.881c-2.34-.123-1.424 19.623 0 45.361 1.424 25.739 4.216 57.912 6.456 58.029 2.239.117.951-31.484-.76-60.923-1.519-26.151-3.356-42.344-5.696-42.467Z" stroke="#323A48" stroke-linecap="round" stroke-linejoin="round"/><path d="M211.714 189.666c.118-6.185.208-12.667.284-19.124.305-26.193.07-42.231-2.256-42.516-2.325-.286-3.256 19.23-3.629 45.005-.372 25.776.435 56.471 2.661 56.744 1.574.194 2.362-14.763 2.81-33.967" stroke="#323A48" stroke-linecap="round" stroke-linejoin="round"/><path clip-rule="evenodd" d="M235.376 125.399c-2.308-.407-4.059 20.605-5.778 46.325-1.72 25.721-2.518 56.416-.309 56.806 2.209.389 4.43-29.555 6.315-58.983 1.674-26.142 2.079-43.741-.228-44.148Z" stroke="#323A48" stroke-linecap="round" stroke-linejoin="round"/><path d="M158.067 232.475c22.174 6.991 47.167 7.602 74.98 1.831M236.617 238.221c-27.554 7.343-48.714 4.866-58.295 3.679m-4.938-.768a159.234 159.234 0 0 1-6.282-1.326M238.268 97.9a29.916 29.916 0 0 1-7.944 1.09M254.911 106.26c-.183 2.444-1.466 3.796-3.847 4.054M293.906 249.106c2.208-10.403 1.608-16.996-1.801-19.779-2.716-2.217-16.586-3.533-21.874-.75-5.995 3.156-8.946 12.673-8.946 14.741 0 3.241 6.257 2.514 15.31 6.907 2.807 1.363 6.457 3.405 10.949 6.127" stroke="#323A48" stroke-linecap="round" stroke-linejoin="round"/><path d="M269.397 233.79c2.543-3.112 4.942-3.89 7.197-2.334 2.309 1.593 7.426 6.969 10.774 12.02m1.893 3.219c.581 1.164.995 2.252 1.17 3.205" stroke="#323A48" stroke-linecap="round" stroke-linejoin="round"/><path clip-rule="evenodd" d="M290.431 249.9c2.636-1.598 8.518-.055 9.625 3.352 1.107 3.406-3.642 3.968-3.787 7.146-.145 3.177-7.078 1.784-8.284-1.927-1.206-3.71-.191-6.974 2.446-8.571Z" stroke="#323A48" stroke-linejoin="round"/><path d="M299.975 252.753c14.998-8.892 25.582-12.349 31.752-10.372 7.848 2.516 11.203 23.261 5.775 30.068m-15.829 0c-5.938-1.123-15.037-7.821-19.335-8.609" stroke="#323A48" stroke-linecap="round" stroke-linejoin="round"/><path d="M302.142 257.204c9.674 0 23.925-2.614 28.146.558 4.221 3.171 4.221 11.619-3.328 11.619M287.544 256.351c-3.247-1.482-7.534-1.839-12.863-1.071-6.976 1.005-17.036 5.15-27.915 7.204-4.867.919-13.66 1.959-26.381 3.121l17.56.678c-3.558 1.031-6.34 1.719-8.347 2.066-2.006.346-5.206.69-9.598 1.031 6.399 1.856 14.882 2.087 25.451.692 15.852-2.092 25.82-15.454 42.093-12.304M296.873 258.815c4.875-.385 6.924 3.679 5.268 4.899-2.328 1.716-7.533 2.029-5.268 6.749m-1.666-4.026c-4.192 9.67 34.817 4.568 42.388 6.127 5.048 1.04 9.618 2.478 13.712 4.315l-10.961-.953 13.995 5.431c-12.401-2.986-23.19-4.478-32.367-4.478-13.766 0-32.332-2.788-32.916-7.498-.585-4.711 11.553-5.667 7.049-8.087M214.742 145.598c.121 2.67.181 5.341.181 8.012M191 233.642c1.197-.853 1.796-3.067 1.796-6.642M235.117 208.654c-.178 2.132-.349 3.806-.514 5.022M288.934 230.658c2.259.836 3.388 2.522 3.388 5.059M331.401 245.09c2.182 1.471 3.424 3.407 3.727 5.808" stroke="#323A48" stroke-linecap="round" stroke-linejoin="round"/></svg>