<svg width="460" height="300" fill="none" xmlns="http://www.w3.org/2000/svg"><path fill-rule="evenodd" clip-rule="evenodd" d="M98.798 153.606c-3.719-.609-6.623-.313-8.712.888-3.135 1.802-.987 25.015 1.037 26.525.85.635 16.986 2.454 35.448 3.003 25.486.757 55.506.092 56.786-.437 1.473-.608 1.83-1.463 1.074-2.566-35.427.132-58.92-1.681-70.481-5.439-11.562-3.758-16.612-11.082-15.152-21.974ZM105.895 183.109l-7.6-.58c-.23 48.501 1.23 74.492 4.381 77.973 4.726 5.221 59.876 4.484 72.733-.682.777-1.457 1.152-2.634 1.125-3.533-30.267 4.282-50.001 1.269-59.201-9.038-9.201-10.308-13.013-31.688-11.438-64.14ZM202.086 227.115c-3.766-.188-6.367.279-7.804 1.399-2.155 1.682.063 22.006 1.373 22.855.506.327 16.193 1.923 33.871 2.477 28.129.881 63.131.624 63.893-.233.827-.93 1.241-1.925 1.241-2.983-47.547 1.843-75.254.792-83.122-3.155-7.867-3.946-11.018-10.733-9.452-20.36ZM208.192 253.017l-7.675-.8c.79 16.581 2.017 25.717 3.683 27.409 1.317 1.338 23.452 3.476 44.375 3.255 18.799-.198 35.604-1.917 37.54-3.255 1.232-.85 1.762-1.824 1.592-2.922-35.293 2.493-57.491 1.912-66.596-1.742-9.104-3.654-13.41-10.969-12.919-21.945ZM105.851 50.076C103.284 54.468 102 61.323 102 70.644c0 11.196 1.027 23.089 2.418 24.73 1.784 2.105 10.406 4.22 25.867 6.346l5.954 9.4 5.917-10.121c9.834-.604 16.656-1.166 20.467-1.685 5.717-.78-41.091.935-50.67-8.89-6.387-6.55-8.421-20-6.102-40.348Z" fill="#FFA126"/><path fill-rule="evenodd" clip-rule="evenodd" d="M121.962 61.688c-3.962 4.904-4.427 9.693-1.393 14.367 3.033 4.674 8.677 9.464 16.93 14.368l8.908-5.95c-8.347 1.84-15.241.016-20.684-5.474-5.443-5.49-6.696-11.26-3.761-17.311ZM218.482 140c-1.655 3.588-2.482 8.906-2.482 15.956 0 8.469 1.472 18.692 2.482 19.933 1.943 2.388 17.772 1.729 19.081 2.806.872.718 2.402 3.153 4.589 7.305 2.011-4.034 3.565-6.469 4.662-7.305.733-.559 6.3-1.054 11.166-1.996 1.612-.313 3.619-.914 6.02-1.803-21.081 2.214-34.43.728-40.048-4.46-5.618-5.188-7.441-15.334-5.47-30.436Z" fill="#FFA126"/><path fill-rule="evenodd" clip-rule="evenodd" d="M231.083 149c-3.609 3.048-4.05 6.548-1.32 10.5 2.729 3.952 6.615 7.452 11.658 10.5l6.579-4.426c-5.267 1.749-10.045.516-14.333-3.699-4.289-4.215-5.15-8.507-2.584-12.875ZM284.418 80.186C282.139 84.928 281 91.96 281 101.28c0 11.197 2.027 24.711 3.418 26.353 2.676 3.157 24.479 2.285 26.281 3.709 1.202.949 3.309 4.168 6.321 9.658 2.771-5.333 4.911-8.553 6.422-9.658 1.008-.739 8.676-1.394 15.378-2.639 2.221-.413 4.985-1.208 8.292-2.384-29.035 2.928-47.421.963-55.159-5.896-7.738-6.859-10.25-20.271-7.535-40.237Z" fill="#FFA126"/><path fill-rule="evenodd" clip-rule="evenodd" d="M301.502 91.191c-4.71 5.415-5.218 10.78-1.522 16.093 3.695 5.313 8.869 9.359 15.52 12.14 2.077-.8 3.744-1.552 5-2.257 1.256-.705 2.841-1.777 4.756-3.217-8.294 2.034-15.345.218-21.151-5.449-5.807-5.667-6.674-11.437-2.603-17.31ZM128.626 148.574c-5.65-1.339-9.814-2.899-12.49-4.68-4.013-2.672-9.825-5.894-11.754-5.894-.816 0-3.158 1.409-3.827 3.377-1.183 3.479-.31 6.282 1.075 6.282.944 0 1.717-2.932 5.483-3.092 7.248-.308 12.496 3.376 16.26 4.468 3.927 1.139 5.678.985 5.253-.461Z" fill="#FFA126"/><path fill-rule="evenodd" clip-rule="evenodd" d="M105.238 119c-2.377.987-4.533 3.03-6.468 6.13-2.418 3.874-4.277 10.846-4.474 12.1-.823 5.264.185 10.553 1.6 11.967 3.432 3.43 13.572 3.58 17.92 3.244 2.898-.224 5.299-1.037 7.202-2.441-12.866 1.849-20.542.849-23.029-3-1.807-2.797-1.332-10.728 1.736-19.116 1.186-3.243 3.024-6.205 5.513-8.884ZM135.703 145.939c-2.354.255-3.685.683-3.992 1.284-.308.6-.545 2.077-.711 4.43l10.716-.541c-3.341.256-5.53-.181-6.565-1.312-1.036-1.13-.852-2.417.552-3.861Z" fill="#FFA126"/><path fill-rule="evenodd" clip-rule="evenodd" d="M127 150c-8.278.547-13.242 1.988-14.891 4.324-1.65 2.336-2.686 8.895-3.109 19.676.595-.72 1.335-1.789 2.222-3.209 1.33-2.129.887-12.265 2.778-15.221 1.929-3.015 6.262-4.872 13-5.57ZM143.354 150.898c8.183 1.759 12.598 3.157 13.246 4.194.4.641 1.637 3.077 2.069 7.478.178 1.818.178 5.295 0 10.431 1.354-1.853 2.374-3.435 3.06-4.748 1.03-1.969-.867-13.75-3.06-15.435-2.006-1.542-7.111-2.483-15.315-2.822v.902ZM147.138 149.118c-.699-.743 1.352-.972 3.979-1.813 3.006-.963 6.768-2.535 8.718-3.528 3.655-1.861 10.087-4.659 12.012-.965 1.926 3.693 1.266 7.188-.703 7.188-1.969 0-.148-4.021-5.096-4.5-4.948-.479-18.08 4.5-18.91 3.618Z" fill="#FFA126"/><path fill-rule="evenodd" clip-rule="evenodd" d="M151.518 140c-1.883 2.848-3.294 4.678-4.231 5.493-.937.814-2.366 1.703-4.287 2.667l.355 1.64c6.326.203 10.388.488 12.185.857 1.796.369 4.181.705 7.154 1.007l9.917.736c1.663.556 2.822.556 3.477 0 .655-.556 1.443-1.758 2.362-3.604-1.702 1.745-4.852 2.365-9.45 1.861-2.847-.312-9.512-1.89-15.62-1.657-3.061.117-5.764-1.621-3.688-5.14.432-.733 1.041-2.02 1.826-3.86ZM283.506 210.334c1.252 5.12 1.535 9.16.85 12.119-.567 2.45-4.221 3.49-10.961 3.121 13.615.59 20.704 1.316 21.265 2.178.426.654 1.404 7.142 1.238 13.393-.162 6.101-1.45 11.97-2.479 12.468-1.388.672-2.446.749-3.172.232v9.363c12.45 1.141 22.972 1.024 37.396.719 14.425-.305 25.934-2.994 26.766-4.107.555-.742.832-1.358.832-1.85-30.92 3.084-48.435 2.708-52.544-1.127-6.163-5.752 2.527-28.525-5.677-32.693-7.106-3.61-9.985-7.623-8.637-12.04l-4.877-1.776Z" fill="#FFA126"/><path fill-rule="evenodd" clip-rule="evenodd" d="M283.894 212.54c14.002.217 24.143.378 30.424.482 31.474.525 46.811-.081 47.646-.482 1.084-.52 1.624-1.409 1.619-2.665-42.144.481-65.734.099-70.771-1.146-9.405-2.324-5.743-5.928-13.141-12.81-4.515-4.2-5.738-8.699-3.671-13.498-3.317-.039-5.621.319-6.914 1.074-1.293.754-1.766 5.322-1.42 13.705 1.642-2.364 4.087-2.685 7.334-.963s6.212 7.156 8.894 16.303ZM233.996 221.526c-5.983-2.407-10.18-4.306-12.59-5.698-3.615-2.087-9.095-4.828-11.024-4.828-.816 0-3.158 1.409-3.827 3.377-1.183 3.479-.31 6.282 1.075 6.282.944 0 1.717-2.932 5.483-3.092 7.248-.308 10.385 2.341 14.15 3.433 3.926 1.139 6.171 1.315 6.733.526Z" fill="#FFA126"/><path fill-rule="evenodd" clip-rule="evenodd" d="M211.238 192c-2.377.987-4.533 3.03-6.468 6.13-2.418 3.874-4.277 10.846-4.473 12.1-.824 5.264.184 10.553 1.598 11.967 3.433 3.43 10.976 4.059 15.323 3.723a45.169 45.169 0 0 0 8.782-1.585c-12.298 1.319-19.691.055-22.178-3.795-1.807-2.796-1.165-11.268 1.903-19.656 1.186-3.244 3.024-6.205 5.513-8.884ZM241.29 218.896c-2.078.284-3.272.727-3.579 1.327-.308.601-.545 2.077-.711 4.43l12-.495c-3.866-.006-6.317-.574-7.353-1.705-1.036-1.13-1.155-2.316-.357-3.557Z" fill="#FFA126"/><path fill-rule="evenodd" clip-rule="evenodd" d="M233 223c-8.278.547-13.242 1.988-14.891 4.324-1.65 2.336-2.686 8.895-3.109 19.676.595-.72 1.335-1.789 2.222-3.209 1.33-2.129.887-12.495 3.399-15.269 2.471-2.727 6.598-4.568 12.379-5.522ZM252.487 224.649c6.094 1.258 9.465 2.405 10.113 3.443.649 1.037 1.338 7.007 2.069 17.908 1.312-1.762 2.311-3.3 2.997-4.612 1.03-1.969-.804-13.702-2.997-15.388-2.005-1.542-6.066-2.542-12.182-3v1.649ZM253.138 222.117c-.699-.743 1.352-.972 3.979-1.813 3.006-.962 6.768-2.534 8.718-3.528 3.655-1.86 10.068-3.965 11.994-.272 1.926 3.694 1.284 6.495-.685 6.495s-.148-4.02-5.096-4.5c-4.948-.479-18.08 4.5-18.91 3.618Z" fill="#FFA126"/><path fill-rule="evenodd" clip-rule="evenodd" d="M260.74 210.596c-2.686 3.904-4.498 6.264-5.435 7.078-.937.814-2.38 1.718-4.328 2.712.581.777.933 1.426 1.057 1.948.123.521.073 1.152-.15 1.891 5.384-.15 8.956-.225 10.715-.225 1.758 0 4.195.541 7.31 1.623h9.747c1.784-.091 3.003-.414 3.658-.971.656-.556 1.003-2.293 1.042-5.211-2.437 3.543-5.955 5.063-10.554 4.559-2.847-.313-6.061-2.207-12.168-1.974-3.061.116-5.208-1.308-3.418-4.859.563-1.117 1.404-3.307 2.524-6.571ZM306.393 176c-4.248-1.39-7.577-2.78-9.987-4.172-3.615-2.087-9.095-4.828-11.024-4.828-.816 0-3.158 1.409-3.827 3.377-1.183 3.479-.31 6.282 1.075 6.282.944 0 1.822-2.702 5.483-3.092 5.32-.567 9.15 1.841 12.915 2.933 3.926 1.139 5.715.973 5.365-.5Z" fill="#FFA126"/><path fill-rule="evenodd" clip-rule="evenodd" d="M286.238 148c-2.377.987-4.533 3.03-6.468 6.13-2.418 3.874-4.277 10.846-4.473 12.1-.824 5.264.184 10.553 1.598 11.967 3.433 3.43 11.803 3.521 16.151 3.185 2.898-.224 6.484-1.018 10.757-2.382-13.872 1.849-22.051.849-24.538-3-1.807-2.797-1.608-10.728 1.46-19.116 1.186-3.243 3.024-6.205 5.513-8.884ZM314.676 173c-2.81.217-4.368.626-4.676 1.226-.308.601-.641 2.41-1 5.427l12 .347c-3.18-.203-5.288-.869-6.324-2-1.036-1.131-1.036-2.797 0-5Z" fill="#FFA126"/><path fill-rule="evenodd" clip-rule="evenodd" d="M308.283 178.453c-8.467.912-13.525 2.536-15.174 4.872-1.65 2.336-2.686 8.895-3.109 19.676.595-.72 1.335-1.79 2.222-3.209 1.33-2.13.887-11.311 2.727-14.852 1.644-3.163 6.089-5.325 13.334-6.487ZM325 180.7c7.556 1.793 11.658 3.208 12.306 4.245.648 1.037 1.436 6.722 2.364 17.055a54.136 54.136 0 0 0 2.051-3.601c1.029-1.969.528-13.833-2.051-15.982-1.964-1.636-6.854-2.775-14.67-3.417v1.7ZM328.138 178.118c-.699-.743 1.352-.972 3.979-1.813 3.006-.963 6.768-2.535 8.718-3.528 3.655-1.861 10.087-4.659 12.012-.965 1.926 3.693 1.266 7.188-.703 7.188-1.968 0-.148-4.021-5.096-4.5-4.948-.479-18.08 4.5-18.91 3.618Z" fill="#FFA126"/><path fill-rule="evenodd" clip-rule="evenodd" d="M334.094 166.166c-2.934 3.404-4.87 5.513-5.807 6.327-.937.815-2.366 1.704-4.287 2.668.327.929.527 1.625.599 2.085.072.461.205 1.046.401 1.755 6.079.089 10.432.395 13.059.917 3.941.783 4.088.816 8.139 1.083 2.701.178 5.639.178 8.814 0 1.417-.51 2.453-1.044 3.109-1.6.655-.556 1.159-1.97 1.511-4.24-1.072 3.731-3.908 5.344-8.506 4.84-2.848-.312-10.641-1-16.643-2-2.857-.476-4.262-2.84-2.51-7.092.307-.744 1.014-2.325 2.121-4.743ZM131.679 151.646c-1.454-.139-2.43-.02-2.93.355-.749.563-2.255 10.909-2.065 16.252 0 5.655-.033 15.441.717 15.491.499.033 2.707.265 5.425.232-1.711-3.763-2.567-9.817-2.567-18.16 0-8.344.474-13.067 1.42-14.17ZM130.998 183.975h-3.516c-.488 11.411-.606 21.148-.355 29.209.376 12.092 1.784 50.311 3.168 51.057.922.497 2.214.442 3.873-.166-2.197-13.35-3.392-29.331-3.584-47.943-.193-18.612-.055-29.331.414-32.157ZM238.223 224.649c-1.121-.288-1.852-.117-2.193.513-.51.944-.737 9.74-.737 14.867 0 3.418.372 8.024 1.115 13.816l4.99.172c-2.12-3.367-3.301-7.924-3.544-13.671-.244-5.748-.121-10.98.369-15.697ZM240.715 254.017l-3.715-.136c0 6.188.143 11.449.429 15.782a380.48 380.48 0 0 0 1.109 13.221l3.442.015c-.466-2.891-.888-7.681-1.265-14.369-.378-6.689-.378-11.527 0-14.513ZM310.447 180.613c-2.675-.483-4.012-.454-4.012.087 0 .81-1.362 12.987-1.362 17.989 0 5.002 1.294 14.326 1.891 14.326h4.308c-1.037-2.585-1.794-7.83-2.272-15.736-.479-7.906.004-13.461 1.447-16.666Z" fill="#FFA126"/><path fill-rule="evenodd" clip-rule="evenodd" d="M310.886 213.016c-2.209-.318-3.516-.318-3.921 0-.608.477-.608 19.849 0 27.013.608 7.164 1.118 23.834 2.278 24.209.773.25 2.465.25 5.075 0-1.515-2.468-2.659-11.195-3.432-26.182-.773-14.986-.773-23.333 0-25.04Z" fill="#FFA126"/><path d="M432.73 223.448c.396-9.339.748-19.69 1.352-27.606m-54.196 0c.009.53.398 15.925 1.158 29.737l-1.158-29.737ZM399.511 224.618c-.509-13.834-.665-27.807 0-28.776m14.292 0c.612 1.004.411 14.922-.047 28.354l.047-28.354Z" stroke="#E1E4EA" stroke-linecap="round" stroke-linejoin="round"/><path d="M406.762 195.626c14.898.216 30.355.792 31.269-.435 1.846-2.481 3.144-17.694.761-19.65-.462-.38-3.015-.72-6.847-1.001m-44.849-.508c-6.018.284-10.239.772-10.776 1.509-2.092 2.871-1.056 18.919.849 19.788.833.38 13.268.482 26.203.371M402 172.946c.013-2.396.333-3.452.979-4.202 1.138-1.322 8.6-.825 9.473 1.037.468.997.569 1.973.545 3.219M402.547 168.71c-6.849-4.277-9.48-16.162-15.954-15.697-5.979.43-13.138 17.997-4.693 19.613" stroke="#E1E4EA" stroke-linecap="round" stroke-linejoin="round"/><path d="M412.266 169.5c8.539-2.923 9.327-14.604 16.043-14.499 7.014.109 11.46 16.447 6.731 17.999M399.511 169.5c-6.967-1.192-11.693-5.195-14.125-4.408-1.622.524-2.417 1.886-2.385 4.084" stroke="#E1E4EA" stroke-linecap="round" stroke-linejoin="round"/><path d="M415.815 170.077c6.245-.985 10.758-3.753 13.656-2.979 2.898.773 2.81 3.931 2.148 4.901M414.896 172c8.489.535 13.219 1.482 14.189 2.839.971 1.358 1.169 4.694.595 10.009l-2.621-4.686-4.028 5.838c-.06-6.339-.775-9.965-2.146-10.878-1.372-.912-4-1.558-7.885-1.938" stroke="#E1E4EA" stroke-linecap="round" stroke-linejoin="round"/><path d="M413.803 195.841c.972-1.353 1.749-20.375.268-22.154-.649-.78-13.583-.553-14.559 0-1.571.889-1.694 19.935-.18 21.905" stroke="#E1E4EA" stroke-linecap="round" stroke-linejoin="round"/><path d="M401.75 172c-6.756.127-10.73 1.114-11.921 2.961-1.191 1.848-1.801 5.824-1.829 11.929l3.316-4.369 4.181 4.479c-.695-7.225-.227-11.425 1.404-12.6.846-.609 3.297-1.216 4.849-1.216" stroke="#E1E4EA" stroke-linecap="round" stroke-linejoin="round"/><path clip-rule="evenodd" d="M426.05 108.316c-2.815-2.99-32.811-3.184-35.858 0-3.046 3.184-2.655 23.664-.434 25.854 2.222 2.189 12.228 2.706 13.769 3.31.925.363 2.222 2.203 3.89 5.52 1.71-3.293 2.914-5.125 3.612-5.498 1.39-.74 12.421-.14 14.924-2.306 2.503-2.167 2.912-23.89.097-26.88Z" stroke="#E1E4EA" stroke-linejoin="round"/><path clip-rule="evenodd" d="M399.194 124.624c2.122 2.257 4.986 4.382 8.59 6.376 3.976-1.921 6.844-4.203 8.602-6.844 2.637-3.963 2.037-8.823-1.752-9.76-2.526-.624-4.809.337-6.85 2.884-2.401-2.947-4.977-3.908-7.728-2.884-4.127 1.537-3.727 7.15-.862 10.228Z" stroke="#E1E4EA" stroke-linecap="round" stroke-linejoin="round"/><path d="M403 117.035c-2.831-.395-3.402 2.686-2.764 3.965M73.075 242.57c.176-2.669.389-14.571.64-21.703m-50.068.356c.015.42.824 16.501 1.647 24.372l-1.646-24.372ZM42.779 243.891c-.999-7.025-1.323-21.362-.999-22.103m13.332-.233c.442 1.113.587 15.081.486 21.379l-.486-21.379ZM48.626 221.557c13.729-.459 28.593-.746 29.418-1.876 1.668-2.284 3.058-15.013.825-16.752-.504-.393-3.681-.698-8.318-.905m-39.975.241c-5.812.343-9.901.851-10.394 1.542-1.889 2.643-.859 16.11.915 16.868.775.331 12.446 1.318 24.397 1.005M43.31 200.888c-.062-2.308.196-3.336.759-4.081.993-1.313 7.782-1.093 8.632.671.455.944.576 1.881.593 3.082M43.352 197.117c-5.968-3.846-8.547-15.11-14.062-14.438-5.093.62-10.94 16.653-3.684 17.901M52.766 197.283c7.522-3.116 7.451-13.861 13.438-13.995 6.254-.14 10.703 15.453 6.536 17.114" stroke="#E1E4EA" stroke-linecap="round" stroke-linejoin="round"/><path d="M41.331 198.356c-6.358-.871-10.772-4.4-12.954-3.598-1.455.535-1.854 1.652-1.198 3.351M55.34 197.974c5.37-1.252 9.197-4.269 11.723-3.587 2.526.682 2.537 3.928 1.99 4.95M53.311 199.559c7.97.029 12.533.759 13.687 2.189 1.153 1.431 1.492 4.81 1.016 10.136l-2.397-4.399-3.31 5.737c-.49-6.396-1.339-10.007-2.548-10.833-1.21-.827-3.306-1.268-6.288-1.323" stroke="#E1E4EA" stroke-linecap="round" stroke-linejoin="round"/><path d="M55.117 221.323c.83-1.393 1.269-18.22-.109-19.949-.604-.758-12.175-.053-13.033.537-1.38.95-1.608 17.958-.195 19.877" stroke="#E1E4EA" stroke-linecap="round" stroke-linejoin="round"/><path d="M41.298 200.234c-4.937.315-7.922 1.382-8.954 3.199-1.033 1.818-1.444 5.899-1.233 12.245l2.899-4.315 3.965 4.163c-.863-7.274-.566-11.504.89-12.69.755-.615 2.935-1.338 4.355-1.391" stroke="#E1E4EA" stroke-linecap="round" stroke-linejoin="round"/><path clip-rule="evenodd" d="M66.05 140.316c-2.815-2.99-32.811-3.184-35.858 0-3.046 3.184-2.655 23.664-.433 25.854 2.221 2.189 12.227 2.706 13.767 3.31.926.363 2.223 2.203 3.891 5.52 1.71-3.293 2.914-5.125 3.612-5.498 1.39-.74 12.42-.14 14.924-2.306 2.503-2.167 2.912-23.89.097-26.88Z" stroke="#E1E4EA" stroke-linejoin="round"/><path clip-rule="evenodd" d="M39.194 156.624c2.122 2.257 4.986 4.382 8.59 6.376 3.976-1.921 6.844-4.203 8.602-6.844 2.636-3.963 2.036-8.823-1.752-9.76-2.526-.624-4.81.337-6.85 2.884-2.4-2.947-4.977-3.908-7.728-2.884-4.127 1.537-3.727 7.15-.862 10.228Z" stroke="#E1E4EA" stroke-linecap="round" stroke-linejoin="round"/><path d="M43 149.035c-2.831-.395-3.402 2.686-2.764 3.965M112.824 43.312c.544-9.336-.148-20.846-2.408-23.245-3.729-3.96-43.475-4.217-47.511 0-4.036 4.217-3.519 31.34-.575 34.239 2.944 2.9 16.202 3.583 18.243 4.383 1.226.48 2.944 2.918 5.155 7.311 2.265-4.36 3.86-6.788 4.785-7.28.679-.362 3.09-.482 6.032-.633" stroke="#E1E4EA" stroke-linecap="round" stroke-linejoin="round"/><path clip-rule="evenodd" d="M74.925 42.373c2.83 3.054 6.648 5.93 11.454 8.627 5.302-2.6 9.124-5.686 11.468-9.26 3.516-5.361 2.716-11.936-2.335-13.204-3.368-.845-6.412.455-9.133 3.901-3.201-3.986-6.636-5.287-10.304-3.9-5.503 2.078-4.97 9.673-1.15 13.837Z" stroke="#E1E4EA" stroke-linecap="round" stroke-linejoin="round"/><path d="M80 32.043c-3.775-.493-4.536 3.359-3.685 4.957" stroke="#E1E4EA" stroke-linecap="round" stroke-linejoin="round"/><path clip-rule="evenodd" d="M271.05 51.316c-2.815-2.99-32.811-3.184-35.858 0-3.046 3.184-2.655 23.664-.434 25.854 2.222 2.19 12.228 2.706 13.769 3.31.925.363 2.222 2.203 3.89 5.52 1.71-3.293 2.914-5.126 3.612-5.498 1.39-.74 12.421-.14 14.924-2.306 2.503-2.167 2.912-23.89.097-26.88Z" stroke="#E1E4EA" stroke-linecap="round" stroke-linejoin="round"/><path clip-rule="evenodd" d="M244.194 67.624c2.122 2.257 4.986 4.382 8.59 6.376 3.976-1.921 6.844-4.203 8.602-6.844 2.637-3.963 2.037-8.823-1.752-9.76-2.526-.624-4.809.337-6.85 2.884-2.401-2.947-4.977-3.908-7.728-2.884-4.127 1.537-3.727 7.15-.862 10.228Z" stroke="#E1E4EA" stroke-linecap="round" stroke-linejoin="round"/><path d="M248 61.035c-2.831-.395-3.402 2.686-2.764 3.965M364 24.358c-.244-2.64-.705-4.75-1.409-5.48-2.337-2.425-27.242-2.582-29.771 0-2.529 2.581-2.205 19.187-.36 20.962 1.845 1.776 10.152 2.194 11.431 2.684.768.294 1.845 1.786 3.23 4.476 1.419-2.67 2.419-4.156 2.999-4.458.509-.265 2.581-.318 4.915-.446" stroke="#E1E4EA" stroke-linecap="round" stroke-linejoin="round"/><path clip-rule="evenodd" d="M340.776 31.75c1.718 1.858 4.036 3.608 6.954 5.25 3.219-1.582 5.54-3.461 6.963-5.637 2.135-3.263 1.649-7.265-1.418-8.037-2.045-.514-3.893.277-5.545 2.375-1.944-2.427-4.029-3.218-6.256-2.375-3.341 1.266-3.018 5.889-.698 8.423Z" stroke="#E1E4EA" stroke-linecap="round" stroke-linejoin="round"/><path d="M343 26.026c-1.888-.296-2.268 2.015-1.843 2.974" stroke="#E1E4EA" stroke-linecap="round" stroke-linejoin="round"/><path clip-rule="evenodd" d="M409.416 31.067c-3.729-3.96-43.475-4.217-47.511 0-4.036 4.217-3.519 31.34-.575 34.239 2.944 2.9 16.202 3.583 18.243 4.383 1.226.48 2.944 2.918 5.155 7.311 2.265-4.36 3.86-6.788 4.785-7.28 1.842-.981 16.458-.186 19.774-3.055 3.317-2.87 3.859-31.638.129-35.598Z" stroke="#E1E4EA" stroke-linecap="round" stroke-linejoin="round"/><path clip-rule="evenodd" d="M373.925 53.373c2.83 3.054 6.648 5.93 11.454 8.627 5.302-2.6 9.125-5.686 11.468-9.26 3.516-5.361 2.716-11.936-2.335-13.204-3.368-.845-6.412.455-9.133 3.901-3.201-3.986-6.636-5.287-10.304-3.9-5.503 2.078-4.97 9.673-1.15 13.837Z" stroke="#E1E4EA" stroke-linecap="round" stroke-linejoin="round"/><path d="M379 43.043c-3.775-.493-4.536 3.359-3.685 4.957" stroke="#E1E4EA" stroke-linecap="round" stroke-linejoin="round"/><path d="M178.364 183.926c-.024 1.373.498 70.751-2.955 75.894-3.452 5.143-67.669 6.251-72.733.682-3.376-3.713-4.938-52.441-4.354-77.404" stroke="#323A48" stroke-linecap="round" stroke-linejoin="round"/><path d="M127.965 184.022c-2.32-1.977 0 78.06 2.32 79.905m16.793 0c1.81-4.073 2.808-75.135 1.003-79.512" stroke="#323A48" stroke-linecap="round" stroke-linejoin="round"/><path d="M139.306 184.021c-22.122-.351-46.823-1.182-48.183-3.002-2.749-3.68-4.584-23.624-1.037-26.525 1.027-.841 9.135-1.574 20.208-2.088m58.62-.343c8.795.401 14.924 1.099 15.706 2.169 3.114 4.26 1.573 28.064-1.263 29.352-1.239.563-19.75.714-39.005.548M130.911 151c.015-2.866.349-3.13 1.053-4.026 1.242-1.582 8.854-1.144 10.403 1.003.585.811.56 2.232.542 3.232M236.952 223.896c-.002-2.389.424-3.439 1.298-4.181 1.541-1.309 11.721-.755 12.928 1.109.646.997.792 1.971.771 3.213M309 179.924c.02-3.354.485-4.833 1.424-5.882 1.655-1.851 12.509-1.156 13.779 1.452.68 1.395.827 2.762.792 4.506M130.999 147.935c-9.698-6.818-16.064-29.445-25.232-28.703-8.465.684-18.667 29.285-6.709 31.862M237 220.64c-9.699-6.818-16.065-29.149-25.233-28.408-8.465.685-18.667 29.285-6.709 31.862M310 174.226c-9.699-6.818-14.065-26.736-23.233-25.995-8.466.685-18.667 29.285-6.709 31.862M142.55 147.767c12.016-4.271 14.437-25.523 23.93-25.357 9.916.173 16.292 27.525 9.608 29.99M251.057 220.394c12.016-4.271 11.93-25.151 21.423-24.985 9.916.173 15.984 27.702 9.3 30.167M324.428 175.001c12.071-4.643 13.559-23.756 23.052-23.59 9.916.173 16.2 26.125 9.516 28.59" stroke="#323A48" stroke-linecap="round" stroke-linejoin="round"/><path d="M127.821 148.487c-10.241-2.133-20.863-11.68-24.438-10.272-2.384.939-3.553 3.375-3.506 7.31M233.821 221.487c-10.241-2.133-20.863-11.68-24.438-10.272-2.384.939-3.553 3.375-3.506 7.31M305.866 175.999c-10.242-2.133-17.908-10.193-21.484-8.785-2.384.939-3.552 3.376-3.506 7.31M146.874 148.194c9.203-1.438 17.716-7.922 22.153-6.671 4.436 1.25 4.303 6.352 3.288 7.92M253.885 221.488c9.203-1.438 16.705-8.215 21.142-6.964 4.436 1.25 4.303 6.352 3.288 7.92M327.874 177.194c9.203-1.438 17.716-7.922 22.153-6.671 4.436 1.25 4.303 6.352 3.288 7.92M143.355 149.801c14.637 1.041 22.663 2.688 24.078 4.942 1.415 2.253 1.705 7.792.868 16.616l-3.822-7.779-5.873 9.691c.133-11.203-.793-17.447-2.778-18.731-1.985-1.284-5.316-2.246-9.994-2.887M253.549 223.053c11.855.853 18.49 2.407 19.905 4.661 1.415 2.253 1.704 7.792.868 16.616l-3.823-7.779-5.872 9.691c.133-11.203-.793-17.447-2.778-18.731-1.986-1.284-4.982-2.235-8.989-2.852M325 179c14.221.888 22.039 2.46 23.454 4.713 1.415 2.254 1.704 7.793.868 16.616l-3.823-7.779-5.872 9.691c-.102-10.754-1.145-16.773-3.13-18.058-1.986-1.284-5.692-2.459-11.121-3.525" stroke="#323A48" stroke-linecap="round" stroke-linejoin="round"/><path d="M147.504 184.393c1.01-1.403 2.266-28.34-.516-32.394-.626-.911-16.962-.79-17.998-.314-3.24 1.49-3.148 30.307-1.565 32.356M254.076 253.845c1.01-1.403 1.548-26.995 0-28.845-.679-.812-16.853-.914-17.87-.342-1.635.92-1.381 27.139.202 29.187M327.184 213.321c1.431-2.248 2.18-29.123 0-32.078-.956-1.296-19.044-1.492-20.482-.573-2.311 1.476-2.229 28.598 0 31.87" stroke="#323A48" stroke-linecap="round" stroke-linejoin="round"/><path d="M129.349 150.156c-10.187-.05-16.106 1.447-17.758 4.493-1.652 3.045-2.656 9.495-3.013 19.348l4.599-7.201 5.8 7.383c.286-14.689 3.873-22.219 10.758-22.589M236.949 223.053c-11.251.018-17.703 1.55-19.355 4.596-1.652 3.045-2.656 9.495-3.013 19.348l4.6-7.201 5.799 7.383c1.418-15.173 5.407-22.76 11.969-22.76M308.654 178.452c-9.054.418-14.407 2.15-16.059 5.195-1.652 3.046-2.657 9.495-3.013 19.349l4.599-7.201 5.8 7.383c-.047-12.182 1.061-19.242 3.323-21.178 1.173-1.005 3.543-1.761 5.696-1.761M109 123c1.591.958 2.901 2.314 3.93 4.069M215 196c1.591.958 2.901 2.314 3.93 4.069M290 152c1.591.958 2.901 2.314 3.93 4.069M138 148c1.182.161 1.843.506 1.982 1.035M247.009 220.982c1.182.162 1.843.507 1.982 1.035M319 176c1.793.305 2.793.971 3 2M167.23 125.811c2.224.968 3.66 2.583 4.309 4.844" stroke="#323A48" stroke-linecap="round" stroke-linejoin="round"/><path clip-rule="evenodd" d="M168.835 50.076c-4.944-5.262-57.633-5.604-62.984 0-5.35 5.604-4.664 41.649-.762 45.503 3.903 3.853 21.478 4.762 24.183 5.825 1.626.639 3.904 3.877 6.834 9.716 3.003-5.796 5.118-9.021 6.344-9.676 2.441-1.304 21.817-.247 26.214-4.06 4.396-3.813 5.115-42.046.171-47.308Z" stroke="#323A48" stroke-linejoin="round"/><path clip-rule="evenodd" d="M122.623 78.944c3.695 4.063 8.681 7.889 14.956 11.478 6.924-3.458 11.916-7.566 14.977-12.321 4.592-7.133 3.547-15.882-3.05-17.57-4.397-1.124-8.373.607-11.927 5.192-4.18-5.305-8.665-7.035-13.455-5.191-7.186 2.766-6.49 12.872-1.501 18.412Z" stroke="#323A48" stroke-linecap="round" stroke-linejoin="round"/><path d="M128.837 63.548c-5.878-.706-7.062 4.808-5.738 7.096M290.247 253.788c-.021 1.19-.596 21.454-3.715 25.849-3.12 4.395-78.227 4.405-82.331-.011-2.227-2.395-3.94-14.057-3.942-27.31" stroke="#323A48" stroke-linecap="round" stroke-linejoin="round"/><path d="M236.985 254.016c-.445 1.126.577 27.298 1.81 28.866m13.692 0c.641-1.291 1.648-27.1 1.019-28.713M246.337 254.015c-19.271-.306-49.497-1.033-50.682-2.646-2.393-3.261-3.987-20.94-.896-23.514.895-.745 9.413-1.397 21.13-1.856m59.681-.412c10.657.334 18.216.974 18.957 2.006 2.711 3.775 1.363 24.877-1.108 26.02-1.079.499-25.914.641-42.687.499" stroke="#323A48" stroke-linecap="round" stroke-linejoin="round"/><path clip-rule="evenodd" d="M218.486 140.067c3.589-3.96 41.835-4.217 45.719 0 3.883 4.217 3.386 31.339.553 34.239-2.833 2.9-15.59 3.583-17.554 4.383-1.18.481-2.834 2.918-4.961 7.311-2.18-4.361-3.715-6.788-4.605-7.281-1.772-.98-15.836-.185-19.028-3.054-3.191-2.869-3.712-31.638-.124-35.598Z" stroke="#323A48" stroke-linejoin="round"/><path clip-rule="evenodd" d="M251.008 162.515c-4.014 4.587-9.828 7.485-9.828 7.485s-6.009-3.375-9.442-7.624c-4.189-5.185-5.533-11.391-.475-13.718 5.057-2.328 9.307 4.128 9.307 4.128s4.521-6.903 9.772-4.128c5.25 2.774 4.28 9.687.666 13.857Z" stroke="#323A48" stroke-linecap="round" stroke-linejoin="round"/><path d="M232.327 155c-1.332-3.89 1.78-4.255 2.673-3.89M357.363 212.926c-.024 1.373.498 41.751-2.954 46.894-2.591 3.858-39.387 5.446-59.742 3.646" stroke="#323A48" stroke-linecap="round" stroke-linejoin="round"/><path d="M306.965 213.021c-1.16 1.264 0 48.955 2.32 50.905m16.793 0c1.63-3.631 2.074-46.76 1.003-50.512M267.173 190.707c.161-3.459.746-6.259 1.913-7.214 1.04-.851 9.333-1.591 20.613-2.106m60.002-.237c7.831.412 13.191 1.087 13.919 2.082 3.114 4.26 1.573 28.064-1.263 29.352-1.239.563-19.75.714-39.005.548m-5.046-.111c-11.184-.178-23.026-.478-32.179-.966l32.179.966Z" stroke="#323A48" stroke-linecap="round" stroke-linejoin="round"/><path clip-rule="evenodd" d="M284.413 80.068c4.925-5.252 57.419-5.593 62.75 0 5.331 5.594 4.648 41.573.76 45.419-3.888 3.847-21.399 4.754-24.094 5.815-1.62.638-3.889 3.87-6.809 9.698-2.992-5.785-5.099-9.004-6.321-9.658-2.432-1.301-21.736-.246-26.116-4.052-4.381-3.806-5.096-41.969-.17-47.222Z" stroke="#323A48" stroke-linejoin="round"/><path clip-rule="evenodd" d="M301.538 109.397c3.706 4.063 8.404 7.512 14.095 10.347 5.661-2.379 10.076-5.451 13.245-9.215 5.8-6.889 7.003-16.452 0-19.544-7.002-3.092-12.887 5.485-12.887 5.485s-6.26-9.171-13.53-5.485c-7.27 3.686-5.926 12.872-.923 18.412Z" stroke="#323A48" stroke-linecap="round" stroke-linejoin="round"/><path d="M301.697 101.388c-1.679-5.7 3.506-7.577 4.974-6.998M277.19 202.238c1.204 1.645 2.031 3.505 2.481 5.578M349.26 155.125c1.881.866 3.124 2.376 3.731 4.531M93.267 245.595 10 250m440-23.277-86.43 4.572 86.43-4.572Zm-260.491 13.78-8.083.428 8.083-.428Z" stroke="#323A48" stroke-linecap="round" stroke-linejoin="round"/></svg>