<svg width="460" height="300" fill="none" xmlns="http://www.w3.org/2000/svg"><path fill-rule="evenodd" clip-rule="evenodd" d="M173.783 197.729c-8.522 2.129-18.45 8.041-29.783 17.737-11.333 9.696-19.833 22.873-25.5 39.533 5.461-1.544 9.461-2.878 12-4 2.539-1.122 5.372-2.789 8.5-5 7.36 7.667 17.693 11.5 31 11.5 13.307 0 24.473-2.833 33.5-8.5 9.333 6.333 19.167 9.681 29.5 10.042 10.333.362 18.945-.819 25.835-3.542-11.223 1.333-21.59 1.167-31.099-.5-14.263-2.5-15.736-7-24.736-10.5s-43 5.5-49-10.5c-2.971-7.923.75-17.294 9.916-24.726 2.117-1.716 5.811-3.697 11.084-5.941l-1.217-5.603ZM198.697 194.588l36.803.911c-10.002.33-17.669.761-23 1.294-5.332.534-9.332 1.102-12 1.706l-1.803-3.911Z" fill="#FFA126"/><path fill-rule="evenodd" clip-rule="evenodd" d="M210.264 98.5c-17.68 12.667-29.33 28.667-34.951 48-5.621 19.333-4.892 40.833 2.187 64.5 5.909-1.974 10.383-3.21 13.422-3.707 3.039-.496 7.565-.732 13.578-.706l-2.131-3.536c-9.429-.051-15.637-2.22-18.624-6.507C175.313 184.446 175 158.5 181.5 139.5c6.196-18.112 15.784-31.778 28.764-41ZM228.021 92.398c.712 7.4-.128 16.215-2.521 26.444-2.393 10.228-5.281 17.947-8.665 23.157 6.11-5.896 9.999-11.229 11.665-16 1.667-4.772 2.5-9.772 2.5-15l-1.485 1.5a80.68 80.68 0 0 0 .485-9c0-3.123-.66-6.823-1.979-11.1ZM231.5 90.469l3.015 3.03c3.017 1.122 5.678 2.408 7.985 3.858 2.306 1.45 5.776 4.022 10.411 7.713l-.911-3.339c6.525 4.179 11.192 9.435 14 15.768 2.808 6.334 4.641 13.162 5.5 20.486-.698-8.825-1.532-15.206-2.5-19.143-.969-3.937-2.636-7.718-5-11.343h1.5c-3.667-4.19-7.834-7.57-12.502-10.142-4.668-2.57-11.834-4.867-21.498-6.888ZM277.5 63.865c-8-2.578-14-3.2-18-1.867-4 1.334-7.379 3.62-10.137 6.862l3.636.139c-4.183 1.095-8.183 3.261-11.999 6.5-3.815 3.238-7.644 7.404-11.485 12.5-.642-1.646-.98-2.98-1.015-4-.035-1.021.209-2.445.732-4.271 5.732-16.39 13.988-24.8 24.768-25.23 8.991-.358 16.825 2.764 23.5 9.367Z" fill="#FFA126"/><path fill-rule="evenodd" clip-rule="evenodd" d="M229.515 88c-.353-9.462-1.05-16.295-2.09-20.5-1.04-4.206-2.682-7.268-4.925-9.186v3.826c-2.665-2.714-4.74-4.618-6.223-5.713-1.483-1.094-3.909-2.142-7.277-3.142 1.02 1.521 1.687 2.759 2 3.714.313.955.313 1.75 0 2.386-6.287-1.972-12.979-2.958-20.077-2.958-7.098 0-14.406 1.394-21.923 4.182 10.223-1.47 19.095-1.47 26.614 0 7.52 1.47 13.398 4.354 17.636 8.652l-2.986 1.252c2.913 1.605 4.918 2.934 6.013 3.986 1.096 1.052 2.29 2.795 3.583 5.23l.64 2.179c2.727 2.064 4.717 3.428 5.971 4.091 1.253.663 2.268 1.33 3.044 2ZM201.57 87.316a30.837 30.837 0 0 1 10.93.683c3.633.881 7.299 2.348 11 4.4-5.56-.43-10.393-.43-14.5 0-4.107.43-10.042 2.082-17.806 4.957V94.5c-5.589 1.772-9.689 4.183-12.3 7.231-2.611 3.049-5.576 7.979-8.894 14.791 4.271-10.92 8.589-18.261 12.954-22.022C187.318 90.738 194 88.857 203 88.857l-1.43-1.541ZM266 187.499l-3.464-2.14c-5.918 11.093-8.423 18.306-7.515 21.64.908 3.333 3.413 7 7.515 11l23.464 3 4.668-5.5c-11.943-.334-19.332-3.578-22.168-9.734-1.925-4.178-2.42-7.061-2.5-11.177-.025-1.299-.025-3.662 0-7.089ZM273.5 183.224c-.897-.179-1.897-.179-3 0-1.103.18-2.27.586-3.5 1.22 1.533.762 3.033 1.28 4.5 1.555 1.467.275 4.642.275 9.525 0-2.683-.223-4.525-.572-5.525-1.048-1-.476-1.667-1.051-2-1.727Z" fill="#FFA126"/><path fill-rule="evenodd" clip-rule="evenodd" d="m291.5 166.5-1.5-.5-8.976 20 3.265-.639 3.005-5.361c-.371-.333-.469-1.167-.294-2.5s1.675-5 4.5-11ZM264.5 176.5c-.677.734-1.844 1.734-3.5 3h5l1-6.5c-.989 1.599-1.823 2.766-2.5 3.5ZM268 172.5c-.637 1.797-1.054 3.13-1.25 4-.196.87-.268 1.87-.216 3l1.966-1.5-.5-5.5Z" fill="#FFA126"/><path d="M120.5 249.001c11.521-27.573 30.147-41.615 46.419-49 1.908-.866 4.217-1.621 6.864-2.271m25.306-2.961c17.291-.65 38.102.495 57.294 3.044m38.333 7.954c6.756 2.163 12.21 4.589 15.766 7.234 13.917 10.35 24.551 19.85 29.018 36" stroke="#323A48" stroke-linecap="round" stroke-linejoin="round"/><path d="M285.252 221c4.363-2.886 7.727-7.961 8.663-13.735.935-5.773-.987-12.457-4.728-19.193l-6.078.962-.935 3.849-.467-3.849-13.361-.962-2.069 7.217v-8.18l-3.74-1.443c-4.676 6.736-7.169 12.831-7.481 18.283-.312 5.453 1.434 9.561 7.668 14.051" stroke="#323A48" stroke-linecap="round" stroke-linejoin="round"/><path d="M262.537 185.667c4.154-1.627 7.288-2.44 9.403-2.44 2.399 0 7.022 0 9.902.383m3.49 1.343c1.038.718 2.323 1.758 3.856 3.119" stroke="#323A48" stroke-linecap="round" stroke-linejoin="round"/><path d="M266.534 184.445c2.415 1.22 5.535 1.83 9.359 1.83s6.943-.377 9.359-1.133M266.538 216.302c-2.217-3.01-3.425-5.496-3.626-7.456-.25-2.44-.25-4.641 0-6.602M273.779 218.945c1.251-4.881 1.132-8.587 1.251-10.615m.093-3.919a88.46 88.46 0 0 0-.136-3.495M281.025 219.828c1.97-2.74 3.058-4.57 3.265-5.49.962-4.27.358-9.15.358-9.15" stroke="#323A48" stroke-linecap="round" stroke-linejoin="round"/><path d="m284.29 185.361 7.211-13.861 7.034 4.711 2.966-4.711-11.419-5.965-9.057 20.131M258 218c13.437.569 24.326 2.008 32.668 4.318M272 186l-2-8" stroke="#323A48" stroke-linecap="round" stroke-linejoin="round"/><path clip-rule="evenodd" d="M260 180c1.394-.315 2.408-.505 3.042-.571.633-.067 1.445-.067 2.433 0 1.806-.841 3.225-1.412 4.259-1.715 1.033-.302 2.655-.621 4.866-.957.726-.609 1.334-1.052 1.825-1.328.492-.277 1.35-.657 2.575-1.143-2.817-.107-4.892-.297-6.225-.572-1.332-.274-2.955-.846-4.866-1.714-1.145 1.773-2.159 3.106-3.042 4-.884.894-2.506 2.227-4.867 4Z" stroke="#323A48" stroke-linecap="round" stroke-linejoin="round"/><path d="m268 172-2.5 8M268 173l7.123 4M301.5 171.5c-1.667-.237-2.833.096-3.5 1-.667.903-.488 2.14.535 3.71M227.572 97.356c-45.648 32.904-37.96 84.528-23.072 109.229m-27 4.414c-11.999-33.915-10.461-88.513 42.361-118.6" stroke="#323A48" stroke-linecap="round" stroke-linejoin="round"/><path d="M224.988 92.967c-12.681-2.131-23.864-.713-33.549 4.253-.61.313-.61-.743 0-3.168-3.864.735-7.815 3.122-11.855 7.162-4.039 4.04-7.323 9.182-9.851 15.425-2.699-7.115-3.617-12.591-2.754-16.428.863-3.837 2.883-7.36 6.059-10.566-3.544 1.989-5.247 2.784-5.106 2.385 2.273-6.474 6.157-11.453 11.652-14.936 11.103-7.039 26.811-4.094 47.126 8.834M227.792 91.552c.765 10.377-.115 20.432-2.638 30.165-2.524 9.733-5.483 16.486-8.877 20.257 16.625-.049 25.899-5.189 27.82-15.42 1.068-5.681-.585-12.344-4.957-19.989 2.405.709 3.441.709 3.109 0-1.626-3.469-5.255-9.107-10.889-16.913" stroke="#323A48" stroke-linecap="round" stroke-linejoin="round"/><path d="M219.622 79.224c-1.677-4.07-4.727-6.841-9.15-8.31-.887-.295.039-.846 2.779-1.653-6.243-5.141-13.221-8.263-20.933-9.365-7.711-1.102-15.595-.804-23.651.894 11.709-16.389 22.155-24.583 31.337-24.583 9.183 0 15.985 4.775 20.408 14.324.775-2.423 1.509-3.157 2.203-2.204 3.207 4.407 5.507 16.527 6.9 36.36M234.365 93.234c7.223 3.483 13.405 7.428 18.546 11.836.511.437.144-.848-1.101-3.857 5.051 2.938 9.274 7.346 12.669 13.222 3.395 5.876 5.899 15.575 7.51 29.096 15.732-23.052 18.724-39.485 8.979-49.299-5.117-5.152-14.469-7.457-28.057-6.915 2.536-2.03 3.299-3.063 2.289-3.1-4.305-.157-11.606.605-21.905 2.287M229.433 80.083c10.213-24.684 22.542-35.944 36.988-33.78 5.7.853 10.483 3.143 14.349 6.87.426.41-1.148.41-4.723 0 5.378 2.916 9.415 6.259 12.109 10.028 2.694 3.77 4.004 9.526 3.93 17.271-10.125-7.181-19.688-10.224-28.691-9.129-9.003 1.096-18.025 5.132-27.068 12.108" stroke="#323A48" stroke-linecap="round" stroke-linejoin="round"/><path d="M238.039 73.668c15.974-18.426 32.404-18.426 49.025-2.068m-53.432 8.128c1.208-1.677 2.115-2.904 2.722-3.681l-2.722 3.68ZM219.86 87.316c-25.299-9.43-41.31-2.517-47.373 14.998M192.318 51.081c15.423-2.204 24.116 5.41 29.466 19.43m-38.831-17.226c1.9-.645 3.74-1.167 5.519-1.569l-5.519 1.569ZM241.344 90.746c24.237 1.245 35.621 12.263 34.152 33.054M232.749 101.213c2.244 13.637 2.867 20.383-1.248 28.647m-1.93 3.322a21.825 21.825 0 0 1-3.1 3.288M210.472 206.999c-10.472-1-18.776.005-22.472 1m-19.788 7.467a59.903 59.903 0 0 0-3.212 1.987m18.745-8.289c-4.145 1.076-9.036 3.035-12.745 4.835l12.745-4.835ZM196.062 186.16c-3.995 1.226-9.349 1.839-16.062 1.839M185.389 182.405c-3.115.175-6.578.023-10.389-.454M189.607 167.746C188.031 168 185 168 183 167.5M193.971 148.5c-4.981-.157-9.138-.823-12.471-2M179 136.471c2.343 1.352 5.255 2.361 8.735 3.028M204.5 121.5c-2.333-1-4.136-2.333-5.41-4M75 259.204c11.625-.072 23.701-.853 32.5-2.204 13-1.997 21.88-4.378 31.5-11 7 7.333 16 11.167 29 11.5 4.403.113 8.672-.137 12.807-.751M185.5 256c7.5-1.5 13.392-4.408 18-7 9.422 7.129 21.755 10.462 37 10 12.188-.369 24.099-3.96 31.5-8m3-2c9.333 6.667 15.5 10 26.5 10s18.833-3.333 24.5-10c7 4.667 19.333 7.667 30 9 10.667 1.333 20 1.667 28 1m-321 0c3.435.109 5.976.177 7.623.204L63 259ZM19 287.892c10.667-.595 21.167-3.725 31.5-9.392 5 6.261 13.833 9.428 26.5 9.5m-67 0c1.79 0 3.533-.036 5.23-.108L10 288ZM199 287.5c19.333 0 36.167-4 50.5-12 4 8 13.5 12 28.5 12M440 287.5c-5.958 0-16.5-2.5-24.5-9-8.667 6-16.5 9-23.5 9s-12-2.333-15-7c-6.333 4.667-14 7-23 7m96 0c-2 .066-4.195.066-6 0h6Z" stroke="#323A48" stroke-linecap="round" stroke-linejoin="round"/><path d="M408 243c-6.333 0-10.167-1.667-11.5-5-5.333 3.333-11.167 5-17.5 5M26 243.5c6.333 0 12.333-1.667 18-5 3.667 3.333 8.167 5 13.5 5M331.5 223.5H450m-440 0h119.257H10ZM398.5 30.996c-6 12.532-7.406 19.397-4.219 20.596 3.052 1.148 4.992 3.862 6.714 6.295C402.701 60.296 407.036 60 414 57c-6.964 3-9.998 5.864-9.102 8.592 1.078 3.28 1.467 6.772.807 10.087M420.5 83.43c-10.401-2.467-16.05-2.78-16.947-.94-1.537 3.157-3.724 5.796-6.528 7.668-1.829 1.221-1.338 4.589 1.475 10.104-2.813-5.515-5.143-7.935-6.99-7.26-1.761.642-1.818.62-5.664 1.31M382 115c0-13.333-1.347-20.23-4.041-20.69-4.04-.691-3.35-.482-5.085-.894-.488-.116-1.433-.415-2.833-.897l-1.389-.53c-2.434-1.494-4.221-2.63-5.362-3.408-1.86-1.269-6.957 1.204-15.29 7.42 9-6.216 12.627-10.406 10.881-12.57-2.725-3.38-3.811-7.728-3.811-11.524M328 65.592c18.047 1.605 27.338 1.206 27.874-1.199.911-4.09 4.378-8.553 8.633-12.102 1.995-1.665.993-5.928-3.007-12.79 4.333 6.862 7.881 9.73 10.643 8.605 3.724-1.517 9.107-1.517 13.231-.335M432.719 49.112 450 41.83M414 57l10.143-4.275L414 57ZM321.481 116.523l-94.892 73.435M348 96l-16.718 12.938L348 96ZM102.233 208.468l-20.42 10.085M351.857 85.18l-58.909 29.094 58.909-29.094Zm-90.244 44.571-62.915 31.073 62.915-31.073Zm-97.696 48.252-46.409 22.921 46.409-22.921ZM161.574 116.721 10 148.501m338.918-71.06L286.777 90.47l62.141-13.029Zm-157.724 33.07-12.3 2.578 12.3-2.578ZM36.977 125.558 10 129.86m330.626-52.721-59.816 9.538 59.816-9.538ZM201.57 99.313l-15.168 2.418 15.168-2.418Zm-41.772 6.66-38.859 6.197 38.859-6.197Zm-52.684 8.401-55.982 8.927 55.982-8.927ZM27.36 35.71 10 33.997m318 31.596-33.026-3.45L328 65.591Zm-90.87-9.164-6.339-.626 6.339.626Zm-69.786-6.892L43.231 37.278l124.113 12.258Z" stroke="#E1E4EA" stroke-linecap="round" stroke-linejoin="round"/><path d="M188.37 20.906 157.724 13m187.244 48.302L256.182 38.4l88.786 22.903Zm-97.053-25.036-49.14-12.676 49.14 12.676ZM307.382 40.505 240.011 13m110.995 45.314L317.46 44.62l33.546 13.695ZM348.94 19.922 344.5 13m17 26.5-8.437-13.151L361.5 39.5ZM311.926 191.013l-6.935 12.039m58.694-101.896-27.399 47.567 27.399-47.567Zm-30.962 53.752-17.153 29.779 17.153-29.779ZM355.172 126.685l-38.671 83.075M368.69 97.645l-10.7 22.987 10.7-22.988ZM383.439 189.101 384 218m-2-103 1.261 64.92L382 115ZM399.941 123.876 433 218M391.544 99.969l5.743 16.351-5.743-16.351ZM398.5 100.262l51.5 87.81M420.5 83.43 450 92.7M398.5 30.996 405.934 13M442.494 78.74l7.506.99m-37.353-4.927 20.96 2.764-20.96-2.764Z" stroke="#E1E4EA" stroke-linecap="round" stroke-linejoin="round"/></svg>