<svg width="460" height="300" fill="none" xmlns="http://www.w3.org/2000/svg"><path fill-rule="evenodd" clip-rule="evenodd" d="M121.006 132.077c-1.489 0-1.489-5.452 1.121-7.076 1.124-.7 16.096 3.985 41.776 17.868 9.374 5.069 26.593 15.493 51.657 31.274 10.888-10.909 19.073-18.956 24.556-24.142 4.973-4.704 9.612-9.02 17.053-16.288a377.581 377.581 0 0 0 3.57-3.537l14.3 2.867c-4.887.279-10.525 2.671-16.915 7.174-9.585 6.755-38.05 41.311-41.192 41.311-2.066 0-17.281-9.978-33.537-21.086-17.599-12.027-37.635-24.687-45.719-28.365-15.549-7.076-15.181 0-16.67 0Z" fill="#FFA126"/><path fill-rule="evenodd" clip-rule="evenodd" d="M115 134.414c2.64 31.124 4.795 52.107 6.465 62.949 4.161 27.018 9.464 41.003 11.535 42.141 2.483 1.364 34.007 2.159 91.194-3.257 57.188-5.417 80.096-10.512 81.31-11.498 2.303-1.87 3.455-7.837 3.455-17.899-2.212 3.717-6.283 4.696-12.211 2.936-5.929-1.761-13.979-6.522-24.15-14.285 11.063 10.022 15.393 16.569 12.987 19.642-3.608 4.609-12.987 9.606-63.585 16s-66 6.394-71.427 1.13c-3.618-3.509 2.382-14.552 17.999-33.13-19.112 16.976-31.567 20.773-37.366 11.391-5.799-9.382-11.201-34.756-16.206-76.12ZM260.184 62.674c-3.228 12.4-5.132 21.548-5.712 27.444-1.968 19.991-.356 35.238 0 36.674.512 2.072 8.907 4.277 25.182 6.616l-4.615 18.734 17.026-16.734c27.247 1.507 42.236 1.815 44.968.924 2.731-.891 4.243-3.777 4.536-8.658-3.024 3.01-7.116 4.515-12.276 4.515-41.041 0-64.297-3.857-67.225-10.196-3.237-7.009-3.865-26.782-1.884-59.32Z" fill="#FFA126"/><path fill-rule="evenodd" clip-rule="evenodd" d="M284.562 81.588c-6.212 8.631-8.777 16.573-7.694 23.825 1.624 10.877 12.19 18.526 22.537 17.997 10.348-.528 12.388-2.784 12.388-4.047 0-1.264-.954-1.973-6.62-.455s-17.442 3.048-23.788-6.674c-2.911-4.46-3.825-11.651-1.726-19.647.634-2.416 2.268-6.083 4.903-11Z" fill="#FFA126"/><path fill-rule="evenodd" clip-rule="evenodd" d="M292.605 91.832c-3.802 6.6-4.295 11.71-1.479 15.331 2.022 2.599 5.985 4.138 10.043 2.763 1.064-.361 2.509-1.517 4.335-3.469 1.747 3.648 4.309 5.472 7.687 5.472s6.164-1.824 8.357-5.472c-2.599 2.641-5.713 3.592-9.343 2.853-5.446-1.107-6.079-6.358-6.766-5.108-1.529 2.783-6.388 4.228-10.23 2.698-4.579-1.824-5.447-6.847-2.604-15.068Z" fill="#FFA126"/><path clip-rule="evenodd" d="M65.189 25.76c1.997-2.056 76.572-2.62 79.895 0 2.215 1.746 2.215 13.495 0 35.246l-6.652-9.743c-45.911.909-69.838.732-71.783-.53-2.916-1.893-3.458-22.917-1.46-24.973Z" stroke="#E1E4EA" stroke-linecap="round" stroke-linejoin="round"/><path d="M313.668 218.388c20.045-.743 53.786-.487 55.866 1.372 1.955 1.746 1.955 15.495 0 41.246l-5.869-9.743c-40.503.908-61.613.732-63.328-.53-1.425-1.049-2.208-9.816-2.322-17.774M347.814 125.493c22.18-.868 63.806-.675 66.27 1.267 2.215 1.746 2.215 13.495 0 35.246l-6.652-9.743c-11.451.226-21.534.386-30.249.477m-43.673-8.035a66.494 66.494 0 0 1-.364-4.055M96.734 209.399c-.057 3.844-.607 11.713-1.65 23.607l-6.653-9.743c-45.91.908-69.837.732-71.782-.53-2.916-1.893-3.458-22.917-1.46-24.973 1.14-1.174 25.931-1.861 47.618-1.748" stroke="#E1E4EA" stroke-linecap="round" stroke-linejoin="round"/><path clip-rule="evenodd" d="M399.794 190.236c1.333-1.444 29.878-1.84 32.097 0 1.479 1.227 1.479 9.482 0 24.764l-4.442-6.845c-16.489.638-25.382.514-26.68-.373-1.947-1.33-2.309-16.101-.975-17.546ZM413.794 78.189c1.333-1.39 29.878-1.77 32.097 0 1.479 1.18 1.479 9.117 0 23.811l-4.442-6.582c-16.489.614-25.382.494-26.68-.358-1.947-1.28-2.309-15.482-.975-16.871ZM47.794 117.189c1.333-1.389 29.878-1.77 32.097 0 1.479 1.18 1.479 9.117 0 23.811l-4.442-6.582c-16.489.614-25.382.494-26.68-.358-1.947-1.279-2.31-15.482-.975-16.871ZM221.09 59.189c-1.53-1.39-34.272-1.77-36.817 0-1.697 1.18-1.697 9.117 0 23.811l5.095-6.582c18.913.614 29.114.494 30.603-.358 2.233-1.28 2.649-15.482 1.119-16.871Z" stroke="#E1E4EA" stroke-linecap="round" stroke-linejoin="round"/><path d="M60.16 43.01c-12.675.08-24.091.618-25.513 1.749-2.195 1.746-2.195 13.162 0 34.246l6.592-9.743c34.164.909 52.21.732 54.136-.53 1.483-.972 2.347-6.722 2.568-12.366M294.624 244.236c-5.512.235-9.573.65-10.306 1.279-1.757 1.503-1.757 11.331 0 29.484l5.273-8.388c27.332.782 41.768.63 43.309-.456 1.115-.787 1.792-5.205 2.017-9.767" stroke="#E1E4EA" stroke-linecap="round" stroke-linejoin="round"/><path clip-rule="evenodd" d="M371.112 25.222c-1.492-1.428-44.388-1.82-46.871 0-1.655 1.212-1.655 9.139 0 23.778l4.97-6.765c25.754.631 39.357.508 40.81-.368 2.178-1.314 2.583-15.218 1.091-16.645Z" stroke="#E1E4EA" stroke-linecap="round" stroke-linejoin="round"/><path d="M113.568 180.2c-17.655-.463-42.766-.161-44.921 1.315-2.195 1.504-2.195 11.332 0 29.485l6.592-8.388c22.084.388 36.135.533 42.152.436" stroke="#E1E4EA" stroke-linecap="round" stroke-linejoin="round"/><path clip-rule="evenodd" d="M155.058 259.124c-1.584-1.313-41.106-1.673-43.741 0-1.756 1.116-1.756 8.408 0 21.876l5.274-6.224c23.331.581 35.767.468 37.309-.338 2.311-1.21 2.741-14.001 1.158-15.314ZM372.112 149.222c-1.492-1.428-44.388-1.819-46.871 0-1.655 1.212-1.655 9.138 0 23.778l4.97-6.765c25.754.631 39.357.508 40.81-.368 2.178-1.314 2.583-15.218 1.091-16.645Z" stroke="#E1E4EA" stroke-linecap="round" stroke-linejoin="round"/><path d="m79.155 31.938 49.993-.873M79.264 38.154l49.992-.872M92.175 44.932l36.525-.638M54.459 122.787h18.496M60.361 128h12.594M82.34 187.525h30.108M82.34 194.283h18.596M335.902 154.242h26.924M335.902 159.545h15.176M334.047 30.273h27.742M334.047 35.5h19.24M406.589 195.959h18.061M412.184 201.5h11.326M313.898 228.748h41M313.898 235.727h41M329.898 242.236h25" stroke="#E1E4EA" stroke-linecap="round" stroke-linejoin="round"/><path d="M251.434 103.326c-53.136 3.205-131.25 12.226-135.096 18.351-5.74 9.142 8.36 112.401 16.33 118.051 7.969 5.649 167.84-9 173.855-15.555 3.907-4.256 2.739-50.801-.37-84.812" stroke="#323A48" stroke-linecap="round" stroke-linejoin="round"/><path d="M120 127.633c.793-8.859 32.646 6.645 95.56 46.51 20.933-20.835 35.361-34.721 43.285-41.659" stroke="#323A48" stroke-linecap="round" stroke-linejoin="round"/><path d="m142 231.143 33-39M300 215.143l-45-32" stroke="#323A48" stroke-linecap="round"/><path clip-rule="evenodd" d="m274.51 153.142 18.289-17.654c28.854 1.985 44.253 1.959 46.195-.08 2.913-3.058 13.049-58.515 7.466-64.197-5.583-5.68-79.542-15.081-85.571-9.323-6.029 5.758-9.199 62.801-5.879 65.786 2.213 1.991 10.428 3.902 24.645 5.734l-5.145 19.734Z" stroke="#323A48" stroke-linejoin="round"/><path d="M281.971 116.671c-8.349-8.865-6.761-30.787 6.901-37.583 13.662-6.796 34.401-1.865 34.416 16.1.014 17.964-9.405 17.278-12.705 16.31-2.2-.646-3.838-2.417-4.913-5.314-.866 1.515-2.023 2.647-3.472 3.397-1.449.75-3.083 1.045-4.902.886-2.727-.239-4.784-1.34-6.17-3.305-1.366-1.982-1.911-4.551-1.635-7.708.321-3.659 1.658-6.538 4.013-8.636 2.355-2.099 5.27-2.996 8.743-2.692 1.31.114 6.241 1.225 7.776 4.231 1.536 3.006-1.866 12.718 2.396 13.096 4.263.377 7.984-6.841 3.544-16.594-4.44-9.752-21.543-8.17-28.191-1.293-6.647 6.877-7.432 23.322 2.179 27.734 9.61 4.412 17.284 1.392 19.637 1.394 2.353.002 3.676 3.647.004 4.803-3.671 1.156-19.271 4.039-27.621-4.826Zm20.093-23.484c-2.017-.377-3.692.284-4.951 1.388-1.26 1.103-1.983 2.725-2.171 4.867-.297 3.399.897 5.216 4.148 5.5 3.25.285 5.2-1.655 5.849-5.819.676-3.472-.282-5.45-2.875-5.936Z" stroke="#323A48" stroke-linejoin="round"/><path d="M227.602 155.865c-3.427 2.891-5.744 5.047-6.952 6.471M155.897 116.53c2.561-.332 4.919-.598 7.075-.8m-28.06 4.146c7.141-1.203 11.974-2.002 14.5-2.397l-14.5 2.397Z" stroke="#323A48" stroke-linecap="round" stroke-linejoin="round"/></svg>