<svg width="460" height="300" fill="none" xmlns="http://www.w3.org/2000/svg"><path fill-rule="evenodd" clip-rule="evenodd" d="M221.399 141.274c-9.178-2.926-15.467-5.335-18.869-7.226-5.103-2.836-12.839-6.56-15.562-6.56-1.152 0-4.458 1.914-5.403 4.589-1.669 4.727-.436 8.535 1.518 8.535 1.332 0 2.424-3.984 7.74-4.201 10.232-.418 18.745 3.378 24.059 4.863 5.543 1.548 7.715 1.548 6.517 0Z" fill="#FFA126"/><path fill-rule="evenodd" clip-rule="evenodd" d="M188.279 99.478c-3.466 1.404-6.61 4.31-9.431 8.72-3.526 5.511-6.237 15.429-6.523 17.214-1.201 7.488.268 15.01 2.331 17.022 5.005 4.88 16.004 5.775 22.343 5.297 4.226-.319 8.494-1.07 12.805-2.255-17.933 1.877-28.712.078-32.338-5.398-2.635-3.979-1.699-16.03 2.774-27.962 1.73-4.614 4.409-8.826 8.039-12.638ZM230 139c-2.232.289-3.565.838-4 1.647-.436.809-.771 2.799-1.006 5.97l16.979.468c-7.064.009-11.328-.749-12.793-2.273-1.465-1.523-1.192-3.461.82-5.812Z" fill="#FFA126"/><path fill-rule="evenodd" clip-rule="evenodd" d="M219.149 144.812c-11.832.765-18.927 2.78-21.285 6.046-2.358 3.265-3.839 12.433-4.443 27.504.85-1.006 1.908-2.501 3.176-4.485 1.901-2.977 1.282-18.202 3.778-21.503 2.892-3.827 9.15-6.347 18.774-7.562ZM242.89 146.766c12.092 1.557 18.603 3.077 19.534 4.559.931 1.483 1.922 10.016 2.972 25.598a77.084 77.084 0 0 0 2.946-5.148c1.479-2.814-1.377-20.097-4.527-22.507-2.881-2.204-9.856-3.468-20.925-3.791v1.289ZM247.949 142.476c-1.021-1.085 1.974-1.419 5.811-2.647 4.392-1.405 9.886-3.699 12.735-5.149 5.338-2.716 14.732-6.8 17.545-1.409 2.813 5.391 1.848 10.492-1.027 10.492-2.876 0-.217-5.868-7.444-6.568-7.227-.7-26.408 6.568-27.62 5.281Z" fill="#FFA126"/><path fill-rule="evenodd" clip-rule="evenodd" d="M254.33 130.088c-2.732 3.903-4.778 6.413-6.138 7.529-1.359 1.116-3.432 2.335-6.219 3.656l1.282 4.203c9.937.4 16.182.601 18.733.601 2.551 0 7.14.841 13.767 2.524l10.471.678c2.547-.7 4.296-1.431 5.246-2.194.951-.762 1.86-2.163 2.727-4.202-3.25 3.18-8.211 4.425-14.882 3.734-4.13-.428-18.776-4.053-27.636-3.734-4.441.16-3.011-2.68 0-7.504.627-1.005 1.51-2.768 2.649-5.291ZM170.151 148.613c-2.312.072-3.741.416-4.287 1.034-.365.412-2.126 6.239-2.153 13.082-.034 8.527 1.18 17.93 4.107 19.342 2.928 1.411 33.696 2.42 57.176 2.404 11.602-.008 39.747-.275 64.092-1.476 4.277-.212 7.745-.682 10.404-1.412-80.933 1.281-123.208-.596-126.826-5.631-2.214-3.083-5.326-8.09-4.846-19.079.154-3.518.932-6.273 2.333-8.264Z" fill="#FFA126"/><path fill-rule="evenodd" clip-rule="evenodd" d="M224.711 147.084c-2.208 0-3.541.13-4 .391-.688.391-2.25 9.305-2.25 18.07 0 5.844.75 12.154 2.25 18.93h3.414c-1.604-3.306-2.406-9.283-2.406-17.931 0-8.647.997-15.134 2.992-19.46ZM225.771 184.477h-4.186c-1.445 0-.96 13.719.083 40.871.695 18.101 1.814 33.985 3.356 47.652h3.121c-1.589-9.261-2.825-24.015-3.708-44.262-.883-20.246-.438-35 1.334-44.261Z" fill="#FFA126"/><path d="m91.296 105.41 15.12 14.026M140.634 134.026l16.911 18.803M47.072 30l86.978 96.706L47.072 30ZM143.628 52.737l24.141 49.519M132.543 30l6.461 13.253L132.543 30ZM164.791 58.094l5.674 14.771M205.464 82.382l2.44 13.4M195.926 30l7.163 39.34L195.926 30ZM235.5 98.5l-.492 21.399M242.5 87.5l-2.969 39.988M316.749 30 291 94.347M309.57 107.727l-7.724 13.215M355 30l-40.158 68.707L355 30ZM357.468 54.453l-7.544 11.16M389.054 53.613l-79.993 94.699M409 30l-13.729 16.252L409 30ZM356.889 146.896l-23.641 17.392M450 95.387l-148.981 97.898M422.697 166.766l-121.938 45.648M450 156.545l-17.731 6.638L450 156.545ZM450 177.477l-149.487 41.494M421.52 217.197l-18.259 1.975M37.954 111.475l126.161 81.229M10 93.477l18.323 11.797L10 93.477ZM10 112.479l154.791 86.703M83.02 184.291l32.184 11.367M147.768 225.949 10 207.495m0-10.466 23.781 4.304L10 197.029Zm33.845 6.125 105.245 18.695-105.245-18.695ZM58.173 236.047l15.912.133" stroke="#E1E4EA" stroke-linecap="round" stroke-linejoin="round"/><path fill-rule="evenodd" clip-rule="evenodd" d="m185.692 183.846-11.28-.639c-.342 53.444 1.825 82.083 6.502 85.919 7.015 5.752 88.868 4.941 107.951-.752 1.153-1.605 1.71-2.902 1.67-3.892-44.923 4.718-74.212 1.398-87.867-9.96-13.655-11.358-19.314-34.917-16.976-70.676Z" fill="#FFA126"/><path d="M293.284 182.797c-.036 1.513.706 79.909-4.419 85.576-5.124 5.668-100.435 6.889-107.951.752-5.01-4.091-7.402-58.078-6.537-85.585" stroke="#323A48" stroke-linecap="round" stroke-linejoin="round"/><path d="M197 147.73c-18.647.258-30.002.802-31.136 1.917-3.508 3.451-2.499 27.553 1.36 31.94 1.967 2.237 35.181 3.044 67.844 2.864m9.082-.075c28.032-.313 53.416-1.339 55.34-2.789 4.348-3.274 6.093-25.507 1.551-30.1-1.102-1.114-9.413-1.999-21.423-2.651M224.998 146.766c-.053-3.709.434-5.352 1.461-6.529 1.811-2.074 13.966-1.489 15.444 1.373.792 1.531.986 3.04.986 4.969M226 140.646c-14.024-9.555-24.397-42.426-37.474-41.13-12.076 1.196-25.935 42.556-8.789 45.96M241.973 141.274c17.489-6.572 20.493-37.797 34.402-37.797 14.528 0 24.119 40.214 14.393 44" stroke="#323A48" stroke-linecap="round" stroke-linejoin="round"/><path d="M221.399 141.274c-14.934-2.695-30.609-15.598-35.768-13.571-3.44 1.352-5.076 4.738-4.908 10.16M248.711 141.273c13.058-2.389 25.011-12.304 31.354-10.551 6.344 1.754 6.28 9.384 4.875 11.754M221.586 184.479c-2.437 5.11 1.319 84.743 3.125 87.996M248.028 184.375c2.63 3.702 1.896 85.796-1.317 88.1M346.026 244.862 450 238.936M10 264.881l158.5-9.382L10 264.881Zm290.815-17.368 31.869-1.869-31.869 1.869ZM244.711 145.475c20.01-.022 31.089 1.56 33.235 4.746 2.147 3.186 2.717 11.094 1.709 23.726l-5.842-11.022-8.417 13.996c-.093-16.014-1.62-24.914-4.583-26.7-2.963-1.786-7.837-2.806-14.621-3.062M222.711 144.813c-14.574-.009-23.031 2.16-25.372 6.506-2.341 4.346-3.647 13.488-3.918 27.427l6.551-10.293 8.681 10.293c.27-21.164 4.956-31.746 14.058-31.746" stroke="#323A48" stroke-linecap="round" stroke-linejoin="round"/><path d="M248.711 184.162c1.827-2.688 1.827-32.98-1.102-36.431-1.285-1.513-25.032-1.371-26.898-.255-3 1.795-3 33.176 0 37M274.211 107.869c2.492-1.031 4.75-.353 6.773 2.035M193.421 105.213c2.37 1.388 4.336 3.377 5.899 5.969M272.24 150.205c2.882.56 4.323 1.877 4.323 3.951M208.6 155.756c-.717 1.319-1.295 3.453-1.734 6.403M235.436 141.859c2.426.322 3.792 1.084 4.096 2.286" stroke="#323A48" stroke-linecap="round" stroke-linejoin="round"/><path d="M245.592 155.756c.587 8.772.587 15.506 0 20.201M244.407 259.362a198.902 198.902 0 0 1-.407 6.229M245.025 232c-.192 12.226-.345 20.059-.46 23.499l.46-23.499Z" stroke="#323A48" stroke-linecap="round" stroke-linejoin="round"/><path fill-rule="evenodd" clip-rule="evenodd" d="M203.851 31.076C201.284 35.468 200 42.323 200 51.644c0 11.196 1.027 23.089 2.418 24.73 1.784 2.105 10.406 4.22 25.867 6.347l5.953 9.399 5.918-10.121c9.834-.604 16.656-1.166 20.467-1.685 5.717-.78-41.091.935-50.67-8.89-6.387-6.55-8.421-20-6.102-40.348Z" fill="#FFA126"/><path fill-rule="evenodd" clip-rule="evenodd" d="M219.963 42.688c-3.962 4.904-4.427 9.693-1.393 14.367 3.033 4.674 8.677 9.464 16.93 14.368l8.908-5.95c-8.347 1.84-15.241.016-20.684-5.474-5.443-5.49-6.696-11.26-3.761-17.312Z" fill="#FFA126"/><path clip-rule="evenodd" d="M266.835 31.076c-4.944-5.262-57.633-5.604-62.984 0-5.35 5.604-4.664 41.649-.762 45.502 3.903 3.854 21.478 4.763 24.183 5.826 1.626.639 3.904 3.877 6.834 9.716 3.003-5.796 5.118-9.021 6.344-9.676 2.441-1.304 21.817-.247 26.214-4.06 4.396-3.813 5.115-42.046.171-47.308Z" stroke="#323A48" stroke-linejoin="round"/><path clip-rule="evenodd" d="M220.623 59.944c3.695 4.063 8.681 7.889 14.956 11.478 6.924-3.458 11.916-7.566 14.977-12.321 4.592-7.133 3.547-15.882-3.05-17.57-4.397-1.124-8.373.607-11.927 5.192-4.18-5.305-8.665-7.035-13.455-5.191-7.186 2.766-6.49 12.872-1.501 18.412Z" stroke="#323A48" stroke-linecap="round" stroke-linejoin="round"/><path d="M226.837 44.548c-5.878-.706-7.062 4.808-5.738 7.096" stroke="#323A48" stroke-linecap="round" stroke-linejoin="round"/></svg>