<svg width="460" height="300" fill="none" xmlns="http://www.w3.org/2000/svg"><path fill-rule="evenodd" clip-rule="evenodd" d="M215 121.5c-5.032 1.72-7.95 3.925-8.753 6.616-3.879 12.982-2.334 35.791 1.579 39.426 5.692 5.289 11.994 4.817 15.387 3.851 2.263-.644 4.525-2.247 6.787-4.808l-.97-4.808c-9.02 3.205-14.697 1.613-17.03-4.777-4.802-13.151-3.802-24.984 3-35.5Z" fill="#FFA126"/><path fill-rule="evenodd" clip-rule="evenodd" d="M229.966 128c-2.247 16.108-2.568 27.545-.963 34.313 1.605 6.768 3.604 9.997 5.997 9.687-.041-4.788.126-8.121.5-10 1.28-6.42 3.915-10.037 6-10.5 3-.667 7.5.167 13.5 2.5l.5-2.5c-2.333-1.333-7-2.667-14-4-7-1.333-10.845-7.833-11.534-19.5ZM156.499 82c-3.752 6.141-4.351 12.558-1.796 19.249 3.832 10.037 19.578 32.581 22.796 53.25 3.218 20.669-1.284 44.467 5.5 56 3.334 5.667 7 9.5 11 11.5.606 14.986.94 26.152 1 33.5.061 7.348-.106 16.348-.5 27 1.334-29 3.078-45.764 5.233-50.294 2.156-4.529 4.911-6.598 8.267-6.206-6.333-1.923-12.333-9.423-18-22.5-8.5-19.614 1-61.5-21-108.5-4.188-8.949-8.355-13.282-12.5-13Z" fill="#FFA126"/><path fill-rule="evenodd" clip-rule="evenodd" d="M223.578 198c-2.034 0 2.213-6.395 7.421-11 3.473-3.07 7.397-4.562 11.774-4.478-4.378-1.001-6.969-5.175-7.774-12.522-.501-4.578.194-10.468 2-14 .729-1.424 2.312-2.924 4.75-4.5-2.833 6.667-2.833 13.333 0 20 2.834 6.667 7.584 11.5 14.25 14.5-6.666-.667-13 .167-19 2.5-9 3.5-11.387 9.5-13.421 9.5ZM225 220c3 5.667 9.167 8.667 18.5 9 9.333.333 17.833-1.548 25.5-5.643-1.201 7.973-1.99 15.326-2.366 22.06-.375 6.734-.51 15.928-.404 27.583-2.487-22.667-7.872-35.219-16.155-37.656-15.96-4.695-24.319-9.81-25.075-15.344ZM296 64c-6-1.666-10.333-1.166-13 1.5-7.77 7.77-13.085 25.635-17 36.001-4.433 11.738-7.729 21.291-9.887 28.659.583 4.713.809 8.52.676 11.421-.133 2.902-.669 6.999-1.607 12.291l15.318 8.629 1-3c-6.149-7.563-8.816-15.563-8-24 1.539-15.901 7.504-36.727 19.5-56.376 2.398-3.927 6.731-8.968 13-15.124ZM431.953 76.043l-63.656 24.787 34.31 3.085-103.351 39.049 127.222-42.134-36.849-4.119 42.324-20.668ZM259 10l-8 67-11-17-4.592 47.33 6.342-32.288 11.265 14.248L259 10ZM127.048 95.909l-49.855-35.91L89 90 24.665 50.097 76.857 76.5l-9.995-29.457 60.186 48.866ZM66.811 290.001l59.274-44.179h-20.882l64.292-39.494-45.662 34.013h19.035l-76.056 49.66ZM450 290l-93.914-55.869 7.959 23.384-69.554-43.827 57.292 27.652-6.305-18.168L450 290Z" fill="#FFA126"/><path d="m126.062 127.769-12.071-4.807L94 115m55.714 22.188-13.155-5.239 13.155 5.239ZM293.056 267.044l7.362 11.308m-24.198-37.17 9.567 14.696-9.567-14.696ZM138.217 55.69l-15.32-20.27M175.333 240.572l-13.679 16.187M387.071 215.014l31.072 7.598M215.114 107.777 193.462 10M226.172 84.762 223 10M251.736 107.33l24.045-74.855M296.516 55.706 322 10M314.546 45.833l14.052-21.468M308.957 89.29 382 10M302.282 120.788l96.475-72.356M294.717 130.488l127.055-87.13M292.88 153.661 450 99M323.227 148.846l90.142-25.489M304.394 163.165 450 140M202.404 109.009 161 10M160.604 72.765l-29.859-43.988M147.977 87.685 75 10M147.582 94.532 93.82 42.043M63.436 61.504 13 28m140 93-50.94-33.838L153 121ZM162.113 140.439 44.177 80.399M164.394 151.441 10 96M161.375 152.854 36.257 112.475M163.869 163.277 38.624 141.074M137.048 164.579 10 150M162.049 182.104l-125.98 13.17M144.386 188.23 10 208.999M158.824 201.205 10 255.999M172.17 199.184 41.543 253.809M89.945 259.479 41 289.001M165.553 234.291 105 290M182.412 225.232l-44.687 47.17M183.68 251.529 161 289.001M187.79 274.064 181 289.999M296.445 173.188 450 169M309.167 185.795 450 204.999M297.646 188.221l130.29 25.466M306.382 200.346 450 248.001M293.627 199.584l110.665 42.757M383.176 264.418 427 290.001M288.179 218.445l70.825 52.889M312.302 244.594 366 290M281.128 236.354 325 289M277.559 264.66 291 290.001M211.018 53.877l-2.21-13.82m9.062 56.653-4.567-28.552 4.567 28.552ZM108.506 212.182l-30.667 10.839m54.727-19.343-9.71 3.432 9.71-3.432ZM367.767 43.905 382.379 31M320 86.093l36.086-31.872L320 86.093ZM392.615 163.93l42.518-1.43m-79.823 2.685 17.47-.588-17.47.588Z" stroke="#E1E4EA" stroke-linecap="round" stroke-linejoin="round"/><path d="M225 219.754c2.212 8.968 19.675 11.951 36.643 6.551a58.634 58.634 0 0 0 3.716-1.323c18.043-7.129 26.589-43.245 20.892-50.373-5.698-7.128-35.136-25.777-43.683-23.401-8.547 2.376-10.921 24.827-2.849 29.579 5.381 3.168 10.921 4.911 16.619 5.227" stroke="#323A48" stroke-linecap="round" stroke-linejoin="round"/><path d="M225 194c4.537-8.277 10.87-11.943 19-11M208 226c-6.129-.602-11.945-2.779-17.448-6.532-16.795-11.453-9.067-42.759-13.866-68.386-4.798-25.626-27.831-49.01-23.032-63.804 4.798-14.793 18.234-10.498 21.113-6.203 2.879 4.294 6.718 27.201 29.271 57.266M256 129.514c13.543-40.663 23.149-62.425 28.818-65.287 8.503-4.292 21.731 3.339 23.148 12.62.636 4.166-7.768 18.455-19.542 42.87-3.814 7.908-9.74 22.003-17.779 42.283" stroke="#323A48" stroke-linecap="round" stroke-linejoin="round"/><path d="M255.181 153.872c2.577-13.676 2.416-22.582-.483-26.716-4.348-6.202-20.29-7.156-23.672-.954-3.381 6.202-5.797 43.413 3.382 45.798" stroke="#323A48" stroke-linecap="round" stroke-linejoin="round"/><path d="M231 125.973c-5.257-6.149-17.204-7.095-22.938 0-5.735 7.096-4.779 34.532-.956 40.682 3.823 6.149 16.248 8.042 22.938 0M194 222c1.424 28.181 1.103 50.154.414 67M269 223c-3.846 22.605-3.358 45.769-2.03 66M46.774 63.809 89 89.999 77 60l50.048 35.91M24.665 50.096l9.237 5.729-9.237-5.73ZM431.954 76.043 368 101.001l34 3-74.099 27.787m-11.412 4.641-17.232 6.535M66.811 290.001l14.697-10.893M93.5 270.22l33.137-24.561-21.637.342 45.166-27.783m11.215-6.898 8.114-4.992M450 290l-14.049-8.37m-13.612-8.109L356 234l8 23-41.541-25.79m-14.224-8.83-13.744-8.532M96.245 176.321 153.073 173M34 179.958l13.509-.789-13.509.789Zm27.01-1.578 21.74-1.271-21.74 1.271ZM235.408 107.847 240 60l11 17 5-44m1.449-10.014L259 10M359.313 182.736l27.836 2.599M330 180l14.028 1.309L330 180ZM193.461 57.86 181.58 21.083m20.103 62.229-3.81-11.795 3.81 11.795ZM282 175.971c2.021 1.319 2.694 4.303 2.021 8.954M303.585 75.887c.612 1.873-.543 5.2-2.092 7.855m-1.608 3a28.343 28.343 0 0 1-1.435 2.548M168.859 81.074c2.658.599 4.38 2.628 5.167 6.088M250.008 127.293c2.162.886 3.243 2.367 3.243 4.441" stroke="#323A48" stroke-linecap="round" stroke-linejoin="round"/><path d="M227.678 127.293c-.483 1.17-.846 2.65-1.089 4.441" stroke="#323A48" stroke-linecap="round" stroke-linejoin="round"/></svg>