<svg width="460" height="300" fill="none" xmlns="http://www.w3.org/2000/svg"><path d="M33 184a4 4 0 1 0 0-8 4 4 0 0 0 0 8Z" fill="#E1E4EA" stroke="#E1E4EA"/><path d="M93 136a4 4 0 1 0 0-8 4 4 0 0 0 0 8ZM33 54a4 4 0 1 0 0-8 4 4 0 0 0 0 8ZM258 78a4 4 0 1 0 0-8 4 4 0 0 0 0 8ZM366 48a4 4 0 1 0 0-8 4 4 0 0 0 0 8ZM322 158a4 4 0 1 0 0-8 4 4 0 0 0 0 8ZM374 206a4 4 0 1 0 0-8 4 4 0 0 0 0 8ZM189 38a4 4 0 1 0 0-8 4 4 0 0 0 0 8ZM57 184a4 4 0 1 0 0-8 4 4 0 0 0 0 8ZM117 136a4 4 0 1 0 0-8 4 4 0 0 0 0 8ZM141 136a4 4 0 1 0 0-8 4 4 0 0 0 0 8Z" stroke="#E1E4EA"/><path d="M57 54a4 4 0 1 0 0-8 4 4 0 0 0 0 8Z" fill="#E1E4EA" stroke="#E1E4EA"/><path d="M282 78a4 4 0 1 0 0-8 4 4 0 0 0 0 8Z" stroke="#E1E4EA"/><path d="M390 48a4 4 0 1 0 0-8 4 4 0 0 0 0 8Z" fill="#E1E4EA" stroke="#E1E4EA"/><path d="M398 206a4 4 0 1 0 0-8 4 4 0 0 0 0 8ZM213 38a4 4 0 1 0 0-8 4 4 0 0 0 0 8ZM81 184a4 4 0 1 0 0-8 4 4 0 0 0 0 8ZM89 229a4 4 0 1 0 0-8 4 4 0 0 0 0 8ZM414 106a4 4 0 1 0 0-8 4 4 0 0 0 0 8ZM41 106a4 4 0 1 0 0-8 4 4 0 0 0 0 8ZM117 106a4 4 0 1 0 0-8 4 4 0 0 0 0 8ZM117 54a4 4 0 1 0 0-8 4 4 0 0 0 0 8ZM370 158a4 4 0 1 0 0-8 4 4 0 0 0 0 8ZM237 38a4 4 0 1 0 0-8 4 4 0 0 0 0 8Z" stroke="#E1E4EA"/><path d="M105 136a4 4 0 1 0 0-8 4 4 0 0 0 0 8Z" fill="#E1E4EA" stroke="#E1E4EA"/><path d="M45 54a4 4 0 1 0 0-8 4 4 0 0 0 0 8ZM378 48a4 4 0 1 0 0-8 4 4 0 0 0 0 8Z" stroke="#E1E4EA"/><path d="M334 158a4 4 0 1 0 0-8 4 4 0 0 0 0 8Z" fill="#E1E4EA" stroke="#E1E4EA"/><path d="M386 206a4 4 0 1 0 0-8 4 4 0 0 0 0 8ZM201 38a4 4 0 1 0 0-8 4 4 0 0 0 0 8ZM69 184a4 4 0 1 0 0-8 4 4 0 0 0 0 8ZM77 229a4 4 0 1 0 0-8 4 4 0 0 0 0 8ZM402 106a4 4 0 1 0 0-8 4 4 0 0 0 0 8ZM29 106a4 4 0 1 0 0-8 4 4 0 0 0 0 8ZM129 136a4 4 0 1 0 0-8 4 4 0 0 0 0 8ZM153 136a4 4 0 1 0 0-8 4 4 0 0 0 0 8ZM69 54a4 4 0 1 0 0-8 4 4 0 0 0 0 8ZM105 54a4 4 0 1 0 0-8 4 4 0 0 0 0 8ZM294 78a4 4 0 1 0 0-8 4 4 0 0 0 0 8ZM402 48a4 4 0 1 0 0-8 4 4 0 0 0 0 8ZM358 158a4 4 0 1 0 0-8 4 4 0 0 0 0 8ZM410 206a4 4 0 1 0 0-8 4 4 0 0 0 0 8ZM93 184a4 4 0 1 0 0-8 4 4 0 0 0 0 8ZM101 229a4 4 0 1 0 0-8 4 4 0 0 0 0 8ZM426 106a4 4 0 1 0 0-8 4 4 0 0 0 0 8ZM53 106a4 4 0 1 0 0-8 4 4 0 0 0 0 8ZM129 106a4 4 0 1 0 0-8 4 4 0 0 0 0 8ZM93 54a4 4 0 1 0 0-8 4 4 0 0 0 0 8Z" stroke="#E1E4EA"/><path d="M129 54a4 4 0 1 0 0-8 4 4 0 0 0 0 8Z" fill="#E1E4EA" stroke="#E1E4EA"/><path d="M318 78a4 4 0 1 0 0-8 4 4 0 0 0 0 8ZM426 48a4 4 0 1 0 0-8 4 4 0 0 0 0 8ZM382 158a4 4 0 1 0 0-8 4 4 0 0 0 0 8ZM434 206a4 4 0 1 0 0-8 4 4 0 0 0 0 8ZM249 38a4 4 0 1 0 0-8 4 4 0 0 0 0 8Z" stroke="#E1E4EA"/><path fill-rule="evenodd" clip-rule="evenodd" d="M252.213 216.48c2.518-.591 1.581-2.443 2.281-2.815.368-.196-.477 1.051-2.444 1.504-2.94.679-8.034.528-8.382-.169-2.226-4.466 1.949-3.227 1.126-5.303-3.198 1.63-4.089 2.712-2.595 5.644 1.494 2.931 8.187 1.568 10.014 1.139Z" fill="#FFA126"/><path fill-rule="evenodd" clip-rule="evenodd" d="M241.213 215.778c2.519-.256 1.581-1.059 2.281-1.22.368-.085-.436-.04-2.403.156-2.94.295-7.912.302-8.259 0-2.226-1.935 1.786-.976.963-1.876-3.199.706-4.089 1.175-2.596 2.446 1.494 1.271 8.187.68 10.014.494ZM218.217 214.989c2.584.044 2.194-.663 2.968-.72.409-.03-.184-.245-2.199-.281-3.014-.055-8.355-.272-8.465-.538-.349-.843 2.626.578 3.268-1.139-3.524.237-5.995.49-5.367 1.609.628 1.12 7.921 1.038 9.795 1.069Z" fill="#FFA126"/><path fill-rule="evenodd" clip-rule="evenodd" d="M206.072 215.676c2.579.216 2.26-1.835 3.04-1.973.411-.072-.779.852-2.789.676-3.006-.263-7.804-1.981-7.919-2.751-.737-4.935 2.85-2.466 2.709-4.695-3.545.561-4.727 1.315-4.212 4.565.515 3.25 7.302 4.021 9.171 4.178ZM169.319 186.159c.275 2.851 1.214 1.831 1.394 2.627.096.419-.523-.559-.734-2.785-.315-3.328-.194-9.068.159-9.446 2.262-2.422 1.603 2.261 2.653 1.374-.79-3.638-1.326-4.664-2.811-3.037-1.486 1.626-.86 9.199-.661 11.267ZM230.213 217.48c2.518-.591 1.581-2.443 2.281-2.815.368-.196-.477 1.051-2.444 1.504-2.94.679-6.713.266-7.061-.431-2.226-4.465.628-2.965-.195-5.041-3.198 1.63-4.089 2.712-2.595 5.644 1.494 2.931 8.187 1.568 10.014 1.139ZM290.991 205.695c2.519-.591 5.486-3.163 6.186-3.535.368-.196.848-2.12-.836-.771-5.695 4.563-9.484 2.956-9.831 2.259-2.226-4.465 4.863-6.943 1.665-5.313-3.199 1.63-4.469 3.073-2.975 6.005 1.493 2.932 3.965 1.784 5.791 1.355ZM221.399 128.274c-9.178-2.926-15.467-5.335-18.869-7.226-5.103-2.836-12.839-6.56-15.562-6.56-1.152 0-4.458 1.914-5.403 4.589-1.669 4.727-.436 8.535 1.518 8.535 1.332 0 2.424-3.984 7.74-4.201 10.232-.418 18.745 3.378 24.059 4.863 5.543 1.548 7.715 1.548 6.517 0Z" fill="#FFA126"/><path fill-rule="evenodd" clip-rule="evenodd" d="M188.28 86.478c-3.466 1.404-6.61 4.31-9.431 8.72-3.526 5.511-6.237 15.429-6.523 17.214-1.201 7.488.268 15.01 2.331 17.022 5.005 4.88 16.004 5.775 22.343 5.297 4.226-.319 8.494-1.07 12.805-2.255-17.933 1.877-28.712.078-32.338-5.398-2.635-3.979-1.699-16.03 2.774-27.962 1.73-4.614 4.409-8.826 8.039-12.638ZM230 126c-2.232.289-3.565.838-4 1.647-.436.809-.771 2.799-1.006 5.97l16.979.468c-7.064.009-11.328-.749-12.793-2.273-1.465-1.523-1.192-3.461.82-5.812Z" fill="#FFA126"/><path fill-rule="evenodd" clip-rule="evenodd" d="M219.149 131.812c-11.832.765-18.927 2.78-21.285 6.046-2.358 3.265-3.839 12.433-4.443 27.504.85-1.006 1.908-2.501 3.176-4.485 1.901-2.977 1.282-18.202 3.778-21.503 2.892-3.827 9.15-6.347 18.774-7.562ZM242.89 133.766c12.092 1.557 18.603 3.077 19.534 4.559.931 1.483 1.922 10.016 2.972 25.598a77.084 77.084 0 0 0 2.946-5.148c1.479-2.814-1.377-20.097-4.527-22.507-2.881-2.204-9.856-3.468-20.925-3.791v1.289ZM247.949 129.476c-1.021-1.085 1.974-1.419 5.811-2.647 4.392-1.405 9.886-3.699 12.735-5.149 5.338-2.716 14.732-6.8 17.545-1.409 2.813 5.391 1.848 10.492-1.027 10.492-2.876 0-.217-5.868-7.444-6.568-7.227-.7-26.408 6.568-27.62 5.281Z" fill="#FFA126"/><path fill-rule="evenodd" clip-rule="evenodd" d="M254.331 117.088c-2.733 3.903-4.779 6.413-6.138 7.529-1.359 1.116-3.432 2.335-6.219 3.656l1.282 4.203c9.937.4 16.182.601 18.733.601 2.551 0 7.14.841 13.767 2.524l10.471.678c2.547-.7 4.296-1.431 5.246-2.194.951-.762 1.86-2.163 2.727-4.202-3.25 3.18-8.211 4.425-14.882 3.734-4.13-.428-18.776-4.053-27.636-3.734-4.441.16-3.011-2.68 0-7.504.627-1.005 1.51-2.768 2.649-5.291ZM170.151 135.613c-2.312.072-3.741.416-4.287 1.034-.365.412-2.126 6.239-2.153 13.082-.034 8.527 1.18 17.93 4.107 19.342 2.928 1.411 33.696 2.42 57.176 2.404 11.602-.008 39.747-.275 64.092-1.476 4.277-.212 7.745-.682 10.404-1.412-80.933 1.281-123.208-.596-126.826-5.631-2.214-3.083-5.326-8.09-4.846-19.079.154-3.518.932-6.273 2.333-8.264Z" fill="#FFA126"/><path fill-rule="evenodd" clip-rule="evenodd" d="m180.375 170.825-6.156-.825.282 20.552c4.876.508 8.174 1.056 9.891 1.643 1.027.351 5.669 2.827 7.745 7.955 2.377 5.875.436 13.437 0 17.784 5.907 2.905 9.15 3.367 13.365 6.066 0 8.175-2.255 20-6.766 35.476 28.914.575 48.854.575 59.821 0 10.967-.574 20.341-2.067 28.122-4.476-10.685.903-18.623 1.413-23.814 1.531-31.83.723-48.418-1.75-50.559-4.649-2.61-3.535 6.693-30.79-4.572-33.948-13.57-3.804-8.998-8.465-8.998-15.24 0-6.776-6.599-12.142-11.035-13.197-6.527-1.554-8.97-7.778-7.326-18.672ZM224.711 134.084c-2.208 0-3.541.13-4 .391-.688.391-2.25 9.305-2.25 18.07 0 5.844.75 12.154 2.25 18.93h3.414c-1.604-3.306-2.406-9.283-2.406-17.931 0-8.647.997-15.134 2.992-19.46Z" fill="#FFA126"/><path fill-rule="evenodd" clip-rule="evenodd" d="M225.771 171.477h-4.186c-1.445 0-.96 13.719.083 40.871.695 18.101 1.814 33.985 3.356 47.652h3.121c-1.589-9.261-2.825-24.015-3.708-44.262-.883-20.246-.438-35 1.334-44.261ZM170.242 191.805c0-.998-7.809 2.327-10.756 7.88-2.948 5.552-3.577 9.585-3.577 11.087 0 .397 1.505.721 4.514.971-1.07-7.738 2.202-14.384 9.819-19.938ZM174.533 196.314v17.684c0 .398 4.034 1.331 12.101 2.8 1.674-6.669 1.378-11.92-.887-15.753-2.264-3.834-6.002-5.411-11.214-4.731Z" fill="#FFA126"/><path fill-rule="evenodd" clip-rule="evenodd" d="M183.333 197.59c8.726 5.262 6.889 12.958 5.716 19.534-.039.222-.796.038-2.269-.55 2.058-8.679.909-15.007-3.447-18.984ZM163.054 229.28c-2.526 1.686-3.676 3.74-3.451 6.162.153 1.645 1.344 3.869 2.611 4.737.725.497-6.788 9.964-1.376 11.592 5.945 1.788 5.293-10.353 6.026-10.428a6.42 6.42 0 0 0 .781-.128c2.252-.511 3.744-1.993 4.476-4.446-.487-.261-1.071-.261-1.753 0-.346.132-1.204 2.475-5.145 2.301-2.614-.116-4.962-3.436-3.688-6.755.849-2.213 1.355-3.225 1.519-3.035Z" fill="#FFA126"/><path fill-rule="evenodd" clip-rule="evenodd" d="M183.238 269.749c8.647.739 8.647-5.782 1.833-6.961-70.659-12.222-51.864-18.774-44.176-50.559-2.934 3.393-9.583 13.315-18.725 38.603-3.741 10.35 51.958 18.917 61.068 18.917ZM282.707 205.955c2.387-.841 3.663-2.059 4.306-2.374.338-.165-2.463.4-4.306 1.26-2.556 1.195-4.981 2.278-5.386 2.089-2.596-1.21 4-2.089.846-2.428-2.944 1.412-4.265 2.645-2.529 3.432 1.736.786 5.339-1.369 7.069-1.979ZM272.631 212.54c2.519-.591 3.425-2.408 4.125-2.78.368-.195-2.129.303-4.125 1.268-2.77 1.339-6.348 1.348-6.695.651-2.226-4.466.495-2.751-.328-4.827-3.198 1.63-2.902 2.555-1.408 5.487 1.494 2.932 6.604.63 8.431.201Z" fill="#FFA126"/><path fill-rule="evenodd" clip-rule="evenodd" d="M262.419 212.799c2.458-.612 2.402-1.046 3.072-1.307.352-.138-.147-.474-2.066 0-2.87.708-7.88 2.169-8.827 1.393-.948-.775 2.446-.822 1.379-2.13-3.066 1.164-4.218 2.102-2.557 3.187s7.217-.7 8.999-1.143ZM296.962 192.801c-.765-2.472-3.12-2.405-3.176-1.819-.13 1.364.697-.353 1.799 1.57 1.529 2.67 2.889 5.522 2.277 6.011-4.082 3.266-3.36-2.364-4.434.195 1.848 3.077 2.01 2.759 4.83 1.064 2.821-1.695-.741-5.229-1.296-7.021ZM170.445 191.189c-.35-1.113-.418-1.965-.203-2.554 1.096-3.007 3.718-.963 4.702-.704.551.145.516-.64-.407-2.279-3.374-1.228-4.772-1.142-5.898 1.95-.346.95-.265 2.341.241 4.173l1.565-.586ZM175.274 196.828c-3.373-1.228-2.082-.405-2.445-.405-2.398 0 3.639 3.646 2.445.405ZM166.854 172.14c-1.043 2.368 1.417 2.062 1.293 2.845-.066.412-.239-1.462.582-3.305 1.228-2.757 1.436-2.011 2.202-1.869 3.27.607 2.537.309-2.202-.892a16.686 16.686 0 0 0-1.875 3.221Z" fill="#FFA126"/><path d="M173.754 197.591c2.596 1.75 4.089-.009 5.699-2.396 1.61-2.387-1.146-6.611-3.742-8.362-2.596-1.751-4.45-3.477-6.06-1.09-1.073 1.592-1.544 3.017-1.412 4.277" stroke="#323A48" stroke-linecap="round"/><path clip-rule="evenodd" d="M169.028 183.487c.22 4.017.658 5.46 2.299 5.008 1.64-.452 1.747-5.063 1.527-9.081-.22-4.017-.683-5.92-2.323-5.468-1.641.452-1.723 5.523-1.503 9.541Z" stroke="#323A48"/><path d="M194.563 210.515c3.632.973 3.302.512 3.61-.639.308-1.151-3.705-2.492-7.337-3.466-3.632-.973-5.945-.997-6.253.154-.206.767.189 1.289 1.185 1.566" stroke="#323A48" stroke-linecap="round"/><path clip-rule="evenodd" d="M203.512 215.641c3.483.869 5.909.246 6.705-2.946.796-3.193-3.864-4.59-7.347-5.459-3.484-.868-5.389-.612-6.185 2.58-.796 3.193 3.344 4.957 6.827 5.825Z" stroke="#323A48"/><path clip-rule="evenodd" d="M216.402 215.119c3.57.13 4.71-.205 5.054-1.339.344-1.135-3.593-1.525-7.163-1.655-3.571-.131-5.784.285-6.128 1.419-.344 1.134 4.667 1.445 8.237 1.575ZM294.174 204.258c3.198-1.63 4.102-2.887 2.609-5.819-1.494-2.932-5.41-1.732-8.608-.103-3.199 1.63-4.469 3.073-2.975 6.005 1.493 2.932 5.775 1.547 8.974-.083Z" stroke="#323A48"/><path d="M293.536 199.583c.907 1.61 2.17 1.901 3.788.872 2.426-1.543 2.284-2.644.604-5.942-1.681-3.298-2.698-4.297-3.928-3.67" stroke="#323A48"/><path clip-rule="evenodd" d="M282.211 206.145c3.099-1.332 5.848-2.29 4.354-3.186-1.494-.897-5.207.184-8.305 1.516-3.098 1.331-4.409 2.41-2.915 3.307 1.494.897 3.768-.305 6.866-1.637Z" stroke="#323A48"/><path clip-rule="evenodd" d="M270.825 213.136c3.484-.869 6.524-2.039 5.728-5.232-.796-3.193-3.381-3.677-6.864-2.809-3.484.869-6.966 2.735-6.17 5.928.796 3.193 3.823 2.981 7.306 2.113Z" stroke="#323A48"/><path clip-rule="evenodd" d="M259.515 213.467c3.512-.662 6.61-1.428 6.066-2.824-.543-1.395-3.064-1.419-6.576-.756-3.512.662-7.1 1.78-6.557 3.175.544 1.396 3.555 1.068 7.067.405Z" stroke="#323A48"/><path clip-rule="evenodd" d="M247.845 217.227c3.59 0 6.824-.4 6.824-3.691 0-3.29-2.392-4.386-5.982-4.386-3.589 0-7.42.969-7.42 4.259 0 3.291 2.988 3.818 6.578 3.818Z" stroke="#323A48"/><path clip-rule="evenodd" d="M236.845 216.103c3.59 0 6.824-.174 6.824-1.6 0-1.426-2.392-1.901-5.982-1.901-3.589 0-7.42.419-7.42 1.846 0 1.426 2.988 1.655 6.578 1.655Z" stroke="#323A48"/><path clip-rule="evenodd" d="M225.845 218.227c3.59 0 6.686-.209 6.686-3.499s-2.364-3.955-5.954-3.955c-3.589 0-7.31.346-7.31 3.636 0 3.291 2.988 3.818 6.578 3.818Z" stroke="#323A48"/><path d="M168.82 169.254c-2.307 2.75-2.716 4.204-.511 6.054 1.644 1.38 3.767.236 5.697-1.574" stroke="#323A48"/><path d="M205.502 259.291c28.84 1.768 76.851.193 81.381-4.329C293.124 248.733 294 193.023 294 170m-120 0c0 3.655.14 9.523.436 16.527L174 170Zm.436 30.93V214v-13.07Z" stroke="#323A48" stroke-linecap="round" stroke-linejoin="round"/><path d="M197 134.73c-18.647.258-30.002.802-31.136 1.917-3.508 3.451-2.499 27.553 1.36 31.94 1.967 2.237 35.181 3.044 67.844 2.864m9.082-.075c28.032-.313 53.416-1.339 55.34-2.789 4.348-3.274 6.093-25.507 1.551-30.1-1.102-1.114-9.413-1.999-21.423-2.651M224.998 133.766c-.053-3.709.434-5.352 1.461-6.529 1.811-2.074 13.966-1.489 15.444 1.373.792 1.531.986 3.04.986 4.969M226 127.646c-14.024-9.555-24.397-42.426-37.474-41.13-12.076 1.196-25.935 42.556-8.789 45.96M241.973 128.274c17.489-6.572 20.493-37.797 34.402-37.797 14.528 0 24.119 40.214 14.393 44" stroke="#323A48" stroke-linecap="round" stroke-linejoin="round"/><path d="M221.399 128.274c-14.934-2.695-30.609-15.598-35.768-13.571-3.44 1.352-5.076 4.738-4.908 10.16M248.711 128.273c13.058-2.389 25.011-12.304 31.354-10.551 6.344 1.754 6.28 9.384 4.875 11.754M221.586 171.479c-2.437 5.11 1.319 84.743 3.125 87.996M248.028 171.375c2.63 3.702 1.896 85.796-1.317 88.1" stroke="#323A48" stroke-linecap="round" stroke-linejoin="round"/><path clip-rule="evenodd" d="M194.873 268.502c3.442-4.612 12.747-40.637 10.538-44.587-2.727-4.876-59.594-17.379-64.516-11.685-2.934 3.394-9.583 13.316-18.725 38.604-3.741 10.35 68.754 22.961 72.703 17.668Z" stroke="#323A48" stroke-linejoin="round"/><path clip-rule="evenodd" d="M172.721 236.343c-.745 2.93-3.149 4.739-5.84 5.006-.8.079.313 12.015-6.044 10.421-6.357-1.594 1.995-11.157 1.351-11.608-2.041-1.426-2.948-3.952-2.192-7.018 1.137-4.469 5.164-5.651 8.433-4.694 3.383.958 5.259 4.092 4.292 7.893Z" stroke="#323A48" stroke-linecap="round" stroke-linejoin="round"/><path d="M155.909 211.37c1.859-14.726 9.227-21.542 22.104-20.448 12.877 1.094 17.542 10.098 13.997 27.012" stroke="#323A48" stroke-linecap="round" stroke-linejoin="round"/><path d="M162.104 211.69c1.067-11.305 6.188-16.434 15.362-15.387 9.175 1.047 12.23 7.879 9.168 20.496M346.026 231.862 450 225.936M10 251.881l105.5-6.382L10 251.881Zm290.815-17.368 31.869-1.869-31.869 1.869ZM244.711 132.475c20.01-.022 31.089 1.56 33.235 4.746 2.147 3.186 2.717 11.094 1.709 23.726l-5.842-11.022-8.417 13.996c-.093-16.014-1.62-24.914-4.583-26.7-2.963-1.786-7.837-2.806-14.621-3.062M222.711 131.813c-14.574-.009-23.031 2.16-25.372 6.506-2.341 4.346-3.647 13.488-3.918 27.427l6.551-10.293 8.681 10.293c.27-21.164 4.956-31.746 14.058-31.746" stroke="#323A48" stroke-linecap="round" stroke-linejoin="round"/><path d="M248.711 171.162c1.827-2.688 1.827-32.98-1.102-36.431-1.285-1.513-25.032-1.371-26.898-.255-3 1.795-3 33.176 0 37M274.211 94.869c2.492-1.031 4.75-.353 6.773 2.035M193.421 92.213c2.37 1.388 4.336 3.377 5.899 5.969M272.24 137.205c2.882.56 4.323 1.877 4.323 3.951M208.6 142.756c-.717 1.319-1.295 3.453-1.734 6.403M235.436 128.859c2.426.322 3.792 1.084 4.096 2.286" stroke="#323A48" stroke-linecap="round" stroke-linejoin="round"/><path d="M245.592 142.756c.587 8.772.587 15.506 0 20.201M244.407 246.362a198.902 198.902 0 0 1-.407 6.229M245.025 219c-.192 12.226-.345 20.059-.46 23.499l.46-23.499Z" stroke="#323A48" stroke-linecap="round" stroke-linejoin="round"/></svg>