<svg width="460" height="300" fill="none" xmlns="http://www.w3.org/2000/svg"><path clip-rule="evenodd" d="M428.05 121.316c-2.815-2.99-32.811-3.184-35.858 0-3.046 3.184-2.655 23.664-.434 25.854 2.222 2.189 12.228 2.706 13.769 3.31.925.363 2.222 2.203 3.89 5.52 1.71-3.293 2.914-5.125 3.612-5.498 1.39-.74 12.421-.14 14.924-2.306 2.503-2.167 2.912-23.89.097-26.88ZM158.05 236.316c-2.815-2.99-32.811-3.184-35.858 0-3.046 3.184-2.655 23.664-.434 25.854 2.222 2.189 12.228 2.706 13.769 3.31.925.363 2.222 2.203 3.89 5.52 1.71-3.293 2.914-5.125 3.612-5.498 1.39-.74 12.421-.14 14.924-2.306 2.503-2.167 2.912-23.89.097-26.88ZM68.625 49.377c-1.674-1.778-19.51-1.893-21.321 0s-1.58 14.07-.258 15.373c1.321 1.302 7.27 1.608 8.186 1.968.55.215 1.322 1.31 2.314 3.282 1.016-1.958 1.732-3.048 2.147-3.269.827-.44 7.386-.083 8.874-1.371 1.488-1.288 1.731-14.205.058-15.983ZM356.625 189.377c-1.674-1.778-19.51-1.893-21.321 0s-1.579 14.071-.258 15.373c1.321 1.302 7.271 1.608 8.186 1.968.551.215 1.322 1.31 2.314 3.282 1.016-1.958 1.732-3.048 2.147-3.269.827-.44 7.386-.083 8.874-1.371 1.488-1.289 1.731-14.205.058-15.983Z" stroke="#E1E4EA" stroke-linejoin="round"/><path clip-rule="evenodd" d="M401.194 137.624c2.122 2.257 4.986 4.382 8.59 6.376 3.976-1.921 6.844-4.203 8.602-6.844 2.637-3.963 2.037-8.823-1.752-9.76-2.526-.624-4.809.337-6.85 2.884-2.401-2.947-4.977-3.908-7.728-2.884-4.127 1.537-3.727 7.15-.862 10.228ZM131.194 252.624c2.122 2.257 4.986 4.382 8.59 6.376 3.976-1.921 6.844-4.203 8.602-6.844 2.637-3.963 2.037-8.823-1.752-9.76-2.526-.624-4.809.337-6.85 2.884-2.401-2.947-4.977-3.908-7.728-2.884-4.127 1.537-3.727 7.15-.862 10.228ZM52.656 59.073c1.262 1.342 2.964 2.605 5.108 3.791 2.364-1.142 4.069-2.5 5.114-4.07 1.568-2.356 1.211-5.245-1.041-5.802-1.502-.372-2.86.2-4.074 1.714-1.427-1.752-2.959-2.324-4.594-1.715-2.454.914-2.217 4.252-.513 6.082ZM340.656 199.073c1.262 1.342 2.964 2.605 5.107 3.791 2.365-1.142 4.07-2.499 5.115-4.07 1.568-2.356 1.211-5.245-1.042-5.802-1.501-.372-2.859.2-4.073 1.714-1.427-1.752-2.959-2.324-4.595-1.714-2.453.913-2.216 4.251-.512 6.081Z" stroke="#E1E4EA" stroke-linecap="round" stroke-linejoin="round"/><path d="M405 130.035c-2.831-.395-3.402 2.686-2.764 3.965M135 245.035c-2.831-.395-3.402 2.686-2.764 3.965M54.919 54.562c-1.684-.235-2.023 1.597-1.643 2.357M342.919 194.562c-1.684-.235-2.023 1.597-1.643 2.357" stroke="#E1E4EA" stroke-linecap="round" stroke-linejoin="round"/><path clip-rule="evenodd" d="M68.05 153.316c-2.815-2.99-32.811-3.184-35.857 0-3.047 3.184-2.656 23.664-.434 25.854 2.221 2.189 12.227 2.706 13.767 3.31.926.363 2.223 2.203 3.891 5.52 1.71-3.293 2.914-5.125 3.612-5.498 1.39-.74 12.42-.14 14.924-2.306 2.503-2.167 2.912-23.89.097-26.88ZM384.05 226.316c-2.815-2.99-32.811-3.184-35.858 0-3.046 3.184-2.655 23.664-.434 25.854 2.222 2.189 12.228 2.706 13.769 3.31.925.363 2.222 2.203 3.89 5.52 1.71-3.293 2.914-5.125 3.612-5.498 1.39-.74 12.421-.14 14.924-2.306 2.503-2.167 2.912-23.89.097-26.88Z" stroke="#E1E4EA" stroke-linejoin="round"/><path clip-rule="evenodd" d="M41.194 169.624c2.122 2.257 4.986 4.382 8.59 6.376 3.976-1.921 6.844-4.203 8.602-6.844 2.636-3.963 2.036-8.823-1.752-9.76-2.526-.624-4.81.337-6.85 2.884-2.4-2.947-4.977-3.908-7.728-2.884-4.127 1.537-3.727 7.15-.862 10.228ZM357.194 242.624c2.122 2.257 4.986 4.382 8.59 6.376 3.976-1.921 6.844-4.203 8.602-6.844 2.637-3.963 2.037-8.823-1.752-9.76-2.526-.624-4.809.337-6.85 2.884-2.401-2.947-4.977-3.908-7.728-2.884-4.127 1.537-3.727 7.15-.862 10.228Z" stroke="#E1E4EA" stroke-linecap="round" stroke-linejoin="round"/><path d="M45 162.035c-2.831-.395-3.402 2.686-2.764 3.965M361 235.035c-2.831-.395-3.402 2.686-2.764 3.965M169.824 87.311c.544-9.335-.148-20.845-2.408-23.244-3.729-3.96-43.475-4.217-47.511 0-4.036 4.217-3.519 31.34-.575 34.239 2.944 2.9 16.202 3.583 18.243 4.383 1.226.481 2.944 2.918 5.155 7.311 2.265-4.361 3.86-6.788 4.785-7.281.679-.361 3.09-.481 6.032-.632M132.824 230.312c.544-9.336-.148-20.846-2.408-23.245-3.729-3.96-43.475-4.217-47.511 0-4.036 4.217-3.519 31.339-.575 34.239 2.944 2.9 16.202 3.583 18.243 4.383 1.226.481 2.944 2.918 5.155 7.311 2.265-4.361 3.86-6.788 4.785-7.281.679-.361 3.09-.481 6.032-.632" stroke="#E1E4EA" stroke-linecap="round" stroke-linejoin="round"/><path clip-rule="evenodd" d="M131.925 86.374c2.83 3.053 6.648 5.928 11.454 8.626 5.302-2.6 9.125-5.686 11.468-9.26 3.516-5.361 2.716-11.936-2.335-13.204-3.368-.845-6.412.455-9.133 3.901-3.201-3.986-6.636-5.287-10.304-3.9-5.503 2.078-4.97 9.673-1.15 13.837ZM94.925 229.373c2.83 3.054 6.648 5.929 11.454 8.627 5.302-2.6 9.125-5.686 11.468-9.26 3.516-5.361 2.716-11.936-2.335-13.204-3.368-.845-6.412.455-9.133 3.901-3.201-3.986-6.636-5.287-10.304-3.901-5.503 2.079-4.97 9.674-1.15 13.837Z" stroke="#E1E4EA" stroke-linecap="round" stroke-linejoin="round"/><path d="M137 76.043c-3.775-.493-4.536 3.359-3.685 4.957M100 219.043c-3.775-.493-4.536 3.359-3.685 4.957" stroke="#E1E4EA" stroke-linecap="round" stroke-linejoin="round"/><path clip-rule="evenodd" d="M273.05 64.316c-2.815-2.99-32.811-3.184-35.858 0-3.046 3.184-2.655 23.664-.434 25.854 2.222 2.19 12.228 2.706 13.769 3.31.925.363 2.222 2.203 3.89 5.52 1.71-3.293 2.914-5.126 3.612-5.498 1.39-.74 12.421-.14 14.924-2.306 2.503-2.167 2.912-23.89.097-26.88Z" stroke="#E1E4EA" stroke-linecap="round" stroke-linejoin="round"/><path clip-rule="evenodd" d="M246.194 80.624c2.122 2.257 4.986 4.382 8.59 6.376 3.976-1.921 6.844-4.203 8.602-6.844 2.637-3.963 2.037-8.823-1.752-9.76-2.526-.624-4.809.337-6.85 2.884-2.401-2.947-4.977-3.908-7.728-2.884-4.127 1.537-3.727 7.15-.862 10.228Z" stroke="#E1E4EA" stroke-linecap="round" stroke-linejoin="round"/><path d="M250 74.035c-2.831-.395-3.402 2.686-2.764 3.965M366 37.358c-.244-2.64-.705-4.75-1.409-5.48-2.337-2.425-27.242-2.582-29.771 0-2.529 2.581-2.205 19.187-.36 20.962 1.845 1.776 10.152 2.194 11.431 2.684.768.294 1.845 1.786 3.23 4.476 1.419-2.67 2.419-4.156 2.999-4.458.509-.265 2.581-.318 4.915-.446" stroke="#E1E4EA" stroke-linecap="round" stroke-linejoin="round"/><path clip-rule="evenodd" d="M342.776 44.75c1.718 1.858 4.036 3.608 6.954 5.25 3.219-1.582 5.54-3.461 6.963-5.637 2.135-3.263 1.649-7.265-1.418-8.037-2.045-.514-3.893.277-5.545 2.375-1.944-2.427-4.029-3.218-6.256-2.375-3.341 1.266-3.018 5.889-.698 8.423Z" stroke="#E1E4EA" stroke-linecap="round" stroke-linejoin="round"/><path d="M345 39.026c-1.888-.296-2.268 2.015-1.843 2.974" stroke="#E1E4EA" stroke-linecap="round" stroke-linejoin="round"/><path clip-rule="evenodd" d="M411.416 44.067c-3.729-3.96-43.475-4.217-47.511 0-4.036 4.217-3.519 31.34-.575 34.239 2.944 2.9 16.202 3.583 18.243 4.383 1.226.48 2.944 2.918 5.155 7.311 2.265-4.36 3.86-6.788 4.785-7.28 1.842-.981 16.458-.186 19.774-3.055 3.317-2.87 3.859-31.638.129-35.598Z" stroke="#E1E4EA" stroke-linecap="round" stroke-linejoin="round"/><path clip-rule="evenodd" d="M375.925 66.374c2.83 3.053 6.648 5.928 11.454 8.626 5.302-2.6 9.125-5.686 11.468-9.26 3.516-5.361 2.716-11.936-2.335-13.204-3.368-.845-6.412.455-9.133 3.901-3.201-3.986-6.636-5.287-10.304-3.9-5.503 2.078-4.97 9.673-1.15 13.837Z" stroke="#E1E4EA" stroke-linecap="round" stroke-linejoin="round"/><path d="M381 56.043c-3.775-.493-4.536 3.359-3.685 4.957" stroke="#E1E4EA" stroke-linecap="round" stroke-linejoin="round"/><path fill-rule="evenodd" clip-rule="evenodd" d="M195.725 185.967c-9.73-10.651-13.879-35.1-12.447-73.346-.182.106-.639.513-1.37 1.219-8.816 8.522-3.308 71.281 1.028 77.898 2.891 4.41 14.356 7.519 34.395 9.324l15.241 20.415L246.9 200.7c11.6.3 27.248-3.54 27.248-3.54-42.552 3.19-68.693-.541-78.423-11.193Z" fill="#FFA126"/><path fill-rule="evenodd" clip-rule="evenodd" d="m240.418 174.526-9.929 4.95s-1.315-.486-3.666-2.012c-4.409-3.051-11.398-7.665-15.513-13.157-8.818-11.594-9.909-24.494-2.495-29.453 2.298-1.405 4.719-2.023 7.263-1.854-2.209 9.831-.679 18.88 4.588 27.145s11.851 13.058 19.752 14.381Z" fill="#FFA126"/><path clip-rule="evenodd" d="M282.906 111.42c-6.599-7.246-91.913-6.505-100.812 2.082-8.899 8.588-3.137 71.873 1.239 78.54 2.918 4.445 14.225 7.39 33.921 8.836l15.319 20.599 14.224-20.599c18.054-1.183 29.361-3.405 33.921-6.667 6.839-4.894 9.847-74.381 2.188-82.791Z" stroke="#323A48" stroke-linecap="round" stroke-linejoin="round"/><path clip-rule="evenodd" d="M253.71 163.913c-8.931 9.877-23.22 15.564-23.22 15.564s-1.489-.898-3.87-2.395c-4.465-2.993-11.61-8.081-15.778-13.468-8.93-11.374-9.526-22.747-3.274-28.134 1.488-1.197 2.977-2.095 4.763-2.395 9.228-2.394 18.159 9.877 18.159 9.877s10.918-15.375 23.22-8.889c12.302 6.486 8.037 20.861 0 29.84Z" stroke="#323A48" stroke-linecap="round" stroke-linejoin="round"/><path d="M246.419 139.477c6.095 0 8.707 3.333 7.837 10M167.999 115.077c-.682-9.809 6.033-13.12 8.336-13.932" stroke="#323A48" stroke-linecap="round" stroke-linejoin="round"/><path d="M160.281 118.306c-2.709-16.656 11.24-26.12 18.217-24.702M295.043 194.448c-.518 9.819-7.587 12.288-9.972 12.813" stroke="#323A48" stroke-linecap="round" stroke-linejoin="round"/><path d="M303.098 192.185c.658 16.862-14.34 24.556-21.092 22.298" stroke="#323A48" stroke-linecap="round" stroke-linejoin="round"/></svg>