<svg width="442" height="282" fill="none" xmlns="http://www.w3.org/2000/svg"><path fill-rule="evenodd" clip-rule="evenodd" d="M169.399 112.274s-13.766-4.389-18.869-7.226c-5.103-2.836-12.839-6.56-15.562-6.56-1.152 0-4.458 1.914-5.403 4.589-1.669 4.727-.436 8.535 1.518 8.535 1.332 0 2.424-3.984 7.74-4.201 10.232-.418 18.745 3.378 24.059 4.863 8.315 2.322 6.517 0 6.517 0Z" fill="#FFA126"/><path fill-rule="evenodd" clip-rule="evenodd" d="M136.28 70.478s-5.2 2.106-9.431 8.72c-3.526 5.511-6.237 15.429-6.523 17.214-1.201 7.488.268 15.01 2.331 17.022 5.005 4.88 16.004 5.775 22.343 5.297 6.339-.478 12.805-2.255 12.805-2.255s-26.899 2.815-32.338-5.398c-2.635-3.979-1.699-16.03 2.774-27.962 2.594-6.92 8.039-12.638 8.039-12.638ZM178 110s-3.347.433-4 1.647-1.006 5.97-1.006 5.97l16.979.468s-10.595.013-12.793-2.273c-2.198-2.285.82-5.812.82-5.812ZM167.149 115.812s-17.748 1.147-21.285 6.046c-3.537 4.898-4.443 27.504-4.443 27.504s1.275-1.509 3.176-4.485c1.901-2.977 1.282-18.202 3.778-21.503 4.339-5.74 18.774-7.562 18.774-7.562ZM190.89 117.766s18.138 2.335 19.534 4.559c1.397 2.224 2.972 25.598 2.972 25.598s1.467-2.334 2.946-5.148c1.479-2.814-1.377-20.097-4.527-22.507-4.321-3.306-20.925-3.791-20.925-3.791v1.289ZM195.95 113.476c-1.021-1.085 1.974-1.419 5.811-2.647 4.392-1.405 9.886-3.699 12.735-5.149 5.338-2.716 14.732-6.8 17.545-1.409 2.813 5.391 1.848 10.492-1.027 10.492-2.876 0-.217-5.868-7.444-6.568-7.227-.7-26.408 6.568-27.62 5.281Z" fill="#FFA126"/><path fill-rule="evenodd" clip-rule="evenodd" d="M202.331 101.088s-4.099 5.855-6.138 7.529c-2.039 1.674-6.219 3.656-6.219 3.656l1.282 4.203s14.906.601 18.733.601 13.767 2.524 13.767 2.524l10.471.678s3.82-1.05 5.246-2.194c1.426-1.144 2.727-4.202 2.727-4.202s-4.875 4.771-14.882 3.734c-4.13-.428-18.776-4.053-27.636-3.734-4.441.16-3.011-2.68 0-7.504.941-1.507 2.649-5.291 2.649-5.291ZM118.151 119.613s-3.468.107-4.287 1.034c-.364.412-2.126 6.239-2.153 13.082-.034 8.527 1.18 17.93 4.108 19.342 2.928 1.411 33.695 2.42 57.176 2.404 11.601-.008 39.746-.275 64.091-1.476 6.416-.317 10.404-1.412 10.404-1.412s-121.399 1.922-126.825-5.631c-2.215-3.083-5.327-8.09-4.846-19.079.231-5.278 2.332-8.264 2.332-8.264Z" fill="#FFA126"/><path fill-rule="evenodd" clip-rule="evenodd" d="M172.711 118.084s-3.312 0-4 .391c-.688.391-2.25 9.305-2.25 18.07 0 8.766 2.25 18.93 2.25 18.93h3.414s-2.406-4.96-2.406-17.931 2.992-19.46 2.992-19.46ZM173.772 155.477h-4.186c-1.445-.001-.96 13.719.083 40.871C170.711 223.5 173.025 244 173.025 244h3.121s-2.384-13.892-3.708-44.262c-1.325-30.37 1.334-44.261 1.334-44.261Z" fill="#FFA126"/><path fill-rule="evenodd" clip-rule="evenodd" d="m133.692 154.844-11.28-.639s-.513 80.166 6.502 85.919c7.015 5.752 88.868 4.941 107.951-.752 1.73-2.407 1.67-3.892 1.67-3.892s-67.385 7.077-87.867-9.96c-20.483-17.037-16.976-70.676-16.976-70.676Z" fill="#FFA126"/><path d="M241.284 153.797c-.036 1.513.706 79.909-4.419 85.576-5.124 5.668-100.435 6.889-107.951.752-5.01-4.091-7.402-58.078-6.537-85.585" stroke="#323A48" stroke-linecap="round" stroke-linejoin="round"/><path d="m145.007 119.23.006.5-.006-.5Zm.493-.506.5-.007-.5.007Zm-22.607 1.142-.028-.499.028.499Zm-6.239.542-.069-.495.069.495Zm-1.762.33-.129-.483.129.483Zm-.497.165-.199-.458.199.458Zm-.18.101.35.356-.35-.356Zm-.979 1.971-.479-.144.479.144Zm-.685 3.562-.497-.06.497.06Zm-.27 9.708-.5.021.5-.021Zm1.099 9.889.491-.098-.491.098Zm1.004 3.794.471-.169-.471.169Zm1.215 2.329-.375.33.375-.33Zm.52.262-.168.471.168-.471Zm1.344.351-.099.49.099-.49Zm4.647.636-.049.498.049-.498Zm15.543.92.018-.5-.018.5Zm45.412.525-.002-.5.002.5Zm.006 1-.003-.5.003.5Zm-45.454-.526-.018.5.018-.5Zm-15.605-.924-.05.498.05-.498Zm-4.748-.651.1-.49-.1.49Zm-1.482-.389.169-.471-.169.471Zm-.934-.543.376-.331-.376.331Zm-1.405-2.652-.471.169.471-.169Zm-1.043-3.937-.491.097.491-.097Zm-1.118-10.042-.5.022.5-.022Zm.276-9.87-.497-.06.497.06Zm.72-3.731.479.145-.479-.145Zm1.235-2.395-.35-.357.35.357Zm.483-.305.2.459-.2-.459Zm.637-.214-.129-.483.129.483Zm1.883-.354-.069-.495.069.495Zm6.32-.55-.029-.499.029.499Zm22.157-.637.007.499-.007-.499Zm82.652 1.106-.027.499.027-.499Zm-.526.472.499.027-.499-.027Zm15.36.683-.059.496.059-.496Zm4.547.714.109-.488-.109.488Zm1.444.405.174-.469-.174.469Zm.926.524.356-.351-.356.351Zm1.531 2.661.471-.169-.471.169Zm.894 3.799.494-.073-.494.073Zm.277 9.468-.499-.032.499.032Zm-1.41 9.215.483.13-.483-.13Zm-1.247 3.484-.449-.22.449.22Zm-1.65 2.225-.301-.4.301.4Zm-.791.347-.14-.48.14.48Zm-1.202.269-.088-.492.088.492Zm-3.776.485.05.498-.05-.498Zm-12.388.819.023.5-.023-.5Zm-37.478.969.006.499-.006-.499Zm-.506-.495.5-.005-.5.005Zm.495-.505-.006-.5.006.5Zm37.442-.968.023.5-.023-.5Zm12.337-.815.049.498-.049-.498Zm3.697-.475.089.493-.089-.493Zm1.098-.244-.14-.48.14.48Zm.471-.186-.301-.399.301.399Zm1.352-1.866.45.22-.45-.22Zm1.181-3.303-.483-.13.483.13ZM251.1 138l-.499-.031.499.031Zm-.269-9.26-.494.072.494-.072Zm-.845-3.606.47-.169-.47.169Zm-1.301-2.296-.355.352.355-.352Zm-.562-.289.174-.469-.174.469Zm-1.314-.367.109-.488-.109.488Zm-4.448-.697.059-.497-.059.497Zm-14.77-1.15.027-.499-.027.499Zm-82.578-.605a1 1 0 0 0 .987-1.013l-1 .013.013 1Zm-22.091.635c5.289-.306 12.771-.506 22.091-.635l-.013-1c-9.324.129-16.824.329-22.135.637l.057.998Zm-6.198.539c1.475-.207 3.551-.385 6.198-.539l-.057-.998c-2.656.154-4.765.334-6.28.546l.139.991Zm-1.702.317c.398-.107.962-.214 1.702-.317l-.139-.991c-.758.106-1.367.22-1.822.342l.259.966Zm-.427.14c.089-.038.227-.087.427-.14l-.259-.966a4.01 4.01 0 0 0-.567.19l.399.916Zm-.03-.001-.016.016-.011.009-.013.01-.004.003a.624.624 0 0 1 .074-.037l-.399-.916c-.15.065-.261.132-.332.202l.701.713Zm-.85 1.759c.287-.955.596-1.509.85-1.759l-.701-.713c-.438.432-.806 1.186-1.107 2.184l.958.288Zm-.668 3.477c.165-1.374.39-2.554.668-3.477l-.958-.288c-.3.997-.534 2.239-.703 3.646l.993.119Zm-.266 9.628c-.147-3.466-.064-6.883.266-9.628l-.993-.119c-.338 2.813-.421 6.287-.273 9.789l1-.042Zm1.09 9.812c-.57-2.868-.944-6.347-1.09-9.812l-1 .042c.148 3.503.527 7.035 1.109 9.965l.981-.195Zm.984 3.723c-.368-1.024-.699-2.288-.984-3.723l-.981.195c.291 1.465.633 2.78 1.023 3.866l.942-.338Zm1.119 2.168c-.359-.408-.745-1.126-1.119-2.168l-.942.338c.39 1.085.828 1.942 1.311 2.49l.75-.66Zm.314.122a2.149 2.149 0 0 1-.307-.132.325.325 0 0 1-.044-.027c-.008-.005.011.006.037.037l-.75.66c.074.085.178.153.275.206.111.061.258.128.452.197l.337-.941Zm1.275.331a9.64 9.64 0 0 1-1.275-.331l-.337.941c.359.129.833.252 1.413.37l.199-.98Zm4.597.629c-1.938-.193-3.486-.403-4.597-.629l-.199.98c1.16.236 2.747.45 4.697.644l.099-.995Zm15.511.917c-6.309-.229-11.641-.533-15.511-.917l-.099.995c3.901.387 9.258.692 15.574.922l.036-1Zm45.392.525c-16.324.09-32.779-.067-45.392-.525l-.036 1c12.632.458 29.102.615 45.433.525l-.005-1Zm1.005.995a1 1 0 0 0-1.005-.995l.005 1 1-.005Zm-.994 1.005a1 1 0 0 0 .994-1.005l-1 .005.006 1Zm-45.475-.526c12.651.459 29.136.616 45.475.526l-.006-1c-16.331.09-32.801-.067-45.433-.525l-.036.999Zm-15.637-.926c3.932.39 9.313.696 15.637.926l.036-.999c-6.316-.23-11.673-.535-15.574-.922l-.099.995Zm-4.797-.659c1.209.246 2.834.464 4.797.659l.099-.995c-1.95-.194-3.537-.408-4.697-.644l-.199.98Zm-1.551-.409c.422.152.948.286 1.551.409l.199-.98a10.562 10.562 0 0 1-1.413-.37l-.337.941Zm-1.141-.683c.303.345.762.548 1.141.683l.337-.941c-.359-.128-.604-.263-.727-.403l-.751.661Zm-1.501-2.813c.406 1.129.895 2.124 1.501 2.813l.751-.661c-.483-.548-.921-1.405-1.311-2.49l-.941.338Zm-1.063-4.009c.297 1.496.651 2.862 1.063 4.009l.941-.338c-.39-1.086-.732-2.401-1.023-3.866l-.981.195Zm-1.127-10.117c.15 3.54.532 7.125 1.127 10.117l.981-.195c-.582-2.93-.961-6.462-1.109-9.965l-.999.043Zm.279-9.952c-.346 2.882-.428 6.412-.279 9.952l.999-.043c-.148-3.502-.065-6.976.273-9.789l-.993-.12Zm.739-3.815c-.323 1.073-.566 2.376-.739 3.815l.993.12c.169-1.407.403-2.649.703-3.646l-.957-.289Zm1.363-2.608c-.623.613-1.05 1.567-1.363 2.608l.957.289c.301-.998.669-1.752 1.107-2.184l-.701-.713Zm.633-.406a2.072 2.072 0 0 0-.633.406l.701.713c.071-.07.182-.137.332-.202l-.4-.917Zm.708-.239a5.099 5.099 0 0 0-.708.239l.4.917a4.01 4.01 0 0 1 .567-.19l-.259-.966Zm1.943-.366a16.7 16.7 0 0 0-1.943.366l.259.966c.455-.122 1.064-.236 1.822-.342l-.138-.99Zm6.36-.554c-2.665.154-4.805.336-6.36.554l.138.99c1.515-.212 3.624-.392 6.28-.546l-.058-.998Zm22.179-.638c-9.326.128-16.845.329-22.179.638l.058.998c5.311-.308 12.811-.508 22.135-.637l-.014-.999Zm1.014.986a1 1 0 0 0-1.014-.986l.014.999 1-.013Zm81.672.121a1 1 0 0 0-1.053.944l.999.054.054-.998Zm14.866 1.157c-3.748-.445-8.854-.831-14.866-1.157l-.054.998c6.005.326 11.085.71 14.802 1.152l.118-.993Zm4.597.723c-1.17-.26-2.725-.5-4.597-.723l-.118.993c1.858.221 3.376.457 4.498.706l.217-.976Zm1.509.424a11.846 11.846 0 0 0-1.509-.424l-.217.976c.56.125 1.022.254 1.379.386l.347-.938Zm1.108.642c-.299-.303-.724-.499-1.108-.642l-.347.938c.355.132.606.267.744.407l.711-.703Zm1.646 2.843c-.404-1.125-.936-2.125-1.646-2.843l-.711.703c.567.574 1.037 1.424 1.415 2.478l.942-.338Zm.917 3.895c-.209-1.433-.51-2.76-.917-3.895l-.942.338c.379 1.053.666 2.312.87 3.702l.989-.145Zm.282 9.572c.209-3.32.138-6.704-.282-9.572l-.989.145c.407 2.782.479 6.094.273 9.364l.998.063Zm-1.426 9.314c.725-2.695 1.217-5.993 1.426-9.314l-.998-.063c-.206 3.271-.689 6.501-1.393 9.118l.965.259Zm-1.281 3.573c.492-1.006.919-2.226 1.281-3.573l-.965-.259c-.352 1.308-.759 2.463-1.214 3.393l.898.439Zm-1.798 2.405c.727-.547 1.315-1.416 1.798-2.405l-.898-.439c-.455.93-.958 1.636-1.502 2.045l.602.799Zm-.952.428c.315-.092.677-.221.952-.428l-.602-.799c-.12.091-.333.18-.63.267l.28.96Zm-1.254.281c.485-.087.908-.18 1.254-.281l-.28-.96c-.299.087-.684.173-1.15.257l.176.984Zm-3.814.491c1.554-.154 2.843-.317 3.814-.491l-.176-.984c-.933.167-2.192.327-3.737.48l.099.995Zm-12.415.821c5.052-.239 9.301-.514 12.415-.821l-.099-.995c-3.088.305-7.317.578-12.363.817l.047.999Zm-37.495.968c14.022-.156 27.389-.491 37.495-.968l-.047-.999c-10.09.477-23.444.811-37.46.968l.012.999Zm-1.012-.988a1 1 0 0 0 1.012.988l-.012-.999-1 .011Zm.989-1.011a1 1 0 0 0-.989 1.011l1-.011-.011-1Zm37.424-.967c-10.074.476-23.415.81-37.424.967l.011 1c14.016-.157 27.37-.491 37.46-.968l-.047-.999Zm12.312-.814c-3.063.303-7.273.576-12.312.814l.047.999c5.046-.239 9.275-.512 12.363-.817l-.098-.996Zm3.658-.469c-.895.161-2.124.318-3.658.469l.098.996c1.545-.153 2.804-.313 3.737-.48l-.177-.985Zm1.046-.232c-.251.074-.597.152-1.046.232l.177.985c.466-.084.851-.17 1.15-.257l-.281-.96Zm.31-.105c.018-.014.027-.018.016-.012a2.525 2.525 0 0 1-.326.117l.281.96c.297-.087.51-.176.63-.267l-.601-.798Zm1.204-1.686c-.426.872-.844 1.415-1.204 1.686l.601.798c.544-.409 1.047-1.115 1.502-2.045l-.899-.439Zm1.147-3.214c-.342 1.269-.729 2.359-1.147 3.214l.899.439c.455-.93.862-2.085 1.214-3.393l-.966-.26Zm1.361-8.92c-.203 3.221-.678 6.382-1.361 8.92l.966.26c.704-2.617 1.187-5.847 1.393-9.118l-.998-.062Zm-.264-9.157c.394 2.695.467 5.935.264 9.157l.998.062c.206-3.27.134-6.582-.273-9.364l-.989.145Zm-.822-3.509c.35.972.624 2.161.822 3.509l.989-.145c-.204-1.39-.491-2.649-.87-3.702l-.941.338Zm-1.185-2.113c.425.43.832 1.129 1.185 2.113l.941-.338c-.378-1.054-.848-1.904-1.415-2.478l-.711.703Zm-.381-.173c.154.058.258.106.323.142.072.039.079.052.058.031l.711-.703c-.138-.14-.389-.275-.744-.407l-.348.937Zm-1.249-.346c.538.119.952.236 1.249.346l.348-.937a11.02 11.02 0 0 0-1.379-.386l-.218.977Zm-4.398-.69c1.845.22 3.324.45 4.398.69l.218-.977c-1.122-.249-2.64-.485-4.498-.706l-.118.993Zm-14.738-1.146c5.997.325 11.053.708 14.738 1.146l.118-.993c-3.717-.442-8.797-.826-14.802-1.152l-.054.999Zm-.945-1.053a1.001 1.001 0 0 0 .945 1.053l.054-.999-.999-.054Z" fill="#323A48"/><path d="M172.998 117.766c-.053-3.709.434-5.352 1.461-6.529 1.811-2.074 13.966-1.489 15.444 1.373.792 1.531.986 3.04.986 4.969M174 111.646c-14.024-9.555-24.397-42.426-37.474-41.13-12.076 1.196-25.935 42.556-8.789 45.96M189.974 112.274c17.489-6.572 20.493-37.797 34.402-37.797 14.528 0 24.119 40.214 14.393 44" stroke="#323A48" stroke-linecap="round" stroke-linejoin="round"/><path d="M169.399 112.274c-14.934-2.695-30.609-15.598-35.768-13.57-5.159 2.026-4.908 10.159-4.908 10.159M196.711 112.273c13.058-2.389 25.011-12.304 31.354-10.551 6.344 1.754 6.28 9.384 4.875 11.754M169.586 155.479c-2.437 5.11 1.319 84.743 3.125 87.996M196.028 155.375c2.63 3.702 1.896 85.796-1.317 88.1M192.711 116.475s30.016-.032 33.235 4.746c3.22 4.779 1.709 23.726 1.709 23.726l-5.842-11.022-8.417 13.996s-.139-24.021-4.583-26.7c-4.445-2.678-14.621-3.062-14.621-3.062M170.711 115.813s-21.861-.013-25.372 6.506c-3.512 6.519-3.918 27.427-3.918 27.427l6.551-10.293 8.681 10.293S157.058 118 170.711 118" stroke="#323A48" stroke-linecap="round" stroke-linejoin="round"/><path d="M196.711 155.162c1.827-2.688 1.827-32.98-1.102-36.431-1.285-1.513-25.032-1.371-26.898-.255-3 1.795-3 33.176 0 37M222.211 78.869s3.738-1.547 6.773 2.035M141.421 76.213s3.555 2.081 5.899 5.969M220.24 121.205s4.323.84 4.323 3.951M156.6 126.756s-1.076 1.978-1.734 6.403M183.436 112.859s3.64.483 4.096 2.286" stroke="#323A48" stroke-linecap="round" stroke-linejoin="round"/><path d="M193.591 126.756s.881 13.158 0 20.201" stroke="#323A48" stroke-linecap="round" stroke-linejoin="round"/><path d="m193.525 203.008-.5-.008.5.008Zm-.493-.508.008-.5-.008.5Zm.033 24.016.499.017-.499-.017Zm-.517.483.017-.5-.017.5Zm-.483-.517.5.017-.5-.017Zm.46-23.49.5.008-.5-.008Zm.382 27.395.499.026-.499-.026Zm-.474-.525-.026.5.026-.5Zm.065 6.771.499.041-.499-.041Zm-.539.457.041-.499-.041.499Zm-.457-.54-.499-.041.499.041Zm.406-6.214-.5-.025.5.025Zm2.116-27.32a1 1 0 0 0-.984-1.016l-.015 1 .999.016Zm-.46 23.517c.116-3.451.269-11.294.46-23.517l-.999-.016c-.192 12.226-.345 20.059-.46 23.499l.999.034Zm-1.033.966a1 1 0 0 0 1.033-.966l-.999-.034-.034 1Zm-.966-1.033a1 1 0 0 0 .966 1.033l.034-1-1-.033Zm.46-23.482c-.192 12.229-.345 20.053-.46 23.482l1 .033c.115-3.44.268-11.273.46-23.499l-1-.016Zm1.015-.984a.999.999 0 0 0-1.015.984l1 .016.015-1Zm.366 28.413a1 1 0 0 0-.948-1.05l-.051.999.999.051Zm-.409 6.261c.153-1.85.29-3.938.409-6.261l-.999-.051a198.902 198.902 0 0 1-.407 6.229l.997.083Zm-1.08.914a1 1 0 0 0 1.08-.914l-.997-.083-.083.997Zm-.914-1.079c-.045.55.364 1.033.914 1.079l.083-.997-.997-.082Zm.405-6.198a196.119 196.119 0 0 1-.405 6.198l.997.082c.153-1.837.288-3.914.407-6.229l-.999-.051Zm1.05-.948a1.001 1.001 0 0 0-1.05.948l.999.051.051-.999Z" fill="#323A48"/><mask id="mask0_828_106290" style="mask-type:alpha" x="271" y="45" width="56" height="152"><ellipse cx="298.83" cy="120.684" rx="27.727" ry="75.684" fill="#fff"/></mask><g mask="url(#mask0_828_106290)"><path fill-rule="evenodd" clip-rule="evenodd" d="M321.037 107.516s-10.747-3.414-14.73-5.621c-3.984-2.207-10.023-5.104-12.149-5.104-.9 0-3.48 1.49-4.218 3.57-1.303 3.678-.34 6.64 1.185 6.64 1.04 0 1.893-3.099 6.042-3.268 7.988-.325 14.635 2.628 18.783 3.783 6.491 1.807 5.087 0 5.087 0Z" fill="#FFA126"/><path fill-rule="evenodd" clip-rule="evenodd" d="M295.182 75s-4.059 1.638-7.363 6.784c-2.752 4.287-4.868 12.003-5.092 13.392-.937 5.826.21 11.679 1.82 13.243 3.907 3.797 12.494 4.493 17.442 4.121 4.949-.371 9.997-1.754 9.997-1.754s-20.999 2.191-25.246-4.199c-1.147-1.727-1.427-5.406-.845-9.934.072-.553-3.592 2.69.253-1.697 3.845-4.386.197-1.114.314-1.684a56.127 56.127 0 0 1 2.444-8.44c2.026-5.384 6.276-9.832 6.276-9.832ZM327.751 105.748s-2.612.337-3.122 1.281c-.51.945-.785 4.645-.785 4.645l13.254.365s-8.271.009-9.987-1.769c-1.715-1.778.64-4.522.64-4.522ZM319.28 110.27s-13.855.892-16.616 4.703c-2.761 3.811-3.469 21.398-3.469 21.398s.996-1.174 2.48-3.49c1.484-2.315 1.001-14.161 2.949-16.729 3.387-4.465 14.656-5.882 14.656-5.882Z" fill="#FFA126"/><path fill-rule="evenodd" clip-rule="evenodd" d="M281.029 113.229s-2.707.083-3.347.804c-.284.32-1.659 4.854-1.68 10.177-.027 6.635.921 13.95 3.206 15.049 2.286 1.098 26.305 1.882 44.636 1.87 9.057-.006 31.028-.214 50.034-1.149 5.008-.246 8.122-1.098 8.122-1.098s-94.772 1.496-99.009-4.381c-.651-.904-1.402-2.02-2.065-3.518-.186-.421 4.593-5.881-.534-1.358s-.259-.787-.375-1.213c-.247-.901-.661-2.672-.809-3.794-.112-.852 3.783-5.357-.017-2.001-3.8 3.355-.041-.846.017-2.181.059-1.334 1.821-7.207 1.821-7.207Z" fill="#FFA126"/><path fill-rule="evenodd" clip-rule="evenodd" d="M323.622 112.037s-2.585 0-3.122.304c-.538.304-1.757 7.239-1.757 14.059 0 6.82 1.757 14.727 1.757 14.727h2.665s-1.879-3.858-1.879-13.95c0-10.091 2.336-15.14 2.336-15.14ZM324.451 141.129h-3.268c-1.128 0-.749 10.674.064 31.798.814 21.124 2.62 37.073 2.62 37.073h2.437s-1.861-10.807-2.895-34.435 1.042-34.436 1.042-34.436Z" fill="#FFA126"/><path fill-rule="evenodd" clip-rule="evenodd" d="m291.767 140.498-8.74-.498s-.397 62.452 5.038 66.933c5.435 4.482 68.854 3.85 83.64-.585 1.34-1.875 1.293-3.032 1.293-3.032s-52.209 5.513-68.079-7.759c-7.37-6.164-11.733-16.941-13.09-32.33-.047-.526 6.831-7.487-.129-1.596-6.96 5.892-.075-1.083-.108-1.634a132.508 132.508 0 0 1-.221-7.32c-.002-.578 6.911-7.07.003-1.749-6.908 5.321.013-1.189.024-1.792.051-2.77.369-8.638.369-8.638Z" fill="#FFA126"/><path d="M375.985 139c-.028 1.188.552 62.754-3.45 67.204-4.001 4.451-78.426 5.41-84.295.591-3.912-3.213-5.78-45.61-5.104-67.211" stroke="#323A48" stroke-linecap="round" stroke-linejoin="round"/><path d="m301.925 112.875-.007-.5.007.5Zm.493-.507-.5.007.5-.007Zm-17.705.999.028.499-.028-.499Zm-4.849.419-.069-.495.069.495Zm-1.359.253.129.483-.129-.483Zm-.372.123-.198-.459.198.459Zm-.108.056-.387.318h.001l.386-.318Zm.001-.001.35.357a.5.5 0 1 0-.7-.714l.35.357Zm-.733 1.479-.478-.145.478.145Zm-.529 2.739-.497-.06.497.06Zm-.21 7.502-.499.021.499-.021Zm.854 7.642.491-.098-.491.098Zm.777 2.922.47-.17-.47.17Zm.924 1.768-.374.331a.5.5 0 1 0 .749-.663l-.375.332Zm0-.001.347.36.01-.01-.357-.35Zm.081.053.24-.438-.24.438Zm.279.12.168-.471-.168.471Zm1.031.267.099-.49-.099.49Zm3.607.491-.049.498.049-.498Zm12.095.712-.018.5.018-.5Zm35.352.407-.003-.5.003.5Zm.005 1-.002-.5.002.5Zm-35.393-.407-.018.499.018-.499Zm-12.157-.716-.049.497.049-.497Zm-3.707-.507-.099.49.099-.49Zm-1.169-.305.168-.471-.168.471Zm-.773-.452.375-.331-.375.331Zm-1.116-2.09-.47.169.47-.169Zm-.816-3.067-.491.098.491-.098Zm-.873-7.795.5-.021-.5.021Zm.216-7.664.496.06-.496-.06Zm.565-2.909-.479-.145.479.145Zm.991-1.904.349.358-.349-.358Zm.409-.258.199.459-.199-.459Zm.511-.171.129.483-.129-.483Zm1.479-.277.069.495-.069-.495Zm4.929-.427-.029-.499.029.499Zm17.256-.494-.007-.5.007.5Zm64.358.857.027-.499-.027.499Zm11.556.895.059-.496-.059.496Zm3.551.556.108-.489-.108.489Zm1.139.317-.173.469.173-.469Zm.761.432.354-.352-.354.352Zm1.218 2.102-.471.17.471-.17Zm.701 2.965-.495.073.495-.073Zm.217 7.358.499.031-.499-.031Zm-1.101 7.161-.483-.131.483.131Zm-.979 2.718-.449-.22.449.22ZM382.014 139l.3.4-.3-.4Zm-.652.287-.139-.481.139.481Zm-.947.21-.088-.492.088.492Zm-2.948.378.049.497-.049-.497Zm-9.65.634-.024-.499.024.499Zm-29.184.75.006.5-.006-.5Zm-.011-.999-.005-.5.005.5Zm29.148-.75-.024-.499.024.499Zm9.6-.631-.049-.497.049.497Zm2.87-.366-.088-.492.088.492Zm.843-.187.14.48-.14-.48Zm.244-.083-.194-.461.194.461Zm.066-.031.237.44-.237-.44Zm.021-.012.297.402.003-.002-.3-.4Zm0 0-.423.265a.497.497 0 0 0 .72.137l-.297-.402Zm-3.706-23.58.058-.496-.058.496Zm3.452.539.108-.488-.108.488Zm1.009.279.173-.469-.173.469Zm1.384 1.936.47-.17-.47.17Zm-.208 16.882.483.131-.483-.131Zm-81.414-20.881a1 1 0 0 0 .987-1.014l-1 .014.013 1Zm-17.19.491c4.113-.237 9.934-.392 17.19-.491l-.013-1c-7.259.1-13.099.255-17.234.493l.057.998Zm-4.808.416c1.139-.159 2.749-.297 4.808-.416l-.057-.998c-2.068.119-3.709.259-4.889.423l.138.991Zm-1.299.24a11.42 11.42 0 0 1 1.299-.24l-.138-.991c-.59.082-1.065.17-1.419.265l.258.966Zm-.302.098c.056-.024.153-.058.302-.098l-.258-.966a3.099 3.099 0 0 0-.441.147l.397.917Zm-.693-.084a.503.503 0 0 0 .445.179c.063-.008.11-.026.124-.031.035-.014.06-.029.065-.032a.413.413 0 0 0 .03-.018l.007-.005.001-.001h.001l-.004.003-.008.005.032-.016-.397-.917a1.089 1.089 0 0 0-.188.099l.029-.017a.535.535 0 0 1 .065-.032c.015-.005.061-.023.125-.031a.503.503 0 0 1 .445.179l-.772.635Zm.037-.676-.004.004-.019.02a.475.475 0 0 0-.094.151.5.5 0 0 0 .079.501l.773-.635a.498.498 0 0 1 .079.501c-.022.054-.048.091-.055.102-.018.026-.036.045-.038.049l-.019.019-.002.002-.7-.714Zm.096 1.981c.221-.73.448-1.114.604-1.267l-.7-.714c-.341.334-.628.918-.861 1.691l.957.29Zm-.512 2.654c.128-1.057.3-1.956.512-2.654l-.957-.29c-.234.773-.416 1.735-.548 2.824l.993.12Zm-.206 7.42c-.114-2.676-.049-5.309.206-7.42l-.993-.12c-.263 2.179-.327 4.87-.212 7.583l.999-.043Zm.845 7.566c-.441-2.208-.731-4.89-.845-7.566l-.999.043c.115 2.713.41 5.449.863 7.719l.981-.196Zm.756 2.85c-.281-.779-.536-1.746-.756-2.85l-.981.196c.227 1.134.493 2.153.797 2.994l.94-.34Zm.829 1.606c-.252-.284-.541-.808-.829-1.606l-.94.34c.303.841.644 1.504 1.02 1.929l.749-.663Zm-.723-.029a.5.5 0 0 0-.116.546c.018.046.039.078.044.086l.029.04a.296.296 0 0 1 .017.02l.749-.663.002.002.013.017a.352.352 0 0 1 .029.04c.005.008.026.04.045.086a.501.501 0 0 1-.117.546l-.695-.72Zm.669-.025-.012-.007a.157.157 0 0 1 .013.01l.007.005-.003-.002-.015-.012a.495.495 0 0 0-.256-.106.497.497 0 0 0-.412.147l.714.7a.503.503 0 0 1-.553.11c-.042-.018-.072-.038-.079-.042a.667.667 0 0 1-.037-.027l-.01-.009-.005-.003c0-.001-.004-.004 0-.001l.013.011a1.01 1.01 0 0 0 .154.102l.481-.876Zm.207.087a1.69 1.69 0 0 1-.207-.087l-.481.876c.095.052.212.103.352.153l.336-.942Zm.962.248a7.385 7.385 0 0 1-.962-.248l-.336.942c.28.099.649.195 1.1.286l.198-.98Zm3.558.484c-1.507-.149-2.703-.311-3.558-.484l-.198.98c.904.183 2.139.349 3.657.499l.099-.995Zm12.063.71c-4.911-.178-9.057-.413-12.063-.71l-.099.995c3.037.3 7.208.536 12.126.714l.036-.999Zm35.331.406c-12.708.07-25.515-.052-35.331-.406l-.036.999c9.835.355 22.657.477 35.373.407l-.006-1Zm1.006.995a1 1 0 0 0-1.006-.995l.006 1 1-.005Zm-.995 1.005a1 1 0 0 0 .995-1.005l-1 .005.005 1Zm-35.414-.408c9.854.356 22.691.478 35.414.408l-.005-1c-12.716.07-25.538-.052-35.373-.407l-.036.999Zm-12.188-.718c3.068.303 7.263.54 12.188.718l.036-.999c-4.918-.178-9.089-.414-12.126-.714l-.098.995Zm-3.757-.514c.952.193 2.226.363 3.757.514l.098-.995c-1.518-.15-2.753-.316-3.657-.499l-.198.98Zm-1.238-.324c.343.122.764.229 1.238.324l.198-.98a8.392 8.392 0 0 1-1.1-.286l-.336.942Zm-.979-.592c.276.313.68.485.979.592l.336-.942c-.279-.1-.47-.204-.566-.312l-.749.662Zm-1.212-2.252c.32.885.712 1.687 1.212 2.252l.749-.662c-.376-.425-.717-1.088-1.02-1.929l-.941.339Zm-.837-3.138c.233 1.166.511 2.236.837 3.138l.941-.339c-.304-.841-.57-1.86-.797-2.994l-.981.195Zm-.881-7.872c.117 2.751.415 5.54.881 7.872l.981-.195c-.453-2.27-.748-5.006-.863-7.719l-.999.042Zm.218-7.745c-.271 2.248-.335 4.995-.218 7.745l.999-.042c-.115-2.713-.051-5.404.212-7.583l-.993-.12Zm.583-2.994c-.256.848-.447 1.872-.583 2.994l.993.12c.132-1.089.314-2.051.548-2.824l-.958-.29Zm1.12-2.116c-.526.515-.872 1.3-1.12 2.116l.958.29c.234-.773.52-1.357.861-1.691l-.699-.715Zm.56-.36a1.839 1.839 0 0 0-.56.36l.699.715a.866.866 0 0 1 .259-.157l-.398-.918Zm.581-.195a4.21 4.21 0 0 0-.581.195l.398.918c.116-.051.264-.1.441-.147l-.258-.966Zm1.539-.289c-.608.084-1.128.179-1.539.289l.258.966c.354-.095.829-.183 1.419-.265l-.138-.99Zm4.969-.431c-2.076.119-3.749.261-4.969.431l.138.99c1.18-.164 2.821-.304 4.889-.423l-.058-.998Zm17.278-.495c-7.262.1-13.119.255-17.278.495l.058.998c4.135-.238 9.975-.393 17.234-.493l-.014-1Zm1.014.986a1.001 1.001 0 0 0-1.014-.986l.014 1 1-.014Zm63.378-.128a1 1 0 0 0-1.053.944l.999.054.054-.998Zm11.588.898c-2.925-.346-6.906-.645-11.588-.898l-.054.998c4.675.253 8.631.551 11.524.893l.118-.993Zm3.6.563c-.921-.204-2.14-.391-3.6-.563l-.118.993c1.447.171 2.629.353 3.502.547l.216-.977Zm1.204.337a9.508 9.508 0 0 0-1.204-.337l-.216.977c.437.097.796.196 1.074.298l.346-.938Zm.942.549c-.268-.271-.638-.436-.942-.549l-.346.938c.276.102.472.208.579.316l.709-.705Zm1.334 2.284c-.32-.887-.749-1.696-1.334-2.284l-.709.705c.442.444.808 1.103 1.102 1.919l.941-.34Zm.726 3.062c-.165-1.12-.402-2.164-.726-3.062l-.941.34c.295.816.519 1.791.677 2.868l.99-.146Zm.221 7.462c.163-2.583.108-5.221-.221-7.462l-.99.146c.317 2.154.373 4.72.213 7.253l.998.063Zm-1.118 7.26c.57-2.106.955-4.676 1.118-7.26l-.998-.063c-.16 2.534-.537 5.035-1.085 7.062l.965.261Zm-1.013 2.809c.392-.797.729-1.757 1.013-2.809l-.965-.261c-.274 1.013-.591 1.908-.945 2.629l.897.441Zm-1.466 1.943c.607-.455 1.083-1.164 1.466-1.943l-.897-.441c-.354.72-.746 1.267-1.169 1.584l.6.8Zm-.812.367c.249-.073.564-.181.812-.367l-.6-.8c-.094.07-.259.139-.491.206l.279.961Zm-.999.223c.381-.069.719-.142.999-.223l-.279-.961a8.81 8.81 0 0 1-.896.199l.176.985Zm-2.987.382c1.213-.119 2.223-.246 2.987-.382l-.176-.985c-.726.13-1.706.254-2.908.372l.097.995Zm-9.676.637c3.934-.185 7.247-.398 9.676-.637l-.097-.995c-2.405.236-5.698.448-9.626.633l.047.999Zm-29.201.75c10.919-.121 21.329-.38 29.201-.75l-.047-.999c-7.856.369-18.253.628-29.165.749l.011 1Zm-1.011-.988a.999.999 0 0 0 1.011.988l-.011-1-1 .012Zm.989-1.011a1 1 0 0 0-.989 1.011l1-.012-.011-.999Zm29.129-.749c-7.84.369-18.224.628-29.129.749l.011.999c10.912-.121 21.309-.38 29.165-.749l-.047-.999Zm9.575-.629c-2.38.233-5.653.445-9.575.629l.047.999c3.928-.185 7.221-.397 9.626-.633l-.098-.995Zm2.831-.361c-.689.123-1.639.244-2.831.361l.098.995c1.202-.118 2.182-.242 2.909-.372l-.176-.984Zm.792-.175a8.04 8.04 0 0 1-.792.175l.175.984a8.81 8.81 0 0 0 .896-.199l-.279-.96Zm.189-.064a1.922 1.922 0 0 1-.189.064l.279.96a2.53 2.53 0 0 0 .297-.102l-.387-.922Zm.023-.01-.023.01.387.922c.041-.017.078-.034.11-.052l-.474-.88Zm.674.15c-.221-.183-.558-.202-.608-.184l-.051.025-.025.015-.012.008-.005.003-.001.001.002-.002.005-.003.011-.007a.03.03 0 0 1 .01-.006l.474.88.043-.024.018-.012.007-.005.003-.001h-.002l-.005.004-.011.007a.522.522 0 0 1-.077.04c-.05.018-.387-.001-.608-.184l.832-.555Zm-.119.68-.593-.805.593.805Zm.127-.668-15.672-24.995-.847.531 15.672 24.995.847-.531Zm-16.595-24.757a1.001 1.001 0 0 0 .945 1.053l.054-.999-.999-.054Zm.128.361.472.527.744-.668-.472-.527-.744.668Zm.817.692c4.668.252 8.599.548 11.461.887l.117-.993c-2.893-.342-6.849-.64-11.524-.893l-.054.999Zm-.012-.001 11.493.89.077-.997-11.492-.89-.078.997Zm11.473.888c1.434.17 2.577.347 3.403.53l.216-.976c-.873-.194-2.055-.376-3.502-.547l-.117.993Zm-.019-.003 3.453.539.154-.988-3.452-.539-.155.988Zm3.422.533c.414.092.725.18.944.261l.346-.939a8.667 8.667 0 0 0-1.074-.298l-.216.976Zm-.026-.006 1.009.279.267-.963-1.009-.28-.267.964Zm.97.267a1.79 1.79 0 0 1 .252.113c.005.003-.012-.007-.036-.031l.709-.705a.953.953 0 0 0-.227-.16 2.805 2.805 0 0 0-.352-.156l-.346.939Zm-.051-.022.398.198.447-.894-.398-.199-.447.895Zm.267.104c.299.3.602.808.871 1.553l.94-.339c-.294-.816-.66-1.475-1.102-1.919l-.709.705Zm-.08-.106.986 1.737.87-.494-.987-1.737-.869.494Zm.951 1.659c.265.735.476 1.64.628 2.674l.989-.145c-.158-1.077-.382-2.052-.677-2.868l-.94.339Zm-.017-.055.653 2.771.973-.229-.652-2.771-.974.229Zm.645 2.729c.304 2.068.361 4.561.204 7.045l.998.063c.16-2.533.104-5.099-.213-7.253l-.989.145Zm-.005-.058.208 7.149 1-.029-.209-7.149-.999.029Zm.209 7.103c-.157 2.484-.526 4.916-1.052 6.864l.965.261c.548-2.027.925-4.528 1.085-7.062l-.998-.063Zm.005-.044-1.069 6.963.989.151 1.068-6.963-.988-.151Zm-1.057 6.908c-.264.974-.561 1.804-.878 2.449l.898.441c.354-.721.671-1.616.945-2.629l-.965-.261Zm.012-.038-.912 2.538.942.338.911-2.539-.941-.337Zm-.89 2.487c-.325.662-.631 1.045-.871 1.225l.6.8c.423-.317.815-.864 1.169-1.584l-.898-.441Zm.044-.074-1.019 1.405.809.587 1.02-1.404-.81-.588Z" fill="#323A48"/><path d="M323.717 111.626c-.041-2.872.338-4.145 1.138-5.056 1.409-1.607 10.873-1.154 12.024 1.063.616 1.186.768 2.354.768 3.849M324.497 106.888c-10.919-7.402-18.995-32.863-29.177-31.86-9.402.927-20.192 32.964-6.843 35.601" stroke="#323A48" stroke-linecap="round" stroke-linejoin="round"/><path d="M320.914 107.373c-11.627-2.087-23.831-12.081-27.848-10.511-4.017 1.57-3.822 7.869-3.822 7.869M321.06 140.84c-1.898 3.958 1.026 65.641 2.433 68.16M321.935 110.114s-17.02-.011-19.754 5.039c-2.734 5.05-3.05 21.245-3.05 21.245l5.1-7.974 6.759 7.974s.315-24.59 10.945-24.59" stroke="#323A48" stroke-linecap="round" stroke-linejoin="round"/><path d="M342.179 140.593c1.422-2.082 1.422-25.545-.858-28.218-1.001-1.173-19.489-1.063-20.942-.198-2.336 1.39-2.336 25.697 0 28.66M299.131 79.441s2.768 1.613 4.592 4.624M310.949 118.59s-.837 1.532-1.349 4.96" stroke="#323A48" stroke-linecap="round" stroke-linejoin="round"/></g><path d="m110.289 229.913-.029-.499.029.499Zm.47-.529-.499.03.499-.03ZM1.029 236.38l.03.499-.03-.499Zm-.528-.47-.5.03.5-.03Zm.47-.528-.03-.499.03.499Zm109.259-6.467.03.499-.03-.499Zm170.483-7.772-.029-.499.029.499Zm.47-.528.499-.029-.499.029Zm-32.339 2.397-.029-.499.029.499Zm-.528-.47.499-.029-.499.029Zm.47-.528-.029-.499.029.499Zm31.869-1.869.029.499-.029-.499Zm160.378-9.711.034.499-.034-.499Zm-122.484 8.164.034.499-.034-.499Zm-.532-.465.499-.033-.499.033Zm.466-.532.033.499-.033-.499Zm122.484-8.164-.033-.499.033.499Zm-330.648 20.975a1 1 0 0 0 .939-1.057l-.998.059.059.998Zm-109.26 6.467 109.26-6.467-.059-.998L1 235.881l.06.998Zm-1.057-.939a1 1 0 0 0 1.057.939L1 235.881l-.998.059Zm.939-1.057A1 1 0 0 0 0 235.94l.999-.059-.06-.998Zm109.26-6.468L.941 234.883l.059.998 109.26-6.467-.059-.999Zm1.057.94a1 1 0 0 0-1.057-.94l.059.999.998-.059Zm169.485-7.713a.998.998 0 0 0 .939-1.056l-.998.058.059.998Zm-31.869 1.869 31.869-1.869-.059-.998-31.869 1.869.059.998Zm-1.057-.94a.999.999 0 0 0 1.057.94l-.059-.998-.998.058Zm.94-1.056a.999.999 0 0 0-.94 1.056l.998-.058-.058-.998Zm31.869-1.869-31.869 1.869.058.998 31.869-1.869-.058-.998Zm1.056.94a.999.999 0 0 0-1.056-.94l.058.998.998-.058Zm159.385-9.653a.999.999 0 0 0 .931-1.064l-.998.067.067.997Zm-122.484 8.164 122.484-8.164-.067-.997-122.484 8.164.067.997Zm-1.065-.931a1 1 0 0 0 1.065.931l-.067-.997-.998.066Zm.932-1.064a1 1 0 0 0-.932 1.064l.998-.066-.066-.998Zm122.484-8.164-122.484 8.164.066.998L441 209.936l-.066-.998Zm1.064.931a1 1 0 0 0-1.064-.931l.066.998.998-.067Z" fill="#323A48"/><path fill-rule="evenodd" clip-rule="evenodd" d="M280.483 183.749s1.794 4.785-1.507 3.908c-3.301-.877-7.873-12.505-7.873-12.505s3.926 11.78 7.873 17.453c4.555 6.547 12.038 13.769 13.152 14.269 1.115.5 8.044 2.038 9.498 1.538 5.616-1.931 9.642-5.273 11.18-6.33 1.539-1.057 14.487-12.747 17.584-23.333 1.051-3.593 3.921-14.557 2.913-11.829-1.008 2.728-8.354 14.852-8.99 11.647-.636-3.204 1.967-36.786 1.967-36.786s-1.443 14.75-6 29.719c-7.425 24.39-19.319 27.267-22.646 27.267-2.464 0-7.621-.757-11.123-5.917-2.155-3.176-6.028-9.101-6.028-9.101Z" fill="#FFA126"/><path fill-rule="evenodd" clip-rule="evenodd" d="M292.112 218.1c-.332 2.497.08 7.332-.637 11.492-1.031 5.979-3.132 11.205-2.475 11.5.265.119 1.279 1.305 3.112 1.837 2.069.601 5.106.548 7.888.547 5.111-.004 11.211-1.832 11-2.384l-.859-3.812c0 .98-8.047 3.812-12.225.824-5.804-4.151-3.04-19.966-3.625-23.546-1.542-9.446-3.225-8.562-4.616-8.912-.629-.159.472 2.458 1.042 5.381.834 4.271 1.445 9.195 1.395 7.073Z" fill="#FFA126"/><path d="M336.394 148.892c1.041-10.106 1.851-23.897.546-37.421-4.225-43.788-20.002-68.278-24.472-71.072-9.087-5.678-16.012-4.337-22.934 0-6.922 4.338-28.984 29.535-26.055 85.508 2.929 55.973 17.285 72.721 27.81 80.183 10.526 7.462 25.207-4.526 32.993-16.325 7.786-11.799 9.872-26.301 9.872-26.301" stroke="#323A48" stroke-linecap="round" stroke-linejoin="round"/><path d="m314.585 62.93-.455.207.455-.207Zm-.663-.248.208.455-.208-.455Zm5.832 14.372.48-.14-.48.14Zm-.339.621.141.48-.141-.48Zm-.621-.34-.479.142.479-.141Zm-5.12-13.99.456-.208-.456.207ZM296.989 45.5V45v.5Zm6.267 1.915-.3.4.3-.4Zm-10.393-.24.288.408-.288-.409Zm-5.132 4.938.383.321-.383-.32Zm-10.799 18.085-.457-.203.457.203Zm-9.288 57.344-.497.053.497-.053Zm11.58 51.865.461-.193-.461.193Zm8.459 14.208-.366.341.366-.341Zm9.387 4.885v-.5.5Zm10.165-4.976-.347-.36.347.36Zm9.671-14.726-.457-.204.457.204Zm9.081-56.056.5-.014-.5.014Zm-3.702-33.413-.489.103.489-.103Zm.387-.592-.103-.49.103.49Zm.592.386.489-.103-.489.103Zm3.723 33.592-.5.013.5-.013Zm-9.168 56.491.456.204-.456-.204Zm-9.889 15.038-.347-.36.347.36Zm-10.86 5.256v.5-.5Zm-10.118-5.202.365-.342-.365.342Zm-8.651-14.505.461-.193-.461.193Zm-11.652-52.145.498-.053-.498.053Zm9.37-57.856-.457-.203.457.203Zm10.946-18.321.383.321-.383-.321Zm5.321-5.113-.289-.409.289.409Zm4.703-1.858v.5-.5Zm6.868 2.115-.3.4.3-.4Zm5.393 6.182.408-.289-.408.29Zm-.119.697-.289-.408.289.408Zm-.697-.119-.408.289.408-.289Zm6.606 9.348a1 1 0 0 0-1.325-.496l.415.91.91-.414Zm5.194 14.19c-1.566-5.337-3.326-10.085-5.194-14.19l-.91.414c1.845 4.057 3.59 8.76 5.144 14.058l.96-.281Zm-.678 1.242a1 1 0 0 0 .678-1.241l-.96.281.282.96Zm-1.241-.678a1 1 0 0 0 1.241.678l-.282-.96-.959.282Zm-5.096-13.926c1.824 4.01 3.553 8.667 5.096 13.926l.959-.282c-1.554-5.298-3.299-10-5.144-14.058l-.911.414Zm.496-1.324a1.001 1.001 0 0 0-.496 1.324l.911-.414-.415-.91ZM296.989 46c2.58 0 4.369.614 5.967 1.814l.601-.8C301.765 45.67 299.759 45 296.989 45v1Zm-3.838 1.583c1.561-1.103 2.856-1.583 3.838-1.583v-1c-1.281 0-2.78.611-4.415 1.766l.577.817Zm-5.037 4.851c1.786-2.131 3.494-3.762 5.037-4.851l-.577-.817c-1.635 1.155-3.405 2.853-5.226 5.026l.766.642Zm-10.725 17.967c3.354-7.543 7.156-13.707 10.725-17.967l-.766-.642c-3.643 4.347-7.491 10.596-10.873 18.203l.914.406Zm-9.248 57.087c-2.312-21.53 2.542-42.001 9.248-57.087l-.914-.406c-6.763 15.215-11.663 35.863-9.328 57.6l.994-.107Zm11.544 51.726c-5.147-12.294-9.215-30.04-11.544-51.726l-.994.107c2.334 21.737 6.417 39.588 11.615 52.005l.923-.386Zm8.363 14.06c-2.966-3.178-5.788-7.91-8.363-14.06l-.923.386c2.6 6.209 5.478 11.059 8.555 14.356l.731-.682ZM297.07 198c-3.027 0-6.058-1.55-9.022-4.726l-.731.682c3.078 3.298 6.355 5.044 9.753 5.044v-1Zm9.818-4.836c-3.386 3.266-6.769 4.836-9.818 4.836v1c3.397 0 7.016-1.744 10.513-5.116l-.695-.72Zm9.561-14.57c-2.873 6.43-6.181 11.311-9.561 14.57l.695.72c3.496-3.372 6.87-8.371 9.779-14.882l-.913-.408Zm9.038-55.839c.647 24.07-3.294 42.983-9.038 55.839l.913.408c5.818-13.022 9.775-32.09 9.125-56.274l-1 .027Zm-3.691-33.323c2.095 9.956 3.346 20.49 3.691 33.323l1-.027c-.347-12.886-1.604-23.48-3.712-33.502l-.979.206Zm.773-1.185a1 1 0 0 0-.773 1.185l.979-.206-.206-.979Zm1.184.773a1 1 0 0 0-1.184-.773l.206.979.978-.206Zm3.733 33.681c-.347-12.94-1.611-23.594-3.733-33.681l-.978.206c2.108 10.022 3.365 20.616 3.712 33.502l.999-.027Zm-9.211 56.709c5.892-13.188 9.865-32.411 9.211-56.709l-.999.027c.65 24.184-3.307 43.252-9.125 56.274l.913.408Zm-9.998 15.194c3.613-3.485 7.053-8.603 9.998-15.194l-.913-.408c-2.909 6.511-6.283 11.51-9.779 14.882l.694.72ZM297.07 200c3.746 0 7.601-1.918 11.207-5.396l-.694-.72c-3.497 3.372-7.116 5.116-10.513 5.116v1Zm-10.484-5.361c3.191 3.419 6.715 5.361 10.484 5.361v-1c-3.398 0-6.675-1.746-9.753-5.044l-.731.683Zm-8.746-14.653c2.624 6.267 5.557 11.236 8.746 14.653l.731-.683c-3.077-3.297-5.955-8.147-8.555-14.356l-.922.386Zm-11.688-52.284c2.34 21.787 6.438 39.744 11.688 52.284l.922-.386c-5.198-12.417-9.281-30.268-11.615-52.005l-.995.107Zm9.41-58.113c-6.821 15.343-11.766 36.169-9.41 58.113l.995-.107c-2.335-21.737 2.565-42.385 9.328-57.6l-.913-.406Zm11.019-18.44c-3.715 4.435-7.609 10.768-11.019 18.44l.913.406c3.382-7.607 7.23-13.856 10.873-18.203l-.767-.642Zm5.416-5.2c-1.727 1.22-3.559 2.985-5.416 5.2l.767.643c1.821-2.173 3.591-3.871 5.226-5.026l-.577-.817ZM296.989 44c-1.579 0-3.284.743-4.992 1.95l.577.816c1.635-1.155 3.134-1.766 4.415-1.766v-1Zm7.168 2.215c-1.985-1.49-4.208-2.215-7.168-2.215v1c2.77 0 4.776.67 6.568 2.015l.6-.8Zm5.501 6.293c-1.911-2.698-3.569-4.842-5.501-6.293l-.6.8c1.791 1.345 3.37 3.367 5.285 6.071l.816-.578Zm-.238 1.394a1 1 0 0 0 .238-1.394l-.816.578.578.816Zm-1.394-.238a1 1 0 0 0 1.394.238l-.578-.816-.816.578Zm-5.07-5.85c1.652 1.24 3.15 3.139 5.07 5.85l.816-.578c-1.915-2.704-3.494-4.726-5.285-6.071l-.601.8Z" fill="#323A48"/><path d="m271.925 138.308.496-.062-.496.062Zm-.558-.435.062.496-.062-.496Zm1.478 7.561.495-.07-.495.07Zm-.425.565.069.495-.069-.495Zm-.565-.426-.495.07.495-.07Zm-.922-7.142.496-.062-.496.062Zm2.92 13.548.493-.083-.493.083Zm-.576-.409-.083-.493.083.493Zm3.405 13.43-.48.138.48-.138Zm10.035 23.876.41-.285-.41.285Zm10.222 6.993v.5-.5Zm8.707-2.243-.23-.444.23.444Zm2.552-1.545.288.409-.288-.409Zm.679-.505.309.393-.309-.393Zm.171-.138-.318-.385.318.385Zm.042-.035.323.381h.001l-.324-.381Zm.01-.008.324.38.001-.001-.325-.379Zm.002-.002.325.38.016-.015-.341-.365Zm0 0-.326-.38-.016.015.342.365Zm0 0 .325.38.002-.002-.327-.378Zm.705.051.378-.327-.378.327Zm-.051.705-.378.327a.5.5 0 0 0 .705.051l-.327-.378Zm.051-.705a.5.5 0 1 0-.756.654l.756-.654Zm-.051.705-.326-.379-.001.001.327.378Zm-.001.001.326.379.001-.001-.327-.378Zm-.001.001.326.379-.326-.379Zm-.004.003.324.381.002-.001-.326-.38Zm-.014.012.324.381h.001l-.325-.381Zm-.05.042-.319-.385.319.385Zm-.19.153-.31-.392.31.392Zm-.721.537-.289-.408.289.408Zm-2.671 1.616.23.445-.23-.445Zm-9.165 2.355v-.5.5Zm-11.043-7.422.41-.286-.41.286Zm-10.175-24.17.481-.139-.481.139Zm-2.854-13.131-.493.084.493-.084Zm-.446-13.9a1 1 0 0 0-1.115-.869l.123.992.992-.123Zm.919 7.118a488.44 488.44 0 0 1-.919-7.118l-.992.123c.403 3.254.71 5.632.921 7.135l.99-.14Zm-.851 1.13a1 1 0 0 0 .851-1.13l-.99.14.139.99Zm-1.129-.851a1 1 0 0 0 1.129.851l-.139-.99-.99.139Zm-.924-7.151c.403 3.255.711 5.64.924 7.151l.99-.139a494.058 494.058 0 0 1-.921-7.135l-.993.123Zm.87-1.115a1 1 0 0 0-.87 1.115l.993-.123-.123-.992Zm3.04 14.519a1 1 0 0 0-1.152-.819l.166.986.986-.167Zm2.816 12.965c-1.001-3.467-1.94-7.786-2.816-12.965l-.986.167c.879 5.201 1.827 9.56 2.842 13.075l.96-.277Zm9.965 23.73c-3.386-4.874-6.74-12.561-9.965-23.73l-.96.277c3.236 11.21 6.626 19.018 10.104 24.023l.821-.57Zm9.812 6.778c-3.121 0-6.423-1.902-9.812-6.778l-.821.57c3.478 5.006 7.044 7.208 10.633 7.208v-1Zm8.477-2.187c-2.136 1.103-5.099 2.187-8.477 2.187v1c3.588 0 6.711-1.149 8.936-2.299l-.459-.888Zm2.493-1.509c-.579.409-1.428.959-2.493 1.509l.459.888a22.304 22.304 0 0 0 2.611-1.58l-.577-.817Zm.658-.489c-.147.115-.368.284-.658.489l.577.817c.306-.216.541-.396.7-.521l-.619-.785Zm.163-.131-.163.131.619.785c.08-.063.141-.113.181-.146l-.637-.77Zm.037-.032-.037.032.637.77.046-.039-.646-.763Zm.009-.007-.01.008.648.762.01-.009-.648-.761Zm0 0-.002.001.651.759.002-.001-.651-.759Zm-.016.014.683.73-.683-.73Zm.016-.015.651.76-.651-.76Zm1.409.104a1 1 0 0 0-1.41-.102l.654.756.756-.654Zm-.102 1.41a1 1 0 0 0 .102-1.41l-.756.654.654.756Zm-1.032-.429.327.378.756-.654-.327-.378-.756.654Zm1.03.431.003-.003a.518.518 0 0 0 .142-.207.503.503 0 0 0-.037-.418c-.009-.017-.018-.03-.022-.036a.692.692 0 0 1-.018-.025l-.007-.008-.011-.013-.038-.044-.286-.331-.756.654.285.331.035.039c.003.004.001.002-.003-.002l-.006-.008-.018-.024c-.004-.007-.013-.019-.022-.036a.504.504 0 0 1 .095-.616l.01-.009.003-.003.651.759Zm.001-.001h.001l-.654-.757-.001.001.654.756Zm-.002.002.001-.001-.652-.758-.001.001.652.758Zm-.004.004.004-.004-.652-.758-.004.003.652.759Zm-.015.013.013-.012-.648-.761-.014.011.649.762Zm-.056.046.055-.046-.647-.763-.046.039.638.77Zm-.199.161c.086-.068.153-.123.199-.161l-.638-.77c-.04.033-.101.083-.181.146l.62.785Zm-.743.552c.321-.226.571-.417.743-.552l-.62-.785c-.159.125-.394.305-.7.521l.577.816Zm-2.729 1.653c1.161-.6 2.088-1.2 2.729-1.653l-.577-.816a22.304 22.304 0 0 1-2.611 1.58l.459.889Zm-9.395 2.41c3.798 0 7.081-1.215 9.395-2.41l-.459-.889c-2.225 1.15-5.348 2.299-8.936 2.299v1Zm-11.454-7.637c3.567 5.134 7.398 7.637 11.454 7.637v-1c-3.589 0-7.155-2.202-10.633-7.208l-.821.571Zm-10.244-24.316c3.248 11.251 6.675 19.18 10.244 24.316l.821-.571c-3.478-5.005-6.868-12.813-10.104-24.023l-.961.278Zm-2.867-13.186c.883 5.223 1.838 9.622 2.867 13.186l.961-.278c-1.015-3.515-1.963-7.874-2.842-13.075l-.986.167Zm.82-1.153a1 1 0 0 0-.82 1.153l.986-.167-.166-.986Z" fill="#323A48"/><path d="M311 203.541s-2.684 7.471-2.684 17.482c0 10.01 3.398 18.124 2.684 20.069-.714 1.944-5.391 2.384-10.927 2.384s-10.33-.339-11.073-2.384c-.742-2.045 2.978-11.426 2.978-19.906 0-8.48-2.978-16.831-2.978-16.831" stroke="#323A48"/></svg>