<svg width="460" height="300" fill="none" xmlns="http://www.w3.org/2000/svg"><path d="m91.296 95.41 15.12 14.026M140.634 124.026l16.911 18.803M47.072 20l86.978 96.706L47.072 20ZM143.628 42.737l24.141 49.519M132.543 20l6.461 13.253L132.543 20ZM164.791 48.094l5.674 14.771M205.464 72.382l2.44 13.4M195.926 20l7.163 39.34L195.926 20ZM247 20l-.973 15.185m-.699 10.928L241.276 96M316.749 20 291 84.347M309.57 97.727l-7.724 13.215M355 20l-40.158 68.707L355 20ZM357.468 44.453l-7.544 11.16M389.054 43.613l-79.993 94.699M409 20l-13.729 16.252L409 20ZM356.889 136.896l-23.641 17.392M450 85.387l-118.5 77.869M450 146.545l-17.731 6.638m-9.573 3.583L323.233 194M450 167.477l-135.5 37.611M421.52 207.197l-18.259 1.975M37.954 101.475l126.161 81.229M10 83.477l18.323 11.797L10 83.477ZM10 102.479l154.791 86.703M83.02 174.291l32.184 11.367M147.768 215.949 10 197.495m0-10.466 23.781 4.304L10 187.029Zm33.845 6.125 105.245 18.695-105.245-18.695ZM58.173 226.047l15.912.133" stroke="#E1E4EA" stroke-linecap="round" stroke-linejoin="round"/><path d="m188.705 181.229-.092 3.838M188.78 190.67l-.061 3.839M195.771 187.799l-3.836-.168M185.933 187.788l-3.84-.067M159.905 201.629l-.092 3.839M159.98 211.07l-.061 3.84M166.971 208.199l-3.836-.168M157.133 208.189l-3.839-.067M174.305 154.828l-.092 3.839M174.38 164.27l-.062 3.839M181.371 161.398l-3.837-.168M171.532 161.388l-3.839-.067M316.742 159.438l-.073 3.071M316.804 166.99l-.05 3.072M322.395 164.695l-3.069-.134M314.525 164.685l-3.072-.053M300.645 194.391l-.092 3.839M300.72 203.832l-.062 3.84M307.71 200.961l-3.836-.168M297.872 200.95l-3.839-.067M292.002 149.842l-.046 1.919M292.04 154.562l-.031 1.92M295.535 153.127l-1.918-.084M290.617 153.122l-1.92-.034M242.594 157.725l.496 6.651M242.47 169.332l.34 6.647M251.783 166.829l-6.643.195M240.214 166.677l-6.644.239" stroke="#323A48" stroke-linecap="round" stroke-linejoin="round"/><path fill-rule="evenodd" clip-rule="evenodd" d="M361.894 240.555c1.357 1.35 7.282 1.725 17.775 1.123-7.276-1.13-12.071-2.336-14.385-3.62-2.314-1.283-4.243-3.321-5.785-6.113 1.086 5.231 1.885 8.101 2.395 8.61Z" fill="#FFA126"/><path fill-rule="evenodd" clip-rule="evenodd" d="m374.134 241.976-7.38-.046c0 21.715 1.23 33.175 3.69 34.382 3.69 1.809 49.381 4.285 52.023 0 .373-.605.867-1.749 1.482-3.431-26.106 1.269-40.866.725-44.28-1.631-3.414-2.356-5.259-12.114-5.535-29.274ZM392.683 218.223c-2.44.268-3.659.468-3.659.599 0 .197-1.299 6.458-1.299 11.825 0 3.578.208 7.389.626 11.432l4.332-.001c-.804-1.696-1.151-5.696-1.041-12.002.109-6.306.456-10.257 1.041-11.853Z" fill="#FFA126"/><path fill-rule="evenodd" clip-rule="evenodd" d="M393.237 242.23h-3.938c-.253 5.58-.253 11.758 0 18.532.254 6.775.782 12.749 1.585 17.922h5.503c-1.682-3.337-2.864-9.509-3.544-18.517-.68-9.007-.549-14.986.394-17.937Z" fill="#FFA126"/><path d="M424.38 270.424c-.278 2.949-.693 5.149-1.195 5.898-2.421 3.609-48.666 3.429-52.381-.373-2.477-2.535-3.928-16.843-3.822-34.166m57.695-.111c0 .21 0 4.22-.075 7.31l.075-7.31Z" stroke="#323A48" stroke-linecap="round" stroke-linejoin="round"/><path d="M389.275 242.078c-.678 2.904.678 35.475 1.609 36.607m11.145.233c.13-2.647 1.718-32.636.62-36.309" stroke="#323A48" stroke-width="1.05" stroke-linecap="round" stroke-linejoin="round"/><path d="M393.817 242.078c-15.92.025-30.878-.398-31.88-1.671-1.027-1.307-1.938-5.587-2.256-9.759m60.626-11.628c4.826.213 8.067.611 8.555 1.245.527.685.89 2.104 1.112 3.895m0 11.957c0 2.544-1.251 4.718-1.652 4.967-1.222.761-20.122 1.402-28.215 1.047" stroke="#323A48" stroke-linecap="round" stroke-linejoin="round"/><path fill-rule="evenodd" clip-rule="evenodd" d="M371.826 197.748c-.614.481-1.639 1.699-3.077 3.654-1.797 2.444-2.824 7.184-2.959 7.968-.566 3.29 1.076 6.543 2.17 7.407 2.655 2.095 9.3 1.628 13.667.399 2.911-.819 5.469-.979 7.673-.482l1.033-2.246c-2.95-.223-5.072-.559-6.365-1.007-5.469-1.895-6.733-3.773-8.434-4.071-1.791-.314-3.661 2.284-4.913 2.284-1.026 0-3.129-1.049-1.872-6.625.448-1.991 1.474-4.418 3.077-7.281Z" fill="#FFA126"/><path fill-rule="evenodd" clip-rule="evenodd" d="M394.476 213.498c-2.942.207-4.895.566-5.859 1.075-.964.509-1.147 1.725-.549 3.65l12.257-.492c-3.269-.488-5.218-1.072-5.849-1.751-.63-.679-.63-1.506 0-2.482ZM401.899 218.062c3.361.988 5.354 1.79 5.977 2.408.385.381 1.594 2.133 2.059 4.781.192 1.094.192 3.477 0 7.147 2.173-2.922 3.574-4.783 4.203-5.583.942-1.201.078-8.467-3.007-9.404-2.029-.616-5.106-.859-9.232-.729v1.38Z" fill="#FFA126"/><path fill-rule="evenodd" clip-rule="evenodd" d="M410.356 202.473c-4.031 6.188-6.4 9.582-7.106 10.182-.707.601-1.681 1.084-2.925 1.449l1.429 2.38c3.638.082 6.148.245 7.529.49 1.381.245 3.274.439 5.678.583 2.613.57 4.75.774 6.411.612 1.661-.162 3.045-1.766 4.153-4.811-2.104 1.284-4.185.249-6.244-3.104-.951-1.549-3.479-.973-7.584 1.727-1.597.03-2.708-.545-3.334-1.727-.481-.909.183-3.503 1.993-7.781ZM389.3 218.858v-2.21c-7.673.739-11.98 1.624-12.922 2.655-1.47 1.609-2.413 5.974-2.828 13.095 1.083-1.54 2.225-2.813 3.426-3.819 1.8-1.509.651-4.591 2.332-6.625 1.716-2.074 5.046-3.106 9.992-3.096Z" fill="#FFA126"/><path d="M389.302 218.223c-.036-2.675.309-2.926 1.032-3.775 1.275-1.496 9.272-1.213 10.938.766.628.747.628 2.074.628 3.008M389.953 214.109c-7.109-4.409-8.244-16.803-15.936-16.349-6.151.363-12.892 17.328-4.194 18.887" stroke="#323A48" stroke-linecap="round" stroke-linejoin="round"/><path d="M400.325 214.312c9.421-4.15 7.154-16.534 14.709-16.564 7.892-.031 14.282 17.578 7.861 18.9M384.575 213.094c-6.071-1.202-8.493-5.1-10.592-4.182-1.4.613-2.068 2.141-2.004 4.586" stroke="#323A48" stroke-linecap="round" stroke-linejoin="round"/><path d="M406.625 213.721c6.912-1.354 8.127-5.785 11.258-4.808 3.131.976 3.268 4.855 2.578 6.16M402.481 216.659c7.753-.12 12.324.811 13.713 2.794 1.389 1.982 1.784 5.832 1.184 11.55l-2.958-5.165-4.267 6.56c.284-6.127-.451-9.941-2.204-11.44-1.752-1.5-4.01-2.411-6.772-2.735" stroke="#323A48" stroke-linecap="round" stroke-linejoin="round"/><path d="M403.268 241.929c.708-.955.862-20.692-1.164-23.369-.455-.602-12.114-.281-12.849.054-2.298 1.046-2.054 21.707-.904 23.057" stroke="#323A48" stroke-linecap="round" stroke-linejoin="round"/><path d="M389.024 216.648c-7.547.198-11.971 1.287-13.272 3.267-1.302 1.98-2.036 6.141-2.202 12.483l3.639-4.69 4.794 4.675c-.7-8.75 1.739-13.288 7.317-13.614M433.753 225.119l-.075 3.149M433.815 232.863l-.05 3.15M439.549 230.509l-3.147-.138M431.48 230.501l-3.15-.055M428.097 251.381l-.033 6.3M427.925 262.406l-.073 6.3M436.568 260.169l-6.299-.11M425.579 260.04l-6.299-.098M363.489 216.143v5.312M363.35 226.18l.139 5.712M371.187 223.832h-5.493M361.004 223.813h-5.567" stroke="#323A48" stroke-linecap="round" stroke-linejoin="round"/><path fill-rule="evenodd" clip-rule="evenodd" d="M53.69 220.756c-2.605-.339-4.502.154-5.69 1.482-1.782 1.99-1.606 16.15.353 18.141 1.307 1.327 7.233 1.719 17.779 1.176-5.068-1.773-8.618-3.934-10.649-6.483-2.031-2.549-2.629-7.321-1.793-14.316Z" fill="#FFA126"/><path fill-rule="evenodd" clip-rule="evenodd" d="m60.8 240.176-7.11-.049c0 22.97 1.185 35.093 3.555 36.37 3.555 1.914 47.268 2.439 50.116 0 .619-.53 1.373-1.855 2.262-3.974-25.705 1.572-40.202 1.112-43.491-1.381-3.29-2.492-5.067-12.814-5.332-30.966Z" fill="#FFA126"/><path d="M109.453 241.59c0 .941.897 30.65-1.441 34.214-2.339 3.564-47.01 3.386-50.599-.368-2.392-2.503-3.793-16.631-3.69-33.737" stroke="#323A48" stroke-width="1.08" stroke-linecap="round" stroke-linejoin="round"/><path d="M78.947 241.991c-15.377.024-29.13-.393-30.098-1.651-1.955-2.541-3.472-16.476-1.043-18.551.519-.442 3.707-.891 8.422-1.294 12.324-.868 21.369-1.277 27.134-1.225 5.765.052 13.417.052 22.957 0m-.111 0c4.12.22 6.85.601 7.288 1.182 2.215 2.942 1.433 19.621-.522 20.557-.854.409-15.261.863-28.643.982" stroke="#323A48" stroke-width="1.08" stroke-linecap="round" stroke-linejoin="round"/><path fill-rule="evenodd" clip-rule="evenodd" d="M209.741 220.397c-2.653-.346-4.585.157-5.795 1.509-1.815 2.027-1.636 16.449.36 18.477 1.33 1.352 7.366 1.751 18.107 1.198-5.161-1.806-8.777-4.007-10.846-6.603-2.068-2.597-2.677-7.457-1.826-14.581Z" fill="#FFA126"/><path fill-rule="evenodd" clip-rule="evenodd" d="m216.982 241.878-7.241-.046c0 21.738 1.207 33.211 3.621 34.418 3.62 1.812 49.001 5.278 51.593.989.366-.606.812-2.174 1.34-4.704-25.905 1.457-40.532 1.007-43.882-1.352-3.35-2.358-5.16-12.126-5.431-29.305ZM236.16 218.564c-3.679-.511-5.637-.482-5.876.087-.357.854-2.044 8.182-2.044 12.863 0 3.121.406 6.53 1.218 10.227l5.203.22c-1.218-2.547-1.691-6.927-1.417-13.138.273-6.212 1.245-9.631 2.916-10.259Z" fill="#FFA126"/><path fill-rule="evenodd" clip-rule="evenodd" d="M233.788 241.898c-2.171-.527-3.375-.507-3.614.063-.357.854.046 10.612.046 15.293 0 3.121.66 10.245 1.98 21.372l4.068-.74a159.062 159.062 0 0 1-2.48-20.147c-.399-6.772-.399-12.052 0-15.841ZM236.432 212.262c-2.424.372-4.103.903-5.038 1.592-.934.69-1.326 2.293-1.174 4.81l11.88-.666c-3.168-.662-5.057-1.453-5.668-2.373-.611-.92-.611-2.041 0-3.363Z" fill="#FFA126"/><path d="M266.636 241.617c0 .958.914 31.218-1.467 34.848-2.382 3.63-47.88 3.449-51.536-.375-2.437-2.55-3.864-16.939-3.759-34.361" stroke="#323A48" stroke-width="1.1" stroke-linecap="round" stroke-linejoin="round"/><path d="M231.072 242.182c-1.254 2.274.302 33.952 1.448 36.665m11.835.229c1.147-2.046 2.025-32.693.611-36.517M235.566 242.026c-15.662.024-29.671-.401-30.656-1.682-1.991-2.588-3.536-16.781-1.062-18.894.528-.451 3.775-.908 8.578-1.319 7.8-.61 12.898-.915 15.294-.915m21.067-.552 14.544.22c4.196.224 6.977.612 7.423 1.204 2.257 2.997 1.46 19.984-.531 20.938-.87.416-15.544.879-29.174 1M230.543 218.422c-.04-3.363.34-3.679 1.135-4.745 1.402-1.881 10.199-1.525 12.031.963.691.939.691 2.607.691 3.781" stroke="#323A48" stroke-width="1.1" stroke-linecap="round" stroke-linejoin="round"/><path d="M245.618 242.119c.792-1.027 1.496-20.457-.773-23.334-.51-.647-13.564-.302-14.386.057-2.573 1.125-1.817 21.323-.529 22.774" stroke="#323A48" stroke-width="1.1" stroke-linecap="round" stroke-linejoin="round"/><path fill-rule="evenodd" clip-rule="evenodd" d="M244.4 215.305c3.825-1.554 5.737-3.473 5.737-5.757 0-3.427-1.675-3.427-1.675-8.574 0-5.146 1.641-9.394 3.664-11.576 2.024-2.183 4.334-3.842 5.457-4.69a29 29 0 0 1 2.27-1.557c-1.32-.032-2.607.28-3.859.936-1.879.983-8.088 6.784-8.791 9.541-.703 2.757-2.646 5.57-1.14 8.138 1.506 2.567 1.14 5.872 1.14 7.782 0 1.272-1.117 2.709-3.35 4.309l.547 1.448Z" fill="#FFA126"/><path d="M243.853 213.855c9.014-3.962-1.211-10.383 3.02-19.707 3.023-6.664 10.469-12.646 12.98-11.024" stroke="#323A48" stroke-linecap="round" stroke-linejoin="round"/><path fill-rule="evenodd" clip-rule="evenodd" d="M273.263 197.455c2.109.774 3.376 1.744 3.801 2.909.424 1.165.645 2.961.664 5.389l-.664 3.793-1.857 2.717c.566-4.633.85-7.672.85-9.119 0-1.448-.932-3.344-2.794-5.689Z" fill="#FFA126"/><path d="M230.5 216.457c2.992-11.754 1.574-28.646-3.229-30.615-3.203-1.313-5.429 1.901-6.68 9.64M246.378 215.637c6.613-1.175 7.623-8.485 5.474-15.273-2.148-6.788 5.563-11.944 4.903-10.811M269.898 187.717c6.009 5.043 9.713 8.669 11.112 10.877 1.4 2.208 1.798 6.496 1.194 12.864l-2.981-5.752-4.3 7.306c1.408-7.942 1.229-12.748-.537-14.418s-4.463-3.735-8.091-6.194" stroke="#323A48" stroke-linecap="round" stroke-linejoin="round"/><path fill-rule="evenodd" clip-rule="evenodd" d="M213.148 211.455c-.862-3.184-.627-6.164.705-8.938 1.332-2.775 2.118-4.462 2.357-5.062-.596-1.433-1.044-1.92-1.344-1.462-.704 1.071-2.315 4.98-4.066 7.841-1.311 2.141-1.864 6.533-1.66 13.177l4.008-5.556ZM218.5 187.956c1.84-3.156 3.391-5.397 4.651-6.726 1.89-1.993 6.349 0 8.413 1.92 1.376 1.279 2.354 2.774 2.936 4.483-2.239-7.223-4.648-11.106-7.229-11.652-3.871-.818-5.911 1.264-6.68 3.256-.512 1.329-1.209 4.235-2.091 8.719Z" fill="#FFA126"/><path d="M234 212.456c3.2-19.171 3.374-21.151-1.341-30.575-4.43-8.855-13.504-8.662-14.159 5.323M214.543 196.612a27.908 27.908 0 0 1-3.088 6.938c-1.36 2.204-2.131 6.691-2.315 13.463l3.801-5.221 6.237 4.021c-1.337-2.76-2.133-6.384-2.387-10.871 0-3.381 3.243-7.263 3.8-9.46" stroke="#323A48" stroke-linecap="round" stroke-linejoin="round"/><path fill-rule="evenodd" clip-rule="evenodd" d="M218.5 138.675c-.424-.796-1.973.33-4.647 3.377-4.012 4.571-15.735 19.602-13.819 26.058 1.916 6.456 6.511 13.766 10.208 18.507a164.38 164.38 0 0 1 6.707 9.209c-8.309-8.871-13.308-14.757-14.999-17.66-1.08-1.854-3.901-7.345-4.619-10.056-.967-3.656.449-4.584 1.496-6.7 1.214-2.457 6.561-10.035 16.038-22.735h3.635Z" fill="#FFA126"/><path clip-rule="evenodd" d="M214.626 138.551c-9.573 12.2-14.945 19.91-16.117 23.128-1.758 4.827-1.553 8.204 3.325 15.726 4.879 7.522 14.698 19.853 15.894 18.482 1.196-1.371-6.868-18.315-4.395-27.639 1.649-6.216 6.803-16.115 15.464-29.697h-14.171Z" stroke="#323A48" stroke-linejoin="bevel"/><path d="M210.8 153.092c-5.662 5.433-8.342 9.82-8.04 13.163.302 3.342 1.72 7.153 4.254 11.434" stroke="#323A48" stroke-linecap="round" stroke-linejoin="round"/><path fill-rule="evenodd" clip-rule="evenodd" d="M250 138.676c6.379 11.455 9.957 17.865 10.733 19.231 1.163 2.048 3.372 6.029 4.467 10.621 1.094 4.592-.579 11.489-2.349 17.028-1.18 3.692-2.748 7.001-4.704 9.925 3.808-13.771 5.376-22.487 4.704-26.147-.671-3.66-5.887-13.879-15.648-30.658H250Z" fill="#FFA126"/><path clip-rule="evenodd" d="M261.374 138.551c9.573 12.2 14.945 19.91 16.117 23.128 1.758 4.827 1.553 8.204-3.325 15.726-4.879 7.522-14.698 19.853-15.894 18.482-1.196-1.371 6.868-18.315 4.395-27.639-1.649-6.216-6.803-16.115-15.464-29.697h14.171Z" stroke="#323A48" stroke-linejoin="bevel"/><path d="M265.2 153.092c5.662 5.433 8.342 9.82 8.04 13.163-.302 3.342-1.72 7.153-4.254 11.434" stroke="#323A48" stroke-linecap="round" stroke-linejoin="round"/><path fill-rule="evenodd" clip-rule="evenodd" d="M203.732 129.231c0-1.48 1.012-2.326 3.036-2.538-.328 3.953-.034 6.431.882 7.434 1.374 1.504 18.938 1.814 29.06 1.814h32.521c.667 0 .436 2.61-4.031 2.61h-58.432c-2.024.473-3.036-.397-3.036-2.61v-6.71Z" fill="#FFA126"/><path clip-rule="evenodd" d="M203.8 137.383c.1.404.76.794 1.98 1.168l59.191-.134c3.279.09 4.919-1.618 4.919-5.122 0-5.256.418-6.602-4.919-6.602h-58.957c-1.476 0-2.214 1.304-2.214 3.913 0 3.912-.152 6.171 0 6.777Z" stroke="#323A48"/><path fill-rule="evenodd" clip-rule="evenodd" d="M213.853 118.659c-1.005 2.058 0 6.082 0 7.2 0 .746 8.759.746 26.277 0-16.242 0-24.363-1.795-24.363-5.385 0-5.386 2.36-2.924 2.36-2.924s-3.269-.95-4.274 1.109Z" fill="#FFA126"/><path clip-rule="evenodd" d="M213.78 125.664c.072.307.541.602 1.407.887l42.046-.102c2.329.068 3.494-1.228 3.494-3.888 0-3.989.297-5.01-3.494-5.01h-41.88c-1.049 0-1.573.99-1.573 2.969 0 2.969-.107 4.684 0 5.144ZM211.854 131.946c.186-1.09.869-1.635 2.049-1.635s1.83.635 1.948 1.907c-.105 1.272-.798 1.908-2.077 1.908-1.28 0-1.92-.727-1.92-2.18ZM257.854 131.946c.186-1.09.869-1.635 2.049-1.635s1.83.635 1.948 1.907c-.105 1.272-.798 1.908-2.077 1.908-1.28 0-1.92-.727-1.92-2.18Z" stroke="#323A48"/><path fill-rule="evenodd" clip-rule="evenodd" d="M236.892 116.989c-6.041.087-8.739-1.687-8.096-5.321.643-3.635 1.999-6.191 4.066-7.668-1.499-.901-3.176-.01-5.031 2.672-1.854 2.683-2.625 6.122-2.312 10.317h11.373Z" fill="#FFA126"/><path clip-rule="evenodd" d="M225.52 117.551c-.028-9.034 2.42-13.551 7.342-13.551h6.906c4.957 0 7.305 4.517 7.045 13.551H225.52ZM237.151 104l-.441-83.015 2-.985-1.559 84Z" stroke="#323A48"/><path d="m10 272.9 38-2.241m156-9.204-85.5 5.044m155.5-8.044 88-5.75m88-5.75-16 1.046" stroke="#323A48" stroke-linecap="round" stroke-linejoin="round"/></svg>