<svg width="460" height="300" fill="none" xmlns="http://www.w3.org/2000/svg"><path clip-rule="evenodd" d="M126.94 61.527c-4.04 15.558-18.3 23.752-34.342 19.24-15.567-4.514-22.578-15.44-18.42-31.948 4.754-18.289 21.153-23.515 34.819-19.595 14.141 3.919 21.984 16.745 17.943 32.303Z" stroke="#E1E4EA" stroke-linecap="round" stroke-linejoin="round"/><path clip-rule="evenodd" d="M89.562 50.35c3.1 1.584 5.985 7.014 5.985 7.014S109.44 45.258 113.18 44.24c3.313-1.019 5.558 1.357 4.596 4.3C116.28 52.724 93.944 68 93.944 68S86.57 58.722 85.5 55.667c-1.71-4.073 1.283-6.449 4.061-5.318Z" stroke="#E1E4EA" stroke-linecap="round" stroke-linejoin="round"/><path d="M300 85.193c5.73-22.184 25.953-33.869 48.704-27.434 22.077 6.435 32.02 22.015 26.121 45.554-6.741 26.079-29.997 33.531-49.378 27.942" stroke="#E1E4EA" stroke-linecap="round" stroke-linejoin="round"/><path clip-rule="evenodd" d="M321.636 87.995c4.508 2.244 8.705 9.938 8.705 9.938s20.208-17.15 25.649-18.593c4.818-1.443 8.083 1.923 6.684 6.09-2.176 5.931-34.665 27.57-34.665 27.57s-10.726-13.144-12.28-17.471c-2.487-5.77 1.865-9.137 5.907-7.534ZM433.268 41.593c-2.792 10.948-12.644 16.715-23.728 13.539-10.755-3.176-15.599-10.865-12.725-22.481 3.284-12.87 14.614-16.548 24.056-13.79 9.77 2.758 15.188 11.784 12.397 22.732Z" stroke="#E1E4EA" stroke-linecap="round" stroke-linejoin="round"/><path clip-rule="evenodd" d="M408.18 34.498c2.16 1.122 4.171 4.969 4.171 4.969s9.683-8.576 12.29-9.297c2.309-.722 3.873.961 3.203 3.045C426.801 36.181 411.234 47 411.234 47s-5.14-6.572-5.885-8.736c-1.191-2.885.894-4.568 2.831-3.766ZM374.634 259.796c-1.396 5.475-6.322 8.358-11.864 6.77-5.378-1.588-7.8-5.432-6.363-11.241 1.642-6.435 7.307-8.273 12.028-6.894 4.885 1.378 7.595 5.891 6.199 11.365Z" stroke="#E1E4EA" stroke-linecap="round" stroke-linejoin="round"/><path clip-rule="evenodd" d="M361.659 256.116c1.127.529 2.176 2.339 2.176 2.339s5.052-4.036 6.412-4.375c1.205-.34 2.021.452 1.671 1.433-.544 1.396-8.666 6.487-8.666 6.487s-2.681-3.093-3.07-4.111c-.622-1.358.467-2.15 1.477-1.773ZM94.651 185.461c-5.142 20.167-23.29 30.79-43.708 24.94-19.813-5.85-28.736-20.014-23.443-41.413 6.05-23.708 26.921-30.482 44.314-25.402 17.998 5.081 27.98 21.707 22.838 41.875Z" stroke="#E1E4EA" stroke-linecap="round" stroke-linejoin="round"/><path clip-rule="evenodd" d="M47.221 170.672c4.226 1.914 8.161 8.477 8.161 8.477s18.945-14.629 24.046-15.859c4.517-1.231 7.578 1.64 6.266 5.195C83.654 173.543 53.196 192 53.196 192s-10.055-11.211-11.513-14.902c-2.331-4.922 1.75-7.793 5.538-6.426ZM272.518 33.522c-1.836 7.202-8.318 10.996-15.61 8.907-7.076-2.09-10.263-7.148-8.372-14.79 2.16-8.468 9.614-10.887 15.826-9.072 6.428 1.814 9.993 7.752 8.156 14.955Z" stroke="#E1E4EA" stroke-linecap="round" stroke-linejoin="round"/><path clip-rule="evenodd" d="M255.212 28.646c1.503.66 2.902 2.922 2.902 2.922s6.736-5.044 8.549-5.468c1.606-.424 2.695.566 2.228 1.791-.725 1.745-11.555 8.109-11.555 8.109s-3.575-3.866-4.093-5.139c-.829-1.697.622-2.687 1.969-2.215Z" stroke="#E1E4EA" stroke-linecap="round" stroke-linejoin="round"/><path d="M300.26 214.41c4.97 6.361 5.325 17.896 1.064 34.606-6.391 25.066-28.948 38.268-54.324 30.997-24.624-7.271-35.714-24.874-29.135-51.47" stroke="#E1E4EA" stroke-linecap="round" stroke-linejoin="round"/><path clip-rule="evenodd" d="M242.465 231.053c5.072 2.508 9.794 11.107 9.794 11.107s22.734-19.168 28.854-20.78c5.422-1.613 9.094 2.149 7.52 6.807-2.448 6.628-38.998 30.813-38.998 30.813s-12.066-14.69-13.815-19.527c-2.798-6.449 2.099-10.211 6.645-8.42ZM375.253 174.614c3.569 1.65 6.892 7.307 6.892 7.307s15.998-12.611 20.305-13.671c3.815-1.061 6.399 1.414 5.292 4.478-1.723 4.361-27.443 20.272-27.443 20.272s-8.491-9.664-9.722-12.847c-1.969-4.243 1.477-6.718 4.676-5.539ZM87.18 261.968c2.16.99 4.17 4.385 4.17 4.385s9.684-7.567 12.291-8.203c2.309-.637 3.873.848 3.203 2.687-1.043 2.616-16.61 12.163-16.61 12.163s-5.14-5.799-5.885-7.708c-1.192-2.546.894-4.031 2.83-3.324ZM144.659 104.116c1.127.529 2.176 2.339 2.176 2.339s5.052-4.036 6.412-4.375c1.205-.34 2.021.452 1.671 1.433-.544 1.396-8.666 6.487-8.666 6.487s-2.681-3.093-3.07-4.111c-.622-1.358.467-2.15 1.477-1.773Z" stroke="#E1E4EA" stroke-linecap="round" stroke-linejoin="round"/><path fill-rule="evenodd" clip-rule="evenodd" d="M312.252 156.773c5.517.839 8.285 8.29 7.024 13.745-1.262 5.455-3.017 6.561-7.024 8.566-2.194 1.025-5.608 1.141-7.802 2.167 1.905-.233 3.347-.093 5.679 0 4.663.186 6.238 3.345 6.973 9.313 1.437 8.532-5.354 13.171-10.123 15.269-3.067 1.35-28.875 12.191-54.937 15.276-8.809 1.043-19.542-.51-27.729-2.224-5.049-1.058-9.966-.639-13.399-.639-.576 0-1.928-6.452-4.055-19.356 6.259 5.481 11.892 8.511 16.899 9.088 18.475 2.132 46.103 3.434 55.407-14.906 9.305-18.341 22.881-16.341 27.575-22.926 4.694-6.585 3.134-13.84 5.512-13.373Z" fill="#FFA126"/><path fill-rule="evenodd" clip-rule="evenodd" d="M189.406 151.511c3.079 1.591 8.197 14.232 12.759 28.786 4.561 14.554 10.428 37.07 8.523 42.43-1.269 3.574-13.233 8.052-35.89 13.433 9.653-12.206 14.522-21.888 14.608-29.048.312-26.309-3.496-44.843-11.426-55.601 5.564-1.061 9.372-1.061 11.426 0ZM282.616 105.302c7.635 1.847 10.86 6.144 9.675 12.889-1.778 10.119-13.892 14.961-13.126 17.637.51 1.783 9.427-1.248 26.751-9.094 5.253-2.371 6.377-7.495 3.37-15.374-3.259-8.541-12.149-10.56-26.67-6.058ZM301.24 129.376c2.585 5.023 2.313 10.187-.816 15.491-4.851 8.221-14.766 13.105-14.766 15.444 0 2.229 9.36.064 28.081-6.497 5.996-4.633 7.375-10.719 4.137-18.259-3.238-7.539-8.783-9.599-16.636-6.179Z" fill="#FFA126"/><path d="M187.735 211.792c3.889 0 7.042-3.143 7.042-7.02s-3.153-7.02-7.042-7.02c-3.888 0-7.041 3.143-7.041 7.02s3.153 7.02 7.041 7.02Z" fill="#FFA126"/><path d="M192.7 152.733c16.495-9.15 21.456-43.6 18.413-55.74-3.425-12.095-9.336-22.367-8.697-26.617.684-3.875 25.227-15.223 37.127 9.105 8.692 17.136 7.039 35.161 7.039 35.161s27.811-6.819 38.261-9.994c10.831-3.223 21.359-2.616 24.889 7.19 2.919 7.985.663 11.674-2.54 13.962-1.769 1.354-5.064 2.895-6.497 3.829 1.479-.56 4.82-1.728 7.917-1.728 4.242-.14 7.661 2.475 10.153 10.132 2.156 8.079-1.777 13.869-5.026 15.783-2.197 1.028-8.497 3.316-9.976 3.876 1.144-.14 6.01-1.494 8.391-1.027 5.523.84 8.64 7.284 7.377 12.747-1.264 5.464-3.704 7.658-7.715 9.666-2.197 1.028-6.346 1.915-8.543 2.942 1.907-.233 4.531-.934 6.866-.84 4.669.186 6.227 3.408 6.963 9.385 1.439 8.545-5.348 13.168-10.123 15.27-4.774 2.101-40.905 16.676-67.247 15.719-6.236-.227-19.744-4.771-28.818-3.307" stroke="#323A48" stroke-linecap="round" stroke-linejoin="round"/><path d="M137.489 160.222s44.254-12 51.297-9.217c2.118.837 5.351 7.275 8.694 16.017m5.981 17.713c5.344 17.749 9.212 36.397 6.498 39.182-5.164 6.106-38.596 13.13-38.596 13.13" stroke="#323A48" stroke-linecap="round" stroke-linejoin="round"/><path d="M180.895 205.182c.474 3.854 3.992 6.595 7.856 6.121 3.865-.473 6.613-3.981 6.138-7.835-.474-3.854-3.992-6.595-7.856-6.122" stroke="#323A48" stroke-linecap="round" stroke-linejoin="round"/></svg>