<?xml version="1.0" encoding="utf-8"?>
<svg xmlns="http://www.w3.org/2000/svg">
    <symbol id="cancel"><path d="M9 0c4.968 0 9 4.032 9 9s-4.032 9-9 9-9-4.032-9-9 4.032-9 9-9Zm0 2C5.136 2 2 5.136 2 9s3.136 7 7 7 7-3.136 7-7-3.136-7-7-7Zm2.475 3.61 1.414 1.415L10.415 9.5l2.474 2.475-1.414 1.414L9 10.915l-2.475 2.474-1.414-1.414L7.585 9.5 5.111 7.025l1.414-1.414L9 8.085l2.475-2.474Z"/>
    </symbol>
    <symbol id="drag-handle"><path fill-rule="evenodd" clip-rule="evenodd" d="M2 28v2H0v-2h2Zm4 0v2H4v-2h2Zm-4-4v2H0v-2h2Zm4 0v2H4v-2h2Zm-4-4v2H0v-2h2Zm4 0v2H4v-2h2Zm-4-4v2H0v-2h2Zm4 0v2H4v-2h2Zm-4-4v2H0v-2h2Zm4 0v2H4v-2h2ZM2 8v2H0V8h2Zm4 0v2H4V8h2ZM2 4v2H0V4h2Zm4 0v2H4V4h2ZM2 0v2H0V0h2Zm4 0v2H4V0h2Z" />
    </symbol>
    <symbol id="pending"><path d="M9 0c4.968 0 9 4.032 9 9s-4.032 9-9 9-9-4.032-9-9 4.032-9 9-9Zm0 2C5.136 2 2 5.136 2 9s3.136 7 7 7 7-3.136 7-7-3.136-7-7-7Zm1 3v3.586l2.707 2.707-1.414 1.414L8 9.414V5h2Z"/>
    </symbol>
    <symbol id="realized"><path d="m1.727 11.02 4.294 4.545 1.272-1.273 1.414 1.415-2.727 2.727-5.707-6.04 1.454-1.374ZM22.315 6.27l1.37 1.457-10.726 10.1-5.686-6.018 1.454-1.374 4.315 4.568 9.273-8.733Zm-7.022.021 1.415 1.415-4 4-1.415-1.415 4-4Z"/>
    </symbol>
    <symbol id="rejection"><path d="M9 0c4.968 0 9 4.032 9 9s-4.032 9-9 9-9-4.032-9-9 4.032-9 9-9ZM2 9a7.003 7.003 0 0 0 10.899 5.813L3.187 5.101A6.965 6.965 0 0 0 2 9Zm7-7a6.97 6.97 0 0 0-4.47 1.615l9.855 9.856A6.97 6.97 0 0 0 16 9c0-3.864-3.136-7-7-7Z"/>
    </symbol>
    <symbol id="successful"><path d="m19.315 6.271 1.37 1.457-10.726 10.1-5.686-6.018 1.454-1.374 4.315 4.568 9.273-8.733Z"/>
    </symbol>
</svg>