<?xml version="1.0" encoding="utf-8"?>
<svg xmlns="http://www.w3.org/2000/svg">
    <symbol id="circled-add" viewBox="0 0 24 24">
        <path d="M13 4v8h8v1h-8v8h-1v-8H4v-1h8V4h1Z"/>
    </symbol>
    <symbol id="add" viewBox="0 0 24 24">
        <path d="M12.5 2C18.275 2 23 6.725 23 12.5S18.275 23 12.5 23 2 18.275 2 12.5 6.725 2 12.5 2Zm0 1A9.46 9.46 0 0 0 3 12.5a9.46 9.46 0 0 0 9.5 9.5 9.46 9.46 0 0 0 9.5-9.5A9.46 9.46 0 0 0 12.5 3Zm.5 4v5h5v1h-5v5h-1v-5H7v-1h5V7h1Z"/>
    </symbol>
    <symbol id="add-addressee" viewBox="0 0 24 24">
        <path d="M16.5 11a5.5 5.5 0 1 1 0 11 5.5 5.5 0 0 1 0-11Zm0 1a4.5 4.5 0 1 0 0 9 4.5 4.5 0 0 0 0-9Zm-8-10a4.5 4.5 0 0 1 2.167 8.445 5.503 5.503 0 0 1 1.723 1.167l-.707.707A4.5 4.5 0 0 0 4 15.5V19H3v-3.5a5.502 5.502 0 0 1 3.333-5.057A4.5 4.5 0 0 1 8.5 2ZM17 14v2h2v1h-2v2h-1v-2h-2v-1h2v-2h1ZM8.5 3a3.5 3.5 0 1 0 0 7 3.5 3.5 0 0 0 0-7Z"/>
    </symbol>
    <symbol id="add-pic" viewBox="0 0 24 24">
        <path d="M16.5 11a5.5 5.5 0 1 1 0 11 5.5 5.5 0 0 1 0-11Zm0 1a4.5 4.5 0 1 0 0 9 4.5 4.5 0 0 0 0-9Zm.5 2-.001 2H19v1h-2.001L17 19h-1l-.001-2H14v-1h1.999L16 14h1ZM12.71 3a1 1 0 0 1 .836.451L15.5 6.43H18a2 2 0 0 1 2 2l.001 2.594a6.473 6.473 0 0 0-1-.525L19 8.428a1 1 0 0 0-1-1h-3.04L12.71 4H9.29L7.04 7.429H4a1 1 0 0 0-1 1V17a1 1 0 0 0 1 1h6.174c.082.346.19.68.324 1H4a2 2 0 0 1-2-2V8.429a2 2 0 0 1 2-2h2.5L8.454 3.45A1 1 0 0 1 9.29 3h3.42ZM11 8a4 4 0 0 1 3.612 2.28c-.324.097-.637.22-.936.364a3 3 0 1 0-3.475 4.248 6.407 6.407 0 0 0-.165.915l-.007.074A4.002 4.002 0 0 1 11 8Z"/>
    </symbol>
    <symbol id="alert" viewBox="0 0 24 24">
        <path d="M12.5 3A2.5 2.5 0 0 1 15 5.498c2.35.98 4 3.298 4 6.002V15l3 4h-6.036a3.5 3.5 0 0 1-6.928 0H3l3-4v-3.5a6.502 6.502 0 0 1 4-6.002A2.499 2.499 0 0 1 12.5 3Zm2.45 16h-4.9a2.5 2.5 0 0 0 4.9 0ZM12.5 6A5.5 5.5 0 0 0 7 11.5v3.833L5 18h15l-2-2.667V11.5A5.5 5.5 0 0 0 12.5 6Zm0-2a1.5 1.5 0 0 0-1.463 1.165 6.51 6.51 0 0 1 2.925 0A1.499 1.499 0 0 0 12.5 4Z"/>
    </symbol>
    <symbol id="approval-icon" viewBox="0 0 24 24">
        <path d="m9 17.293-5.646-5.646-.708.707L9 18.707 22.354 5.354l-.707-.708L9 17.293Z"/>
    </symbol>
    <symbol id="approve" viewBox="0 0 24 24">
        <path d="M12.5 2C18.275 2 23 6.725 23 12.5S18.275 23 12.5 23 2 18.275 2 12.5 6.725 2 12.5 2Zm0 1A9.46 9.46 0 0 0 3 12.5a9.46 9.46 0 0 0 9.5 9.5 9.46 9.46 0 0 0 9.5-9.5A9.46 9.46 0 0 0 12.5 3Zm4.596 6.232.707.707-6.364 6.364-.707.707-3.535-3.535.707-.707 2.828 2.827 6.364-6.363Z"/>
    </symbol>
    <symbol id="arrow-down" viewBox="0 0 24 24">
        <path d="M11.699 18.8V4h1v14.8l6.6-6.6.7.7-7.9 7.9-7.9-7.9.7-.7 6.8 6.6Z"/>
    </symbol>
    <symbol id="arrow-left" viewBox="0 0 24 24">
        <path d="M5.199 12.3h14.8v-1h-14.8l6.6-6.6-.7-.7-7.9 7.9 7.9 7.9.7-.7-6.6-6.8Z"/>
    </symbol>
    <symbol id="arrow-right" viewBox="0 0 24 24">
        <path d="M18.801 12.3h-14.8v-1h14.8l-6.6-6.6.7-.7 7.9 7.9-7.9 7.9-.7-.7 6.6-6.8Z"/>
    </symbol>
    <symbol id="arrow-up" viewBox="0 0 24 24">
        <path d="M12.301 5.2V20h-1V5.2l-6.6 6.6-.7-.7 7.9-7.9 7.9 7.9-.7.7-6.8-6.6Z"/>
    </symbol>
    <symbol id="attention" viewBox="0 0 24 24">
        <path d="M12 2c5.5 0 10 4.5 10 10s-4.5 10-10 10S2 17.5 2 12 6.5 2 12 2Zm0 1c-5 0-9 4-9 9s4 9 9 9 9-4 9-9-4-9-9-9Zm-.148 13.11c.302 0 .535.09.699.273.164.182.246.443.246.781 0 .339-.084.6-.25.785-.167.185-.396.278-.688.278-.291 0-.522-.086-.691-.258-.17-.172-.254-.438-.254-.797 0-.709.313-1.063.938-1.063Zm.82-9.532-.399 7.274h-.82l-.398-7.274h1.617Z"/>
    </symbol>
    <symbol id="budget-transfer" viewBox="0 0 24 24">
        <path d="m4 13 .999.998V17a1 1 0 0 0 .998 1h13.092l-3.034-3.033.706-.706 4.243 4.243-4.236 4.235-.707-.707L19.095 19H5.997A1.998 1.998 0 0 1 4 17v-4ZM7.207 1.258l.708.707L4.879 5H18a2 2 0 0 1 2 2v4l-1-1V7a1 1 0 0 0-1-1H4.88l3.036 3.036-.708.707L2.965 5.5l4.242-4.242Z"/>
    </symbol>
    <symbol id="business" viewBox="0 0 24 24">
        <path d="M5 21a1 1 0 0 1-1-1v-7.388a1.6 1.6 0 0 1-1.99-1.723l.687-6.11A2.015 2.015 0 0 1 4.707 3h14.586c1.03 0 1.896.766 2.01 1.78l.687 6.109A1.6 1.6 0 0 1 20 12.612V20a1 1 0 0 1-1 1H5Zm12.058-9-.297.293a2.457 2.457 0 0 1-1.726.707 2.456 2.456 0 0 1-1.727-.707L13.012 12a1.442 1.442 0 0 0-2.024 0l-.296.293A2.456 2.456 0 0 1 8.966 13a2.456 2.456 0 0 1-1.727-.707L6.943 12A1.443 1.443 0 0 0 5 11.927V20h3v-4a1 1 0 0 1 1-1h6a1 1 0 0 1 1 1v4h3v-8.072l-.028-.025a1.443 1.443 0 0 0-1.915.097ZM15 16H9v4h6v-4Zm4.302-12H4.698c-.516 0-.95.383-1.007.89L3.004 11a.602.602 0 0 0 .334.606.563.563 0 0 0 .644-.104l.212-.21a2.467 2.467 0 0 1 3.458 0l.297.294a1.442 1.442 0 0 0 2.025 0l.297-.293a2.467 2.467 0 0 1 3.458 0l.297.293a1.442 1.442 0 0 0 2.025 0l.297-.293a2.467 2.467 0 0 1 3.458 0l.212.21c.17.167.43.209.644.103a.602.602 0 0 0 .334-.607l-.687-6.11A1.008 1.008 0 0 0 19.302 4Z"/>
    </symbol>
    <symbol id="business-cancel" viewBox="0 0 24 24">
        <path d="m16.5 11 .221.004A5.5 5.5 0 1 1 16.5 11Zm0 1-.212.005a4.5 4.5 0 0 0 0 8.99L16.5 21l.212-.005A4.5 4.5 0 0 0 16.5 12Zm2.121 1.672.707.707-2.121 2.121 2.121 2.121-.707.707-2.121-2.121-2.121 2.121-.707-.707 2.121-2.121-2.121-2.121.707-.707 2.121 2.121 2.121-2.121ZM18.353 2c.478 0 .883.366.951.859l.686 5c.075.546-.29 1.053-.815 1.131a.924.924 0 0 1-.136.01H18v1h-1V9H5v8h2v-4a1 1 0 0 1 1-1h3.5l-.75 1H8v4h2v1H5a1 1 0 0 1-1-1V9H2.96C2.43 9 2 8.552 2 8c0-.047.003-.095.01-.141l.686-5c.068-.493.473-.859.951-.859h14.706Zm0 1H3.647l-.686 5h16.078l-.686-5Z"/>
    </symbol>
    <symbol id="cancel" viewBox="0 0 24 24">
        <path d="M12.5 2C18.275 2 23 6.725 23 12.5S18.275 23 12.5 23 2 18.275 2 12.5 6.725 2 12.5 2Zm0 1A9.46 9.46 0 0 0 3 12.5a9.46 9.46 0 0 0 9.5 9.5 9.46 9.46 0 0 0 9.5-9.5A9.46 9.46 0 0 0 12.5 3Zm3.535 5.257.708.707-3.536 3.536 3.536 3.535-.707.708-3.536-3.536-3.536 3.536-.707-.707 3.536-3.536-3.536-3.536.707-.707 3.536 3.536 3.535-3.536Z"/>
    </symbol>
    <symbol id="caption-manager" viewBox="0 0 24 24">
        <path d="M19 3a2 2 0 0 1 2 2v17l-5-3H5a2 2 0 0 1-2-2V5a2 2 0 0 1 2-2h14Zm0 1H5a1 1 0 0 0-1 1v12a1 1 0 0 0 1 1h11.333L20 20V5a1 1 0 0 0-1-1Zm-6.416 5.735V16h-1.246V9.735h1.246ZM11.96 6a.96.96 0 1 1 0 1.921.96.96 0 0 1 0-1.921Z"/>
    </symbol>
    <symbol id="chat" viewBox="0 0 24 24">
        <path d="M4 7v1a1 1 0 0 0-1 1v11.5L6.333 18H14a1 1 0 0 0 1-1h1a2 2 0 0 1-2 2H6.667L2 22.5V9a2 2 0 0 1 2-2Zm16-5a2 2 0 0 1 2 2v15l-4-3H7a2 2 0 0 1-2-2V4a2 2 0 0 1 2-2h13Zm0 1H7a1 1 0 0 0-1 1v10a1 1 0 0 0 1 1h11.333L21 17V4a1 1 0 0 0-1-1Zm-2 7v1H9v-1h9Zm0-3v1H9V7h9Z"/>
    </symbol>
    <symbol id="children" viewBox="0 0 24 24">
        <path d="M7 12a3 3 0 0 1 1.777 5.418A3.994 3.994 0 0 1 11 21h-1a3 3 0 1 0-6 0H3a4 4 0 0 1 2.223-3.584A3 3 0 0 1 7 12Zm8-9a5 5 0 0 1 2.28 9.45A5.997 5.997 0 0 1 21 18v3h-1v-3a5 5 0 0 0-8.56-3.51l-.432-.97a6.001 6.001 0 0 1 1.711-1.071A5 5 0 0 1 15 3ZM7 13a2 2 0 1 0 0 4 2 2 0 0 0 0-4Zm8-9a4 4 0 1 0 0 8 4 4 0 0 0 0-8Z"/>
    </symbol>
    <symbol id="clean" viewBox="0 0 24 24">
        <path d="M12.5 2A1.5 1.5 0 0 1 14 3.5V6h2.841a3 3 0 0 1 2.865 2.109C20.4 10.339 20.831 12.302 21 14c.22 2.214-.113 4.88-1 8H2c1.333-2.667 2.333-5 3-7 .497-1.492.81-3.54.935-6.145A3 3 0 0 1 8.932 6H11V3.5A1.5 1.5 0 0 1 12.5 2Zm7.185 10.002H6.665c-.17 1.288-.409 2.392-.716 3.314C5.39 16.992 4.608 18.886 3.6 21l3.998.001c1.507-1.755 2.255-3.75 2.255-6.001h1c0 2.357-.54 4.222-1.957 6l3.702.001c1.507-1.755 2.255-3.75 2.255-6.001h1c0 2.357-.54 4.222-1.957 6h5.34c.705-2.693.957-4.995.768-6.901a21.81 21.81 0 0 0-.32-2.097ZM16.842 7h-7.91a2 2 0 0 0-1.998 1.903 41.155 41.155 0 0 1-.152 2.099h12.685a38.677 38.677 0 0 0-.716-2.596A2 2 0 0 0 16.841 7ZM12.5 3a.5.5 0 0 0-.5.5V6h1V3.5a.5.5 0 0 0-.5-.5Z"/>
    </symbol>
    <symbol id="credit" viewBox="0 0 24 24">
        <path d="M20 4a2 2 0 0 1 2 2v12a2 2 0 0 1-2 2H4a2 2 0 0 1-2-2V6a2 2 0 0 1 2-2h16Zm1 6L3 9.999V18a1 1 0 0 0 1 1h16a1 1 0 0 0 1-1v-8Zm-11 2a2 2 0 1 1 0 4H8a2 2 0 1 1 0-4h2Zm0 1H8a1 1 0 1 0 0 2h2a1 1 0 1 0 0-2Zm11-5L3 7.999v1L21 9V8Zm-1-3H4a1 1 0 0 0-1 1v.999L21 7V6a1 1 0 0 0-1-1Z"/>
    </symbol>
    <symbol id="date-end" viewBox="0 0 24 24">
        <path d="M8 2v2h8V2h1v2h2c1.1 0 2 .9 2 2v15c0 .6-.4 1-1 1H4c-.6 0-1-.4-1-1V6c0-1.1.9-2 2-2h2V2h1Zm12 7H4v12h16V9Zm-9 5v5H6v-5h5Zm-1 1H7v3h3v-3Zm9-10H5c-.6 0-1 .4-1 1v2h16V6c0-.6-.4-1-1-1Z"/>
    </symbol>
    <symbol id="date-range" viewBox="0 0 24 24">
        <path d="M8 2v2h8V2h1v2h2c1.1 0 2 .9 2 2v15c0 .6-.4 1-1 1H4c-.6 0-1-.4-1-1V6c0-1.1.9-2 2-2h2V2h1Zm12 7H4v12h16V9ZM9 11v4H5v-4h4Zm5 0v4h-4v-4h4Zm5 0v4h-4v-4h4ZM8 12H6v2h2v-2Zm5 0h-2v2h2v-2Zm5 0h-2v2h2v-2Zm1-7H5c-.6 0-1 .4-1 1v2h16V6c0-.6-.4-1-1-1Z"/>
    </symbol>
    <symbol id="date-start" viewBox="0 0 24 24">
        <path d="M8 2v2h8V2h1v2h2c1.1 0 2 .9 2 2v15c0 .6-.4 1-1 1H4c-.6 0-1-.4-1-1V6c0-1.1.9-2 2-2h2V2h1Zm12 7H4v12h16V9Zm-2 2v5h-5v-5h5Zm-1 1h-3v3h3v-3Zm2-7H5c-.6 0-1 .4-1 1v2h16V6c0-.6-.4-1-1-1Z"/>
    </symbol>
    <symbol id="delete" viewBox="0 0 24 24">
        <path d="M14 2a2 2 0 0 1 2 2h3a1 1 0 0 1 1 1v3a1 1 0 0 1-1 1v11a2 2 0 0 1-2 2H7a2 2 0 0 1-2-2V9a1 1 0 0 1-1-1V5a1 1 0 0 1 1-1h3a2 2 0 0 1 2-2h4Zm4 7H6v11a1 1 0 0 0 1 1h10a1 1 0 0 0 1-1V9Zm-8 2v8H9v-8h1Zm5 0v8h-1v-8h1Zm4-6H5v3h14V5Zm-5-2h-4a1 1 0 0 0-1 1h6a1 1 0 0 0-1-1Z"/>
    </symbol>
    <symbol id="download-file" viewBox="0 0 24 24">
        <path d="M15.5 10a6.5 6.5 0 1 1 0 13 6.5 6.5 0 0 1 0-13Zm0 1a5.5 5.5 0 1 0 0 11 5.5 5.5 0 0 0 0-11ZM17 2a1 1 0 0 1 1 1v6h-1V3H9v5H4v12h4l1 1H4a1 1 0 0 1-1-1V7l5-5h9Zm-1.007 11v5.058l2.3-2.3.707.707L15.464 20l-3.535-3.535.707-.708 2.357 2.357V13h1ZM8 3.414 4.414 7H8V3.414Z"/>
    </symbol>
    <symbol id="dropdown-arrow-collapse" viewBox="0 0 24 24">
        <path d="M11.354 10.414 17 16.061l.707-.707L11.354 9 5 15.354l.707.707 5.647-5.647Z"/>
    </symbol>
    <symbol id="dropdown-arrow-expand" viewBox="0 0 24 24">
        <path d="M11.354 14.646 17 9l.707.707-6.353 6.354L5 9.707 5.707 9l5.647 5.646Z"/>
    </symbol>
    <symbol id="edit" viewBox="0 0 24 24">
        <g clip-path="url(#clip0_216_102273)">
            <path d="M10.309 21.056 2.66 22.34l1.284-7.648L15.742 2.895a2 2 0 0 1 2.828 0l3.536 3.535a2 2 0 0 1 0 2.829L10.308 21.056Zm-5.431-5.883-.999 5.949 5.949-1 8.742-8.742-2.12-2.121-7.779 7.778-.707-.707 7.778-7.778-2.121-2.122-8.743 8.743Zm16.52-8.036-3.535-3.535a1 1 0 0 0-1.414 0l-2.121 2.121 4.95 4.95 2.12-2.121a1 1 0 0 0 0-1.415Z"/>
        </g>
        <defs>
            <clipPath id="clip0-216_102273">
                <path fill="#fff" d="M0 0h24v24H0z"/>
            </clipPath>
        </defs>
    </symbol>
    <symbol id="edit-group" viewBox="0 0 24 24">
        <path d="m21.294 12.634 1.5 2.598a2 2 0 0 1-.732 2.732l-7.615 4.397-7.125.072 3.625-6.134 7.615-4.397a2 2 0 0 1 2.732.732Zm-4.487 1.435-5.133 2.964-2.59 4.382 5.09-.051 5.133-2.964-2.5-4.331ZM7.5 4a4.5 4.5 0 0 1 2.167 8.445 5.514 5.514 0 0 1 2.318 1.871l-.854.525A4.5 4.5 0 0 0 3 17.5V21H2v-3.5a5.502 5.502 0 0 1 3.333-5.057A4.5 4.5 0 0 1 7.5 4Zm11.562 8.768-1.388.8 2.5 4.331 1.388-.8a1 1 0 0 0 .366-1.367l-1.5-2.598a1 1 0 0 0-1.366-.366ZM12.5 2a4.5 4.5 0 0 1 2.167 8.445 5.503 5.503 0 0 1 1.719 1.163l-.88.542A4.483 4.483 0 0 0 13 11.027V9.965a3.5 3.5 0 1 0-2.118-6.57l-1.255-.359A4.482 4.482 0 0 1 12.5 2Zm-5 3a3.5 3.5 0 1 0 0 7 3.5 3.5 0 0 0 0-7Z"/>
    </symbol>
    <symbol id="exit" viewBox="0 0 24 24">
        <path d="m18.646 4.646.708.708L12.708 12l6.646 6.646-.707.707L12 12.708l-6.646 6.646-.708-.707L11.293 12 4.646 5.353l.708-.708 6.645 6.647 6.647-6.647Z"/>
    </symbol>
    <symbol id="favorite" viewBox="0 0 24 24">
        <path d="m12 19-7.054 3.708 1.347-7.854L.587 9.292l7.886-1.146L12 1l3.526 7.146 7.886 1.146-5.706 5.562 1.347 7.854L12 19Zm-5.726 1.88L12 17.87l5.725 3.01-1.094-6.375 4.632-4.515-6.4-.93L12 3.26l-2.863 5.8-6.401.93 4.632 4.515-1.094 6.375Z"/>
    </symbol>
    <symbol id="gift" viewBox="0 0 24 24">
        <path d="M14.5 1a3.5 3.5 0 0 1 3.163 5.001L20 6a2 2 0 0 1 2 2v3a2 2 0 0 1-.999 1.732L21 20a2 2 0 0 1-2 2H4a2 2 0 0 1-2-2v-7.268A2 2 0 0 1 1 11V8a2 2 0 0 1 2-2l2.337.001A3.5 3.5 0 0 1 11.5 2.697 3.495 3.495 0 0 1 14.5 1ZM10 13H3v7a1 1 0 0 0 1 1h6v-8Zm2 0h-1v8h1v-8Zm8 0h-7v8h6a1 1 0 0 0 1-1v-7ZM9 7H3a1 1 0 0 0-1 1v3a1 1 0 0 0 1 1h6V7Zm4 0h-3v5h3V7Zm7 0h-6v5h6a1 1 0 0 0 1-1V8a1 1 0 0 0-1-1Zm-5.5-5A2.5 2.5 0 0 0 12 4.5V5h-1v-.5a2.5 2.5 0 1 0-4.5 1.501h10A2.5 2.5 0 0 0 14.5 2Z"/>
    </symbol>
    <symbol id="gift-association" viewBox="0 0 24 24">
        <path d="M17.5 9a2.5 2.5 0 0 1 2.45 3H20a2 2 0 0 1 2 2v1a2 2 0 0 1-.999 1.732L21 20c0 1.109-.862 2-2.012 2H12a2 2 0 0 1-2-2v-3.268A2 2 0 0 1 9 15v-1a2 2 0 0 1 2-2l.05-.001-.027-.162A2.5 2.5 0 0 1 15.5 10 2.49 2.49 0 0 1 17.5 9Zm2.5 8h-9v3a1 1 0 0 0 1 1h6.988A.997.997 0 0 0 20 20v-3ZM9 2a5 5 0 0 1 4.9 6.001h-1.026a4 4 0 1 0-3.875 3l-1.13 1.127A5.002 5.002 0 0 0 4 17v3H3v-3a6.002 6.002 0 0 1 3.719-5.551A5 5 0 0 1 9 2Zm6 11h-4a1 1 0 0 0-1 1v1a1 1 0 0 0 1 1h4v-3Zm5 0h-4v3h4a1 1 0 0 0 1-1v-1a1 1 0 0 0-1-1Zm-8.95-1.001V12h1.036L12.085 12H11.05ZM17.5 10a1.5 1.5 0 0 0-1.493 1.355L16 11.5v.5h-1v-.5a1.5 1.5 0 1 0-2.961.34l.046.159 6.83.002a1.5 1.5 0 0 0-1.414-2Z"/>
    </symbol>
    <symbol id="gift-cancel" viewBox="0 0 24 24">
        <path d="M16.5 11a5.5 5.5 0 1 1 0 11 5.5 5.5 0 0 1 0-11Zm0 1a4.5 4.5 0 1 0 0 9 4.5 4.5 0 0 0 0-9Zm2.121 1.672.707.707-2.121 2.121 2.121 2.121-.707.707-2.121-2.121-2.121 2.121-.707-.707 2.121-2.121-2.121-2.121.707-.707 2.121 2.121 2.121-2.121ZM12.5 2a2.5 2.5 0 0 1 2 4.001L16 6a2 2 0 0 1 2 2v1c0 .365-.098.707-.268 1.001L16 10a1 1 0 0 0 1-1V8a1 1 0 0 0-1-1h-5v3h3l-2 1H5v6a1 1 0 0 0 1 1h4l1 1H6a2 2 0 0 1-2-2v-6.268A2 2 0 0 1 3 9V8a2 2 0 0 1 2-2l1.5.001a2.5 2.5 0 1 1 4-3 2.49 2.49 0 0 1 2-1.001ZM10 7H5a1 1 0 0 0-1 1v1a1 1 0 0 0 1 1h5V7ZM8.5 3a1.5 1.5 0 1 0 0 3H10V4.5A1.5 1.5 0 0 0 8.5 3Zm4 0a1.5 1.5 0 0 0-1.493 1.356L11 4.5V6h1.5a1.5 1.5 0 0 0 0-3Z"/>
    </symbol>
    <symbol id="gift-open" viewBox="0 0 24 24">
        <path d="M16.5 11a5.5 5.5 0 1 1 0 11 5.5 5.5 0 0 1 0-11Zm0 1a4.5 4.5 0 1 0 0 9 4.5 4.5 0 0 0 0-9Zm2.121 2.672.707.707-3.828 3.828-2.121-2.121.707-.707 1.414 1.413 3.121-3.12ZM12.5 2a2.5 2.5 0 0 1 2 4.001L16 6a2 2 0 0 1 2 2v1c0 .365-.098.707-.268 1.001L16 10a1 1 0 0 0 1-1V8a1 1 0 0 0-1-1h-5v3h3l-2 1H5v6a1 1 0 0 0 1 1h4l1 1H6a2 2 0 0 1-2-2v-6.268A2 2 0 0 1 3 9V8a2 2 0 0 1 2-2l1.5.001a2.5 2.5 0 1 1 4-3 2.49 2.49 0 0 1 2-1.001ZM10 7H5a1 1 0 0 0-1 1v1a1 1 0 0 0 1 1h5V7ZM8.5 3a1.5 1.5 0 1 0 0 3H10V4.5A1.5 1.5 0 0 0 8.5 3Zm4 0a1.5 1.5 0 0 0-1.493 1.356L11 4.5V6h1.5a1.5 1.5 0 0 0 0-3Z"/>
    </symbol>
    <symbol id="gift-preview" viewBox="0 0 24 24">
        <path d="M15 12c3 0 6 2 7 5-1 3-4 5-7 5s-6-2-7-5c1-3 4-5 7-5Zm0 1c-3 0-5.192 2-6 4 .808 2 3 4 6 4s5.192-2 6-4c-.808-2-3-4-6-4Zm0 1a3 3 0 1 1 0 6 3 3 0 0 1 0-6ZM11.5 2a2.5 2.5 0 0 1 2 4.001L15 6a2 2 0 0 1 2 2v1a2 2 0 0 1-2 2H4v6a1 1 0 0 0 1 1h2v1H5a2 2 0 0 1-2-2l-.001-6.268A2 2 0 0 1 2 9V8a2 2 0 0 1 2-2l1.5.001a2.5 2.5 0 1 1 4-3 2.49 2.49 0 0 1 2-1.001ZM15 15a2 2 0 1 0 0 4 2 2 0 0 0 0-4ZM9 7H4a1 1 0 0 0-1 1v1a1 1 0 0 0 1 1h5V7Zm6 0h-5v3h5a1 1 0 0 0 1-1V8a1 1 0 0 0-1-1ZM7.5 3a1.5 1.5 0 1 0 0 3H9V4.5A1.5 1.5 0 0 0 7.5 3Zm4 0a1.5 1.5 0 0 0-1.493 1.356L10 4.5V6h1.5a1.5 1.5 0 0 0 0-3Z"/>
    </symbol>
    <symbol id="gift-site" viewBox="0 0 24 24">
        <path d="M19 5a2 2 0 0 1 2 2v13a2 2 0 0 1-2 2H8a2 2 0 0 1-2-2V7a2 2 0 0 1 2-2h11Zm0 1H8a1 1 0 0 0-1 1v13a1 1 0 0 0 1 1h11a1 1 0 0 0 1-1V7a1 1 0 0 0-1-1Zm-3-4a2 2 0 0 1 2 2h-1a1 1 0 0 0-1-1H5a1 1 0 0 0-1 1v13a1 1 0 0 0 1 1v1a2 2 0 0 1-2-2V4a2 2 0 0 1 2-2h11Zm1.5 5A1.5 1.5 0 0 1 19 8.5v4a1.5 1.5 0 0 1-1.5 1.5h-8A1.5 1.5 0 0 1 8 12.5v-4A1.5 1.5 0 0 1 9.5 7h8Zm0 1h-8a.5.5 0 0 0-.5.5v4a.5.5 0 0 0 .5.5h8a.5.5 0 0 0 .5-.5v-4a.5.5 0 0 0-.5-.5ZM9 16h9v1H9v-1Zm3 2h6v1h-6v-1Z"/>
    </symbol>
    <symbol id="gift-site-cancel" viewBox="0 0 24 24">
        <path d="M16.5 11a5.5 5.5 0 1 1 0 11 5.5 5.5 0 0 1 0-11Zm0 1a4.5 4.5 0 1 0 0 9 4.5 4.5 0 0 0 0-9Zm.5-7a2 2 0 0 1 2 2v3h-1V7a1 1 0 0 0-1-1H8a1 1 0 0 0-1 1v11a1 1 0 0 0 1 1h2.5l.5 1H8a2 2 0 0 1-2-2V7a2 2 0 0 1 2-2h9Zm1.621 8.672.707.707-2.121 2.121 2.121 2.121-.707.707-2.121-2.121-2.121 2.121-.707-.707 2.121-2.121-2.121-2.121.707-.707 2.121 2.121 2.121-2.121ZM14 2a2 2 0 0 1 2 2h-1a1 1 0 0 0-1-1H5a1 1 0 0 0-1 1v11a1 1 0 0 0 1 1v1a2 2 0 0 1-2-2V4a2 2 0 0 1 2-2h9Zm1.5 5A1.5 1.5 0 0 1 17 8.5V10h-1V8.5a.5.5 0 0 0-.5-.5h-6a.5.5 0 0 0-.5.5v3a.5.5 0 0 0 .5.5h2.015l-.743 1H9.5A1.5 1.5 0 0 1 8 11.5v-3A1.5 1.5 0 0 1 9.5 7h6Z"/>
    </symbol>
    <symbol id="gift-timing" viewBox="0 0 24 24">
        <path d="M16.5 11a5.5 5.5 0 1 1 0 11 5.5 5.5 0 0 1 0-11Zm0 1a4.5 4.5 0 1 0 0 9 4.5 4.5 0 0 0 0-9Zm.5 1.5v3.25l2.2 1.65-.6.8-2.6-1.95V13.5h1ZM11.5 1a2.5 2.5 0 0 1 2 4.001L15 5a2 2 0 0 1 2 2v1a2 2 0 0 1-2 2H4v6a1 1 0 0 0 1 1h5v1H5a2 2 0 0 1-2-2l-.001-6.268A2 2 0 0 1 2 8V7a2 2 0 0 1 2-2l1.5.001a2.5 2.5 0 1 1 4-3 2.49 2.49 0 0 1 2-1.001ZM9 6H4a1 1 0 0 0-1 1v1a1 1 0 0 0 1 1h5V6Zm6 0h-5v3h5a1 1 0 0 0 1-1V7a1 1 0 0 0-1-1ZM7.5 2a1.5 1.5 0 1 0 0 3H9V3.5A1.5 1.5 0 0 0 7.5 2Zm4 0a1.5 1.5 0 0 0-1.493 1.356L10 3.5V5h1.5a1.5 1.5 0 0 0 0-3Z"/>
    </symbol>
    <symbol id="group" viewBox="0 0 24 24">
        <path d="M9 3.5c3 0 5.5 2.5 5.5 5.5 0 2.2-1.3 4.1-3.1 5 2.4 1 4.1 3.3 4.1 6.1V22h-1v-1.9c0-3.1-2.5-5.6-5.5-5.6S3.5 17 3.5 20.1V22h-1v-1.9c0-2.8 1.7-5.2 4.1-6.1-1.8-.9-3.1-2.8-3.1-5C3.5 6 6 3.5 9 3.5Zm6.5 9v-1c2.2 0 4-1.8 4-4s-1.8-4-4-4c-.8 0-1.7.3-2.3.7l-.6-.8c.8-.6 1.9-.9 2.9-.9 2.8 0 5 2.2 5 5 0 1.9-1.1 3.6-2.7 4.4 2.2.9 3.7 3 3.7 5.5V20h-1v-2.6c0-2.7-2.2-4.9-5-4.9ZM9 4.5c-2.5 0-4.5 2-4.5 4.5s2 4.5 4.5 4.5 4.5-2 4.5-4.5-2-4.5-4.5-4.5Z"/>
    </symbol>
    <symbol id="hide-password" viewBox="0 0 24 24">
        <path d="m3.707 3 16.97 16.97-.706.708-2.246-2.246C16.027 19.432 14.074 20 12 20c-5 0-9.3-3.3-11-8 .873-2.413 2.431-4.457 4.418-5.875L3 3.707 3.707 3Zm2.438 3.85A11.005 11.005 0 0 0 2.1 12c1.6 4.2 5.6 7 9.9 7 1.76 0 3.468-.469 4.983-1.31l-2.534-2.533A3.976 3.976 0 0 1 12 16c-2.2 0-4-1.8-4-4 0-.92.315-1.771.843-2.45l-2.698-2.7ZM12 4c5 0 9.3 3.3 11 8a12.482 12.482 0 0 1-3.312 4.982l-.713-.715A11.014 11.014 0 0 0 21.9 12c-1.6-4.2-5.6-7-9.9-7-1.25 0-2.473.236-3.62.675l-.777-.778C8.963 4.317 10.448 4 12 4Zm-2.444 6.263A2.964 2.964 0 0 0 9 12c0 1.7 1.3 3 3 3 .663 0 1.265-.198 1.753-.54l-4.197-4.197ZM12 8c2.2 0 4 1.8 4 4 0 .392-.057.771-.164 1.13l-.848-.849c.008-.092.012-.186.012-.281 0-1.7-1.3-3-3-3-.094 0-.187.004-.28.013l-.85-.85A3.969 3.969 0 0 1 12 8Z"/>
    </symbol>
    <symbol id="hourglass" viewBox="0 0 24 24">
        <path d="M6.5 4.268V7c0 1.499.53 2.204 1.723 2.8.118.059.526.248.688.322l.065.03c1.054.495 1.524.95 1.524 1.848 0 .909-.477 1.342-1.554 1.802l-.37.156c-.143.06-.256.11-.363.16C7.033 14.674 6.5 15.4 6.5 17v2.999h11V17c0-1.6-.534-2.327-1.713-2.881-.107-.05-.22-.1-.363-.161l-.37-.156c-1.077-.46-1.554-.893-1.554-1.802 0-.899.47-1.353 1.529-1.85l-.005.002.065-.03c.162-.074.57-.263.688-.322C16.97 9.204 17.5 8.5 17.5 7V4.269l1-.001V7c0 1.917-.77 2.943-2.277 3.695-.14.07-.618.29-.75.351l-.016.007-.01.005.01-.005c-.739.346-.957.556-.957.947 0 .38.204.565.947.883l.367.154c.155.066.278.12.399.177 1.508.71 2.287 1.769 2.287 3.786v2.999L20 20v1H4v-1l1.5-.001V17c0-1.933.715-2.987 2.102-3.696l.185-.09c.12-.057.244-.111.399-.177l.367-.155c.743-.317.947-.502.947-.882 0-.39-.218-.6-.957-.947l.017.008-.007-.003-.027-.012c-.12-.055-.526-.243-.703-.329l-.046-.022C6.27 9.943 5.5 8.917 5.5 7V4.269l1-.001ZM16 18v1H8v-1h8Zm-3-9v1h-2V9h2Zm7-6v1H4V3h16Z"/>
    </symbol>
    <symbol id="load-budget" viewBox="0 0 24 24">
        <path d="M16.5 11a5.5 5.5 0 1 1 0 11 5.5 5.5 0 0 1 0-11Zm0 1a4.5 4.5 0 1 0 0 9 4.5 4.5 0 0 0 0-9Zm.5 2-.001 2H19v1h-2.001L17 19h-1l-.001-2H14v-1h1.999L16 14h1ZM7.5 6.996a.5.5 0 0 1 .5.5v7a1.5 1.5 0 0 0 1.5 1.5h.499v1H9.5a2.5 2.5 0 0 1-2.5-2.5v-7a.5.5 0 0 1 .5-.5ZM9.49 3a2.5 2.5 0 0 1 2.5 2.5v4.996a.5.5 0 0 1-1 0V5.5A1.5 1.5 0 0 0 9.49 4H4v12.497a.5.5 0 0 1-1 0V3h6.49Zm6.019 0a.5.5 0 0 1 .5.5l-.001 6.5h-1V3.5a.5.5 0 0 1 .5-.5Z"/>
    </symbol>
    <symbol id="location" viewBox="0 0 24 24">
        <path d="M12 2.5c4.034 0 7.5 2.836 7.5 7.5 0 3.512-2.41 7.241-7.18 11.213l-.32.266-.32-.266C6.91 17.24 4.5 13.513 4.5 10c0-4.664 3.466-7.5 7.5-7.5Zm0 1c-3.521 0-6.5 2.437-6.5 6.5 0 3.08 2.15 6.48 6.5 10.175C16.35 16.48 18.5 13.08 18.5 10c0-4.063-2.979-6.5-6.5-6.5Zm0 4a2.5 2.5 0 1 1 0 5 2.5 2.5 0 0 1 0-5Zm0 1a1.5 1.5 0 1 0 0 3 1.5 1.5 0 0 0 0-3Z"/>
    </symbol>
    <symbol id="lock" viewBox="0 0 24 24">
        <path d="M12 2a5 5 0 0 1 5 5v2h2a2 2 0 0 1 2 2v9a2 2 0 0 1-2 2H5a2 2 0 0 1-2-2v-9a2 2 0 0 1 2-2h2V7a5 5 0 0 1 5-5Zm7 8H5a1 1 0 0 0-1 1v9a1 1 0 0 0 1 1h14a1 1 0 0 0 1-1v-9a1 1 0 0 0-1-1Zm-7 3a2 2 0 0 1 2 2v2a2 2 0 1 1-4 0v-2a2 2 0 0 1 2-2Zm0 1a1 1 0 0 0-1 1v2a1 1 0 1 0 2 0v-2a1 1 0 0 0-1-1Zm0-11a4 4 0 0 0-4 4v2h8V7a4 4 0 0 0-4-4Z"/>
    </symbol>
    <symbol id="mail" viewBox="0 0 24 24">
        <path d="M20 5a2 2 0 0 1 2 2v11a2 2 0 0 1-2 2H4a2 2 0 0 1-2-2V7a2 2 0 0 1 2-2h16Zm.864 1.496L12 14.374 3.136 6.496A.995.995 0 0 0 3 7v11c0 .09.012.176.034.259l3.294-3.295.708.708-3.295 3.294c.083.022.17.034.259.034h16l-3.328-3.328.707-.708 3.504 3.505c.075-.14.117-.3.117-.469V7a.996.996 0 0 0-.136-.504ZM19.914 6H4.085L12 13.036 19.914 6Z"/>
    </symbol>
    <symbol id="manager" viewBox="0 0 24 24">
        <path d="M12 2a6 6 0 0 1 2.57 11.423A8.001 8.001 0 0 1 20 21h-1a7.002 7.002 0 0 0-5.974-6.925L15 20l-3 3-3-3 1.975-5.925A7.002 7.002 0 0 0 5 21H4a8.004 8.004 0 0 1 5.43-7.578A6 6 0 0 1 12 2Zm0 12.162-1.856 5.568L12 21.586l1.856-1.856L12 14.162ZM12 3a5 5 0 1 0 0 10 5 5 0 0 0 0-10Z"/>
    </symbol>
    <symbol id="mobile" viewBox="0 0 24 24">
        <path d="M18 2a2 2 0 0 1 2 2v16a2 2 0 0 1-2 2H7a2 2 0 0 1-2-2V4a2 2 0 0 1 2-2h11Zm.999 16h-13L6 20a1 1 0 0 0 1 1h11a1 1 0 0 0 1-1l-.001-2ZM14 19v1h-3v-1h3ZM7 3a1 1 0 0 0-1 1v2h13v1H6l-.001 10h13L19 4a1 1 0 0 0-1-1H7Zm8 1v1h-5V4h5Z"/>
    </symbol>
    <symbol id="mobile-menu" viewBox="0 0 24 24">
        <path d="M22 20v1H2v-1h20Zm0-8v1H2v-1h20Zm0-8v1H2V4h20Z"/>
    </symbol>
    <symbol id="money" viewBox="0 0 24 24">
        <path d="M20 4a2 2 0 0 1 2 2v12a2 2 0 0 1-2 2H4a2 2 0 0 1-2-2V6a2 2 0 0 1 2-2h16Zm0 1H4a1 1 0 0 0-1 1v12a1 1 0 0 0 1 1h16a1 1 0 0 0 1-1V6a1 1 0 0 0-1-1Zm-3.491 2a.5.5 0 0 1 .5.5v9.497H12.5a2.5 2.5 0 0 1-2.5-2.5v-4a.5.5 0 1 1 1 0v4a1.5 1.5 0 0 0 1.5 1.5h3.509V7.5a.5.5 0 0 1 .5-.5Zm-5.02 0a2.5 2.5 0 0 1 2.5 2.5v3.996a.5.5 0 0 1-1 0V9.5a1.5 1.5 0 0 0-1.5-1.5H8v8.497a.5.5 0 0 1-1 0V7h4.49Z"/>
    </symbol>
    <symbol id="more-details" viewBox="0 0 24 24">
        <path d="M12 2c5.5 0 10 4.5 10 10s-4.5 10-10 10S2 17.5 2 12 6.5 2 12 2Zm0 1c-5 0-9 4-9 9s4 9 9 9 9-4 9-9-4-9-9-9Zm.584 7.735V18h-1.246v-7.265h1.246ZM11.96 7a.96.96 0 1 1 0 1.921.96.96 0 0 1 0-1.921Z"/>
    </symbol>
    <symbol id="nis" viewBox="0 0 24 24">
        <path d="M10.49 4a4.5 4.5 0 0 1 4.5 4.5v6a.5.5 0 0 1-1 0v-6a3.5 3.5 0 0 0-3.5-3.5H5v14.5a.5.5 0 0 1-1 0V4h6.49Zm9 0a.5.5 0 0 1 .5.5V20H13.5A4.5 4.5 0 0 1 9 15.5v-6a.5.5 0 0 1 1 0v6a3.5 3.5 0 0 0 3.5 3.5h5.49V4.5a.5.5 0 0 1 .5-.5Z"/>
    </symbol>
    <symbol id="no-budget" viewBox="0 0 24 24">
        <path d="M16.5 10a6 6 0 1 1 0 12 6 6 0 0 1 0-12Zm0 1a5 5 0 1 0 0 10 5 5 0 0 0 0-10Zm0 7a1 1 0 1 1 0 2 1 1 0 0 1 0-2Zm0-6a.83.83 0 0 1 .83.83l-.002.067-.288 3.605a.542.542 0 0 1-1.08 0l-.288-3.605a.83.83 0 0 1 .762-.894L16.5 12ZM9.49 3a2.5 2.5 0 0 1 2.5 2.5l-.001 4.444-1 .019V5.5A1.5 1.5 0 0 0 9.49 4H4v12.497a.5.5 0 0 1-1 0V3h6.49ZM7.5 6.996a.5.5 0 0 1 .5.5v7a1.5 1.5 0 0 0 1 1.415v1.036a2.5 2.5 0 0 1-2-2.45v-7a.5.5 0 0 1 .5-.5ZM15.509 3a.5.5 0 0 1 .5.5L16.008 9h-1V3.5a.5.5 0 0 1 .5-.5Z"/>
    </symbol>
    <symbol id="pagination-arrow-next" viewBox="0 0 24 24">
        <path d="M14.99 5.707 14.281 5l-6.717 6.717 6.717 6.718.707-.707-6.01-6.01 6.01-6.01Z"/>
    </symbol>
    <symbol id="pagination-arrow-prev" viewBox="0 0 24 24">
        <path d="M9.01 5.707 9.719 5l6.717 6.717-6.717 6.718-.707-.707 6.01-6.01-6.01-6.01Z"/>
    </symbol>
    <symbol id="pagination-double-arrow-next" viewBox="0 0 24 24">
        <path d="m16.282 5-6.717 6.717 6.717 6.718.707-.707-6.01-6.01 6.01-6.01L16.282 5Zm-4 0-6.717 6.717 6.717 6.718.707-.707-6.01-6.01 6.01-6.01L12.282 5Z"/>
    </symbol>
    <symbol id="pagination-double-arrow-prev" viewBox="0 0 24 24">
        <path d="m7.718 5 6.717 6.717-6.717 6.718-.707-.707 6.01-6.01-6.01-6.01L7.718 5Zm4 0 6.717 6.717-6.717 6.718-.707-.707 6.01-6.01-6.01-6.01.707-.708Z"/>
    </symbol>
    <symbol id="phone" viewBox="0 0 24 24">
        <path d="M6.083 3c1.511 0 3.198 1.484 3.7 2.991.555 1.478.186 2.977-1.016 4.178-.233.218.526 1.682 1.847 3.078 1.369 1.447 2.736 2.21 3.03 1.917.951-1.046 2.362-1.482 3.717-1.12 1.697.399 3.367 2.098 3.456 3.8 0 .977-.496 1.756-1.514 2.778-.113.114-.5.493-.585.578-1.134 1.053-3.091.893-5.204.1-4.759-1.804-9.035-6.19-10.89-11.079-.8-2.135-.936-4.084.215-5.234.09-.08.184-.17.303-.289.057-.055.275-.274.327-.325C4.427 3.424 5.106 3 6.083 3Zm0 1c-.635 0-1.126.307-1.91 1.084l-.328.326c-.13.128-.234.228-.318.302-.75.75-.636 2.37.034 4.156 1.753 4.623 5.821 8.796 10.306 10.497 1.773.665 3.42.8 4.157.115.078-.077.463-.455.57-.563.843-.847 1.223-1.444 1.224-2.047-.063-1.196-1.393-2.549-2.7-2.857-1.003-.267-2.031.05-2.75.84-.94.94-2.71-.048-4.48-1.918C8.15 12.1 7.2 10.264 8.073 9.449c.919-.919 1.186-2.007.768-3.124C8.458 5.177 7.12 4 6.083 4ZM13 2c4.703 0 8.5 3.788 8.5 8.5h-1C20.5 6.341 17.151 3 13 3V2Zm0 4c2.495 0 4.5 1.998 4.5 4.5h-1C16.5 8.551 14.943 7 13 7V6Z"/>
    </symbol>
    <symbol id="pic" viewBox="0 0 24 24">
        <path d="M13.531 3a2 2 0 0 1 1.526.707L17 6h2a3 3 0 0 1 3 3v9a3 3 0 0 1-3 3H5a3 3 0 0 1-3-3V9a3 3 0 0 1 3-3h1.808L8.4 3.82A2 2 0 0 1 10.015 3h3.516Zm0 1h-3.516a1 1 0 0 0-.807.41L7.315 7H5a2 2 0 0 0-2 2v9a2 2 0 0 0 2 2h14a2 2 0 0 0 2-2V9a2 2 0 0 0-2-2h-2.463l-2.243-2.646A1 1 0 0 0 13.531 4ZM12 9a4 4 0 1 1 0 8 4 4 0 0 1 0-8Zm0 1a3 3 0 1 0 0 6 3 3 0 0 0 0-6Zm-6 1a1 1 0 1 0 0-2 1 1 0 0 0 0 2Z"/>
    </symbol>
    <symbol id="price-tag" viewBox="0 0 24 24">
        <path d="M1.368 1.162 3.836 3.63l9.8-.1 8.238 8.239a2 2 0 0 1 0 2.828l-7.778 7.778a2 2 0 0 1-2.828 0L3.03 14.137l.099-9.8L.66 1.869l.707-.707Zm11.858 3.373-8.4.085 2.245 2.243a2 2 0 1 1-.708.708L4.119 5.327l-.085 8.4 6.094 6.094 8.357-8.356.707.707-8.357 8.356 1.14 1.14a1 1 0 0 0 1.414 0l7.778-7.778a1 1 0 0 0 0-1.414l-7.94-7.94ZM7.38 7.88a1 1 0 1 0 1.414 1.414A1 1 0 0 0 7.379 7.88Z"/>
    </symbol>
    <symbol id="printer" viewBox="0 0 24 24">
        <path d="M18 3v3h1a3 3 0 0 1 3 3v6a3 3 0 0 1-3 3v4H5v-4a3 3 0 0 1-3-3V9a3 3 0 0 1 3-3h1V3h12Zm0 12H6v6h12v-6Zm-2 4v1H8v-1h8Zm0-2v1H8v-1h8Zm3-10H5a2 2 0 0 0-2 2v6a2 2 0 0 0 2 2v-3h14v3a2 2 0 0 0 2-2V9a2 2 0 0 0-2-2Zm0 2v1h-4V9h4Zm-2-5H7v2h10V4Z"/>
    </symbol>
    <symbol id="question" viewBox="0 0 24 24">
        <path d="M12 2c5.5 0 10 4.5 10 10s-4.5 10-10 10S2 17.5 2 12 6.5 2 12 2Zm0 1c-5 0-9 4-9 9s4 9 9 9 9-4 9-9-4-9-9-9Zm-.055 13.11c.302 0 .535.09.7.273.164.182.246.443.246.781 0 .339-.084.6-.25.785-.167.185-.396.278-.688.278-.291 0-.522-.086-.691-.258-.17-.172-.254-.438-.254-.797 0-.709.312-1.063.937-1.063Zm.426-9.696c1.034 0 1.827.245 2.379.734.552.49.828 1.18.828 2.07 0 .693-.2 1.303-.601 1.829-.193.25-.62.664-1.282 1.242-.526.448-.873.822-1.043 1.121-.169.3-.254.694-.254 1.184v.258h-1.007v-.422c0-.61.093-1.11.28-1.5.183-.39.532-.808 1.048-1.25.713-.604 1.161-1.058 1.344-1.36.182-.302.273-.664.273-1.086 0-.53-.17-.941-.512-1.23-.34-.29-.832-.434-1.472-.434-.422 0-.827.048-1.215.145-.388.096-.832.272-1.332.527l-.461-1.055c.984-.515 1.993-.773 3.027-.773Z"/>
    </symbol>
    <symbol id="quick-add" viewBox="0 0 24 24">
        <path d="m21.94 7-2.242 7.037H23L14.06 23l2.242-7.037H13L21.94 7Zm-2.119 3.485L15.318 15h2.3l-1.44 4.515L20.683 15h-2.3l1.44-4.515ZM10.5 1.5a9.003 9.003 0 0 1 8.462 5.928l-.94.342A8.003 8.003 0 0 0 2.5 10.5a8 8 0 0 0 10.935 7.445l.367.93A9 9 0 1 1 10.5 1.5ZM11 6v4h4v1h-4v4h-1v-4.001L6 11v-1l4-.001V6h1Z"/>
    </symbol>
    <symbol id="quick-send" viewBox="0 0 24 24">
        <path d="m21.94 7-2.242 7.037H23L14.06 23l2.242-7.037H13L21.94 7ZM10.5 2l4.482 10.018-.757.756L10.5 4.449 3.766 19.502 10 17.86V12h1v5.861l2.494.656-.317.951-2.677-.703L2 21l8.5-19Zm9.321 8.485L15.318 15h2.3l-1.44 4.515L20.683 15h-2.3l1.44-4.515Z"/>
    </symbol>
    <symbol id="rearrange" viewBox="0 0 24 24">
        <path d="M15 10v1h-3a1 1 0 0 0-1 1v8a1 1 0 0 0 1 1h8a1 1 0 0 0 1-1v-8a1 1 0 0 0-1-1v-1a2 2 0 0 1 2 2v8a2 2 0 0 1-2 2h-8a2 2 0 0 1-2-2v-8a2 2 0 0 1 2-2h3ZM3 12v1a1 1 0 0 0 1 1v1a2 2 0 0 1-2-2v-1h1Zm5 2v1H5v-1h3Zm4.536-12.035.707.707L10.914 5h5.121a2 2 0 0 1 2 2v7l-1-1V7a1 1 0 0 0-1-1h-5.12l2.328 2.329-.707.707L9 5.5l3.536-3.535ZM3 9v2H2V9h1Zm0-3v2H2V6h1Zm2-3v1H4a1 1 0 0 0-1 1H2a2 2 0 0 1 2-2h1Zm4 0L8 4H6V3h3Z"/>
    </symbol>
    <symbol id="report" viewBox="0 0 24 24">
        <path d="M12 2.5a1.5 1.5 0 0 0-1.493 1.356L10.5 4h-1a2.5 2.5 0 0 1 4.995-.164L14.5 4H19a2 2 0 0 1 2 2v14a2 2 0 0 1-2 2H5a2 2 0 0 1-2-2V6a2 2 0 0 1 2-2h8.5A1.5 1.5 0 0 0 12 2.5ZM19 5H5a1 1 0 0 0-1 1v14a1 1 0 0 0 1 1h14a1 1 0 0 0 1-1V6a1 1 0 0 0-1-1Zm-5 12v1H7v-1h7Zm3-4v1H7v-1h10Zm0-4v1H7V9h10Z"/>
    </symbol>
    <symbol id="resend" viewBox="0 0 24 24">
        <path d="M22.374 3.102v.99l-6.47-.002C18.927 5.684 21 8.862 21 12.5c0 5.225-4.275 9.5-9.5 9.5S2 17.725 2 12.5c0-4.715 3.481-8.656 8-9.38v1.01c-3.997.7-7 4.16-7 8.37 0 4.723 3.778 8.5 8.5 8.5 4.722 0 8.5-3.777 8.5-8.5a8.464 8.464 0 0 0-4.838-7.683v6.628h-.99V3.102h8.202Z"/>
    </symbol>
    <symbol id="resend-gift" viewBox="0 0 24 24">
        <path d="M12.058 12.806v3.163l1.706-1.705a4.5 4.5 0 1 1 .167 6.523l-.167-.16-.354-.353.274-.274.433-.433.354.353.082.08a3.5 3.5 0 1 0-.082-5.03l-1.891 1.891h3.478v.945h-5v-5h1ZM12.5 2a2.5 2.5 0 0 1 2 4H17a2 2 0 0 1 2 2v1a2 2 0 0 1-1 1.732V12h-1v-1H4v7a1 1 0 0 0 1 1h4l1 1H5a2 2 0 0 1-2-2v-7.268A2 2 0 0 1 2 9V8a2 2 0 0 1 2-2h2.5a2.5 2.5 0 0 1 4-3c.456-.607 1.182-1 2-1ZM10 7H4a1 1 0 0 0-1 1v1a1 1 0 0 0 1 1h6V7Zm7 0h-6v3h6a1 1 0 0 0 1-1V8a1 1 0 0 0-1-1Zm-4.5-4A1.5 1.5 0 0 0 11 4.5V6h1.5a1.5 1.5 0 0 0 0-3Zm-4 0a1.5 1.5 0 1 0 0 3H10V4.5A1.5 1.5 0 0 0 8.5 3Z"/>
    </symbol>
    <symbol id="save-budget" viewBox="0 0 24 24">
        <path d="M20.509 14a.5.5 0 0 1 .5.5v6.497H18.5a2.5 2.5 0 0 1-2.5-2.5v-2a.5.5 0 1 1 1 0v2a1.5 1.5 0 0 0 1.5 1.5h1.509V14.5a.5.5 0 0 1 .5-.5Zm-4.02 0a2.5 2.5 0 0 1 2.5 2.5v1.997a.5.5 0 0 1-1 0V16.5a1.5 1.5 0 0 0-1.5-1.5H15v5.497a.5.5 0 0 1-1 0V14h2.49ZM11 2a4 4 0 0 1 4 4v2h2a2 2 0 0 1 2 2v3h-1v-3a1 1 0 0 0-1-1H5a1 1 0 0 0-1 1v8a1 1 0 0 0 1 1h8v1H5a2 2 0 0 1-2-2v-8a2 2 0 0 1 2-2h2V6a4 4 0 0 1 4-4Zm-.5 10a.5.5 0 0 1 .5.5v3a.5.5 0 0 1-1 0v-3a.5.5 0 0 1 .5-.5Zm.5-9a3 3 0 0 0-3 3v2h6V6a3 3 0 0 0-3-3Z"/>
    </symbol>
    <symbol id="search" viewBox="0 0 24 24">
        <path d="M10.5 2a8.5 8.5 0 0 1 6.353 14.147l4.975 4.974-.707.707-4.974-4.975A8.5 8.5 0 1 1 10.5 2Zm0 1a7.5 7.5 0 1 0 0 15 7.5 7.5 0 0 0 0-15Z"/>
    </symbol>
    <symbol id="send" viewBox="0 0 24 24">
        <path d="m21.8 2-6.3 19.8-5.4-8.1L2 8.4 21.8 2Zm-1.5 1.6-16 5.1 6.1 4 5.4-5.4.8.7-5.4 5.4 4 6.1 5.1-15.9Z"/>
    </symbol>
    <symbol id="settings" viewBox="0 0 24 24">
        <path d="M8.5 16a2.5 2.5 0 0 1 2.45 2H21v1H10.95a2.5 2.5 0 0 1-4.9 0H3v-1h3.05a2.5 2.5 0 0 1 2.45-2Zm0 1a1.5 1.5 0 1 0 0 3 1.5 1.5 0 0 0 0-3Zm7-8a2.5 2.5 0 0 1 2.45 2H21v1h-3.05a2.5 2.5 0 0 1-4.9 0H3v-1h10.05a2.5 2.5 0 0 1 2.45-2Zm0 1a1.5 1.5 0 1 0 0 3 1.5 1.5 0 0 0 0-3Zm-7-8a2.5 2.5 0 0 1 2.45 2H21v1H10.95a2.5 2.5 0 0 1-4.9 0H3V4h3.05A2.5 2.5 0 0 1 8.5 2Zm0 1a1.5 1.5 0 1 0 0 3 1.5 1.5 0 0 0 0-3Z"/>
    </symbol>
    <symbol id="show-password" viewBox="0 0 24 24">
        <path d="M12 4c5 0 9.3 3.3 11 8-1.7 4.7-6 8-11 8s-9.3-3.3-11-8c1.7-4.7 6-8 11-8Zm0 1c-4.3 0-8.3 2.8-9.9 7 1.6 4.2 5.6 7 9.9 7 4.3 0 8.3-2.8 9.9-7-1.6-4.2-5.6-7-9.9-7Zm0 3c2.2 0 4 1.8 4 4s-1.8 4-4 4-4-1.8-4-4 1.8-4 4-4Zm0 1c-1.6 0-3 1.3-3 3s1.3 3 3 3 3-1.3 3-3-1.3-3-3-3Z"/>
    </symbol>
    <symbol id="time" viewBox="0 0 24 24">
        <path d="M12 2c5.5 0 10 4.5 10 10s-4.5 10-10 10S2 17.5 2 12 6.5 2 12 2Zm0 1c-5 0-9 4-9 9s4 9 9 9 9-4 9-9-4-9-9-9Zm0 3v5.8l3.9 3.8-.8.8-4.1-4.2V6h1Z"/>
    </symbol>
    <symbol id="transfer-from" viewBox="0 0 24 24">
        <path d="M6 12v7a1 1 0 0 0 1 1h5v1H7a2 2 0 0 1-2-2v-7h1Zm14.509 2a.5.5 0 0 1 .5.5v6.496H18.5a2.5 2.5 0 0 1-2.5-2.5v-2a.5.5 0 0 1 1 0v2a1.5 1.5 0 0 0 1.5 1.5h1.509V14.5a.5.5 0 0 1 .5-.5Zm-4.02 0a2.5 2.5 0 0 1 2.5 2.5v1.996a.5.5 0 1 1-1 0V16.5a1.5 1.5 0 0 0-1.5-1.5H15v5.496a.5.5 0 1 1-1 0V14h2.49ZM19 5a2 2 0 0 1 2 2v5h-1V7a1 1 0 0 0-1-1h-7V5h7Zm-8.929-1.998v.995H4.784l7.146 7.145-.726.725-7.18-7.18.002 5.301H3V3.002h7.071Z"/>
    </symbol>
    <symbol id="transfer-to" viewBox="0 0 24 24">
        <path d="M6 14v5a1 1 0 0 0 1 1h5v1H7a2 2 0 0 1-2-2v-5h1Zm14.51 0a.5.5 0 0 1 .5.5v6.495H18.5a2.5 2.5 0 0 1-2.5-2.5v-2a.5.5 0 0 1 1 0v2a1.5 1.5 0 0 0 1.5 1.5h1.51V14.5a.5.5 0 0 1 .5-.5Zm-4.02 0a2.5 2.5 0 0 1 2.5 2.5v1.995a.5.5 0 1 1-1 0V16.5a1.5 1.5 0 0 0-1.5-1.5H15v5.496a.5.5 0 1 1-1 0V14h2.49ZM19 5a2 2 0 0 1 2 2v5h-1V7a1 1 0 0 0-1-1h-5V5h5ZM2.866 2.161l7.18 7.18-.001-5.301h1.025v6.986H4v-.995h5.286L2.141 2.887l.725-.725Z"/>
    </symbol>
    <symbol id="upload-file" viewBox="0 0 24 24">
        <path d="M15.5 10a6.5 6.5 0 1 1 0 13 6.5 6.5 0 0 1 0-13Zm0 1a5.5 5.5 0 1 0 0 11 5.5 5.5 0 0 0 0-11ZM17 2a1 1 0 0 1 1 1v6h-1V3H9v5H4v12h4l1 1H4a1 1 0 0 1-1-1V7l5-5h9Zm-1.464 11 3.535 3.535-.707.708-2.357-2.357V20h-1v-5.058l-2.3 2.3-.707-.707L15.536 13ZM8 3.414 4.414 7H8V3.414Z"/>
    </symbol>
    <symbol id="user" viewBox="0 0 24 24">
        <path d="M12 2.5a6.5 6.5 0 0 1 2.668 12.429 8.5 8.5 0 0 1 5.767 7.016l-.992.123a7.501 7.501 0 0 0-14.889.023l-.992-.12a8.502 8.502 0 0 1 5.77-7.043A6.5 6.5 0 0 1 12 2.5Zm0 1a5.5 5.5 0 1 0 0 11 5.5 5.5 0 0 0 0-11Z"/>
    </symbol>
    <symbol id="video" viewBox="0 0 24 24">
        <path d="M21 20v1H3v-1h18ZM19 4a3 3 0 0 1 3 3v8a3 3 0 0 1-3 3H5a3 3 0 0 1-3-3V7a3 3 0 0 1 3-3h14Zm0 1H5a2 2 0 0 0-2 2v8a2 2 0 0 0 2 2h14a2 2 0 0 0 2-2V7a2 2 0 0 0-2-2Zm-9 2 6 4-6 4V7Zm.942 1.722v4.556L14.358 11l-3.416-2.278Z"/>
    </symbol>
    <symbol id="view-mail" viewBox="0 0 24 24">
        <path d="M15 12c3 0 6 2 7 5-1 3-4 5-7 5s-6-2-7-5c1-3 4-5 7-5Zm0 1c-3 0-5.192 2-6 4 .808 2 3 4 6 4s5.192-2 6-4c-.808-2-3-4-6-4Zm0 1a3 3 0 1 1 0 6 3 3 0 0 1 0-6Zm0 1a2 2 0 1 0 0 4 2 2 0 0 0 0-4Zm3-11a2 2 0 0 1 2 2v6l-1-1V6a.995.995 0 0 0-.134-.5L11 11.4 3.134 5.5A.995.995 0 0 0 3 6v10a1 1 0 0 0 1 1h2l.499 1H4a2 2 0 0 1-2-2V6a2 2 0 0 1 2-2h14Zm-.135 1H4.135L11 10.15 17.865 5Z"/>
    </symbol>
    <symbol id="view-report" viewBox="0 0 24 24">
        <path d="M15 12c3 0 6 2 7 5-1 3-4 5-7 5s-6-2-7-5c1-3 4-5 7-5Zm0 1c-3 0-5.192 2-6 4 .808 2 3 4 6 4s5.192-2 6-4c-.808-2-3-4-6-4Zm0 1a3 3 0 1 1 0 6 3 3 0 0 1 0-6ZM10 2a2.5 2.5 0 0 1 2.45 2H15a2 2 0 0 1 2 2v5h-1V6a1 1 0 0 0-1-1H5a1 1 0 0 0-1 1v11a1 1 0 0 0 1 1h2v1H5a2 2 0 0 1-2-2V6a2 2 0 0 1 2-2h2.55A2.5 2.5 0 0 1 10 2Zm5 13a2 2 0 1 0 0 4 2 2 0 0 0 0-4Zm-3-5v1H6v-1h6Zm2-2v1H6V8h8Zm-4-5a1.5 1.5 0 0 0-1.415 1h2.83A1.5 1.5 0 0 0 10 3Z"/>
    </symbol>
    <symbol id="whatsapp" viewBox="0 0 24 24">
        <path fill-rule="evenodd" clip-rule="evenodd"
              d="m7.918 19.396-.376-.207-3.96 1.259 1.287-3.796-.243-.399a8.64 8.64 0 0 1-1.262-4.51C3.364 6.922 7.304 3 12.182 3 17.06 3 21 6.921 21 11.743c0 4.82-3.94 8.742-8.818 8.742a8.825 8.825 0 0 1-4.264-1.089Zm-4.146-2.623L2 22l5.436-1.728a9.825 9.825 0 0 0 4.746 1.213c5.423 0 9.818-4.363 9.818-9.742C22 6.362 17.605 2 12.182 2s-9.818 4.362-9.818 9.743a9.64 9.64 0 0 0 1.408 5.03Zm7.971-7.477c.119.237.29.718.016 1.263a2.732 2.732 0 0 1-.386.601c.175.244.42.546.712.806.428.378.784.575 1.066.706l.274-.347c.18-.27.484-.545.938-.596.324-.037.608.068.696.1l.013.005c.158.057.528.233.81.368.316.151.633.307.743.36l.002.002.1.048.033.016c.044.021.103.05.162.082.088.048.346.188.52.475v.001c.145.238.164.488.17.562v.002c.01.127.007.26-.004.39a3.636 3.636 0 0 1-.204.903c-.204.569-.706.961-1.036 1.174-.722.438-1.309.548-2.04.548-.511 0-1.119-.233-2.202-.655-1.273-.498-2.272-1.375-2.947-2.102a11.34 11.34 0 0 1-1.107-1.403 6.078 6.078 0 0 1-.564-.898c-.236-.46-.502-1.134-.502-1.878 0-1.369.716-2.125.965-2.388.243-.256.532-.43.869-.533.29-.087.582-.12.884-.132.05-.002.389-.014.724.186.343.204.541.527.669.833l.626 1.501Zm4.439 4.162.116.057c.147.07.247.118.29.189.052.087.052.508-.125.999-.176.491-1.43 1-1.43 1s-.388.316-2.543-.526c-1.992-.778-3.304-2.711-3.574-3.11l-.046-.065c-.105-.14-.864-1.14-.864-2.174 0-.968.48-1.476.7-1.709l.041-.044c.194-.21.619-.263.619-.263s.228-.037.352-.037h.013c.123 0 .294 0 .463.405l.233.559c.183.442.386.932.421 1.002.054.105.089.227.018.368l-.03.06a1.197 1.197 0 0 1-.182.291l-.11.13a3.56 3.56 0 0 1-.208.238c-.105.105-.216.22-.093.43.124.21.55.897 1.18 1.455.678.6 1.268.854 1.566.982.057.024.103.044.138.061.212.105.335.088.458-.052.124-.14.53-.614.672-.825.14-.21.282-.175.476-.105.194.07 1.237.58 1.449.684Z"/>
    </symbol>
    <symbol id="sms" viewBox="0 0 31 31">
        <path d="M8 23V26C8 26.5523 8.44772 27 9 27H19C19.5523 27 20 26.5523 20 26V23H8ZM14 24C14.5523 24 15 24.4477 15 25C15 25.5523 14.5523 26 14 26C13.4477 26 13 25.5523 13 25C13 24.4477 13.4477 24 14 24ZM24 9C25.6569 9 27 10.3431 27 12V15C27 16.6569 25.6569 18 24 18H21L17 20V18C15.3431 18 14 16.6569 14 15V12C14 10.3431 15.3431 9 17 9H24ZM24 10H17C15.8954 10 15 10.8954 15 12V15C15 16.1046 15.8954 17 17 17H18V18.382L20.7639 17H24C25.1046 17 26 16.1046 26 15V12C26 10.8954 25.1046 10 24 10ZM21.5 14C21.7761 14 22 14.2239 22 14.5C22 14.7761 21.7761 15 21.5 15H17.5C17.2239 15 17 14.7761 17 14.5C17 14.2239 17.2239 14 17.5 14H21.5ZM23.5 12C23.7761 12 24 12.2239 24 12.5C24 12.7761 23.7761 13 23.5 13H17.5C17.2239 13 17 12.7761 17 12.5C17 12.2239 17.2239 12 17.5 12H23.5ZM15.5 5C15.7761 5 16 5.22386 16 5.5C16 5.77614 15.7761 6 15.5 6H12.5C12.2239 6 12 5.77614 12 5.5C12 5.22386 12.2239 5 12.5 5H15.5ZM8 22H20V20H21V26C21 27.1046 20.1046 28 19 28H9C7.89543 28 7 27.1046 7 26V5C7 3.89543 7.89543 3 9 3H19C20.1046 3 21 3.89543 21 5V8H8V22ZM8 7H20V5C20 4.44772 19.5523 4 19 4H9C8.44772 4 8 4.44772 8 5V7Z"/>
    </symbol>
    <symbol id="website" viewBox="-1 0 22 22">
        <path d="M10.207 0.916016C4.68424 0.916016 0.207031 5.39323 0.207031 10.916C0.207031 16.4388 4.68424 20.916 10.207 20.916C15.7298 20.916 20.207 16.4388 20.207 10.916C20.2008 5.39583 15.7272 0.922201 10.207 0.916016ZM18.8556 14.4193L16.0117 14.91C16.3372 13.7161 16.513 12.4865 16.535 11.2493H19.5321C19.4945 12.3376 19.2655 13.4106 18.8556 14.4193ZM0.881999 11.2493H3.87907C3.90104 12.4865 4.07682 13.7161 4.40234 14.91L1.55843 14.4193C1.1486 13.4106 0.919596 12.3376 0.881999 11.2493ZM1.55843 7.41276L4.40234 6.92204C4.07682 8.11589 3.90104 9.34554 3.87907 10.5827H0.881999C0.919596 9.49447 1.1486 8.42139 1.55843 7.41276ZM10.5404 6.26807C11.7381 6.28337 12.9329 6.39242 14.1138 6.5944L15.2904 6.79736C15.6519 8.02751 15.8464 9.30062 15.8687 10.5827H10.5404V6.26807ZM14.2274 5.93734C13.0091 5.72917 11.7762 5.6167 10.5404 5.6014V1.6014C12.4513 1.78499 14.1113 3.53467 15.0521 6.08105L14.2274 5.93734ZM9.8737 5.6014C8.63786 5.6167 7.40527 5.72917 6.18701 5.93734L5.36198 6.08008C6.30273 3.53304 7.96273 1.78271 9.8737 1.59993V5.6014ZM6.30062 6.5944C7.48128 6.39242 8.67594 6.28337 9.8737 6.26807V10.5827H4.54541C4.56771 9.30062 4.76221 8.02751 5.1237 6.79736L6.30062 6.5944ZM4.54541 11.2493H9.8737V15.564C8.67594 15.5487 7.48112 15.4396 6.30029 15.2376L5.1237 15.0347C4.76221 13.8045 4.56771 12.5314 4.54541 11.2493ZM6.18669 15.8947C7.40495 16.1032 8.6377 16.2161 9.8737 16.2324V20.2324C7.96273 20.0487 6.30273 18.299 5.36198 15.7526L6.18669 15.8947ZM10.5404 16.2324C11.7762 16.2161 13.0088 16.1032 14.2271 15.8947L15.0521 15.752C14.1113 18.299 12.4513 20.0493 10.5404 20.2321V16.2324ZM14.1134 15.2376C12.9328 15.4396 11.7381 15.5487 10.5404 15.564V11.2493H15.8687C15.8464 12.5314 15.6519 13.8045 15.2904 15.0347L14.1134 15.2376ZM16.535 10.5827C16.513 9.34554 16.3372 8.11589 16.0117 6.92204L18.8556 7.41276C19.2655 8.42139 19.4945 9.49447 19.5321 10.5827H16.535ZM18.5184 6.67806L15.7923 6.20768C15.3022 4.60889 14.3854 3.17399 13.1403 2.05762C15.4686 2.83464 17.3994 4.49333 18.5184 6.67806ZM7.27376 2.05762C6.02865 3.17399 5.11182 4.60889 4.62174 6.20768L1.89567 6.67806C3.01465 4.49333 4.94547 2.83464 7.27376 2.05762ZM1.89567 15.154L4.62174 15.6243C5.11182 17.2231 6.02865 18.658 7.27376 19.7744C4.94547 18.9974 3.01465 17.3387 1.89567 15.154ZM13.1403 19.7744C14.3854 18.658 15.3022 17.2231 15.7923 15.6243L18.5184 15.154C17.3994 17.3387 15.4686 18.9974 13.1403 19.7744Z"/>
    </symbol>
</svg>
