<?xml version="1.0" encoding="utf-8"?>
<svg xmlns="http://www.w3.org/2000/svg">
    <symbol id="back"><path d="M12.454 8.967 7.009 3.522l.99-.99 6.435 6.435L7.999 15.4l-.99-.99 5.445-5.444Z"/>
    </symbol>
    <symbol id="chat"><path d="M12.5 12.358c0 .796-.672 1.44-1.5 1.44H5.167L.5 17.158V6.328c0-.795.672-1.44 1.5-1.44h2.499V2.832c0-1.1.896-1.992 2-1.992h9c1.105 0 2 .892 2 1.992V13.84l-4-2.988h-1v1.506Zm-8.001-6.51H2a.49.49 0 0 0-.5.48v8.91l3.333-2.4H11a.49.49 0 0 0 .5-.48l-.001-1.506h-5c-1.104 0-2-.892-2-1.992V5.848Zm11-4.012h-9c-.552 0-1 .446-1 .996v2.056h.002v.96h-.002V8.86c0 .55.448.996 1 .996h7.334l2.667 1.992V2.832a.998.998 0 0 0-1-.996Zm-2 5.004v1.027h-5V6.84h5Zm0-3v1h-5v-1h5Z"/>
    </symbol>
    <symbol id="check"><path d="M9 1.5a7.5 7.5 0 1 1 0 15 7.5 7.5 0 0 1 0-15Zm0 .938a6.562 6.562 0 1 0 0 13.124A6.562 6.562 0 0 0 9 2.438Zm2.765 4.687.663.663-4.526 4.527L5.25 9.663 5.913 9 7.9 10.988l3.864-3.863Z"/>
    </symbol>
    <symbol id="close-popup"><path fill-rule="evenodd" clip-rule="evenodd" d="M3.868 2.5 9 7.632 14.132 2.5 15.5 3.868 10.368 9l5.132 5.132-1.368 1.368L9 10.368 3.868 15.5 2.5 14.132 7.631 9 2.5 3.868 3.868 2.5Z"/>
    </symbol>
    <symbol id="copy"><path d="M11 2a2 2 0 0 1 2 2h-1a1 1 0 0 0-1-1H4a1 1 0 0 0-1 1v7a1 1 0 0 0 1 1v1a2 2 0 0 1-2-2V4a2 2 0 0 1 2-2h7Z"/><path fill-rule="evenodd" clip-rule="evenodd" d="M13 5h1a2 2 0 0 1 2 2v7a2 2 0 0 1-2 2H7a2 2 0 0 1-2-2V7a2 2 0 0 1 2-2h6ZM7 6h7a1 1 0 0 1 1 1v7a1 1 0 0 1-1 1H7a1 1 0 0 1-1-1V7a1 1 0 0 1 1-1Z"/>
    </symbol>
    <symbol id="delete"><path d="M10.5 1a1 1 0 0 1 1 1v1h3a1 1 0 0 1 1 1v2a1 1 0 0 1-1 1v8a2 2 0 0 1-2 2h-7a2 2 0 0 1-2-2V7a1 1 0 0 1-1-1V4a1 1 0 0 1 1-1h3V2a1 1 0 0 1 1-1h3Zm3 6h-9v8a1 1 0 0 0 1 1h7a1 1 0 0 0 1-1V7Zm-6 2v5h-1V9h1Zm4 0v5h-1V9h1Zm3-5h-11v2h11V4Zm-4-2h-3v1h3V2Z"/>
    </symbol>
    <symbol id="edit"><path d="m13.213 1.777 2.828 2.829a2 2 0 0 1 0 2.828l-8.294 8.294-6.374 1.08.717-6.737 8.294-8.294a2 2 0 0 1 2.829 0ZM8.934 4.64l-5.887 5.888-.54 5.073 4.758-.806 5.911-5.912-1.813-1.814-5.328 5.33-.707-.708 5.328-5.329L8.934 4.64Zm2.157-2.156-1.45 1.45 4.243 4.242 1.45-1.45a1 1 0 0 0 0-1.413l-2.829-2.829a1 1 0 0 0-1.414 0Z"/>
    </symbol>
    <symbol id="forward"><path d="m5.546 8.967 5.445-5.445-.99-.99-6.435 6.435 6.435 6.434.99-.99-5.445-5.444Z"/>
    </symbol>
    <symbol id="gift-site"><path d="M11 2a2 2 0 0 1 2 2v1h1a2 2 0 0 1 2 2v7a2 2 0 0 1-2 2H7a2 2 0 0 1-2-2v-1H4a2 2 0 0 1-2-2V4a2 2 0 0 1 2-2h7Zm3 4H7a1 1 0 0 0-1 1v7a1 1 0 0 0 1 1h7a1 1 0 0 0 1-1V7a1 1 0 0 0-1-1Zm-3-3H4a1 1 0 0 0-1 1v7a1 1 0 0 0 1 1h1V7a2 2 0 0 1 2-2h5V4a1 1 0 0 0-1-1Zm2 8v1H8v-1h5Zm0-2v1H8V9h5Z"/>
    </symbol>
    <symbol id="hollow-error"><path d="M9 1.5a7.5 7.5 0 1 1 0 15 7.5 7.5 0 0 1 0-15Zm0 1a6.5 6.5 0 1 0 0 13 6.5 6.5 0 0 0 0-13Zm0 9a1 1 0 1 1 0 2 1 1 0 0 1 0-2Zm0-7a.842.842 0 0 1 .84.898l-.307 4.603a.534.534 0 0 1-1.066 0L8.16 5.398A.842.842 0 0 1 9 4.5Z"/>
    </symbol>
    <symbol id="hollow-info"><path d="M9 1.5a7.5 7.5 0 1 1 0 15 7.5 7.5 0 0 1 0-15Zm0 1a6.5 6.5 0 1 0 0 13 6.5 6.5 0 0 0 0-13Zm0 5a.842.842 0 0 1 .84.898l-.307 4.603a.534.534 0 0 1-1.066 0L8.16 8.398A.842.842 0 0 1 9 7.5Zm0-3a1 1 0 1 1 0 2 1 1 0 0 1 0-2Z"/>
    </symbol>
    <symbol id="hollow-question"><path d="M9 1.5a7.5 7.5 0 1 1 0 15 7.5 7.5 0 0 1 0-15Zm0 1a6.5 6.5 0 1 0 0 13 6.5 6.5 0 0 0 0-13Zm0 9a1 1 0 1 1 0 2 1 1 0 0 1 0-2Zm2.526-5.603c.401 1.46-.306 2.163-1.355 2.809-1.05.646-.75 1.067-.75 1.645 0 .595-.904.595-1.043.146-.154-.5-.125-1.416.486-2.131.612-.716 1.767-.86 1.595-1.938-.171-1.077-2.046-1.27-3.075-.19-.506.531-1.281-.18-.642-.887 1.455-1.608 4.383-.914 4.784.546Z"/>
    </symbol>
    <symbol id="solid-error"><path fill-rule="evenodd" clip-rule="evenodd" d="M1.5 9c0-4.14 3.36-7.5 7.5-7.5 4.14 0 7.5 3.36 7.5 7.5 0 4.14-3.36 7.5-7.5 7.5-4.14 0-7.5-3.36-7.5-7.5Zm8.5 3.5a1 1 0 1 0-2 0 1 1 0 0 0 2 0Zm-.158-7.158a.842.842 0 1 0-1.682.056l.307 4.603a.534.534 0 0 0 1.066 0l.307-4.603a.838.838 0 0 0 .002-.056Z"/>
    </symbol>
    <symbol id="solid-info"><path fill-rule="evenodd" clip-rule="evenodd" d="M1.5 9c0-4.14 3.36-7.5 7.5-7.5 4.14 0 7.5 3.36 7.5 7.5 0 4.14-3.36 7.5-7.5 7.5-4.14 0-7.5-3.36-7.5-7.5Zm8.342-.658a.842.842 0 1 0-1.682.056l.307 4.603a.534.534 0 0 0 1.066 0l.307-4.603a.838.838 0 0 0 .002-.056ZM10 5.5a1 1 0 1 0-2 0 1 1 0 0 0 2 0Z"/>
    </symbol>
    <symbol id="solid-question"><path fill-rule="evenodd" clip-rule="evenodd" d="M1.5 9a7.5 7.5 0 1 0 15 0 7.5 7.5 0 0 0-15 0Zm8.5 3.5a1 1 0 1 0-2 0 1 1 0 0 0 2 0Zm.17-3.794c1.05-.646 1.757-1.35 1.356-2.81-.402-1.459-3.329-2.154-4.784-.545-.64.707.135 1.418.642.887 1.029-1.08 2.903-.887 3.075.19.114.711-.352 1.016-.857 1.347-.26.17-.53.347-.738.59-.611.716-.64 1.632-.486 2.131.138.45 1.042.45 1.042-.145 0-.108-.01-.21-.02-.31-.045-.433-.083-.81.77-1.335Z"/>
    </symbol>
</svg>