<?xml version="1.0" encoding="utf-8"?>
<svg xmlns="http://www.w3.org/2000/svg">
    <symbol id="app-store-dark"><g clip-path="url(#clip0_211_116977)"><path d="M109.528 0H9.53c-.364 0-.724 0-1.088.002-.304.002-.606.008-.913.013-.668.008-1.334.067-1.992.177a6.401 6.401 0 0 0-4.67 3.427 6.63 6.63 0 0 0-.621 1.903 13.07 13.07 0 0 0-.178 2.002c-.01.306-.01.614-.015.92V31.56c.005.31.006.611.015.922.008.67.067 1.34.178 2.002.11.663.319 1.305.621 1.904A6.206 6.206 0 0 0 2.038 38c.47.477 1.014.875 1.61 1.179a6.632 6.632 0 0 0 1.889.63c.658.11 1.324.169 1.992.177.307.007.609.011.913.011.364.002.724.002 1.088.002h99.998c.357 0 .72 0 1.077-.002.303 0 .614-.004.917-.01.666-.009 1.33-.068 1.988-.177a6.735 6.735 0 0 0 1.897-.631A6.243 6.243 0 0 0 117.014 38a6.402 6.402 0 0 0 1.175-1.614c.3-.6.507-1.242.615-1.904.111-.662.172-1.331.184-2.002.004-.311.004-.612.004-.922.008-.364.008-.725.008-1.094V9.536c0-.366 0-.73-.008-1.092 0-.306 0-.614-.004-.92a13.569 13.569 0 0 0-.184-2.002 6.67 6.67 0 0 0-.615-1.904 6.452 6.452 0 0 0-2.782-2.8 6.7 6.7 0 0 0-1.897-.627 12.89 12.89 0 0 0-1.988-.176c-.303-.005-.614-.011-.917-.013-.357-.002-.72-.002-1.077-.002Z" fill="#BDC4D1"/><path d="M8.447 39.125c-.302 0-.598-.004-.898-.01a12.546 12.546 0 0 1-1.858-.164 5.824 5.824 0 0 1-1.647-.548 5.375 5.375 0 0 1-1.389-1.016 5.32 5.32 0 0 1-1.014-1.397 5.746 5.746 0 0 1-.54-1.657 12.487 12.487 0 0 1-.166-1.875c-.006-.21-.014-.913-.014-.913v-23.1s.009-.692.014-.895c.008-.628.063-1.253.165-1.872a5.78 5.78 0 0 1 .54-1.662c.26-.518.6-.99 1.01-1.398A5.534 5.534 0 0 1 5.686 1.05C6.303.95 6.927.895 7.55.887l.897-.012H110.6l.908.013c.618.007 1.236.061 1.847.162a5.89 5.89 0 0 1 1.661.548 5.576 5.576 0 0 1 2.4 2.42c.259.52.439 1.076.532 1.649.103.624.161 1.255.173 1.887.003.283.003.588.003.89.008.375.008.732.008 1.092v20.929c0 .363 0 .718-.008 1.075 0 .325 0 .623-.004.93-.012.62-.068 1.24-.17 1.853a5.77 5.77 0 0 1-.537 1.67c-.262.513-.602.98-1.009 1.386a5.386 5.386 0 0 1-1.391 1.022 5.802 5.802 0 0 1-1.658.55 12.4 12.4 0 0 1-1.858.163c-.291.007-.596.011-.892.011l-1.078.002-101.08-.002Z" fill="#323A48"/><path d="M24.674 20.3c.01-.834.23-1.653.64-2.379a4.934 4.934 0 0 1 1.702-1.773 5.046 5.046 0 0 0-1.73-1.55 5.012 5.012 0 0 0-2.237-.607c-1.67-.177-3.288 1.004-4.138 1.004-.867 0-2.177-.987-3.587-.958a5.26 5.26 0 0 0-2.58.775 5.302 5.302 0 0 0-1.866 1.953c-1.923 3.349-.489 8.27 1.353 10.976.921 1.326 1.998 2.806 3.407 2.753 1.379-.057 1.894-.884 3.558-.884 1.649 0 2.132.884 3.57.851 1.479-.024 2.41-1.331 3.3-2.669a10.994 10.994 0 0 0 1.51-3.093 4.76 4.76 0 0 1-2.11-1.76 4.803 4.803 0 0 1-.793-2.639ZM21.959 12.211a4.892 4.892 0 0 0 1.107-3.49 4.918 4.918 0 0 0-3.188 1.66 4.642 4.642 0 0 0-1.137 3.36 4.053 4.053 0 0 0 3.218-1.53ZM42.102 27.14h-4.705l-1.13 3.356h-1.993l4.457-12.418h2.07l4.457 12.418h-2.027l-1.129-3.356Zm-4.217-1.55h3.729l-1.838-5.446h-.052l-1.84 5.447ZM54.883 25.97c0 2.813-1.497 4.62-3.756 4.62a3.036 3.036 0 0 1-1.642-.382 3.06 3.06 0 0 1-1.19-1.201h-.043v4.484h-1.847V21.442h1.788v1.506h.034a3.2 3.2 0 0 1 1.213-1.198 3.177 3.177 0 0 1 1.653-.403c2.284 0 3.79 1.817 3.79 4.622Zm-1.9 0c0-1.833-.94-3.039-2.377-3.039-1.412 0-2.361 1.23-2.361 3.038 0 1.825.95 3.046 2.36 3.046 1.437 0 2.379-1.196 2.379-3.046ZM64.788 25.97c0 2.813-1.497 4.62-3.756 4.62a3.036 3.036 0 0 1-1.642-.382 3.06 3.06 0 0 1-1.19-1.201h-.042v4.484H56.31V21.442H58.1v1.506h.034a3.2 3.2 0 0 1 1.213-1.198 3.177 3.177 0 0 1 1.652-.403c2.284 0 3.79 1.817 3.79 4.622Zm-1.899 0c0-1.834-.942-3.039-2.378-3.039-1.412 0-2.36 1.23-2.36 3.038 0 1.825.948 3.046 2.36 3.046 1.436 0 2.378-1.196 2.378-3.046ZM71.334 27.036c.137 1.232 1.326 2.04 2.951 2.04 1.557 0 2.678-.808 2.678-1.919 0-.964-.676-1.54-2.276-1.936l-1.6-.388c-2.266-.55-3.318-1.617-3.318-3.348 0-2.142 1.856-3.614 4.491-3.614 2.608 0 4.396 1.472 4.457 3.614h-1.865c-.112-1.239-1.13-1.987-2.618-1.987s-2.506.757-2.506 1.858c0 .878.65 1.395 2.24 1.79l1.36.336c2.533.603 3.586 1.626 3.586 3.443 0 2.323-1.84 3.778-4.766 3.778-2.737 0-4.585-1.42-4.705-3.667h1.891ZM82.9 19.3v2.143h1.711v1.472H82.9v4.991c0 .776.343 1.137 1.095 1.137.203-.004.406-.018.608-.043v1.463a5.05 5.05 0 0 1-1.026.086c-1.823 0-2.533-.689-2.533-2.444v-5.19h-1.309v-1.472h1.309v-2.142H82.9ZM85.603 25.97c0-2.848 1.667-4.638 4.268-4.638 2.61 0 4.269 1.79 4.269 4.639 0 2.856-1.651 4.638-4.27 4.638-2.616 0-4.267-1.782-4.267-4.638Zm6.655 0c0-1.953-.89-3.107-2.387-3.107-1.497 0-2.386 1.162-2.386 3.108 0 1.962.889 3.106 2.386 3.106s2.387-1.144 2.387-3.106ZM95.663 21.442h1.762v1.541h.043c.119-.481.4-.907.793-1.204.395-.298.879-.45 1.371-.432.213 0 .426.023.633.07v1.738a2.564 2.564 0 0 0-.83-.112 1.85 1.85 0 0 0-1.439.596 1.876 1.876 0 0 0-.486 1.487v5.37h-1.847v-9.054ZM108.782 27.838c-.248 1.643-1.839 2.771-3.875 2.771-2.618 0-4.243-1.764-4.243-4.595 0-2.84 1.634-4.682 4.165-4.682 2.49 0 4.056 1.72 4.056 4.466v.637h-6.356v.112a2.369 2.369 0 0 0 .635 1.832 2.345 2.345 0 0 0 1.786.732c.436.041.874-.06 1.249-.29.374-.23.665-.574.829-.983h1.754Zm-6.244-2.702h4.499a2.2 2.2 0 0 0-.605-1.634 2.166 2.166 0 0 0-1.603-.664 2.265 2.265 0 0 0-1.621.668 2.3 2.3 0 0 0-.67 1.63ZM37.652 8.731a2.61 2.61 0 0 1 2.093.818 2.643 2.643 0 0 1 .698 2.147c0 1.906-1.024 3.002-2.79 3.002H35.51V8.731h2.142Zm-1.221 5.123h1.118a1.855 1.855 0 0 0 1.486-.604 1.878 1.878 0 0 0 .47-1.542 1.892 1.892 0 0 0-.478-1.53 1.87 1.87 0 0 0-1.478-.603h-1.118v4.28ZM41.484 12.446a2.146 2.146 0 0 1 .541-1.638 2.12 2.12 0 0 1 1.57-.699 2.11 2.11 0 0 1 1.569.699 2.137 2.137 0 0 1 .541 1.638 2.146 2.146 0 0 1-.54 1.64 2.12 2.12 0 0 1-1.57.7 2.11 2.11 0 0 1-1.571-.7 2.137 2.137 0 0 1-.54-1.64Zm3.313 0c0-.976-.436-1.547-1.201-1.547-.768 0-1.2.57-1.2 1.547 0 .984.432 1.55 1.2 1.55.765 0 1.2-.57 1.2-1.55ZM51.317 14.698H50.4l-.925-3.316h-.07l-.92 3.316h-.908l-1.234-4.503h.896l.802 3.436h.066l.92-3.436h.847l.92 3.436h.07l.798-3.436h.884l-1.23 4.503ZM53.583 10.195h.85v.715h.066a1.345 1.345 0 0 1 1.336-.802 1.449 1.449 0 0 1 1.175.463 1.466 1.466 0 0 1 .374 1.212v2.915h-.883v-2.692c0-.724-.313-1.084-.966-1.084a1.022 1.022 0 0 0-1.02.703c-.048.14-.064.29-.049.438v2.635h-.883v-4.503ZM58.792 8.438h.883v6.26h-.883v-6.26ZM60.904 12.444a2.146 2.146 0 0 1 .541-1.638 2.121 2.121 0 0 1 1.57-.699 2.111 2.111 0 0 1 1.569.699 2.136 2.136 0 0 1 .542 1.638 2.144 2.144 0 0 1-.54 1.64 2.121 2.121 0 0 1-1.571.7 2.11 2.11 0 0 1-1.571-.7 2.137 2.137 0 0 1-.54-1.64Zm3.312 0c0-.976-.435-1.547-1.2-1.547-.768 0-1.2.57-1.2 1.547 0 .984.432 1.55 1.2 1.55.765 0 1.2-.57 1.2-1.55ZM66.056 13.426c0-.81.6-1.278 1.664-1.345l1.213-.07v-.388c0-.476-.313-.745-.917-.745-.493 0-.834.182-.932.5h-.856c.09-.773.814-1.269 1.83-1.269 1.121 0 1.754.562 1.754 1.514v3.076h-.85v-.633h-.07a1.51 1.51 0 0 1-1.344.707 1.344 1.344 0 0 1-1.044-.34 1.36 1.36 0 0 1-.448-1.007Zm2.877-.385v-.377l-1.093.07c-.617.042-.896.253-.896.65 0 .405.35.641.83.641a1.05 1.05 0 0 0 1.047-.576c.064-.127.102-.266.112-.408ZM70.974 12.445c0-1.423.727-2.324 1.858-2.324a1.469 1.469 0 0 1 1.372.79h.066V8.438h.883v6.26h-.846v-.711h-.07a1.559 1.559 0 0 1-1.405.786c-1.14 0-1.858-.902-1.858-2.328Zm.912 0c0 .955.448 1.53 1.196 1.53.745 0 1.205-.583 1.205-1.526 0-.939-.465-1.53-1.205-1.53-.743 0-1.196.579-1.196 1.526ZM78.808 12.446a2.146 2.146 0 0 1 .541-1.638 2.12 2.12 0 0 1 1.57-.699 2.11 2.11 0 0 1 1.569.699 2.137 2.137 0 0 1 .541 1.638 2.147 2.147 0 0 1-.54 1.64 2.12 2.12 0 0 1-1.57.7 2.11 2.11 0 0 1-1.571-.7 2.137 2.137 0 0 1-.54-1.64Zm3.313 0c0-.976-.436-1.547-1.2-1.547-.769 0-1.2.57-1.2 1.547 0 .984.431 1.55 1.2 1.55.764 0 1.2-.57 1.2-1.55ZM84.215 10.195h.85v.715h.066a1.345 1.345 0 0 1 1.336-.802 1.449 1.449 0 0 1 1.175.463 1.469 1.469 0 0 1 .374 1.212v2.915h-.883v-2.692c0-.724-.313-1.084-.966-1.084a1.023 1.023 0 0 0-1.02.703c-.048.14-.065.29-.049.438v2.635h-.883v-4.503ZM93.008 9.074v1.142h.97v.748h-.97v2.316c0 .472.193.678.633.678.112 0 .225-.007.337-.02v.74c-.159.028-.32.043-.48.045-.983 0-1.374-.348-1.374-1.216v-2.543h-.71v-.748h.71V9.074h.884ZM95.184 8.438h.875v2.48h.07a1.382 1.382 0 0 1 1.365-.806 1.465 1.465 0 0 1 1.163.475 1.485 1.485 0 0 1 .378 1.204v2.907h-.884V12.01c0-.719-.333-1.083-.957-1.083a1.04 1.04 0 0 0-.827.307 1.053 1.053 0 0 0-.3.834v2.63h-.883v-6.26ZM104.186 13.482c-.12.411-.38.767-.734 1.005a1.81 1.81 0 0 1-1.205.297 2.021 2.021 0 0 1-1.569-.68 2.055 2.055 0 0 1-.499-1.644 2.093 2.093 0 0 1 .499-1.65 2.057 2.057 0 0 1 1.565-.703c1.245 0 1.997.857 1.997 2.27v.31h-3.161v.05a1.19 1.19 0 0 0 1.192 1.29 1.067 1.067 0 0 0 1.065-.545h.85Zm-3.107-1.452h2.261a1.089 1.089 0 0 0-.663-1.083 1.072 1.072 0 0 0-.439-.083 1.141 1.141 0 0 0-1.075.718 1.167 1.167 0 0 0-.084.448Z" fill="#fff"/></g><defs><clipPath id="clip0_211_116977"><path fill="#fff" transform="translate(.053)" d="M0 0h118.947v40H0z"/></clipPath></defs>
    </symbol>
    <symbol id="app-store-light"><g clip-path="url(#clip0_211_117012)"><path d="M109.528 0H9.53c-.364 0-.724 0-1.088.002-.304.002-.606.008-.913.013-.668.008-1.334.067-1.992.177a6.401 6.401 0 0 0-4.67 3.427 6.63 6.63 0 0 0-.621 1.903 13.07 13.07 0 0 0-.178 2.002c-.01.306-.01.614-.015.92V31.56c.005.31.006.611.015.922.008.67.067 1.34.178 2.002.11.663.319 1.305.621 1.904A6.206 6.206 0 0 0 2.038 38c.47.477 1.014.875 1.61 1.179a6.632 6.632 0 0 0 1.889.63c.658.11 1.324.169 1.992.177.307.007.609.011.913.011.364.002.724.002 1.088.002h99.998c.357 0 .72 0 1.077-.002.303 0 .614-.004.917-.01.666-.009 1.33-.068 1.988-.177a6.735 6.735 0 0 0 1.897-.631A6.243 6.243 0 0 0 117.014 38a6.402 6.402 0 0 0 1.175-1.614c.3-.6.507-1.242.615-1.904.111-.662.172-1.331.184-2.002.004-.311.004-.612.004-.922.008-.364.008-.725.008-1.094V9.536c0-.366 0-.73-.008-1.092 0-.306 0-.614-.004-.92a13.569 13.569 0 0 0-.184-2.002 6.67 6.67 0 0 0-.615-1.904 6.452 6.452 0 0 0-2.782-2.8 6.7 6.7 0 0 0-1.897-.627 12.89 12.89 0 0 0-1.988-.176c-.303-.005-.614-.011-.917-.013-.357-.002-.72-.002-1.077-.002Z" fill="#323A48"/><path d="M8.447 39.125c-.302 0-.598-.004-.899-.01a12.546 12.546 0 0 1-1.857-.164 5.824 5.824 0 0 1-1.647-.548 5.375 5.375 0 0 1-1.389-1.016 5.32 5.32 0 0 1-1.014-1.397 5.746 5.746 0 0 1-.54-1.657 12.487 12.487 0 0 1-.166-1.875c-.006-.21-.014-.913-.014-.913v-23.1s.009-.692.014-.895c.008-.628.063-1.253.165-1.872a5.78 5.78 0 0 1 .54-1.662c.26-.518.6-.99 1.01-1.398A5.534 5.534 0 0 1 5.686 1.05C6.303.95 6.927.895 7.55.887l.897-.012H110.6l.908.013c.618.007 1.236.061 1.847.162a5.89 5.89 0 0 1 1.661.548 5.576 5.576 0 0 1 2.4 2.42c.259.52.439 1.076.532 1.649.103.624.161 1.255.173 1.887.003.283.003.588.003.89.008.375.008.732.008 1.092v20.929c0 .363 0 .718-.008 1.075 0 .325 0 .623-.004.93-.012.62-.068 1.24-.17 1.853a5.77 5.77 0 0 1-.537 1.67c-.262.513-.602.98-1.009 1.386a5.386 5.386 0 0 1-1.391 1.022 5.802 5.802 0 0 1-1.658.55 12.4 12.4 0 0 1-1.858.163c-.291.007-.596.011-.892.011l-1.078.002-101.08-.002Z" fill="#fff"/><path d="M24.9 19.89a5.17 5.17 0 0 1 .666-2.473 5.132 5.132 0 0 1 1.77-1.844 5.248 5.248 0 0 0-1.8-1.613 5.212 5.212 0 0 0-2.326-.63c-1.735-.184-3.418 1.044-4.303 1.044-.901 0-2.263-1.027-3.73-.996a5.471 5.471 0 0 0-2.683.805 5.512 5.512 0 0 0-1.94 2.031c-2 3.482-.508 8.6 1.407 11.414.958 1.379 2.078 2.918 3.543 2.864 1.434-.06 1.97-.92 3.7-.92 1.714 0 2.217.92 3.712.885 1.538-.025 2.508-1.384 3.432-2.776a11.428 11.428 0 0 0 1.57-3.216 4.95 4.95 0 0 1-2.194-1.83 4.994 4.994 0 0 1-.824-2.744ZM22.077 11.477a5.087 5.087 0 0 0 1.152-3.63 5.114 5.114 0 0 0-3.316 1.726 4.83 4.83 0 0 0-1.182 3.496 4.217 4.217 0 0 0 3.346-1.592ZM42.101 27.14h-4.705l-1.13 3.356h-1.993l4.457-12.418h2.07l4.457 12.418H43.23l-1.129-3.356Zm-4.218-1.55h3.73l-1.838-5.446h-.052l-1.84 5.447ZM54.882 25.97c0 2.813-1.497 4.62-3.756 4.62a3.037 3.037 0 0 1-1.642-.382 3.06 3.06 0 0 1-1.19-1.201h-.042v4.484h-1.848V21.442h1.788v1.506h.034a3.2 3.2 0 0 1 1.213-1.198 3.177 3.177 0 0 1 1.653-.403c2.284 0 3.79 1.817 3.79 4.622Zm-1.9 0c0-1.833-.94-3.039-2.377-3.039-1.412 0-2.361 1.23-2.361 3.038 0 1.825.95 3.046 2.36 3.046 1.437 0 2.379-1.196 2.379-3.046ZM64.787 25.97c0 2.813-1.497 4.62-3.756 4.62a3.036 3.036 0 0 1-1.642-.382 3.06 3.06 0 0 1-1.19-1.201h-.042v4.484H56.31V21.442h1.788v1.506h.034a3.2 3.2 0 0 1 1.213-1.198 3.177 3.177 0 0 1 1.652-.403c2.284 0 3.79 1.817 3.79 4.622Zm-1.899 0c0-1.833-.941-3.039-2.378-3.039-1.411 0-2.36 1.23-2.36 3.038 0 1.825.949 3.046 2.36 3.046 1.437 0 2.378-1.196 2.378-3.046ZM71.332 27.036c.137 1.232 1.326 2.04 2.951 2.04 1.557 0 2.678-.808 2.678-1.919 0-.964-.676-1.54-2.276-1.936l-1.6-.388c-2.266-.55-3.318-1.617-3.318-3.348 0-2.142 1.856-3.614 4.49-3.614 2.61 0 4.397 1.472 4.458 3.614H76.85c-.112-1.239-1.13-1.987-2.618-1.987s-2.507.757-2.507 1.858c0 .878.65 1.395 2.242 1.79l1.36.336c2.532.603 3.584 1.626 3.584 3.443 0 2.323-1.839 3.778-4.764 3.778-2.738 0-4.586-1.42-4.706-3.667h1.891ZM82.9 19.3v2.143h1.711v1.472H82.9v4.991c0 .776.343 1.137 1.095 1.137.203-.004.406-.018.608-.043v1.463a5.051 5.051 0 0 1-1.027.086c-1.822 0-2.532-.689-2.532-2.444v-5.19h-1.309v-1.472h1.309v-2.142H82.9ZM85.602 25.97c0-2.848 1.667-4.638 4.268-4.638 2.61 0 4.269 1.79 4.269 4.639 0 2.856-1.651 4.638-4.27 4.638-2.616 0-4.267-1.782-4.267-4.638Zm6.655 0c0-1.953-.89-3.107-2.387-3.107-1.497 0-2.387 1.162-2.387 3.108 0 1.962.89 3.106 2.387 3.106 1.497 0 2.387-1.144 2.387-3.106ZM95.662 21.442h1.762v1.541h.043c.119-.481.4-.907.793-1.204.395-.298.879-.45 1.371-.432.213 0 .426.023.633.07v1.738a2.564 2.564 0 0 0-.83-.112 1.85 1.85 0 0 0-1.438.596 1.875 1.875 0 0 0-.487 1.487v5.37h-1.847v-9.054ZM108.781 27.838c-.248 1.643-1.839 2.771-3.875 2.771-2.618 0-4.243-1.764-4.243-4.595 0-2.84 1.634-4.682 4.165-4.682 2.49 0 4.056 1.72 4.056 4.466v.637h-6.356v.112a2.369 2.369 0 0 0 .635 1.832 2.345 2.345 0 0 0 1.786.732c.436.041.874-.06 1.249-.29.374-.23.665-.574.829-.983h1.754Zm-6.244-2.702h4.499a2.2 2.2 0 0 0-.605-1.634 2.157 2.157 0 0 0-1.603-.664 2.265 2.265 0 0 0-1.621.668 2.3 2.3 0 0 0-.67 1.63ZM37.652 8.731a2.61 2.61 0 0 1 2.093.818 2.643 2.643 0 0 1 .698 2.147c0 1.906-1.024 3.002-2.79 3.002H35.51V8.731h2.142Zm-1.221 5.123h1.118a1.855 1.855 0 0 0 1.486-.604 1.878 1.878 0 0 0 .47-1.542 1.892 1.892 0 0 0-.478-1.53 1.87 1.87 0 0 0-1.478-.603h-1.118v4.28ZM41.484 12.446a2.146 2.146 0 0 1 .541-1.638 2.12 2.12 0 0 1 1.57-.699 2.11 2.11 0 0 1 1.569.699 2.137 2.137 0 0 1 .541 1.638 2.144 2.144 0 0 1-.54 1.64 2.12 2.12 0 0 1-1.57.7 2.11 2.11 0 0 1-1.571-.7 2.137 2.137 0 0 1-.54-1.64Zm3.313 0c0-.976-.436-1.547-1.201-1.547-.768 0-1.2.57-1.2 1.547 0 .984.432 1.55 1.2 1.55.765 0 1.2-.57 1.2-1.55ZM51.317 14.698H50.4l-.925-3.316h-.07l-.92 3.316h-.908l-1.234-4.503h.896l.802 3.436h.066l.92-3.436h.847l.92 3.436h.07l.798-3.436h.884l-1.23 4.503ZM53.583 10.195h.85v.715h.066a1.345 1.345 0 0 1 1.336-.802 1.449 1.449 0 0 1 1.175.463 1.466 1.466 0 0 1 .374 1.212v2.915h-.883v-2.692c0-.724-.313-1.084-.966-1.084a1.022 1.022 0 0 0-1.02.703c-.048.14-.064.29-.049.438v2.635h-.883v-4.503ZM58.792 8.438h.883v6.26h-.883v-6.26ZM60.904 12.444a2.146 2.146 0 0 1 .541-1.638 2.121 2.121 0 0 1 1.57-.699 2.111 2.111 0 0 1 1.569.699 2.136 2.136 0 0 1 .542 1.638 2.144 2.144 0 0 1-.54 1.64 2.121 2.121 0 0 1-1.571.7 2.11 2.11 0 0 1-1.571-.7 2.137 2.137 0 0 1-.54-1.64Zm3.312 0c0-.976-.435-1.547-1.2-1.547-.768 0-1.2.57-1.2 1.547 0 .984.432 1.55 1.2 1.55.765 0 1.2-.57 1.2-1.55ZM66.056 13.426c0-.81.6-1.278 1.664-1.345l1.213-.07v-.388c0-.476-.313-.745-.917-.745-.493 0-.834.182-.932.5h-.856c.09-.773.814-1.269 1.83-1.269 1.121 0 1.754.562 1.754 1.514v3.076h-.85v-.633h-.07a1.51 1.51 0 0 1-1.344.707 1.344 1.344 0 0 1-1.044-.34 1.36 1.36 0 0 1-.448-1.007Zm2.877-.385v-.377l-1.093.07c-.617.042-.896.253-.896.65 0 .405.35.641.83.641a1.05 1.05 0 0 0 1.047-.576c.064-.127.102-.266.112-.408ZM70.974 12.445c0-1.423.727-2.324 1.858-2.324a1.469 1.469 0 0 1 1.372.79h.066V8.438h.883v6.26h-.846v-.711h-.07a1.559 1.559 0 0 1-1.405.786c-1.14 0-1.858-.902-1.858-2.328Zm.912 0c0 .955.448 1.53 1.196 1.53.745 0 1.205-.583 1.205-1.526 0-.939-.465-1.53-1.205-1.53-.743 0-1.196.579-1.196 1.526ZM78.808 12.446a2.146 2.146 0 0 1 .541-1.638 2.12 2.12 0 0 1 1.57-.699 2.109 2.109 0 0 1 1.569.699 2.136 2.136 0 0 1 .541 1.638 2.146 2.146 0 0 1-.54 1.64 2.12 2.12 0 0 1-1.57.7 2.108 2.108 0 0 1-1.571-.7 2.137 2.137 0 0 1-.54-1.64Zm3.313 0c0-.976-.436-1.547-1.2-1.547-.769 0-1.2.57-1.2 1.547 0 .984.431 1.55 1.2 1.55.764 0 1.2-.57 1.2-1.55ZM84.215 10.195h.85v.715h.066a1.345 1.345 0 0 1 1.336-.802 1.449 1.449 0 0 1 1.175.463 1.466 1.466 0 0 1 .374 1.212v2.915h-.883v-2.692c0-.724-.313-1.084-.966-1.084a1.023 1.023 0 0 0-1.02.703c-.048.14-.065.29-.049.438v2.635h-.883v-4.503ZM93.008 9.074v1.142h.97v.748h-.97v2.316c0 .472.193.678.633.678.112 0 .225-.007.337-.02v.74c-.159.028-.32.043-.48.045-.983 0-1.374-.348-1.374-1.216v-2.543h-.71v-.748h.71V9.074h.884ZM95.184 8.438h.875v2.48h.07a1.382 1.382 0 0 1 1.365-.806 1.465 1.465 0 0 1 1.163.475 1.485 1.485 0 0 1 .378 1.204v2.907h-.884V12.01c0-.719-.333-1.083-.957-1.083a1.04 1.04 0 0 0-.827.307 1.051 1.051 0 0 0-.3.834v2.63h-.883v-6.26ZM104.186 13.482c-.12.411-.38.767-.734 1.005a1.81 1.81 0 0 1-1.205.297 2.021 2.021 0 0 1-1.569-.68 2.055 2.055 0 0 1-.499-1.644 2.093 2.093 0 0 1 .499-1.65 2.057 2.057 0 0 1 1.565-.703c1.245 0 1.997.857 1.997 2.27v.31h-3.161v.05a1.19 1.19 0 0 0 1.192 1.29 1.067 1.067 0 0 0 1.065-.545h.85Zm-3.107-1.452h2.261a1.089 1.089 0 0 0-.663-1.083 1.072 1.072 0 0 0-.439-.083 1.141 1.141 0 0 0-1.075.718 1.167 1.167 0 0 0-.084.448Z" fill="#323A48"/></g><defs><clipPath id="clip0_211_117012"><path fill="#fff" transform="translate(.053)" d="M0 0h118.947v40H0z"/></clipPath></defs>
    </symbol>
    <symbol id="google-play-dark"><path d="M129.993 39.9H6c-2.728 0-4.96-2.238-4.96-4.975V5.075C1.04 2.338 3.272.099 6 .099h123.993c2.728 0 4.96 2.24 4.96 4.976v29.85c0 2.737-2.232 4.975-4.96 4.975Z" fill="#323A48"/><path d="M129.993.1H6C3.272.1 1.04 2.337 1.04 5.074v29.85C1.04 37.662 3.272 39.9 6 39.9h123.993c2.728 0 4.96-2.238 4.96-4.975V5.075c0-2.737-2.232-4.976-4.96-4.976Zm0 .795c2.298 0 4.166 1.875 4.166 4.18v29.85c0 2.305-1.868 4.18-4.166 4.18H6c-2.297 0-4.166-1.875-4.166-4.18V5.075C1.834 2.77 3.703.895 6 .895h123.993Z" fill="#BDC4D1"/><path d="M48.076 10.292c0 .833-.246 1.497-.739 1.992-.56.59-1.29.884-2.186.884-.86 0-1.59-.298-2.19-.896-.602-.598-.902-1.339-.902-2.222 0-.885.3-1.625.902-2.223.6-.597 1.33-.896 2.19-.896.426 0 .834.083 1.221.25.388.167.699.39.931.667l-.523.525c-.394-.472-.937-.708-1.63-.708a2.26 2.26 0 0 0-1.625.663c-.457.442-.686 1.016-.686 1.722 0 .705.229 1.28.686 1.721a2.26 2.26 0 0 0 1.626.663c.664 0 1.218-.222 1.662-.666.288-.29.454-.693.499-1.21H45.15v-.717h2.884c.028.156.041.306.041.45Z" fill="#fff"/><path d="M48.077 10.292h-.1c0 .815-.237 1.447-.71 1.922v.001c-.543.57-1.24.852-2.116.854-.836-.002-1.536-.288-2.12-.868-.583-.58-.872-1.29-.873-2.151.001-.862.29-1.571.873-2.152.584-.58 1.284-.866 2.12-.868.414 0 .807.081 1.183.243.376.162.672.375.894.64l.076-.065-.07-.07-.524.525.07.07.077-.063c-.412-.496-.991-.746-1.706-.744-.65-.001-1.221.232-1.694.69-.477.46-.717 1.066-.716 1.794-.001.727.239 1.333.716 1.793a2.358 2.358 0 0 0 1.694.69c.687.002 1.272-.232 1.733-.695.307-.31.482-.738.527-1.271l.01-.108h-2.17V9.94h2.784v-.1l-.097.018c.027.15.04.294.04.433h.198c0-.151-.014-.307-.043-.469l-.015-.081h-3.066V10.658h2.26v-.1l-.098-.008c-.044.5-.203.878-.47 1.147-.427.426-.95.637-1.593.638-.603-.001-1.115-.21-1.556-.635-.437-.424-.655-.965-.656-1.65.001-.685.219-1.227.656-1.65a2.157 2.157 0 0 1 1.556-.635c.67.001 1.177.223 1.554.672l.07.084.599-.602.064-.065-.058-.07a2.55 2.55 0 0 0-.968-.694 3.16 3.16 0 0 0-1.26-.259c-.883 0-1.644.31-2.261.926-.62.614-.932 1.386-.931 2.293 0 .906.311 1.678.931 2.293a3.09 3.09 0 0 0 2.26.925c.918 0 1.68-.306 2.258-.915l-.071-.068.07.07c.514-.515.769-1.21.768-2.063h-.1ZM52.648 7.798h-2.71v1.893h2.444v.718h-2.444v1.893h2.71v.733h-3.474v-5.97h3.474v.733Z" fill="#fff"/><path d="M52.649 7.799v-.1h-2.81v2.092h2.444v.518H49.84v2.092h2.71v.535h-3.275V7.165h3.276v.634h.099v-.1.1h.1v-.834h-3.674v6.17h3.673V12.202h-2.71v-1.694h2.444V9.592h-2.444V7.898h2.71v-.1h-.1ZM55.874 13.035h-.765V7.798h-1.663v-.733h4.09v.733h-1.662v5.237Z" fill="#fff"/><path d="M55.873 13.035v-.1h-.666V7.7h-1.662v-.534h3.892v.534h-1.663v5.336h.1v-.1.1h.099V7.898h1.662V6.965h-4.288V7.899h1.662v5.237h.964v-.1h-.1ZM60.495 13.035v-5.97h.765v5.97h-.765Z" fill="#fff"/><path d="M60.496 13.035h.099v-5.87h.566v5.77h-.665v.1h.099-.1v.1h.865v-6.17h-.964v6.17h.1v-.1ZM64.652 13.035h-.765V7.798h-1.662v-.733h4.09v.733h-1.663v5.237Z" fill="#fff"/><path d="M64.652 13.035v-.1h-.666V7.7h-1.663v-.534h3.892v.534h-1.663v5.336h.1v-.1.1h.099V7.898h1.662V6.965h-4.288V7.899h1.662v5.237h.964v-.1h-.1ZM70.258 11.763c.44.448.98.671 1.617.671a2.18 2.18 0 0 0 1.616-.67c.441-.448.662-1.02.662-1.714 0-.695-.22-1.267-.662-1.714a2.18 2.18 0 0 0-1.616-.671c-.638 0-1.177.223-1.617.67-.44.448-.66 1.02-.66 1.715 0 .694.22 1.266.66 1.713Zm3.8.5c-.586.604-1.314.905-2.183.905-.87 0-1.598-.301-2.182-.905-.585-.603-.877-1.34-.877-2.213s.292-1.611.877-2.214c.584-.604 1.311-.905 2.182-.905.865 0 1.59.303 2.178.909.587.606.88 1.342.88 2.21 0 .872-.292 1.61-.876 2.213Z" fill="#fff"/><path d="m70.257 11.763-.07.07a2.281 2.281 0 0 0 1.687.7 2.28 2.28 0 0 0 1.688-.7c.46-.465.69-1.068.69-1.783 0-.716-.23-1.318-.69-1.784a2.28 2.28 0 0 0-1.688-.7 2.282 2.282 0 0 0-1.687.7c-.459.466-.69 1.068-.69 1.784 0 .715.231 1.318.69 1.783l.07-.07.07-.07c-.42-.43-.63-.97-.631-1.643 0-.674.211-1.215.632-1.644.425-.43.932-.64 1.546-.641a2.08 2.08 0 0 1 1.546.64c.422.43.632.97.633 1.645 0 .674-.211 1.214-.633 1.643a2.08 2.08 0 0 1-1.546.642 2.082 2.082 0 0 1-1.546-.642l-.07.07Zm3.8.5-.071-.069c-.57.585-1.265.873-2.112.875-.847-.002-1.543-.29-2.11-.875l-.003-.003.003.003c-.568-.587-.848-1.294-.849-2.144.001-.85.281-1.558.849-2.145.567-.584 1.263-.873 2.11-.875.842.002 1.536.292 2.108.88.57.589.851 1.295.852 2.14 0 .85-.282 1.557-.848 2.144l.07.07.072.068c.601-.62.905-1.388.905-2.282 0-.89-.305-1.657-.909-2.28-.604-.624-1.362-.94-2.25-.939-.892 0-1.652.314-2.252.936-.603.62-.906 1.388-.905 2.283-.001.894.302 1.663.904 2.283l.003.002-.002-.003c.6.623 1.36.936 2.252.936.893 0 1.652-.313 2.254-.936l-.071-.069ZM76.007 13.035v-5.97h.93l2.893 4.644h.033l-.033-1.15V7.065h.765v5.97h-.798l-3.026-4.87h-.033l.033 1.152v3.718h-.764Z" fill="#fff"/><path d="M76.007 13.035h.1v-5.87h.776l2.893 4.644h.19l-.036-1.252V7.165h.567v5.77h-.644l-3.026-4.869h-.19l.035 1.252v3.618h-.665v.1h.1-.1v.099h.864v-3.82l-.033-1.152-.1.003v.1h.034v-.1l-.085.053 3.056 4.916h.953v-6.17h-.965v3.595l.033 1.152.1-.002v-.1h-.033v.1l.084-.053-2.922-4.691h-1.085v6.169h.1v-.1ZM107.115 29.95h1.851V17.51h-1.851v12.44Zm16.671-7.958-2.122 5.393h-.063l-2.202-5.393h-1.994l3.302 7.537-1.882 4.193h1.931l5.089-11.73h-2.059Zm-10.497 6.545c-.607 0-1.452-.304-1.452-1.056 0-.96 1.054-1.329 1.962-1.329.815 0 1.197.176 1.692.417a2.247 2.247 0 0 1-2.202 1.968Zm.224-6.817c-1.34 0-2.728.592-3.303 1.904l1.643.688c.351-.688 1.005-.912 1.691-.912.958 0 1.931.576 1.947 1.6v.128c-.336-.192-1.053-.48-1.931-.48-1.77 0-3.574.976-3.574 2.8 0 1.665 1.452 2.738 3.079 2.738 1.245 0 1.931-.56 2.362-1.217h.064v.96h1.786V25.16c0-2.208-1.643-3.44-3.764-3.44Zm-11.439 1.786h-2.633v-4.264h2.633c1.383 0 2.169 1.15 2.169 2.132 0 .964-.786 2.132-2.169 2.132Zm-.048-5.995h-4.435V29.95h1.85v-4.713h2.585c2.051 0 4.068-1.49 4.068-3.863s-2.017-3.863-4.068-3.863ZM77.841 28.539c-1.278 0-2.35-1.074-2.35-2.549 0-1.49 1.072-2.58 2.35-2.58 1.263 0 2.253 1.09 2.253 2.58 0 1.476-.99 2.55-2.253 2.55Zm2.126-5.85h-.064c-.416-.498-1.215-.946-2.222-.946-2.11 0-4.043 1.859-4.043 4.247 0 2.373 1.934 4.216 4.043 4.216 1.007 0 1.806-.448 2.222-.961h.064v.609c0 1.62-.863 2.485-2.254 2.485-1.134 0-1.837-.818-2.125-1.507l-1.614.673c.463 1.122 1.694 2.5 3.74 2.5 2.173 0 4.01-1.282 4.01-4.408V22h-1.757v.69Zm3.036 7.26h1.854V17.51h-1.854v12.44Zm4.586-4.103c-.048-1.635 1.263-2.468 2.206-2.468.735 0 1.358.368 1.566.898l-3.772 1.57Zm5.753-1.41c-.35-.946-1.422-2.693-3.611-2.693-2.174 0-3.98 1.715-3.98 4.232 0 2.372 1.79 4.231 4.187 4.231 1.934 0 3.053-1.186 3.516-1.875l-1.438-.962c-.479.706-1.135 1.17-2.078 1.17-.942 0-1.614-.433-2.045-1.282l5.64-2.34-.19-.481ZM48.4 23.04v1.795h4.283c-.128 1.01-.464 1.748-.975 2.26-.623.626-1.598 1.315-3.308 1.315-2.637 0-4.698-2.132-4.698-4.777s2.061-4.777 4.698-4.777c1.422 0 2.46.561 3.228 1.283l1.262-1.267c-1.07-1.026-2.493-1.811-4.49-1.811-3.612 0-6.648 2.95-6.648 6.572 0 3.623 3.036 6.572 6.648 6.572 1.95 0 3.42-.64 4.57-1.843 1.183-1.186 1.55-2.853 1.55-4.2 0-.417-.031-.801-.096-1.122H48.4Zm10.99 5.498c-1.279 0-2.382-1.058-2.382-2.565 0-1.522 1.103-2.564 2.382-2.564 1.278 0 2.38 1.042 2.38 2.564 0 1.507-1.102 2.565-2.38 2.565Zm0-6.796c-2.334 0-4.236 1.779-4.236 4.232 0 2.436 1.902 4.231 4.236 4.231 2.333 0 4.234-1.795 4.234-4.232 0-2.452-1.901-4.231-4.234-4.231Zm9.238 6.796c-1.278 0-2.381-1.058-2.381-2.565 0-1.522 1.103-2.564 2.38-2.564 1.28 0 2.382 1.042 2.382 2.564 0 1.507-1.103 2.565-2.381 2.565Zm0-6.796c-2.333 0-4.235 1.779-4.235 4.232 0 2.436 1.902 4.231 4.235 4.231s4.235-1.795 4.235-4.232c0-2.452-1.902-4.231-4.235-4.231Z" fill="#fff"/><path d="m11.465 32.328-.073-.07c-.289-.307-.46-.783-.46-1.399v.145V8.993v.151c0-.667.2-1.17.532-1.47L23.754 20 11.465 32.328Zm-.532-23.336Zm.004-.163v-.002.002Zm0-.007v-.001.001Z" fill="url(#paint0_linear_211_116915)"/><path d="m27.85 24.258.093-.053 4.854-2.767c.463-.264.771-.583.925-.922-.154.339-.462.659-.925.923l-4.854 2.766-.093.053Zm.001-.146-4.097-4.11 4.097-4.11 4.946 2.818c.628.358.98.82 1.04 1.291v.002c-.06.47-.412.932-1.04 1.29l-4.946 2.819Z" fill="url(#paint1_linear_211_116915)"/><path d="M12.341 32.797a1.276 1.276 0 0 0 0 0Zm0-.146c-.343 0-.643-.112-.876-.323L23.754 20l4.097 4.111-14.398 8.206c-.399.227-.776.334-1.112.334Zm-.88-.18a1.342 1.342 0 0 1-.063-.063l.063.063Z" fill="url(#paint2_linear_211_116915)"/><path d="M23.754 20 11.464 7.672c.233-.21.533-.323.876-.323.336 0 .714.108 1.113.335L27.85 15.89 23.754 20Zm4.19-4.203L13.452 7.54c-.4-.228-.777-.335-1.113-.335h-.005.006c.336 0 .713.107 1.112.334l14.49 8.26Z" fill="url(#paint3_linear_211_116915)"/><path d="M12.433 32.795c.312-.018.657-.126 1.02-.332l14.397-8.206-14.397 8.206c-.363.207-.708.314-1.02.332Zm-.968-.321-.003-.003.003.003Zm-.067-.065-.006-.007.006.007Z" fill="#323A48"/><path d="m27.85 24.258.094-.053-.093.053Z" fill="url(#paint4_linear_211_116915)"/><path d="M12.342 32.797c-.343 0-.643-.112-.877-.324l-.003-.002-.064-.063-.006-.006.073-.074c.234.211.534.323.877.323.335 0 .713-.107 1.111-.334l14.398-8.206.093.092-.094.054-14.397 8.206c-.363.206-.708.314-1.02.332l-.09.002Z" fill="url(#paint5_linear_211_116915)"/><path d="M11.392 32.402c-.289-.306-.46-.782-.46-1.398 0 .616.171 1.092.46 1.398Z" fill="#323A48"/><path d="M11.392 32.402c-.289-.306-.46-.781-.46-1.398v-.145c0 .616.171 1.092.46 1.398l.073.071-.073.074Z" fill="url(#paint6_linear_211_116915)"/><path d="m11.392 32.402.073-.074-.073.074Z" fill="url(#paint7_linear_211_116915)"/><path d="M33.722 20.516c.076-.168.114-.34.114-.513v-.001c0 .173-.038.345-.114.514Z" fill="#323A48"/><path d="m27.944 24.203-.092-.092 4.945-2.82c.628-.357.981-.82 1.04-1.29 0 .173-.038.346-.115.514-.154.338-.462.658-.925.922l-4.853 2.766Z" fill="url(#paint8_linear_211_116915)"/><path d="M33.837 20c0-.52-.347-1.041-1.04-1.436l-4.853-2.767 4.853 2.766c.694.395 1.04.917 1.04 1.437Z" fill="#323A48"/><path d="M33.836 20c-.058-.471-.411-.933-1.04-1.29l-4.945-2.82.092-.092 4.854 2.766c.692.395 1.039.916 1.04 1.436Z" fill="url(#paint9_linear_211_116915)"/><path d="M10.933 8.992v-.001.001Zm.004-.162v-.002.003Zm0-.004V8.82v.005Zm0-.006c.058-1.022.612-1.613 1.396-1.616-.34.002-.636.114-.868.323l-.003.003a1.324 1.324 0 0 0-.07.07c-.26.275-.425.69-.455 1.22Z" fill="#323A48"/><path d="M10.933 9.145v-.153c0-.054.001-.108.004-.16V8.821c.03-.53.194-.944.455-1.22l.072.073c-.333.301-.531.803-.531 1.47Zm.53-1.614.002-.003c0 .002-.002.002-.003.003Z" fill="url(#paint10_linear_211_116915)"/><path d="M27.851 15.89 13.453 7.685c-.4-.227-.777-.334-1.113-.334-.343 0-.642.112-.876.323l-.072-.073c.023-.024.046-.048.07-.07l.003-.002c.232-.21.528-.322.867-.324h.008c.336 0 .714.108 1.113.335l14.49 8.259-.092.093Z" fill="url(#paint11_linear_211_116915)"/><defs><linearGradient id="paint0_linear_211_116915" x1="22.665" y1="8.766" x2="5.966" y2="25.413" gradientUnits="userSpaceOnUse"><stop stop-color="#00A0FF"/><stop offset=".007" stop-color="#00A1FF"/><stop offset=".26" stop-color="#00BEFF"/><stop offset=".512" stop-color="#00D2FF"/><stop offset=".76" stop-color="#00DFFF"/><stop offset="1" stop-color="#00E3FF"/></linearGradient><linearGradient id="paint1_linear_211_116915" x1="34.602" y1="20.002" x2="10.6" y2="20.002" gradientUnits="userSpaceOnUse"><stop stop-color="#FFE000"/><stop offset=".409" stop-color="#FFBD00"/><stop offset=".775" stop-color="orange"/><stop offset="1" stop-color="#FF9C00"/></linearGradient><linearGradient id="paint2_linear_211_116915" x1="25.667" y1="22.284" x2="3.022" y2="44.859" gradientUnits="userSpaceOnUse"><stop stop-color="#FF3A44"/><stop offset="1" stop-color="#C31162"/></linearGradient><linearGradient id="paint3_linear_211_116915" x1="8.278" y1=".274" x2="18.39" y2="10.355" gradientUnits="userSpaceOnUse"><stop stop-color="#32A071"/><stop offset=".069" stop-color="#2DA771"/><stop offset=".476" stop-color="#15CF74"/><stop offset=".801" stop-color="#06E775"/><stop offset="1" stop-color="#00F076"/></linearGradient><linearGradient id="paint4_linear_211_116915" x1="34.602" y1="20.002" x2="10.6" y2="20.002" gradientUnits="userSpaceOnUse"><stop stop-color="#CCB300"/><stop offset=".409" stop-color="#CC9700"/><stop offset=".775" stop-color="#CC8400"/><stop offset="1" stop-color="#CC7D00"/></linearGradient><linearGradient id="paint5_linear_211_116915" x1="25.667" y1="22.284" x2="3.022" y2="44.859" gradientUnits="userSpaceOnUse"><stop stop-color="#CC2E36"/><stop offset="1" stop-color="#9C0E4E"/></linearGradient><linearGradient id="paint6_linear_211_116915" x1="22.665" y1="8.766" x2="5.966" y2="25.413" gradientUnits="userSpaceOnUse"><stop stop-color="#008DE0"/><stop offset=".007" stop-color="#008DE0"/><stop offset=".26" stop-color="#00A7E0"/><stop offset=".512" stop-color="#00B8E0"/><stop offset=".76" stop-color="#00C4E0"/><stop offset="1" stop-color="#00C7E0"/></linearGradient><linearGradient id="paint7_linear_211_116915" x1="25.668" y1="22.285" x2="3.023" y2="44.861" gradientUnits="userSpaceOnUse"><stop stop-color="#E0333C"/><stop offset="1" stop-color="#AB0F56"/></linearGradient><linearGradient id="paint8_linear_211_116915" x1="34.602" y1="20" x2="10.6" y2="20" gradientUnits="userSpaceOnUse"><stop stop-color="#E0C500"/><stop offset=".409" stop-color="#E0A600"/><stop offset=".775" stop-color="#E09100"/><stop offset="1" stop-color="#E08900"/></linearGradient><linearGradient id="paint9_linear_211_116915" x1="34.602" y1="20.001" x2="10.6" y2="20.001" gradientUnits="userSpaceOnUse"><stop stop-color="#FFE840"/><stop offset=".409" stop-color="#FFCE40"/><stop offset=".775" stop-color="#FFBC40"/><stop offset="1" stop-color="#FFB540"/></linearGradient><linearGradient id="paint10_linear_211_116915" x1="22.665" y1="8.767" x2="5.966" y2="25.414" gradientUnits="userSpaceOnUse"><stop stop-color="#40B8FF"/><stop offset=".007" stop-color="#40B9FF"/><stop offset=".26" stop-color="#40CEFF"/><stop offset=".512" stop-color="#40DDFF"/><stop offset=".76" stop-color="#40E7FF"/><stop offset="1" stop-color="#40EAFF"/></linearGradient><linearGradient id="paint11_linear_211_116915" x1="8.279" y1=".275" x2="18.391" y2="10.355" gradientUnits="userSpaceOnUse"><stop stop-color="#65B895"/><stop offset=".069" stop-color="#62BD95"/><stop offset=".476" stop-color="#50DB97"/><stop offset=".801" stop-color="#44ED98"/><stop offset="1" stop-color="#40F498"/></linearGradient></defs>
    </symbol>
    <symbol id="google-play-light"><path d="M129.993 39.9H6c-2.728 0-4.96-2.238-4.96-4.975V5.075C1.04 2.338 3.272.099 6 .099h123.993c2.728 0 4.96 2.24 4.96 4.976v29.85c0 2.737-2.232 4.975-4.96 4.975Z" fill="#fff"/><path d="M129.993.1H6C3.272.1 1.04 2.337 1.04 5.074v29.85C1.04 37.662 3.272 39.9 6 39.9h123.993c2.728 0 4.96-2.238 4.96-4.975V5.075c0-2.737-2.232-4.976-4.96-4.976Zm0 .795c2.298 0 4.166 1.875 4.166 4.18v29.85c0 2.305-1.868 4.18-4.166 4.18H6c-2.297 0-4.166-1.875-4.166-4.18V5.075C1.834 2.77 3.703.895 6 .895h123.993Z" fill="#323A48"/><path d="M48.076 10.292c0 .833-.246 1.497-.739 1.992-.56.59-1.29.884-2.186.884-.86 0-1.59-.298-2.19-.896-.602-.598-.902-1.339-.902-2.222 0-.885.3-1.625.902-2.223.6-.597 1.33-.896 2.19-.896.426 0 .834.083 1.221.25.388.167.699.39.931.667l-.523.525c-.394-.472-.937-.708-1.63-.708a2.26 2.26 0 0 0-1.625.663c-.457.442-.686 1.016-.686 1.722 0 .705.229 1.28.686 1.721a2.26 2.26 0 0 0 1.626.663c.664 0 1.218-.222 1.662-.666.288-.29.454-.693.499-1.21H45.15v-.717h2.884c.028.156.041.306.041.45Z" fill="#323A48"/><path d="M48.077 10.292h-.1c0 .815-.237 1.447-.71 1.922v.001c-.543.57-1.24.852-2.116.854-.836-.002-1.536-.288-2.12-.868-.583-.58-.872-1.29-.873-2.151.001-.862.29-1.571.873-2.152.584-.58 1.284-.866 2.12-.868.414 0 .807.081 1.183.243.376.162.672.375.894.64l.076-.065-.07-.07-.524.525.07.07.077-.063c-.412-.496-.991-.746-1.706-.744-.65-.001-1.221.232-1.694.69-.477.46-.717 1.066-.716 1.794-.001.727.239 1.333.716 1.793a2.358 2.358 0 0 0 1.694.69c.687.002 1.272-.232 1.733-.695.307-.31.482-.738.527-1.271l.01-.108h-2.17V9.94h2.784v-.1l-.097.018c.027.15.04.294.04.433h.198c0-.151-.014-.307-.043-.469l-.015-.081h-3.066V10.658h2.26v-.1l-.098-.008c-.044.5-.203.878-.47 1.147-.427.426-.95.637-1.593.638-.603-.001-1.115-.21-1.556-.635-.437-.424-.655-.965-.656-1.65.001-.685.219-1.227.656-1.65a2.157 2.157 0 0 1 1.556-.635c.67.001 1.177.223 1.554.672l.07.084.599-.602.064-.065-.058-.07a2.55 2.55 0 0 0-.968-.694 3.16 3.16 0 0 0-1.26-.259c-.883 0-1.644.31-2.261.926-.62.614-.932 1.386-.931 2.293 0 .906.311 1.678.931 2.293a3.09 3.09 0 0 0 2.26.925c.918 0 1.68-.306 2.258-.915l-.071-.068.07.07c.514-.515.769-1.21.768-2.063h-.1ZM52.648 7.798h-2.71v1.893h2.444v.718h-2.444v1.893h2.71v.733h-3.474v-5.97h3.474v.733Z" fill="#323A48"/><path d="M52.649 7.799v-.1h-2.81v2.092h2.444v.518H49.84v2.092h2.71v.535h-3.275V7.165h3.276v.634h.099v-.1.1h.1v-.834h-3.674v6.17h3.673V12.202h-2.71v-1.694h2.444V9.592h-2.444V7.898h2.71v-.1h-.1ZM55.874 13.035h-.765V7.798h-1.663v-.733h4.09v.733h-1.662v5.237Z" fill="#323A48"/><path d="M55.873 13.035v-.1h-.666V7.7h-1.662v-.534h3.892v.534h-1.663v5.336h.1v-.1.1h.099V7.898h1.662V6.965h-4.288V7.899h1.662v5.237h.964v-.1h-.1ZM60.495 13.035v-5.97h.765v5.97h-.765Z" fill="#323A48"/><path d="M60.496 13.035h.099v-5.87h.566v5.77h-.665v.1h.099-.1v.1h.865v-6.17h-.964v6.17h.1v-.1ZM64.652 13.035h-.765V7.798h-1.662v-.733h4.09v.733h-1.663v5.237Z" fill="#323A48"/><path d="M64.652 13.035v-.1h-.666V7.7h-1.663v-.534h3.892v.534h-1.663v5.336h.1v-.1.1h.099V7.898h1.662V6.965h-4.288V7.899h1.662v5.237h.964v-.1h-.1ZM70.258 11.763c.44.448.98.671 1.617.671a2.18 2.18 0 0 0 1.616-.67c.441-.448.662-1.02.662-1.714 0-.695-.22-1.267-.662-1.714a2.18 2.18 0 0 0-1.616-.671c-.638 0-1.177.223-1.617.67-.44.448-.66 1.02-.66 1.715 0 .694.22 1.266.66 1.713Zm3.8.5c-.586.604-1.314.905-2.183.905-.87 0-1.598-.301-2.182-.905-.585-.603-.877-1.34-.877-2.213s.292-1.611.877-2.214c.584-.604 1.311-.905 2.182-.905.865 0 1.59.303 2.178.909.587.606.88 1.342.88 2.21 0 .872-.292 1.61-.876 2.213Z" fill="#323A48"/><path d="m70.257 11.763-.07.07a2.281 2.281 0 0 0 1.687.7 2.28 2.28 0 0 0 1.688-.7c.46-.465.69-1.068.69-1.783 0-.716-.23-1.318-.69-1.784a2.28 2.28 0 0 0-1.688-.7 2.282 2.282 0 0 0-1.687.7c-.459.466-.69 1.068-.69 1.784 0 .715.231 1.318.69 1.783l.07-.07.07-.07c-.42-.43-.63-.97-.631-1.643 0-.674.211-1.215.632-1.644.425-.43.932-.64 1.546-.641a2.08 2.08 0 0 1 1.546.64c.422.43.632.97.633 1.645 0 .674-.211 1.214-.633 1.643a2.08 2.08 0 0 1-1.546.642 2.082 2.082 0 0 1-1.546-.642l-.07.07Zm3.8.5-.071-.069c-.57.585-1.265.873-2.112.875-.847-.002-1.543-.29-2.11-.875l-.003-.003.003.003c-.568-.587-.848-1.294-.849-2.144.001-.85.281-1.558.849-2.145.567-.584 1.263-.873 2.11-.875.842.002 1.536.292 2.108.88.57.589.851 1.295.852 2.14 0 .85-.282 1.557-.848 2.144l.07.07.072.068c.601-.62.905-1.388.905-2.282 0-.89-.305-1.657-.909-2.28-.604-.624-1.362-.94-2.25-.939-.892 0-1.652.314-2.252.936-.603.62-.906 1.388-.905 2.283-.001.894.302 1.663.904 2.283l.003.002-.002-.003c.6.623 1.36.936 2.252.936.893 0 1.652-.313 2.254-.936l-.071-.069ZM76.007 13.035v-5.97h.93l2.893 4.644h.033l-.033-1.15V7.065h.765v5.97h-.798l-3.026-4.87h-.033l.033 1.152v3.718h-.764Z" fill="#323A48"/><path d="M76.007 13.035h.1v-5.87h.776l2.893 4.644h.19l-.036-1.252V7.165h.567v5.77h-.644l-3.026-4.869h-.19l.035 1.252v3.618h-.665v.1h.1-.1v.099h.864v-3.82l-.033-1.152-.1.003v.1h.034v-.1l-.085.053 3.056 4.916h.953v-6.17h-.965v3.595l.033 1.152.1-.002v-.1h-.033v.1l.084-.053-2.922-4.691h-1.085v6.169h.1v-.1ZM107.115 29.95h1.851V17.51h-1.851v12.44Zm16.671-7.958-2.122 5.393h-.063l-2.202-5.393h-1.994l3.302 7.537-1.882 4.193h1.931l5.089-11.73h-2.059Zm-10.497 6.545c-.607 0-1.452-.304-1.452-1.056 0-.96 1.054-1.329 1.962-1.329.815 0 1.197.176 1.692.417a2.247 2.247 0 0 1-2.202 1.968Zm.224-6.817c-1.34 0-2.728.592-3.303 1.904l1.643.688c.351-.688 1.005-.912 1.691-.912.958 0 1.931.576 1.947 1.6v.128c-.336-.192-1.053-.48-1.931-.48-1.77 0-3.574.976-3.574 2.8 0 1.665 1.452 2.738 3.079 2.738 1.245 0 1.931-.56 2.362-1.217h.064v.96h1.786V25.16c0-2.208-1.643-3.44-3.764-3.44Zm-11.439 1.786h-2.633v-4.264h2.633c1.383 0 2.169 1.15 2.169 2.132 0 .964-.786 2.132-2.169 2.132Zm-.048-5.995h-4.435V29.95h1.85v-4.713h2.585c2.051 0 4.068-1.49 4.068-3.863s-2.017-3.863-4.068-3.863ZM77.841 28.539c-1.278 0-2.35-1.074-2.35-2.549 0-1.49 1.072-2.58 2.35-2.58 1.263 0 2.253 1.09 2.253 2.58 0 1.476-.99 2.55-2.253 2.55Zm2.126-5.85h-.064c-.416-.498-1.215-.946-2.222-.946-2.11 0-4.043 1.859-4.043 4.247 0 2.373 1.934 4.216 4.043 4.216 1.007 0 1.806-.448 2.222-.961h.064v.609c0 1.62-.863 2.485-2.254 2.485-1.134 0-1.837-.818-2.125-1.507l-1.614.673c.463 1.122 1.694 2.5 3.74 2.5 2.173 0 4.01-1.282 4.01-4.408V22h-1.757v.69Zm3.036 7.26h1.854V17.51h-1.854v12.44Zm4.586-4.103c-.048-1.635 1.263-2.468 2.206-2.468.735 0 1.358.368 1.566.898l-3.772 1.57Zm5.753-1.41c-.35-.946-1.422-2.693-3.611-2.693-2.174 0-3.98 1.715-3.98 4.232 0 2.372 1.79 4.231 4.187 4.231 1.934 0 3.053-1.186 3.516-1.875l-1.438-.962c-.479.706-1.135 1.17-2.078 1.17-.942 0-1.614-.433-2.045-1.282l5.64-2.34-.19-.481ZM48.4 23.04v1.795h4.283c-.128 1.01-.464 1.748-.975 2.26-.623.626-1.598 1.315-3.308 1.315-2.637 0-4.698-2.132-4.698-4.777s2.061-4.777 4.698-4.777c1.422 0 2.46.561 3.228 1.283l1.262-1.267c-1.07-1.026-2.493-1.811-4.49-1.811-3.612 0-6.648 2.95-6.648 6.572 0 3.623 3.036 6.572 6.648 6.572 1.95 0 3.42-.64 4.57-1.843 1.183-1.186 1.55-2.853 1.55-4.2 0-.417-.031-.801-.096-1.122H48.4Zm10.99 5.498c-1.279 0-2.382-1.058-2.382-2.565 0-1.522 1.103-2.564 2.382-2.564 1.278 0 2.38 1.042 2.38 2.564 0 1.507-1.102 2.565-2.38 2.565Zm0-6.796c-2.334 0-4.236 1.779-4.236 4.232 0 2.436 1.902 4.231 4.236 4.231 2.333 0 4.234-1.795 4.234-4.232 0-2.452-1.901-4.231-4.234-4.231Zm9.238 6.796c-1.278 0-2.381-1.058-2.381-2.565 0-1.522 1.103-2.564 2.38-2.564 1.28 0 2.382 1.042 2.382 2.564 0 1.507-1.103 2.565-2.381 2.565Zm0-6.796c-2.333 0-4.235 1.779-4.235 4.232 0 2.436 1.902 4.231 4.235 4.231s4.235-1.795 4.235-4.232c0-2.452-1.902-4.231-4.235-4.231Z" fill="#323A48"/><path d="m11.465 32.328-.073-.07c-.289-.307-.46-.783-.46-1.399v.145V8.993v.151c0-.667.2-1.17.532-1.47L23.754 20 11.465 32.328Zm-.532-23.336Zm.004-.163v-.002.002Zm0-.007v-.001.001Z" fill="url(#paint0_linear_211_116853)"/><path d="m27.85 24.258.093-.053 4.854-2.767c.463-.264.771-.583.925-.922-.154.339-.462.659-.925.923l-4.854 2.766-.093.053Zm.001-.146-4.097-4.11 4.097-4.11 4.946 2.818c.628.358.98.82 1.04 1.291v.002c-.06.47-.412.932-1.04 1.29l-4.946 2.819Z" fill="url(#paint1_linear_211_116853)"/><path d="M12.341 32.797a1.276 1.276 0 0 0 0 0Zm0-.146c-.343 0-.643-.112-.876-.323L23.754 20l4.097 4.111-14.398 8.206c-.399.227-.776.334-1.112.334Zm-.88-.18a1.342 1.342 0 0 1-.063-.063l.063.063Z" fill="url(#paint2_linear_211_116853)"/><path d="M23.754 20 11.464 7.672c.233-.21.533-.323.876-.323.336 0 .714.108 1.113.335L27.85 15.89 23.754 20Zm4.19-4.203L13.452 7.54c-.4-.228-.777-.335-1.113-.335h-.005.006c.336 0 .713.107 1.112.334l14.49 8.26Z" fill="url(#paint3_linear_211_116853)"/><path d="M12.433 32.795c.312-.018.657-.126 1.02-.332l14.397-8.206-14.397 8.206c-.363.207-.708.314-1.02.332Zm-.968-.321-.003-.003.003.003Zm-.067-.065-.006-.007.006.007Z" fill="#fff"/><path d="m27.85 24.258.094-.053-.093.053Z" fill="url(#paint4_linear_211_116853)"/><path d="M12.342 32.797c-.343 0-.643-.112-.877-.324l-.003-.002-.064-.063-.006-.006.073-.074c.234.211.534.323.877.323.335 0 .713-.107 1.111-.334l14.398-8.206.093.092-.094.054-14.397 8.206c-.363.206-.708.314-1.02.332l-.09.002Z" fill="url(#paint5_linear_211_116853)"/><path d="M11.392 32.402c-.289-.306-.46-.782-.46-1.398 0 .616.171 1.092.46 1.398Z" fill="#fff"/><path d="M11.392 32.402c-.289-.306-.46-.781-.46-1.398v-.145c0 .616.171 1.092.46 1.398l.073.071-.073.074Z" fill="url(#paint6_linear_211_116853)"/><path d="m11.392 32.402.073-.074-.073.074Z" fill="url(#paint7_linear_211_116853)"/><path d="M33.722 20.516c.076-.168.114-.34.114-.513v-.001c0 .173-.038.345-.114.514Z" fill="#fff"/><path d="m27.944 24.203-.092-.092 4.945-2.82c.628-.357.981-.82 1.04-1.29 0 .173-.038.346-.115.514-.154.338-.462.658-.925.922l-4.853 2.766Z" fill="url(#paint8_linear_211_116853)"/><path d="M33.837 20c0-.52-.347-1.041-1.04-1.436l-4.853-2.767 4.853 2.766c.694.395 1.04.917 1.04 1.437Z" fill="#BDC4D1"/><path d="M33.836 20c-.058-.471-.411-.933-1.04-1.29l-4.945-2.82.092-.092 4.854 2.766c.692.395 1.039.916 1.04 1.436Z" fill="url(#paint9_linear_211_116853)"/><path d="M10.933 8.992v-.001.001Zm.004-.162v-.002.003Zm0-.004V8.82v.005Zm0-.006c.058-1.022.612-1.613 1.396-1.616-.34.002-.636.114-.868.323l-.003.003a1.324 1.324 0 0 0-.07.07c-.26.275-.425.69-.455 1.22Z" fill="#BDC4D1"/><path d="M10.933 9.145v-.153c0-.054.001-.108.004-.16V8.821c.03-.53.194-.944.455-1.22l.072.073c-.333.301-.531.803-.531 1.47Zm.53-1.614.002-.003c0 .002-.002.002-.003.003Z" fill="url(#paint10_linear_211_116853)"/><path d="M27.851 15.89 13.453 7.685c-.4-.227-.777-.334-1.113-.334-.343 0-.642.112-.876.323l-.072-.073c.023-.024.046-.048.07-.07l.003-.002c.232-.21.528-.322.867-.324h.008c.336 0 .714.108 1.113.335l14.49 8.259-.092.093Z" fill="url(#paint11_linear_211_116853)"/><defs><linearGradient id="paint0_linear_211_116853" x1="22.665" y1="8.766" x2="5.966" y2="25.413" gradientUnits="userSpaceOnUse"><stop stop-color="#00A0FF"/><stop offset=".007" stop-color="#00A1FF"/><stop offset=".26" stop-color="#00BEFF"/><stop offset=".512" stop-color="#00D2FF"/><stop offset=".76" stop-color="#00DFFF"/><stop offset="1" stop-color="#00E3FF"/></linearGradient><linearGradient id="paint1_linear_211_116853" x1="34.602" y1="20.002" x2="10.6" y2="20.002" gradientUnits="userSpaceOnUse"><stop stop-color="#FFE000"/><stop offset=".409" stop-color="#FFBD00"/><stop offset=".775" stop-color="orange"/><stop offset="1" stop-color="#FF9C00"/></linearGradient><linearGradient id="paint2_linear_211_116853" x1="25.667" y1="22.284" x2="3.022" y2="44.859" gradientUnits="userSpaceOnUse"><stop stop-color="#FF3A44"/><stop offset="1" stop-color="#C31162"/></linearGradient><linearGradient id="paint3_linear_211_116853" x1="8.278" y1=".274" x2="18.39" y2="10.355" gradientUnits="userSpaceOnUse"><stop stop-color="#32A071"/><stop offset=".069" stop-color="#2DA771"/><stop offset=".476" stop-color="#15CF74"/><stop offset=".801" stop-color="#06E775"/><stop offset="1" stop-color="#00F076"/></linearGradient><linearGradient id="paint4_linear_211_116853" x1="34.602" y1="20.002" x2="10.6" y2="20.002" gradientUnits="userSpaceOnUse"><stop stop-color="#CCB300"/><stop offset=".409" stop-color="#CC9700"/><stop offset=".775" stop-color="#CC8400"/><stop offset="1" stop-color="#CC7D00"/></linearGradient><linearGradient id="paint5_linear_211_116853" x1="25.667" y1="22.284" x2="3.022" y2="44.859" gradientUnits="userSpaceOnUse"><stop stop-color="#CC2E36"/><stop offset="1" stop-color="#9C0E4E"/></linearGradient><linearGradient id="paint6_linear_211_116853" x1="22.665" y1="8.766" x2="5.966" y2="25.413" gradientUnits="userSpaceOnUse"><stop stop-color="#008DE0"/><stop offset=".007" stop-color="#008DE0"/><stop offset=".26" stop-color="#00A7E0"/><stop offset=".512" stop-color="#00B8E0"/><stop offset=".76" stop-color="#00C4E0"/><stop offset="1" stop-color="#00C7E0"/></linearGradient><linearGradient id="paint7_linear_211_116853" x1="25.668" y1="22.285" x2="3.023" y2="44.861" gradientUnits="userSpaceOnUse"><stop stop-color="#E0333C"/><stop offset="1" stop-color="#AB0F56"/></linearGradient><linearGradient id="paint8_linear_211_116853" x1="34.602" y1="20" x2="10.6" y2="20" gradientUnits="userSpaceOnUse"><stop stop-color="#E0C500"/><stop offset=".409" stop-color="#E0A600"/><stop offset=".775" stop-color="#E09100"/><stop offset="1" stop-color="#E08900"/></linearGradient><linearGradient id="paint9_linear_211_116853" x1="34.602" y1="20.001" x2="10.6" y2="20.001" gradientUnits="userSpaceOnUse"><stop stop-color="#FFE840"/><stop offset=".409" stop-color="#FFCE40"/><stop offset=".775" stop-color="#FFBC40"/><stop offset="1" stop-color="#FFB540"/></linearGradient><linearGradient id="paint10_linear_211_116853" x1="22.665" y1="8.767" x2="5.966" y2="25.414" gradientUnits="userSpaceOnUse"><stop stop-color="#40B8FF"/><stop offset=".007" stop-color="#40B9FF"/><stop offset=".26" stop-color="#40CEFF"/><stop offset=".512" stop-color="#40DDFF"/><stop offset=".76" stop-color="#40E7FF"/><stop offset="1" stop-color="#40EAFF"/></linearGradient><linearGradient id="paint11_linear_211_116853" x1="8.279" y1=".275" x2="18.391" y2="10.355" gradientUnits="userSpaceOnUse"><stop stop-color="#65B895"/><stop offset=".069" stop-color="#62BD95"/><stop offset=".476" stop-color="#50DB97"/><stop offset=".801" stop-color="#44ED98"/><stop offset="1" stop-color="#40F498"/></linearGradient></defs>
    </symbol>
    <symbol id="pci-compliant-icon"><path d="M.842 2.103 38.162 0c1.716 3.806 3.43 7.6 5.14 11.38l-3.9 5.15V9.27h-4.714v10.533l-1.822-1.478-.064-.4c-.477.137-.926.28-1.38.395a6.204 6.204 0 0 1-3.46.03c-1.682-.527-2.492-1.842-2.262-3.686.188-1.498 1.402-2.543 3.061-2.642a6.842 6.842 0 0 1 3.329.656l.431.194V9.594c-.465-.12-.947-.28-1.447-.372-2.161-.337-4.298-.28-6.35.56-1.789.732-3.126 1.932-3.7 3.827-.699 2.3-.17 5.639 3.44 7.139 1.257.507 2.6.774 3.955.785h1.161c.143.998.945 1.559 1.464 2.4L11.23 30.137c-1.083-2.932-2.148-5.817-3.239-8.778h4.618v-3.611h.93c1.375-.042 2.726-.197 3.988-.794 1.093-.516 1.915-1.292 2.243-2.487.53-1.881-.26-3.58-2.052-4.43a8.812 8.812 0 0 0-3.645-.776c-1.963-.04-3.942-.017-5.913-.02a1.645 1.645 0 0 0-.205.034v11.728l-.084.017L.84 2.103Zm36.165 6.05c.348-.056.668-.075.968-.157a2.49 2.49 0 0 0 1.909-2.523 2.45 2.45 0 0 0-1.915-2.51 4.422 4.422 0 0 0-1.402-.092 2.523 2.523 0 0 0-2.366 2.327 2.523 2.523 0 0 0 1.794 2.753c.333.09.67.157 1.012.202ZM79.621 10.474a3.112 3.112 0 0 0-1.719-1.898c-.487-.19-.995-.336-1.5-.48-.504-.142-1.045-.249-1.561-.403a.62.62 0 0 1-.525-.645.746.746 0 0 1 .628-.622c.8-.143 1.531.067 1.758.956.022.058.047.114.076.168l2.585-.154c-.129-.923-.423-1.708-1.211-2.094-1.741-.842-3.558-.886-5.257.05-1.59.878-1.55 3.064-.017 4.032.195.134.406.244.628.328.609.202 1.228.373 1.842.56.366.1.725.222 1.077.365.329.13.542.451.532.805a.908.908 0 0 1-.56.796 1.612 1.612 0 0 1-2.22-.841c-.065-.171-.11-.348-.172-.544-.67.04-1.323.073-1.977.115-.193 0-.386.042-.56.064-.107 1.085.768 2.403 1.856 2.77a7.06 7.06 0 0 0 3.807.18c1.304-.28 2.112-.754 2.428-2.089-.01-.017.27-.858.062-1.419Z" fill="#79849A"/><path d="M41.644 15.438a73.655 73.655 0 0 1 5.271-6.365c.427-.465 1.02-.591 1.587-.715.632-.12 1.272-.196 1.915-.227.224-.017.519-.042.637.323a2.542 2.542 0 0 1-.261.302c-2.504 2.109-4.354 4.747-6.098 7.472a180.174 180.174 0 0 0-6.006 10.158c-.242.413-.663.69-1.138.746-1.34.28-2.479 0-3.365-1.147-1.003-1.326-2.075-2.604-3.115-3.905-.412-.516-.434-.816-.056-1.349.38-.542.894-.975 1.492-1.259l4.144 3.592M52.685 13.963V4.895c.138 0 .253-.022.368-.022h4.06c2.161 0 3.594 1.225 3.852 3.365.108.856.108 1.723 0 2.579-.227 1.699-1.402 2.787-3.126 3.056a7.557 7.557 0 0 1-1.1.084h-3.585l-.469.006Zm2.804-7.127v5.133c.519-.028.998-.039 1.478-.087a1.236 1.236 0 0 0 1.121-.961 5.136 5.136 0 0 0-.042-3.014 1.248 1.248 0 0 0-.964-.89c-.51-.1-1.032-.12-1.593-.187v.006ZM70.083 7.39l-2.565.146c-.042-.093-.081-.16-.107-.23a1.402 1.402 0 0 0-1.875-.842.679.679 0 0 0-.488.609.58.58 0 0 0 .482.597c.438.135.889.224 1.33.353.59.169 1.194.323 1.766.561 1.045.41 1.727 1.122 1.774 2.313a2.75 2.75 0 0 1-1.576 2.728 5.06 5.06 0 0 1-1.682.482 7.031 7.031 0 0 1-2.658-.16 3.05 3.05 0 0 1-2.327-2.924l2.588-.17c.067.21.12.395.188.574a1.61 1.61 0 0 0 2.28.752c.633-.396.641-1.167-.017-1.52a7.082 7.082 0 0 0-1.144-.404c-.72-.238-1.467-.423-2.157-.729a2.215 2.215 0 0 1-1.44-2.192 2.403 2.403 0 0 1 1.547-2.227c1.032-.465 2.123-.44 3.213-.342a4.67 4.67 0 0 1 1.217.28c1.023.405 1.514 1.223 1.651 2.345ZM12.606 11.919c.771 0 1.514-.056 2.196.339.502.28.642.765.617 1.31a1.326 1.326 0 0 1-.777 1.225 3.89 3.89 0 0 1-2.036.255v-3.13ZM59.151 15.59h1.108l.432 1.58h.1l.444-1.592h1.079v2.84h-.594v-1.892l-.143-.023c-.171.637-.345 1.273-.52 1.924h-.627l-.513-1.91h-.096v1.887h-.67V15.59ZM74.325 17.024v1.385h-.797v-2.803h.794l1.02 1.457h.093v-1.457h.821v2.817h-.824l-.993-1.427-.114.028ZM57.082 15.541c.968 0 1.514.524 1.517 1.455.003.931-.546 1.509-1.474 1.514-.97 0-1.534-.54-1.534-1.491 0-.95.54-1.478 1.491-1.478Zm.662 1.478a3.181 3.181 0 0 0-.1-.491.603.603 0 0 0-1.122 0c-.145.315-.136.68.025.987.11.17.284.288.482.328.46.081.69-.227.715-.824ZM72.08 17.992h-1.01c-.067.146-.134.28-.207.438h-.841c.364-.973.717-1.91 1.07-2.846h.957c.35.92.703 1.856 1.073 2.835h-.863l-.18-.427Zm-.455-1.556h-.112c-.09.28-.18.586-.28.906h.667l-.275-.906ZM54.506 17.341l.628.171c0 .56-.42.942-1.063.995-.88.076-1.5-.347-1.629-1.121-.154-.914.196-1.646.914-1.797.718-.152 1.537-.11 1.792.79l-.67.174c-.062-.076-.107-.14-.16-.193a.56.56 0 0 0-.987.227 2.307 2.307 0 0 0-.028.774c0 .256.196.47.451.493.25.068.512-.05.628-.28.023-.076.065-.138.124-.233ZM63.02 15.58c.561 0 1.122-.027 1.663 0 .541.029.754.36.749.878a.805.805 0 0 1-.769.875c-.243.025-.49 0-.784 0-.017.384-.034.715-.051 1.074h-.808v-2.826Zm.858 1.223c.28.028.528.062.67-.176a.358.358 0 0 0 0-.326c-.162-.232-.403-.168-.658-.115l-.011.617ZM45.763 16.84l.982 2.173-2.9.914-.067-.056 1.882-3.031h.103ZM76.744 15.586h2.619v.64l-.841.038v2.16h-.841v-2.145l-.937-.062v-.631ZM66.814 17.784h1.402v.636h-2.218V15.6h.81l.006 2.184ZM68.74 18.413V15.61h.841v2.804h-.84Z" fill="#79849A"/>
    </symbol>
</svg>