<svg width="136" height="40" viewBox="0 0 136 40" fill="none" xmlns="http://www.w3.org/2000/svg">
<path d="M129.993 39.9004H5.99978C3.27192 39.9004 1.04004 37.6616 1.04004 34.9253V5.07452C1.04004 2.3382 3.27192 0.0993958 5.99978 0.0993958H129.993C132.721 0.0993958 134.953 2.3382 134.953 5.07452V34.9253C134.953 37.6616 132.721 39.9004 129.993 39.9004Z" fill="white"/>
<path d="M129.993 0.0993958H5.99978C3.27192 0.0993958 1.04004 2.3382 1.04004 5.07452V34.9253C1.04004 37.6616 3.27192 39.9004 5.99978 39.9004H129.993C132.721 39.9004 134.953 37.6616 134.953 34.9253V5.07452C134.953 2.3382 132.721 0.0993958 129.993 0.0993958ZM129.993 0.895416C132.291 0.895416 134.159 2.77044 134.159 5.07452V34.9253C134.159 37.2297 132.291 39.1048 129.993 39.1048H5.99978C3.70282 39.1048 1.8336 37.2297 1.8336 34.9253V5.07452C1.8336 2.77044 3.70282 0.895416 5.99978 0.895416H129.993Z" fill="#323A48"/>
<path d="M48.0761 10.2917C48.0761 11.1254 47.83 11.7893 47.3371 12.2845C46.7773 12.8733 46.0476 13.168 45.1506 13.168C44.2916 13.168 43.5612 12.8695 42.9606 12.2717C42.3589 11.6742 42.0586 10.9334 42.0586 10.0496C42.0586 9.16528 42.3589 8.42488 42.9606 7.82707C43.5612 7.22966 44.2916 6.93075 45.1506 6.93075C45.5768 6.93075 45.9849 7.01434 46.3724 7.1811C46.7598 7.34827 47.0706 7.57016 47.3031 7.84807L46.78 8.37314C46.386 7.9009 45.8435 7.66498 45.1506 7.66498C44.5241 7.66498 43.9824 7.88578 43.5252 8.32767C43.0679 8.77006 42.8394 9.34369 42.8394 10.0496C42.8394 10.7554 43.0679 11.3291 43.5252 11.7715C43.9824 12.2133 44.5241 12.4341 45.1506 12.4341C45.8152 12.4341 46.3693 12.2121 46.8129 11.7676C47.1009 11.4779 47.2674 11.0753 47.3119 10.5583H45.1506V9.8412H48.0347C48.0625 9.99712 48.0761 10.1468 48.0761 10.2917Z" fill="#323A48"/>
<path d="M48.0767 10.2919H47.9775C47.9767 11.1065 47.7395 11.7392 47.2676 12.2142L47.2665 12.215L47.2661 12.2158C46.724 12.7844 46.0272 13.0674 45.1512 13.0686C44.315 13.0674 43.6152 12.7813 43.0309 12.2014C42.4478 11.6203 42.1594 10.911 42.1584 10.0497C42.1594 9.18797 42.4478 8.47902 43.0309 7.89832C43.6152 7.31802 44.315 7.03156 45.1512 7.03036C45.5646 7.03036 45.9583 7.11126 46.3338 7.27255C46.7096 7.43504 47.0065 7.64797 47.2277 7.91235L47.3037 7.84817L47.2336 7.77783L46.7104 8.3033L46.7805 8.37325L46.8569 8.30957C46.4446 7.81394 45.8658 7.56409 45.1512 7.56559C44.5014 7.56479 43.9299 7.79763 43.4571 8.25633C42.9798 8.71653 42.7399 9.3224 42.7407 10.0497C42.7399 10.7769 42.9798 11.3828 43.4571 11.843C43.9299 12.3017 44.5014 12.5345 45.1512 12.5337C45.8378 12.5349 46.4229 12.3013 46.8836 11.838C47.1913 11.5286 47.3657 11.0999 47.4114 10.567L47.4206 10.4589H45.2503V9.94081H48.0352V9.84131L47.9375 9.85882C47.9647 10.0097 47.9775 10.153 47.9775 10.2919H48.0767H48.1759C48.1759 10.1406 48.1619 9.98519 48.1328 9.8235L48.1182 9.74181H45.052V10.5584V10.6579H47.3125V10.5584L47.2137 10.5499C47.17 11.0506 47.0111 11.4276 46.7433 11.6973C46.3171 12.1233 45.794 12.3335 45.1512 12.3347C44.5479 12.3339 44.036 12.1256 43.5947 11.7C43.1576 11.2759 42.9402 10.7345 42.9391 10.0497C42.9402 9.36479 43.1576 8.8234 43.5947 8.39932C44.036 7.97375 44.5479 7.76539 45.1512 7.76459C45.8219 7.76618 46.3284 7.98847 46.7046 8.43743L46.7744 8.52061L47.3738 7.91852L47.4381 7.85404L47.3796 7.78439C47.1358 7.49295 46.8112 7.26161 46.412 7.08987C46.0122 6.91763 45.5902 6.83136 45.1512 6.83136C44.2693 6.83056 43.5083 7.14151 42.891 7.75683C42.2714 8.37096 41.9592 9.1429 41.96 10.0497C41.9592 10.956 42.2714 11.7284 42.8914 12.3429C43.5083 12.9578 44.2693 13.2684 45.1512 13.2676C46.0695 13.2684 46.8313 12.9624 47.4094 12.3533L47.3377 12.2846L47.4078 12.3549C47.9217 11.8399 48.1766 11.1442 48.1759 10.2919H48.0767Z" fill="#323A48"/>
<path d="M52.6483 7.79844H49.9379V9.69137H52.3822V10.4088H49.9379V12.3017H52.6483V13.0352H49.1738V7.065H52.6483V7.79844Z" fill="#323A48"/>
<path d="M52.6489 7.79855V7.69904H49.8393V9.79098H52.2835V10.3091L49.8393 10.3094V12.4013H52.5497V12.9358H49.2736V7.16462H52.5497V7.79855H52.6489V7.69904V7.79855H52.7481V7.06511V6.96561H49.0752V13.1348H52.7481V12.3018V12.2023H50.0377V10.5084H52.4819V9.69148V9.59198H50.0377V7.89805H52.7481V7.79855H52.6489Z" fill="#323A48"/>
<path d="M55.8739 13.0352H55.1086V7.79844H53.4463V7.065H57.5362V7.79844H55.8739V13.0352Z" fill="#323A48"/>
<path d="M55.8735 13.0353V12.9358H55.2074V7.69904H53.5451V7.16462H57.4366V7.69904H55.7743V13.0353H55.8735V12.9358V13.0353H55.9727V7.89805H57.635V7.06511V6.96561H53.3467V7.79855V7.89805H55.009V13.1348H55.8735H55.9727V13.0353H55.8735Z" fill="#323A48"/>
<path d="M60.4951 13.0352V7.065H61.2596V13.0352H60.4951Z" fill="#323A48"/>
<path d="M60.4957 13.0353H60.5949V7.16462H61.161V12.9358H60.4957V13.0353H60.5949H60.4957V13.1348H61.2602H61.3594V6.96561H60.4957H60.3965V13.1348H60.4957V13.0353Z" fill="#323A48"/>
<path d="M64.6521 13.0352H63.8868V7.79844H62.2246V7.065H66.3144V7.79844H64.6521V13.0352Z" fill="#323A48"/>
<path d="M64.6517 13.0353V12.9358H63.9856V7.69904H62.3234V7.16462H66.2148V7.69904H64.5525V13.0353H64.6517V12.9358V13.0353H64.7509V7.89805H66.4132V7.06511V6.96561H62.125V7.79855V7.89805H63.7872V13.1348H64.6517H64.7509V13.0353H64.6517Z" fill="#323A48"/>
<path d="M70.2578 11.7633C70.6983 12.2107 71.2374 12.4341 71.8748 12.4341C72.5122 12.4341 73.0515 12.2107 73.4914 11.7633C73.9323 11.3159 74.1532 10.7441 74.1532 10.0496C74.1532 9.35503 73.9323 8.78319 73.4914 8.33583C73.0515 7.88847 72.5122 7.66498 71.8748 7.66498C71.2374 7.66498 70.6983 7.88847 70.2578 8.33583C69.818 8.78319 69.5972 9.35503 69.5972 10.0496C69.5972 10.7441 69.818 11.3159 70.2578 11.7633ZM74.0571 12.2631C73.4719 12.8667 72.7442 13.168 71.8748 13.168C71.0044 13.168 70.2771 12.8667 69.6933 12.2631C69.1077 11.6602 68.8164 10.9222 68.8164 10.0496C68.8164 9.17692 69.1077 8.43881 69.6933 7.83603C70.2771 7.23235 71.0044 6.93075 71.8748 6.93075C72.7397 6.93075 73.4654 7.23394 74.0532 7.83991C74.6402 8.44588 74.9339 9.1824 74.9339 10.0496C74.9339 10.9222 74.6409 11.6602 74.0571 12.2631Z" fill="#323A48"/>
<path d="M70.2574 11.7634L70.1869 11.8333C70.6437 12.2986 71.2137 12.5349 71.8744 12.5337C72.5346 12.5349 73.1054 12.2986 73.5615 11.8333C74.0213 11.3677 74.2526 10.7652 74.252 10.0497C74.2526 9.33414 74.0213 8.73166 73.5615 8.26598C73.1054 7.80071 72.5346 7.56439 71.8744 7.56559C71.2137 7.56439 70.6437 7.80071 70.1869 8.26598C69.7281 8.73166 69.4964 9.33414 69.4976 10.0497C69.4964 10.7652 69.7281 11.3677 70.1869 11.8333L70.2574 11.7634L70.3279 11.6934C69.9071 11.2639 69.6967 10.7236 69.6959 10.0497C69.6967 9.37574 69.9071 8.83544 70.3279 8.40589C70.7526 7.97643 71.2597 7.76579 71.8744 7.76459C72.4885 7.76579 72.9968 7.97643 73.4204 8.40589C73.842 8.83544 74.0524 9.37574 74.0532 10.0497C74.0524 10.7236 73.842 11.2639 73.4204 11.6934C72.9968 12.1229 72.4885 12.3335 71.8744 12.3347C71.2597 12.3335 70.7526 12.1229 70.3279 11.6934L70.2574 11.7634ZM74.0566 12.2632L73.9857 12.194C73.4169 12.7786 72.7214 13.0674 71.8744 13.0686C71.0269 13.0674 70.3314 12.7786 69.7637 12.194L69.761 12.191L69.7637 12.194C69.1961 11.6075 68.916 10.9001 68.9152 10.0497C68.916 9.19922 69.1961 8.49186 69.7637 7.90529C70.3314 7.32071 71.0269 7.03156 71.8744 7.03036C72.7159 7.03156 73.4099 7.3219 73.9818 7.90957C74.5514 8.49882 74.8331 9.20509 74.8343 10.0497C74.8331 10.9001 74.5522 11.6075 73.9857 12.194L74.0566 12.2632L74.128 12.3324C74.7293 11.7129 75.0334 10.9444 75.0327 10.0497C75.0334 9.16001 74.7281 8.39315 74.124 7.77086C73.5196 7.14618 72.7624 6.83026 71.8744 6.83136C70.9816 6.83026 70.2222 7.14469 69.6215 7.76698V7.76658C69.019 8.38648 68.716 9.15494 68.7168 10.0497C68.716 10.9444 69.019 11.7129 69.6215 12.3328L69.6242 12.3355L69.6215 12.3324C70.2222 12.9546 70.9816 13.2684 71.8744 13.2676C72.7667 13.2684 73.5261 12.9546 74.128 12.3324L74.0566 12.2632Z" fill="#323A48"/>
<path d="M76.0068 13.0352V7.065H76.9376L79.8301 11.7094H79.863L79.8301 10.5588V7.065H80.5954V13.0352H79.7972L76.7709 8.1657H76.738L76.7709 9.31665V13.0352H76.0068Z" fill="#323A48"/>
<path d="M76.0074 13.0353H76.1066V7.16462H76.8831L79.7756 11.809H79.8636H79.9655L79.9298 10.5575V7.16462H80.4967V12.9358H79.8528L76.8265 8.06631H76.7386H76.6367L76.6723 9.31835V12.9358H76.0074V13.0353H76.1066H76.0074V13.1348H76.7715H76.8707V9.31516L76.8378 8.16312L76.7386 8.16581V8.26531H76.7715V8.16581L76.6874 8.21875L79.7427 13.1348H80.5959H80.6951V6.96561H79.8306H79.7315V10.5601L79.7644 11.7122L79.8636 11.7095V11.61H79.8306V11.7095L79.9148 11.6567L76.9931 6.96561H76.0074H75.9082V13.1348H76.0074V13.0353Z" fill="#323A48"/>
<path d="M107.115 29.9499H108.966V17.5109H107.115V29.9499ZM123.786 21.9917L121.664 27.3847H121.601L119.399 21.9917H117.405L120.707 29.5293L118.825 33.7221H120.756L125.845 21.9917H123.786ZM113.289 28.5371C112.682 28.5371 111.837 28.2331 111.837 27.4807C111.837 26.5206 112.891 26.1525 113.799 26.1525C114.614 26.1525 114.996 26.3285 115.491 26.5688C115.347 27.7209 114.358 28.5371 113.289 28.5371ZM113.513 21.7196C112.173 21.7196 110.785 22.3119 110.21 23.6242L111.853 24.3121C112.204 23.6242 112.858 23.3999 113.544 23.3999C114.502 23.3999 115.475 23.9763 115.491 25.0005V25.1283C115.155 24.9363 114.438 24.6483 113.56 24.6483C111.79 24.6483 109.986 25.6243 109.986 27.4487C109.986 29.1131 111.438 30.1855 113.065 30.1855C114.31 30.1855 114.996 29.6254 115.427 28.9693H115.491V29.9293H117.277V25.1602C117.277 22.9521 115.634 21.7196 113.513 21.7196ZM102.074 23.506H99.4409V19.2422H102.074C103.457 19.2422 104.243 20.3914 104.243 21.374C104.243 22.338 103.457 23.506 102.074 23.506ZM102.026 17.5109H97.5909V29.9499H99.4409V25.2372H102.026C104.077 25.2372 106.094 23.7474 106.094 21.374C106.094 19.0008 104.077 17.5109 102.026 17.5109ZM77.8412 28.5394C76.5625 28.5394 75.4919 27.4655 75.4919 25.9904C75.4919 24.4999 76.5625 23.4096 77.8412 23.4096C79.1037 23.4096 80.0944 24.4999 80.0944 25.9904C80.0944 27.4655 79.1037 28.5394 77.8412 28.5394ZM79.9666 22.6882H79.9026C79.4872 22.1914 78.6878 21.7426 77.6812 21.7426C75.5717 21.7426 73.6382 23.602 73.6382 25.9904C73.6382 28.363 75.5717 30.2065 77.6812 30.2065C78.6878 30.2065 79.4872 29.7575 79.9026 29.2449H79.9666V29.8539C79.9666 31.4732 79.1037 32.3388 77.7133 32.3388C76.5788 32.3388 75.8756 31.521 75.5876 30.8318L73.9738 31.5051C74.4372 32.6272 75.6679 34.0059 77.7133 34.0059C79.8867 34.0059 81.7245 32.7232 81.7245 29.5974V21.9991H79.9666V22.6882ZM83.0028 29.9499H84.8566V17.5105H83.0028V29.9499ZM87.5894 25.8463C87.5414 24.211 88.8518 23.3777 89.7946 23.3777C90.5302 23.3777 91.1531 23.7462 91.3605 24.2756L87.5894 25.8463ZM93.3424 24.4357C92.9912 23.4896 91.9199 21.7426 89.7306 21.7426C87.5572 21.7426 85.7516 23.4578 85.7516 25.9745C85.7516 28.3471 87.5414 30.2065 89.9383 30.2065C91.8723 30.2065 92.9912 29.0202 93.4545 28.331L92.0161 27.369C91.537 28.0745 90.8814 28.5394 89.9383 28.5394C88.9956 28.5394 88.3245 28.1065 87.8928 27.2571L93.5338 24.9165L93.3424 24.4357ZM48.399 23.0411V24.8364H52.6817C52.5539 25.8463 52.2183 26.5836 51.7069 27.0966C51.0838 27.722 50.1089 28.4111 48.399 28.4111C45.7621 28.4111 43.7007 26.2792 43.7007 23.6342C43.7007 20.9892 45.7621 18.857 48.399 18.857C49.8214 18.857 50.8598 19.4182 51.627 20.1396L52.8895 18.8733C51.8188 17.8472 50.3964 17.0617 48.399 17.0617C44.7872 17.0617 41.751 20.0113 41.751 23.6342C41.751 27.2571 44.7872 30.2065 48.399 30.2065C50.3488 30.2065 51.8189 29.5656 52.9693 28.363C54.1519 27.1767 54.5196 25.5096 54.5196 24.1633C54.5196 23.7462 54.4878 23.3618 54.4235 23.0411H48.399ZM59.3887 28.5394C58.11 28.5394 57.0072 27.4814 57.0072 25.9745C57.0072 24.4516 58.11 23.4096 59.3887 23.4096C60.6669 23.4096 61.7697 24.4516 61.7697 25.9745C61.7697 27.4814 60.6669 28.5394 59.3887 28.5394ZM59.3887 21.7426C57.0552 21.7426 55.1535 23.5219 55.1535 25.9745C55.1535 28.4111 57.0552 30.2065 59.3887 30.2065C61.7217 30.2065 63.6234 28.4111 63.6234 25.9745C63.6234 23.5219 61.7217 21.7426 59.3887 21.7426ZM68.6269 28.5394C67.3487 28.5394 66.2458 27.4814 66.2458 25.9745C66.2458 24.4516 67.3487 23.4096 68.6269 23.4096C69.9052 23.4096 71.008 24.4516 71.008 25.9745C71.008 27.4814 69.9052 28.5394 68.6269 28.5394ZM68.6269 21.7426C66.2936 21.7426 64.3922 23.5219 64.3922 25.9745C64.3922 28.4111 66.2936 30.2065 68.6269 30.2065C70.96 30.2065 72.8617 28.4111 72.8617 25.9745C72.8617 23.5219 70.96 21.7426 68.6269 21.7426Z" fill="#323A48"/>
<path d="M11.4654 32.3281L11.3917 32.2574C11.103 31.951 10.9326 31.4753 10.9326 30.8593V31.0042V8.99828C10.9326 8.99629 10.9326 8.99479 10.9326 8.9932C10.9326 8.99509 10.9326 8.99668 10.9326 8.99867V9.14405C10.9326 8.47698 11.1313 7.9745 11.4642 7.6732L23.7542 20.0011L11.4654 32.3281ZM10.9326 8.99201C10.9326 8.93718 10.9341 8.88395 10.9369 8.83151C10.9341 8.88355 10.9326 8.93718 10.9326 8.99201ZM10.9369 8.82912C10.9369 8.82843 10.9369 8.82763 10.9372 8.82683C10.9369 8.82763 10.9369 8.82843 10.9369 8.82912ZM10.9372 8.82216C10.9372 8.82176 10.9372 8.82136 10.9372 8.82096C10.9372 8.82136 10.9372 8.82176 10.9372 8.82216Z" fill="url(#paint0_linear_211_116853)"/>
<path d="M27.85 24.2578L27.9434 24.2046L32.7969 21.4383C33.2596 21.1744 33.568 20.8545 33.7219 20.516C33.5684 20.8545 33.2599 21.1748 32.7969 21.4387L27.9434 24.205L27.85 24.2578ZM27.8511 24.112L23.7539 20.0014L27.8508 15.8914L32.7969 18.7102C33.425 19.0682 33.7776 19.5296 33.8366 20.001C33.8366 20.0014 33.8366 20.0022 33.8366 20.0029C33.7776 20.4732 33.425 20.935 32.7969 21.2929L27.8511 24.112Z" fill="url(#paint1_linear_211_116853)"/>
<path d="M12.341 32.7969C11.9977 32.7969 11.6981 32.6849 11.4645 32.4735L11.4649 32.4731C11.6985 32.6845 11.9985 32.7969 12.3418 32.7969C12.3716 32.7969 12.4018 32.7961 12.4325 32.7946C12.4014 32.7961 12.3708 32.7969 12.341 32.7969ZM12.3414 32.6511C11.9981 32.6515 11.6985 32.5392 11.4649 32.3277V32.3274L23.7538 20.0004L27.851 24.111L13.4527 32.3173C13.0543 32.5438 12.6769 32.6511 12.3414 32.6511ZM11.4614 32.4708C11.4397 32.451 11.4184 32.43 11.3975 32.4082L11.4614 32.4708Z" fill="url(#paint2_linear_211_116853)"/>
<path d="M23.7539 20L11.4639 7.67214C11.6975 7.4611 11.9966 7.34915 12.3396 7.34915C12.6759 7.34915 13.0537 7.45682 13.4528 7.68378L27.8507 15.8901L23.7539 20ZM27.9434 15.7972L13.4528 7.53851C13.0537 7.31144 12.6759 7.20378 12.3396 7.20378C12.338 7.20378 12.3369 7.20378 12.3353 7.20378C12.3373 7.20378 12.3388 7.20378 12.3411 7.20378C12.6767 7.20378 13.0541 7.31104 13.4528 7.53811L27.9434 15.7972Z" fill="url(#paint3_linear_211_116853)"/>
<path d="M12.4329 32.7949C12.7447 32.777 13.09 32.6693 13.4531 32.463L27.8502 24.2571L13.4531 32.463C13.0903 32.6697 12.7447 32.777 12.4329 32.7949ZM11.4649 32.4738L11.4618 32.4711C11.4629 32.4719 11.4641 32.473 11.4649 32.4738ZM11.3979 32.4086L11.3916 32.4024V32.402C11.394 32.4043 11.3959 32.4066 11.3979 32.4086Z" fill="white"/>
<path d="M27.8506 24.2578L27.944 24.2046L27.8506 24.2578Z" fill="url(#paint4_linear_211_116853)"/>
<path d="M12.3422 32.7969C11.9989 32.7969 11.6989 32.6845 11.4653 32.4731L11.4649 32.4735C11.4641 32.4727 11.4629 32.4716 11.4618 32.4708L11.3979 32.4082C11.3959 32.4062 11.394 32.4039 11.3916 32.4017L11.4653 32.3277C11.6989 32.5392 11.9985 32.6515 12.3418 32.6511C12.6773 32.6511 13.0547 32.5438 13.4531 32.3173L27.8514 24.111L27.9436 24.2035L27.8502 24.2568L13.4531 32.4626C13.09 32.669 12.7447 32.7767 12.4329 32.7946C12.4022 32.7961 12.3719 32.7969 12.3422 32.7969Z" fill="url(#paint5_linear_211_116853)"/>
<path d="M11.3917 32.4023C11.103 32.096 10.9326 31.6203 10.9326 31.0042V31.0038C10.9326 31.6203 11.103 32.0956 11.3917 32.4019V32.4023Z" fill="white"/>
<path d="M11.3917 32.4023C11.103 32.096 10.9326 31.6207 10.9326 31.0042V30.8593C10.9326 31.4753 11.103 31.951 11.3917 32.2574L11.4654 32.3281L11.3917 32.4023Z" fill="url(#paint6_linear_211_116853)"/>
<path d="M11.3916 32.4023L11.4653 32.3281V32.3284L11.3916 32.4023Z" fill="url(#paint7_linear_211_116853)"/>
<path d="M33.7217 20.5156C33.798 20.3477 33.8364 20.1751 33.8364 20.0025C33.8364 20.0022 33.8364 20.0018 33.8364 20.0018C33.8364 20.1747 33.798 20.3473 33.7217 20.5156Z" fill="white"/>
<path d="M27.9438 24.2031L27.8516 24.1106L32.7973 21.2915C33.4254 20.9336 33.7781 20.4718 33.837 20.0014C33.837 20.1741 33.7986 20.3466 33.7223 20.5146C33.5685 20.8531 33.2601 21.173 32.7973 21.4369L27.9438 24.2031Z" fill="url(#paint8_linear_211_116853)"/>
<path d="M33.8369 20V19.9996C33.8365 19.4791 33.4897 18.9587 32.7973 18.5638L27.9438 15.7975H27.9434L27.9438 15.7972L32.7973 18.5634C33.4905 18.9583 33.8377 19.4795 33.8369 20Z" fill="#BDC4D1"/>
<path d="M33.8364 20C33.7775 19.5286 33.4248 19.0672 32.7967 18.7092L27.8506 15.8904L27.9428 15.7979H27.9432L32.7967 18.5642C33.4892 18.9591 33.836 19.4795 33.8364 20Z" fill="url(#paint9_linear_211_116853)"/>
<path d="M10.9326 8.99219C10.9326 8.99179 10.9326 8.99139 10.9326 8.99099C10.9326 8.99139 10.9326 8.99179 10.9326 8.99219ZM10.9369 8.8305C10.9369 8.8297 10.9369 8.82891 10.9369 8.82811C10.9369 8.82891 10.9369 8.8297 10.9369 8.8305ZM10.9372 8.82582C10.9372 8.82423 10.9372 8.82274 10.9372 8.82114C10.9372 8.82274 10.9372 8.82423 10.9372 8.82582ZM10.9372 8.81995C10.9946 7.79776 11.5487 7.20731 12.3326 7.20383C11.9927 7.20582 11.6967 7.31776 11.465 7.52721V7.52682L11.4622 7.5296C11.4378 7.55169 11.4146 7.57507 11.3917 7.59915C11.1313 7.87547 10.967 8.2894 10.9372 8.81995Z" fill="#BDC4D1"/>
<path d="M10.9326 9.14453V8.99916C10.9326 8.99717 10.9326 8.99558 10.9326 8.99369C10.9326 8.99329 10.9326 8.99289 10.9326 8.99249C10.9326 8.93767 10.9341 8.88403 10.9369 8.83199C10.9369 8.8312 10.9369 8.8304 10.9369 8.82961C10.9369 8.82891 10.9369 8.82811 10.9372 8.82732C10.9372 8.82573 10.9372 8.82423 10.9372 8.82264C10.9372 8.82224 10.9372 8.82185 10.9372 8.82145C10.967 8.2909 11.1313 7.87697 11.3917 7.60065L11.4642 7.67369C11.1313 7.97498 10.9326 8.47747 10.9326 9.14453ZM11.4622 7.5311L11.465 7.52831C11.4642 7.52951 11.463 7.5303 11.4622 7.5311Z" fill="url(#paint10_linear_211_116853)"/>
<path d="M27.851 15.8906L13.4531 7.68436C13.0539 7.45739 12.6762 7.34973 12.3398 7.34973C11.9969 7.34973 11.6977 7.46167 11.4641 7.67272L11.3916 7.59968C11.4145 7.5756 11.4377 7.55222 11.4621 7.53013C11.4629 7.52933 11.4641 7.52854 11.4649 7.52774C11.6966 7.31829 11.9926 7.20635 12.3325 7.20436C12.3333 7.20436 12.3343 7.20436 12.3355 7.20436C12.3371 7.20436 12.3382 7.20436 12.3398 7.20436C12.6762 7.20436 13.0539 7.31202 13.4531 7.53908L27.9436 15.7978L27.9432 15.7981L27.851 15.8906Z" fill="url(#paint11_linear_211_116853)"/>
<defs>
<linearGradient id="paint0_linear_211_116853" x1="22.6645" y1="8.76614" x2="5.96556" y2="25.4134" gradientUnits="userSpaceOnUse">
<stop stop-color="#00A0FF"/>
<stop offset="0.00657445" stop-color="#00A1FF"/>
<stop offset="0.2601" stop-color="#00BEFF"/>
<stop offset="0.5122" stop-color="#00D2FF"/>
<stop offset="0.7604" stop-color="#00DFFF"/>
<stop offset="1" stop-color="#00E3FF"/>
</linearGradient>
<linearGradient id="paint1_linear_211_116853" x1="34.6018" y1="20.002" x2="10.5997" y2="20.002" gradientUnits="userSpaceOnUse">
<stop stop-color="#FFE000"/>
<stop offset="0.4087" stop-color="#FFBD00"/>
<stop offset="0.7754" stop-color="#FFA500"/>
<stop offset="1" stop-color="#FF9C00"/>
</linearGradient>
<linearGradient id="paint2_linear_211_116853" x1="25.6668" y1="22.2842" x2="3.02186" y2="44.8592" gradientUnits="userSpaceOnUse">
<stop stop-color="#FF3A44"/>
<stop offset="1" stop-color="#C31162"/>
</linearGradient>
<linearGradient id="paint3_linear_211_116853" x1="8.27843" y1="0.27403" x2="18.3903" y2="10.3547" gradientUnits="userSpaceOnUse">
<stop stop-color="#32A071"/>
<stop offset="0.0685" stop-color="#2DA771"/>
<stop offset="0.4762" stop-color="#15CF74"/>
<stop offset="0.8009" stop-color="#06E775"/>
<stop offset="1" stop-color="#00F076"/>
</linearGradient>
<linearGradient id="paint4_linear_211_116853" x1="34.6024" y1="20.0021" x2="10.6004" y2="20.0021" gradientUnits="userSpaceOnUse">
<stop stop-color="#CCB300"/>
<stop offset="0.4087" stop-color="#CC9700"/>
<stop offset="0.7754" stop-color="#CC8400"/>
<stop offset="1" stop-color="#CC7D00"/>
</linearGradient>
<linearGradient id="paint5_linear_211_116853" x1="25.6672" y1="22.2842" x2="3.02224" y2="44.8592" gradientUnits="userSpaceOnUse">
<stop stop-color="#CC2E36"/>
<stop offset="1" stop-color="#9C0E4E"/>
</linearGradient>
<linearGradient id="paint6_linear_211_116853" x1="22.6645" y1="8.76615" x2="5.96561" y2="25.4135" gradientUnits="userSpaceOnUse">
<stop stop-color="#008DE0"/>
<stop offset="0.00657445" stop-color="#008DE0"/>
<stop offset="0.2601" stop-color="#00A7E0"/>
<stop offset="0.5122" stop-color="#00B8E0"/>
<stop offset="0.7604" stop-color="#00C4E0"/>
<stop offset="1" stop-color="#00C7E0"/>
</linearGradient>
<linearGradient id="paint7_linear_211_116853" x1="25.6676" y1="22.2853" x2="3.0234" y2="44.8608" gradientUnits="userSpaceOnUse">
<stop stop-color="#E0333C"/>
<stop offset="1" stop-color="#AB0F56"/>
</linearGradient>
<linearGradient id="paint8_linear_211_116853" x1="34.6023" y1="20.0005" x2="10.6001" y2="20.0005" gradientUnits="userSpaceOnUse">
<stop stop-color="#E0C500"/>
<stop offset="0.4087" stop-color="#E0A600"/>
<stop offset="0.7754" stop-color="#E09100"/>
<stop offset="1" stop-color="#E08900"/>
</linearGradient>
<linearGradient id="paint9_linear_211_116853" x1="34.6017" y1="20.001" x2="10.5995" y2="20.001" gradientUnits="userSpaceOnUse">
<stop stop-color="#FFE840"/>
<stop offset="0.4087" stop-color="#FFCE40"/>
<stop offset="0.7754" stop-color="#FFBC40"/>
<stop offset="1" stop-color="#FFB540"/>
</linearGradient>
<linearGradient id="paint10_linear_211_116853" x1="22.6645" y1="8.76662" x2="5.9656" y2="25.414" gradientUnits="userSpaceOnUse">
<stop stop-color="#40B8FF"/>
<stop offset="0.00657445" stop-color="#40B9FF"/>
<stop offset="0.2601" stop-color="#40CEFF"/>
<stop offset="0.5122" stop-color="#40DDFF"/>
<stop offset="0.7604" stop-color="#40E7FF"/>
<stop offset="1" stop-color="#40EAFF"/>
</linearGradient>
<linearGradient id="paint11_linear_211_116853" x1="8.27867" y1="0.274604" x2="18.3906" y2="10.3552" gradientUnits="userSpaceOnUse">
<stop stop-color="#65B895"/>
<stop offset="0.0685" stop-color="#62BD95"/>
<stop offset="0.4762" stop-color="#50DB97"/>
<stop offset="0.8009" stop-color="#44ED98"/>
<stop offset="1" stop-color="#40F498"/>
</linearGradient>
</defs>
</svg>
