<?xml version="1.0" encoding="utf-8"?>
<svg xmlns="http://www.w3.org/2000/svg">
    <symbol id="call"><path d="M15 0c8.284 0 15 6.716 15 15 0 8.284-6.716 15-15 15-8.284 0-15-6.716-15-15C0 6.716 6.716 0 15 0Zm0 .8C7.158.8.8 7.158.8 15S7.158 29.2 15 29.2 29.2 22.842 29.2 15 22.842.8 15 .8ZM9.56 6.903c1.317 0 2.788 1.339 3.226 2.7.483 1.333.161 2.686-.886 3.77-.204.197.458 1.519 1.61 2.779 1.193 1.305 2.385 1.994 2.641 1.73.83-.944 2.06-1.338 3.24-1.012 1.48.361 2.936 1.894 3.014 3.43 0 .882-.433 1.586-1.32 2.509l-.51.52c-.989.95-2.695.807-4.537.092-4.149-1.63-7.877-5.588-9.493-10-.698-1.927-.817-3.687.187-4.725.078-.073.16-.154.264-.26.05-.05.24-.248.284-.294.836-.857 1.428-1.24 2.28-1.24Zm0 .902c-.554 0-.982.277-1.666.978l-.285.295a7.71 7.71 0 0 1-.277.273c-.654.676-.555 2.14.028 3.75 1.53 4.174 5.076 7.94 8.985 9.475 1.547.6 2.982.722 3.625.104.067-.07.403-.41.497-.508.735-.764 1.066-1.303 1.067-1.848-.055-1.079-1.215-2.3-2.354-2.578-.875-.242-1.77.045-2.398.758-.819.848-2.362-.044-3.906-1.732-1.514-1.656-2.343-3.313-1.582-4.048.801-.83 1.035-1.812.67-2.82-.334-1.036-1.5-2.099-2.405-2.099ZM15.59 6c4.02 0 7.28 3.287 7.406 7.423l.004.25h-.872c0-3.675-2.796-6.642-6.308-6.766l-.23-.004V6Zm0 3.61c2.109 0 3.817 1.696 3.918 3.858l.005.204h-.872c0-1.698-1.265-3.062-2.877-3.154l-.174-.005V9.61Z" />
    </symbol>
    <symbol id="facebook"><path d="M15 0c8.284 0 15 6.716 15 15 0 8.284-6.716 15-15 15-8.284 0-15-6.716-15-15C0 6.716 6.716 0 15 0Zm0 .8C7.158.8.8 7.158.8 15S7.158 29.2 15 29.2 29.2 22.842 29.2 15 22.842.8 15 .8ZM16.733 6l2.407.004c.475 0 .86.356.86.793V9.41c0 .439-.385.794-.86.794l-1.747.002c-.633.012-.715.134-.715.746v1.2l2.348.001a.91.91 0 0 1 .524.164l.085.07c.162.148.252.35.252.56v2.813c0 .439-.386.794-.862.794h-2.347v6.653c0 .405-.328.739-.753.788l-.108.006H12.66c-.476 0-.862-.355-.862-.794v-6.653H9.86c-.439 0-.801-.303-.854-.694l-.007-.1v-2.813c0-.438.385-.794.861-.794h1.937v-1.496c0-2.73 1.862-4.56 4.708-4.652L16.733 6Zm-.001.89c-2.434 0-3.968 1.451-3.968 3.766v2.386H9.965v2.62l2.799.001v7.447h2.949v-7.447h3.207l.002-2.621h-3.21v-2.09c0-1.12.497-1.638 1.805-1.638l1.517-.001v-2.42l-2.302-.003Z" />
    </symbol>
    <symbol id="help"><path d="M15 0c8.284 0 15 6.716 15 15 0 8.284-6.716 15-15 15-8.284 0-15-6.716-15-15C0 6.716 6.716 0 15 0Zm0 .8C7.158.8.8 7.158.8 15S7.158 29.2 15 29.2 29.2 22.842 29.2 15 22.842.8 15 .8Zm-.51 18.145c.708 0 1.284.193 1.704.59.427.403.636.968.636 1.664 0 .674-.211 1.232-.637 1.644-.424.41-1 .61-1.703.61-.715 0-1.296-.195-1.72-.596-.43-.406-.64-.969-.64-1.658 0-.71.206-1.28.63-1.677.419-.39 1.002-.577 1.73-.577Zm0 .904c-.515 0-.88.117-1.112.334-.226.21-.345.54-.345 1.016 0 .454.122.778.358 1 .241.229.6.349 1.1.349.482 0 .832-.121 1.073-.355.24-.232.361-.553.361-.994 0-.463-.12-.788-.352-1.007-.237-.224-.59-.343-1.083-.343Zm.64-13.301c1.585 0 2.868.379 3.834 1.147.987.786 1.488 1.85 1.488 3.151 0 .86-.204 1.616-.614 2.257-.399.625-1.126 1.297-2.176 2.03l-.333.247-.149.114-.258.21a5.752 5.752 0 0 0-.21.183l-.157.157c-.044.047-.08.09-.106.128-.127.179-.194.43-.194.767v1.088h-3.779v-1.249l.008-.263c.036-.644.203-1.22.5-1.724.333-.564.918-1.139 1.757-1.74.722-.504 1.19-.908 1.396-1.189a1.39 1.39 0 0 0 .276-.846c0-.314-.104-.524-.325-.677-.263-.182-.66-.28-1.197-.28-1.007 0-2.177.327-3.507.99l-.401.2-1.588-3.117.748-.394a10.937 10.937 0 0 1 4.987-1.19Zm0 .904c-1.608 0-3.132.364-4.573 1.09l.049-.023.779 1.527.253-.113c1.079-.47 2.072-.729 2.983-.772l.27-.006c.707 0 1.28.141 1.711.44.472.327.716.817.716 1.42 0 .506-.152.97-.45 1.38-.28.383-.812.84-1.605 1.394-.741.531-1.241 1.023-1.5 1.462-.222.375-.348.811-.376 1.302l-.007.238v.331h1.97v-.183c0-.438.086-.819.263-1.136l.097-.152c.222-.315.69-.72 1.428-1.255l.235-.167c.839-.607 1.407-1.15 1.704-1.613.313-.49.47-1.076.47-1.77 0-1.029-.377-1.83-1.146-2.443-.792-.63-1.877-.95-3.27-.95Z" />
    </symbol>
    <symbol id="instagram"><path d="M15 0c8.284 0 15 6.716 15 15 0 8.284-6.716 15-15 15-8.284 0-15-6.716-15-15C0 6.716 6.716 0 15 0Zm0 .8C7.158.8.8 7.158.8 15S7.158 29.2 15 29.2 29.2 22.842 29.2 15 22.842.8 15 .8ZM21.5 6a2.503 2.503 0 0 1 2.494 2.336L24 8.5v13a2.503 2.503 0 0 1-2.336 2.494L21.5 24h-13a2.503 2.503 0 0 1-2.494-2.336L6 21.5v-13a2.503 2.503 0 0 1 2.336-2.494L8.5 6h13Zm0 1h-13a1.5 1.5 0 0 0-1.493 1.356L7 8.5v13a1.5 1.5 0 0 0 1.356 1.493L8.5 23h13a1.5 1.5 0 0 0 1.493-1.355L23 21.5v-13A1.5 1.5 0 0 0 21.5 7ZM15 10a5 5 0 1 1 0 10 5 5 0 0 1 0-10Zm0 1a4 4 0 1 0 0 8 4 4 0 0 0 0-8Zm5.5-3a1.5 1.5 0 1 1 0 3 1.5 1.5 0 0 1 0-3Zm0 1a.5.5 0 1 0 0 1 .5.5 0 0 0 0-1Z" />
    </symbol>
    <symbol id="linkedin"><path d="M15 0c8.284 0 15 6.716 15 15 0 8.284-6.716 15-15 15-8.284 0-15-6.716-15-15C0 6.716 6.716 0 15 0Zm0 .8C7.158.8.8 7.158.8 15S7.158 29.2 15 29.2 29.2 22.842 29.2 15 22.842.8 15 .8Zm4.728 9.801.301.002c.717.024 1.363.173 1.952.468.882.442 1.52 1.145 1.926 2.086.279.646.428 1.347.471 2.125.006.105.01.21.014.322l.006.356.002 3.048L24.399 22a.4.4 0 0 1-.4.4h-3.605a.4.4 0 0 1-.4-.4v-5.823c0-.423-.055-.784-.177-1.112-.238-.642-.72-.912-1.412-.836-.684.075-1.236.573-1.366 1.22a3.297 3.297 0 0 0-.047.65c-.004 1.919-.005 3.837-.003 5.757v.142a.4.4 0 0 1-.4.4H13a.4.4 0 0 1-.4-.4V11.264c0-.221.18-.4.4-.4h3.587c.221 0 .4.179.4.4v.403l.045-.044a3.68 3.68 0 0 1 1.049-.684l.238-.092a4.624 4.624 0 0 1 1.71-.244l-.301-.002ZM11 10.6c.22 0 .4.18.4.4v11a.4.4 0 0 1-.4.4H7a.4.4 0 0 1-.4-.4V11c0-.22.18-.4.4-.4h4Zm9.002.803a3.832 3.832 0 0 0-1.418.198c-.637.224-1.147.646-1.578 1.282l-.065.092a.4.4 0 0 1-.434.153l-.028-.008a.4.4 0 0 1-.292-.385v-1.072H13.4v9.935h2.789v-2.621l.003-2.88c0-.34.015-.569.062-.805.199-.992 1.036-1.746 2.064-1.859 1.044-.114 1.878.355 2.25 1.353.157.425.226.88.226 1.391V21.6h2.804v-5.439l-.006-.532-.012-.303c-.038-.688-.169-1.298-.408-1.852-.334-.774-.84-1.333-1.549-1.688-.48-.24-1.014-.363-1.621-.383ZM10.6 11.4H7.4v10.2h3.2V11.4ZM9 4.6c1.423 0 2.4.765 2.4 2.15 0 1.385-.977 2.15-2.4 2.15-1.429 0-2.4-.757-2.4-2.15 0-1.393.971-2.15 2.4-2.15Zm0 .8c-1.024 0-1.6.449-1.6 1.35S7.976 8.1 9 8.1c1.018 0 1.6-.456 1.6-1.35 0-.894-.582-1.35-1.6-1.35Z" />
    </symbol>
    <symbol id="mail"><path d="M15 0c8.284 0 15 6.716 15 15 0 8.284-6.716 15-15 15-8.284 0-15-6.716-15-15C0 6.716 6.716 0 15 0Zm0 .8C7.158.8.8 7.158.8 15S7.158 29.2 15 29.2 29.2 22.842 29.2 15 22.842.8 15 .8ZM22.2 9c.994 0 1.8.776 1.8 1.733v9.534c0 .957-.806 1.733-1.8 1.733H7.8c-.994 0-1.8-.776-1.8-1.733v-9.534C6 9.776 6.806 9 7.8 9h14.4Zm.777 1.296L15 17.124l-7.977-6.828a.838.838 0 0 0-.123.437v9.534c0 .085.013.168.037.246l2.896-2.895.648.649-2.85 2.851c.055.01.111.015.169.015h14.34l-2.867-2.866.649-.65 3.067 3.066a.838.838 0 0 0 .111-.416v-9.534a.839.839 0 0 0-.123-.437Zm-.854-.43H7.876L15 15.964l7.123-6.098Z" />
    </symbol>
</svg>