<?xml version="1.0" encoding="utf-8"?>
<svg xmlns="http://www.w3.org/2000/svg">
    <symbol id="add">
        <path d="M9 2v5h5v2H9v5H7V8.999L2 9V7l5-.001V2h2Z"/>
    </symbol>
    <symbol id="alert">
        <path d="M8 0a2 2 0 0 1 1.874 1.3A6 6 0 0 1 14 7v2.075L16 13h-4.126a4.002 4.002 0 0 1-7.748 0H0l2-3.992V7c0-2.66 1.73-4.915 4.126-5.702A2 2 0 0 1 8 0Zm1.732 13H6.268a2 2 0 0 0 3.464 0ZM8 3a4 4 0 0 0-4 4v2.48L3.239 11h9.497L12 9.555V7a4 4 0 0 0-4-4Z"/>
    </symbol>
    <symbol id="back">
        <path d="M5.5 14.865 4.086 13.45l4.95-4.95-4.95-4.95L5.5 2.138 11.864 8.5 5.5 14.865Z"/>
    </symbol>
    <symbol id="clear">
        <path d="M3.464 2.05 8 6.586l4.536-4.536 1.414 1.414L9.414 8l4.536 4.536-1.414 1.414L8 9.414 3.464 13.95 2.05 12.536 6.585 8 2.05 3.464 3.464 2.05Z"/>
    </symbol>
    <symbol id="collapse">
        <path d="m14.864 10.5-1.415 1.414-4.95-4.95-4.949 4.95L2.136 10.5 8.5 4.136l6.364 6.364Z"/>
    </symbol>
    <symbol id="expand">
        <path d="m2.136 6.5 1.415-1.414 4.95 4.95 4.949-4.95L14.864 6.5 8.5 12.864 2.136 6.5Z"/>
    </symbol>
    <symbol id="export">
        <path d="M2 11v2.999h12V11h2v3a2 2 0 0 1-1.85 1.995L14 16H2a2 2 0 0 1-2-2v-3h2ZM9 0v7.585l3.293-3.292 1.414 1.414L8 11.414 2.293 5.707l1.414-1.414L7 7.585V0h2Z"/>
    </symbol>
    <symbol id="forward">
        <path d="m9.5 2.137 1.414 1.414-4.95 4.95 4.95 4.95L9.5 14.864l-4.95-4.95L3.136 8.5 9.5 2.137Z"/>
    </symbol>
    <symbol id="gift">
        <path d="M16 14a2 2 0 0 1-2 2H2a2 2 0 0 1-2-2V6a2 2 0 0 1 2-2l.036.001a3.5 3.5 0 0 1 5.966-2.95 3.5 3.5 0 0 1 5.963 2.95L14 4a2 2 0 0 1 2 2v8ZM2 14h5v-4H2v4Zm12-4H9v4h5v-4Zm0-2V6H9v2h5ZM7 6H2v2h5V6ZM5.5 2a1.5 1.5 0 0 0-1.414 2H7v-.5a1.5 1.5 0 0 0-1.215-1.473l-.14-.02L5.5 2Zm5 0-.145.007a1.5 1.5 0 0 0-1.348 1.349L9 3.5V4h2.914A1.5 1.5 0 0 0 10.5 2Z"/>
    </symbol>
    <symbol id="import">
        <path fill-rule="evenodd" clip-rule="evenodd" d="M8 0.585938L13.7071 6.29304L12.2929 7.70726L9 4.41494V11.0002H7V4.41294L3.70711 7.70726L2.29289 6.29304L8 0.585938ZM0 11.0002H2V13.9992H14V11.0002H16V14.0002C16 14.525 15.7972 15.0037 15.4664 15.3602C15.1386 15.7134 14.6831 15.9494 14.1718 15.9929L14.1508 15.9947L2.00023 16.0002C1.44808 16.0002 0.947168 15.7757 0.585786 15.4144C0.224405 15.053 0 14.5523 0 14.0002V11.0002Z"/>
    </symbol>
    <symbol id="edit">
        <path d="m12.254.922 2.828 2.828a3 3 0 0 1 0 4.243l-7.071 7.07L0 16l.94-8.007L8.01.922a3 3 0 0 1 4.244 0ZM7.173 4.587 2.845 8.916l-.564 4.804 4.807-.562 4.328-4.328-4.243-4.243Zm2.252-2.251-.838.837 4.243 4.243.838-.838a1 1 0 0 0 0-1.414l-2.829-2.828a1 1 0 0 0-1.414 0Z"/>
    </symbol>
    <symbol id="info">
        <path d="M8 0a8 8 0 1 1 0 16A8 8 0 0 1 8 0Zm0 2a6 6 0 1 0 0 12A6 6 0 0 0 8 2Zm1 5v5H7V7h2Zm0-3v2H7V4h2Z"/>
    </symbol>
    <symbol id="mail">
        <path d="M14 2a2 2 0 0 1 2 2v8a2 2 0 0 1-2 2H2a2 2 0 0 1-2-2V4a2 2 0 0 1 2-2h12Zm0 4.201-6 4-6-3.999V12h12V6.201ZM13.697 4H2.303L8 7.798 13.697 4Z"/>
    </symbol>
    <symbol id="search">
        <path d="M7.074 1a6.074 6.074 0 0 1 4.952 9.594L15 13.568 13.568 15l-2.974-2.974A6.074 6.074 0 1 1 7.074 1Zm0 2.025a4.05 4.05 0 1 0 0 8.1 4.05 4.05 0 0 0 0-8.1Z"/>
    </symbol>
    <symbol id="send">
        <path d="m8 0 8 16-7.998-2L0 16 8 0Zm0 4.472-4.267 8.533 2.897-.724L7.966 8l1.528 4.311 2.772.694L8 4.472Z"/>
    </symbol>
    <symbol id="settings">
        <path fill-rule="evenodd" clip-rule="evenodd" d="M5.49338 0.138584C5.59174 0.186604 5.6609 0.246911 5.70711 0.293115C5.88752 0.473532 6 0.724217 6 1.00022V2.00022H15V4.00022H6V5.00022C6 5.27623 5.88752 5.52691 5.70711 5.70733C5.52669 5.88774 5.276 6.00022 5 6.00022C4.724 6.00022 4.47331 5.88774 4.29289 5.70733C4.11248 5.52691 4 5.27623 4 5.00022V4.00022H1V2.00022H4V1.00022C4 0.724217 4.11248 0.473532 4.29289 0.293115C4.56256 0.132402 4.76871 0.0323858 5.18398 0.0589472C5.2904 0.0661047 5.39463 0.0903765 5.49338 0.138584ZM12.4934 5.13858C12.5917 5.1866 12.6609 5.24691 12.7071 5.29311C12.8875 5.47353 13 5.72422 13 6.00022V7.00022H15V9.00022H12.999L13 9.99972C13 10.2757 12.8875 10.5269 12.7071 10.7073C12.5267 10.8877 12.276 11.0002 12 11.0002C11.724 11.0002 11.4733 10.8877 11.2929 10.7073C11.1125 10.5269 11 10.2762 11 10.0002V9.00022H1V7.00022H11V6.00022C11 5.72422 11.1125 5.47353 11.2929 5.29311C11.4971 5.08891 11.9056 5.04023 12.184 5.05895C12.2904 5.0661 12.3946 5.09038 12.4934 5.13858ZM4.49338 10.1386C4.59174 10.1866 4.6609 10.2469 4.70711 10.2931C4.88752 10.4735 5 10.7242 5 11.0002V12.0002H15V14.0002H4.999L5 14.9997C5 15.2757 4.88752 15.5269 4.70711 15.7073C4.52669 15.8877 4.276 16.0002 4 16.0002C3.724 16.0002 3.47331 15.8877 3.29289 15.7073C3.11239 15.5268 3.00014 15.2763 3 15.0002L2.999 14.0002H1V12.0002H3V11.0002C3 10.7242 3.11248 10.4735 3.29289 10.2931C3.4971 10.0889 3.90563 10.0402 4.18398 10.0589C4.2904 10.0661 4.39463 10.0904 4.49338 10.1386Z"/>
    </symbol>
    <symbol id="spinner">
        <path d="M8 1a7 7 0 1 0 6.509 4.42l-1.86.738A5 5 0 1 1 8 3V1Z"/>
    </symbol>
    <symbol id="watch">
        <path d="M8 2c4.003 0 6.67 2 8 6-1.33 4-3.997 6-8 6s-6.67-2-8-6c1.33-4 3.997-6 8-6Zm0 2C5.087 4 3.228 5.245 2.128 8c1.1 2.755 2.96 4 5.872 4s4.772-1.245 5.872-4c-1.1-2.755-2.96-4-5.872-4Zm0 1a3 3 0 1 1 0 6 3 3 0 0 1 0-6Zm0 2a1 1 0 1 0 0 2 1 1 0 0 0 0-2Z"/>
    </symbol>
    <symbol id="reset">
        <path d="M16 0V2L13.2905 1.99899C14.952 3.4649 16 5.61007 16 8C16 12.4183 12.4183 16 8 16C3.58172 16 0 12.4183 0 8C0 4.27209 2.54986 1.13973 6.00064 0.251869L6.00032 2.3413C3.66977 3.16488 2 5.38744 2 8C2 11.3137 4.68629 14 8 14C11.3137 14 14 11.3137 14 8C14 5.77918 12.7934 3.84017 11.0001 2.80273L11 7H9V0H16Z"/>
    </symbol>
    <symbol id="transfer">
        <path d="M12.9997 3.29289C14.1042 3.29289 14.9997 4.18832 14.9997 5.29289V6.99726H12.9997V5.29289H3.82921L5.7071 7.17157L4.29289 8.58579L0 4.29289L4.29289 0L5.7071 1.41421L3.82921 3.29289L12.9997 3.29289Z"/>
        <path d="M2.99968 12.7068C1.89511 12.7068 0.999675 11.8114 0.999675 10.7068L0.999675 9.00244H2.99968V10.7068L12.1701 10.7068L10.2922 8.82812L11.7065 7.41391L15.9993 11.7068L11.7065 15.9997L10.2922 14.5855L12.1701 12.7068H2.99968Z"/>
    </symbol>

    <symbol id="business"><g clip-path="url(#clip0_642_105297)" fill="none" stroke="#FFA126" stroke-width="2"><path d="M13.5 9v6h-11V9a1 1 0 0 0-1-1h-.419l.544-6.94h12.75L14.92 8H14.5a1 1 0 0 0-1 1Z" stroke-linejoin="round"/><path d="M13.877 7.562c-.433-.083-.911.004-1.25.262l-.272.207c-.42.32-.99.5-1.585.5-.594 0-1.164-.18-1.585-.5l-.272-.207c-.512-.39-1.344-.39-1.856 0l-.272.207c-.42.32-.99.5-1.585.5s-1.165-.18-1.585-.5l-.272-.207c-.331-.252-.795-.341-1.22-.268" stroke-linejoin="round"/><path d="M7.5 12.5v3a.5.5 0 0 0 1 0v-3a.5.5 0 0 0-1 0Z" stroke-linecap="round"/></g>
    </symbol>

    <symbol id="location"><path fill-rule="evenodd" clip-rule="evenodd" d="M11.049 6.776a3.05 3.05 0 1 0-6.099 0 3.05 3.05 0 0 0 6.099 0Zm-4.066 0a1.016 1.016 0 1 1 2.033 0 1.016 1.016 0 0 1-2.033 0Z"/><path fill-rule="evenodd" clip-rule="evenodd" d="M6.684 14.882 8 16l1.316-1.118c3.054-2.595 5.121-5.42 5.121-8.445 0-1.902-.71-3.55-1.945-4.713C11.275.577 9.659 0 8 0 6.34 0 4.725.577 3.508 1.724 2.274 2.888 1.562 4.535 1.562 6.437c0 3.025 2.068 5.85 5.122 8.444Zm5.72-8.445c0 2.087-1.457 4.39-4.404 6.895-2.947-2.504-4.405-4.808-4.405-6.895 0-2.753 2.019-4.404 4.405-4.404s4.405 1.651 4.405 4.404Z"/>
    </symbol>
    <symbol id="phone"><g clip-path="url(#a)"><path fill-rule="evenodd" clip-rule="evenodd" d="m13.603 15.164.154-.142 1.825-2.59c.208-.294.242-.679.09-1.006-.14-.303-.283-.604-.448-.894a7.257 7.257 0 0 0-.484-.742c-.343-.46-1.132-1.41-2.361-1.693-.534-.123-1.064-.109-1.36-.09a6.955 6.955 0 0 0-.548.054 2.338 2.338 0 0 0-.855.319l-.25.155c-.4-.099-.807-.27-1.095-.575-.264-.279-.445-.67-.554-1.074A2.387 2.387 0 0 0 8.232 5.5c.005-.114.009-.273.006-.454-.006-.297-.031-.902-.24-1.471-.402-1.099-1.367-1.79-1.815-2.086a8.224 8.224 0 0 0-.738-.433C5.165.91 4.877.782 4.587.657a1.011 1.011 0 0 0-.963.088L1.302 2.3l-.138.139C.357 3.245.216 4.298.234 5.03c.02.775.222 1.57.493 2.296l.003.007c1.362 3.59 4.48 6.811 8.032 8.159l.007.002c.72.27 1.505.47 2.261.502.69.03 1.747-.065 2.573-.832ZM2.578 3.853l1.704-1.141s1.516.668 1.838 1.55c.173.472.106 1.284.106 1.284l-.618.799s.052 1.766 1.21 2.99c1.18 1.247 2.987 1.279 2.987 1.279l.92-.568s.705-.116 1.205 0c.977.225 1.681 1.711 1.681 1.711l-1.368 1.941c-.492.457-1.59.367-2.772-.076-2.99-1.134-5.702-3.916-6.87-6.998-.447-1.19-.523-2.271-.023-2.771Z"/></g><defs><clipPath id="a"><path d="M0 0h16v16H0z"/></clipPath></defs>
    </symbol>
    <symbol id="facebook"><path fill-rule="evenodd" clip-rule="evenodd" d="M9.527 0h.002l3.554.004v4.561h.002l-.005 5.908h-2.269V16H4.83v-5.526H2.916V4.564h1.918c.042-1.189.44-2.337 1.29-3.212C7.031.421 8.257 0 9.527 0ZM6.812 4.72v1.826H4.898v1.946h1.914v5.526h2.017V8.492H11.1l.002-1.945H8.829V4.996c0-.16.013-.303.04-.43.052-.25.16-.44.333-.568a.98.98 0 0 1 .325-.154c.15-.043.329-.064.537-.064h1.038V1.982l-1.575-.001a3.774 3.774 0 0 0-.407.022c-.283.032-.545.1-.783.198-.945.392-1.508 1.286-1.525 2.518Z"/>
    </symbol>
    <symbol id="website"><path fill-rule="evenodd" clip-rule="evenodd" d="M8 0a8 8 0 1 1 0 16A8 8 0 0 1 8 0ZM5.365 2.608A6.008 6.008 0 0 0 2.083 7h1.964c.162-1.727.72-3.227 1.318-4.392Zm5.27 0C11.232 3.773 11.79 5.273 11.953 7h1.964a6.008 6.008 0 0 0-3.282-4.392ZM9.942 7c-.178-1.54-.737-2.88-1.313-3.899a11.995 11.995 0 0 0-.63-.996 12 12 0 0 0-.628.996C6.795 4.121 6.235 5.46 6.058 7h3.884ZM6.058 9h3.884c-.178 1.54-.737 2.88-1.313 3.9a12 12 0 0 1-.63.996 12.003 12.003 0 0 1-.628-.997C6.795 11.88 6.235 10.54 6.058 9ZM4.047 9H2.083a6.008 6.008 0 0 0 3.282 4.392C4.767 12.227 4.209 10.727 4.047 9Zm6.588 4.392c.597-1.165 1.156-2.665 1.318-4.392h1.964a6.007 6.007 0 0 1-3.282 4.392Z" />
    </symbol>
</svg>
